<?xml version="1.0" encoding="UTF-8" standalone="no"?>
<!DOCTYPE svg PUBLIC "-//W3C//DTD SVG 1.1//EN" "http://www.w3.org/Graphics/SVG/1.1/DTD/svg11.dtd">
<svg xmlns="http://www.w3.org/2000/svg" version="1.1" viewBox="0 0 1211 1731" height="108px">
<path fill="none" stroke-width="1.00" stroke="#d9d9d9" vector-effect="non-scaling-stroke" d="
  M 435.58 444.23
  Q 433.84 443.34 430.20 441.54
  Q 409.30 431.21 392.33 415.56
  Q 389.88 413.31 378.02 401.59
  Q 367.50 391.20 357.49 380.37
  A 1.33 1.33 -38.0 0 0 355.77 380.16
  Q 338.01 391.85 317.56 395.07
  Q 292.25 399.05 268.79 392.06
  A 3.29 3.28 -52.3 0 0 266.14 392.40
  Q 249.19 402.73 231.10 401.19
  Q 221.25 400.36 212.04 395.63
  Q 191.31 385.00 184.00 361.50
  Q 180.66 350.75 182.10 339.80
  Q 183.39 329.97 188.61 321.04
  Q 194.77 310.47 205.08 303.10
  Q 217.50 294.21 231.94 289.69
  Q 237.71 287.88 244.09 286.38
  Q 250.17 284.96 256.50 284.22
  Q 258.14 284.03 256.98 282.85
  Q 246.26 271.96 240.66 259.07
  Q 239.76 256.99 239.55 254.73
  Q 239.08 249.83 243.51 250.17
  Q 246.22 250.38 248.70 251.53
  Q 259.19 256.39 268.49 263.14
  A 0.78 0.77 -55.1 0 0 269.59 262.94
  Q 279.73 248.07 295.37 240.44
  Q 306.78 234.89 319.19 232.20
  Q 321.65 231.67 323.99 230.75
  A 1.17 1.16 -5.9 0 0 324.72 229.86
  Q 326.31 220.38 329.86 212.05
  Q 345.08 176.35 382.14 167.13
  Q 385.16 166.37 389.91 165.69
  Q 393.89 165.11 397.75 164.54
  A 0.89 0.89 -15.3 0 0 398.44 163.33
  Q 395.44 155.79 393.50 147.95
  Q 392.52 144.00 393.31 141.52
  Q 394.72 137.09 399.33 139.29
  Q 401.06 140.12 403.90 142.58
  Q 415.84 152.93 425.74 165.38
  Q 426.79 166.70 428.45 166.99
  Q 441.52 169.29 454.05 173.85
  A 1.23 1.23 21.8 0 0 455.59 173.19
  Q 459.82 163.52 464.97 155.51
  Q 485.86 123.01 522.75 113.50
  Q 530.25 111.57 538.88 110.99
  Q 546.93 110.46 555.12 111.35
  Q 576.28 113.66 595.32 123.69
  A 0.44 0.43 18.2 0 0 595.95 123.38
  Q 597.36 114.25 598.92 105.11
  Q 600.04 98.55 600.08 98.40
  Q 600.94 95.05 602.86 92.10
  Q 603.98 90.38 605.68 90.32
  Q 607.07 90.28 608.23 91.68
  Q 609.69 93.45 610.25 95.50
  Q 614.11 109.60 615.76 125.44
  A 0.46 0.45 80.4 0 0 616.31 125.84
  Q 617.83 125.49 619.23 124.81
  Q 621.71 123.60 621.99 123.49
  Q 682.20 99.49 731.63 136.31
  Q 739.51 142.18 746.56 149.58
  Q 757.57 161.14 766.16 174.85
  A 1.16 1.16 50.5 0 0 767.98 175.03
  Q 776.93 165.63 786.36 157.23
  Q 786.42 157.18 789.07 154.72
  Q 792.42 151.61 794.75 151.00
  Q 798.98 149.89 799.00 154.53
  Q 799.01 156.86 798.36 159.10
  Q 796.06 166.96 791.87 175.44
  Q 790.91 177.38 793.05 177.03
  Q 808.27 174.55 822.86 177.61
  Q 833.44 179.82 841.37 184.83
  Q 855.55 193.79 862.28 210.20
  Q 864.61 215.89 866.50 221.76
  A 1.09 1.09 73.4 0 0 867.83 222.48
  Q 879.43 219.27 891.49 218.12
  Q 908.45 216.49 925.08 220.11
  Q 944.85 224.41 959.71 237.85
  A 1.01 1.00 49.0 0 0 960.93 237.94
  Q 967.94 233.35 975.87 230.82
  Q 978.38 230.02 979.72 230.10
  Q 982.31 230.26 982.20 232.84
  Q 982.15 234.11 981.15 235.87
  Q 976.78 243.60 970.69 249.93
  A 2.05 2.04 -38.1 0 0 970.39 252.37
  Q 974.77 259.99 977.00 267.76
  A 1.41 1.41 85.3 0 0 978.19 268.77
  Q 988.83 270.10 999.05 273.86
  Q 1026.38 283.92 1035.21 309.83
  Q 1038.52 319.57 1038.27 329.48
  Q 1037.95 341.87 1032.69 352.94
  Q 1022.03 375.36 999.44 383.94
  Q 980.58 391.10 959.50 387.72
  Q 939.09 384.45 921.32 375.39
  A 2.89 2.88 46.5 0 0 918.83 375.32
  Q 905.42 381.28 892.49 383.69
  Q 864.23 388.95 837.70 376.65
  A 1.57 1.56 42.7 0 0 836.31 376.70
  Q 829.82 380.23 823.77 383.22
  Q 809.55 390.27 800.31 400.06
  Q 790.87 410.07 782.30 420.82
  Q 776.72 427.82 770.05 433.83
  Q 767.65 435.98 770.70 434.93
  Q 785.87 429.71 801.73 429.66
  Q 804.49 429.65 818.73 430.82
  Q 825.61 431.38 835.75 432.00
  Q 881.12 434.75 923.82 429.97
  Q 936.62 428.54 943.74 428.14
  Q 966.48 426.88 989.25 426.75
  Q 999.76 426.69 1009.21 427.59
  Q 1036.56 430.18 1063.46 435.95
  Q 1069.42 437.23 1071.92 442.05
  Q 1073.13 444.39 1071.38 446.35
  Q 1067.12 451.13 1061.25 453.25
  Q 1050.74 457.04 1020.35 464.46
  Q 998.29 469.85 976.51 476.27
  Q 966.55 479.21 953.44 485.19
  Q 947.48 487.90 939.59 490.40
  Q 933.16 492.44 925.29 494.13
  Q 901.96 499.12 877.00 501.00
  Q 849.21 503.09 826.50 503.75
  Q 818.99 503.97 804.52 505.18
  Q 788.94 506.49 774.73 512.95
  Q 769.51 515.32 764.26 517.62
  A 0.74 0.72 78.3 0 0 763.82 518.31
  L 764.01 535.76
  A 0.82 0.82 84.7 0 0 764.97 536.56
  Q 797.38 530.86 829.02 536.65
  Q 847.57 540.04 864.91 549.86
  A 1.44 1.43 46.9 0 0 866.25 549.91
  Q 901.45 532.90 940.75 533.00
  Q 970.37 533.07 998.11 544.86
  Q 1008.54 549.30 1015.54 554.56
  Q 1033.52 568.08 1040.44 589.81
  Q 1042.53 596.38 1042.22 603.77
  Q 1041.92 610.94 1039.17 617.27
  Q 1032.43 632.75 1015.19 638.20
  Q 1008.93 640.17 1002.49 641.45
  Q 971.36 647.63 939.73 644.68
  Q 921.87 643.01 904.99 636.05
  A 1.09 1.09 41.2 0 0 904.06 636.11
  Q 893.75 642.04 882.40 644.39
  Q 873.00 646.34 862.53 646.39
  Q 844.72 646.49 829.07 638.78
  A 3.34 3.34 -41.9 0 0 826.45 638.64
  Q 795.71 649.82 766.72 638.49
  Q 760.77 636.16 754.65 633.43
  A 0.97 0.95 -51.6 0 0 753.69 633.55
  Q 746.69 638.93 738.75 641.43
  Q 735.26 642.53 728.22 643.93
  Q 722.91 644.99 717.50 645.54
  Q 693.55 647.97 669.50 647.01
  Q 661.10 646.67 652.78 645.56
  Q 642.08 644.12 636.29 642.61
  Q 626.55 640.06 617.88 634.83
  A 0.93 0.92 -47.6 0 0 616.85 634.88
  Q 605.02 643.67 590.83 645.44
  Q 566.08 648.52 543.60 636.95
  A 1.65 1.63 -44.6 0 0 542.11 636.95
  Q 529.54 643.38 515.06 645.03
  Q 491.42 647.72 470.93 635.21
  A 1.19 1.18 -39.4 0 0 469.90 635.11
  Q 446.42 643.86 421.73 645.59
  Q 412.55 646.23 401.75 646.11
  Q 375.12 645.82 349.26 639.18
  Q 345.98 638.34 342.32 637.01
  Q 339.14 635.85 335.97 634.67
  A 1.05 1.05 -50.5 0 0 335.07 634.76
  Q 323.29 641.83 310.11 644.84
  Q 299.88 647.18 290.26 646.50
  Q 272.91 645.29 257.55 635.46
  A 1.17 1.16 41.6 0 0 256.19 635.54
  Q 254.48 636.95 253.02 638.14
  Q 251.32 639.54 249.64 640.43
  Q 229.56 651.16 206.92 645.62
  Q 182.75 639.70 170.70 618.03
  Q 164.32 606.56 162.70 593.51
  Q 160.34 574.53 170.06 560.06
  Q 179.57 545.91 197.25 539.25
  Q 212.12 533.65 226.28 532.09
  Q 235.74 531.05 246.23 532.11
  Q 263.82 533.87 280.39 540.51
  Q 285.95 542.74 291.09 544.83
  Q 292.64 545.46 294.19 544.84
  Q 351.88 521.57 410.95 538.18
  Q 422.92 541.55 433.91 547.30
  A 1.47 1.28 -38.9 0 0 435.04 547.34
  L 446.23 543.17
  A 1.04 1.02 -11.2 0 0 446.91 542.18
  L 446.00 519.28
  A 1.63 1.56 -89.1 0 0 444.56 517.73
  Q 435.18 516.98 426.47 515.14
  Q 408.50 511.37 391.10 505.57
  Q 391.03 505.55 381.60 502.11
  Q 367.51 496.97 352.64 495.35
  Q 347.14 494.75 337.33 495.17
  Q 328.24 495.56 322.00 495.25
  Q 276.93 492.98 236.50 477.25
  Q 226.24 473.26 217.77 471.88
  Q 204.79 469.77 191.81 467.71
  Q 186.01 466.79 180.28 465.51
  Q 171.08 463.45 169.72 463.01
  Q 164.46 461.28 160.04 457.71
  Q 155.93 454.39 160.21 451.46
  Q 162.58 449.83 165.40 449.25
  Q 181.15 446.01 196.83 442.41
  Q 209.50 439.51 222.49 439.01
  Q 226.91 438.84 231.32 438.67
  Q 235.41 438.51 240.15 438.07
  Q 265.36 435.72 285.25 436.25
  Q 299.36 436.63 319.09 439.79
  Q 354.21 445.44 389.49 440.95
  Q 412.42 438.04 435.27 444.99
  Q 439.61 446.30 435.58 444.23
  Z
  M 700.17 248.38
  Q 701.05 250.26 701.75 253.00
  Q 710.33 286.85 741.85 297.42
  Q 750.37 300.28 761.39 301.46
  Q 776.49 303.08 790.25 300.75
  Q 797.28 299.56 800.64 303.77
  Q 801.80 305.22 803.40 311.12
  Q 805.31 318.18 809.19 325.06
  Q 820.77 345.64 840.29 357.93
  Q 857.28 368.62 876.77 368.98
  Q 886.27 369.15 896.55 366.55
  Q 906.91 363.93 916.55 359.05
  Q 922.16 356.21 927.40 359.20
  Q 929.74 360.54 929.80 360.57
  Q 943.32 367.32 958.08 370.60
  Q 968.18 372.85 978.50 372.21
  Q 998.80 370.95 1011.09 357.03
  Q 1017.85 349.37 1020.57 339.63
  Q 1024.87 324.19 1017.07 310.19
  Q 1012.97 302.84 1006.28 297.78
  Q 999.59 292.72 991.33 290.15
  Q 982.47 287.39 973.25 286.65
  Q 970.34 286.42 968.90 285.68
  Q 966.75 284.58 965.41 282.66
  Q 964.41 281.21 963.41 276.57
  Q 959.70 259.43 946.19 249.31
  Q 933.27 239.64 916.96 237.12
  Q 908.14 235.75 897.01 236.18
  Q 881.57 236.78 866.75 241.74
  Q 859.90 244.03 855.99 239.59
  Q 854.47 237.86 853.66 233.94
  Q 851.68 224.40 848.69 218.06
  Q 839.19 197.97 816.00 195.24
  Q 805.47 193.99 794.99 195.70
  Q 783.52 197.56 772.50 201.25
  Q 767.33 202.98 763.71 200.72
  Q 761.75 199.49 758.79 194.44
  Q 755.17 188.25 751.26 182.22
  Q 740.29 165.28 724.42 152.83
  Q 699.61 133.34 668.74 132.91
  Q 658.74 132.76 648.87 134.78
  Q 632.04 138.22 617.07 147.12
  Q 614.61 148.58 612.00 149.76
  Q 608.57 151.31 605.13 149.79
  Q 603.18 148.94 600.19 146.81
  Q 582.33 134.13 560.25 130.50
  Q 539.55 127.10 519.54 134.82
  Q 510.12 138.46 501.97 144.25
  Q 487.19 154.73 478.25 170.50
  Q 474.12 177.79 470.21 187.57
  Q 468.82 191.05 467.44 192.39
  Q 465.19 194.57 462.09 194.73
  Q 459.91 194.84 454.62 192.82
  Q 437.59 186.29 422.44 184.06
  Q 407.36 181.84 395.75 183.50
  Q 359.48 188.68 346.10 223.44
  Q 343.58 229.98 343.50 239.25
  Q 343.47 243.09 340.72 245.50
  Q 339.03 246.99 334.86 248.05
  Q 327.40 249.94 319.95 251.85
  Q 309.72 254.46 305.30 256.42
  Q 283.39 266.13 277.74 290.37
  Q 276.42 296.05 275.57 297.42
  Q 273.32 301.03 268.75 301.50
  Q 246.50 303.79 228.61 311.68
  Q 217.06 316.78 209.44 325.44
  Q 203.47 332.22 201.72 340.87
  Q 200.12 348.78 202.67 357.50
  Q 207.70 374.73 224.51 382.24
  Q 229.28 384.37 233.73 384.94
  Q 238.70 385.58 243.44 384.69
  Q 253.64 382.76 262.63 376.41
  Q 266.00 374.04 269.00 375.00
  Q 300.42 385.11 330.43 375.05
  Q 342.59 370.98 350.94 363.94
  Q 367.41 350.05 368.96 327.50
  Q 369.46 320.17 368.50 311.00
  Q 367.45 300.99 374.87 300.37
  Q 376.74 300.21 384.87 302.13
  Q 411.57 308.41 435.69 295.94
  Q 446.39 290.40 454.00 280.04
  Q 457.34 275.50 458.72 274.62
  Q 462.13 272.44 466.50 274.00
  Q 484.12 280.30 501.50 276.76
  Q 514.38 274.14 524.94 268.44
  Q 542.47 258.98 557.37 244.49
  Q 561.80 240.19 563.45 239.46
  Q 567.69 237.60 572.06 240.94
  Q 585.50 251.18 597.60 256.86
  Q 613.41 264.27 630.51 264.93
  Q 640.10 265.30 650.34 263.02
  Q 670.13 258.60 687.15 247.08
  Q 687.23 247.03 688.79 245.86
  Q 692.89 242.80 696.94 244.94
  Q 699.08 246.07 700.17 248.38
  Z
  M 565.24 363.89
  Q 566.27 365.33 566.14 363.57
  Q 563.43 326.64 569.49 289.50
  Q 571.41 277.73 573.55 265.72
  A 1.30 1.23 -69.6 0 0 573.00 264.42
  L 567.56 261.05
  A 1.19 1.13 -50.7 0 0 566.14 261.23
  Q 543.97 282.97 514.21 292.63
  Q 512.55 293.17 511.31 293.27
  Q 509.52 293.42 510.74 294.74
  Q 527.13 312.46 542.26 331.25
  Q 550.40 341.37 554.94 348.56
  Q 559.84 356.33 565.24 363.89
  Z
  M 630.70 283.20
  A 0.55 0.54 82.5 0 0 630.18 283.88
  Q 635.43 305.38 638.25 326.75
  Q 640.61 344.68 639.76 359.02
  Q 639.75 359.27 639.79 359.46
  Q 640.03 360.60 640.41 359.27
  Q 648.31 331.64 666.19 309.19
  Q 680.90 290.72 691.89 279.85
  A 0.73 0.69 -35.0 0 0 692.06 279.05
  L 687.36 268.91
  A 1.12 1.10 -27.2 0 0 685.80 268.43
  Q 660.46 282.71 630.70 283.20
  Z
  M 615.18 364.70
  Q 617.59 364.81 621.02 365.08
  A 0.94 0.94 4.5 0 0 622.04 364.21
  Q 624.13 338.68 619.50 313.21
  Q 617.80 303.87 616.48 298.30
  Q 614.74 291.01 612.05 283.72
  A 2.26 1.99 1.9 0 0 610.72 282.47
  L 593.02 276.25
  A 0.45 0.43 16.3 0 0 592.44 276.55
  Q 582.52 316.45 585.50 357.50
  Q 585.64 359.38 586.94 364.70
  A 0.59 0.59 80.8 0 0 587.56 365.15
  Q 601.35 364.08 615.18 364.70
  Z
  M 657.07 372.54
  Q 672.99 379.37 687.63 387.33
  A 0.67 0.66 -53.3 0 0 688.41 387.21
  Q 701.34 374.12 705.19 356.20
  Q 706.43 350.41 706.44 350.33
  Q 707.17 347.23 707.82 344.11
  Q 709.08 338.09 710.08 335.01
  Q 713.98 322.85 721.18 311.40
  A 1.30 1.29 -59.5 0 0 720.71 309.57
  Q 711.09 304.34 703.14 296.12
  A 0.85 0.85 48.4 0 0 702.00 296.05
  Q 699.17 298.28 697.36 300.11
  Q 681.02 316.74 669.32 336.90
  Q 659.98 352.98 656.47 371.42
  A 1.01 1.00 17.1 0 0 657.07 372.54
  Z
  M 517.70 389.78
  A 0.78 0.77 -35.7 0 0 518.71 389.94
  Q 533.87 380.50 549.90 373.94
  A 0.68 0.68 -26.4 0 0 550.23 372.96
  Q 526.05 333.12 493.54 299.18
  A 1.15 1.13 67.2 0 0 492.69 298.82
  Q 483.44 298.95 474.80 297.40
  Q 473.63 297.19 474.30 298.17
  Q 482.93 310.71 487.90 325.07
  Q 495.92 348.25 505.85 370.67
  Q 510.53 381.23 517.70 389.78
  Z
  M 386.38 337.44
  Q 411.14 353.52 438.82 364.43
  Q 450.20 368.92 461.60 373.36
  Q 482.65 381.55 499.72 396.28
  Q 500.22 396.71 500.40 396.40
  A 0.77 0.48 46.3 0 0 500.25 395.67
  Q 491.43 384.17 486.11 370.67
  Q 479.26 353.30 472.60 335.84
  Q 466.19 319.04 456.56 303.28
  A 0.75 0.75 -34.7 0 0 455.45 303.08
  Q 425.09 327.35 386.57 322.01
  A 0.65 0.64 -88.2 0 0 385.84 322.70
  Q 386.32 328.55 385.42 335.35
  A 2.15 2.15 -69.7 0 0 386.38 337.44
  Z
  M 707.96 391.00
  Q 705.17 394.03 708.50 391.54
  Q 714.95 386.03 722.32 381.82
  Q 745.31 368.69 767.86 354.81
  Q 780.80 346.84 793.66 339.35
  A 0.74 0.72 -29.9 0 0 793.94 338.36
  Q 789.58 330.55 787.05 323.14
  A 1.71 1.70 -12.4 0 0 785.26 322.00
  Q 761.68 324.42 738.25 317.53
  A 1.06 1.05 -66.3 0 0 737.05 318.00
  Q 727.15 334.62 723.04 353.31
  Q 721.14 362.00 720.00 366.00
  Q 716.16 379.55 707.96 391.00
  Z
  M 715.48 406.87
  Q 729.83 420.17 740.09 436.81
  A 0.54 0.54 59.7 0 0 740.81 437.00
  Q 750.06 432.00 757.39 424.65
  Q 770.72 411.28 783.05 396.99
  Q 789.99 388.94 793.99 385.50
  Q 800.04 380.31 806.94 376.19
  Q 813.85 372.08 821.29 367.79
  A 0.46 0.46 -41.4 0 0 821.34 367.02
  Q 811.90 359.92 804.18 350.96
  A 0.75 0.75 -35.8 0 0 803.23 350.81
  Q 792.50 357.25 782.94 363.94
  Q 773.16 370.78 742.93 387.63
  Q 728.85 395.49 715.54 405.72
  A 0.75 0.75 -42.0 0 0 715.48 406.87
  Z
  M 391.80 394.98
  Q 401.59 404.05 414.44 413.56
  Q 440.12 432.58 468.96 441.29
  A 0.65 0.64 24.4 0 0 469.70 441.02
  Q 480.06 424.76 493.16 410.62
  A 0.47 0.46 -49.1 0 0 493.12 409.94
  Q 479.24 398.88 463.94 392.06
  Q 449.68 385.71 427.82 376.72
  Q 415.44 371.63 409.52 368.68
  Q 394.94 361.39 381.82 352.08
  A 0.68 0.68 26.9 0 0 380.78 352.42
  Q 377.35 362.51 371.09 372.38
  A 0.93 0.93 41.4 0 0 371.16 373.47
  Q 375.95 379.34 381.10 384.61
  Q 385.86 389.47 391.80 394.98
  Z
  M 463.30 541.96
  Q 463.21 542.33 463.40 542.64
  A 0.87 0.62 -19.1 0 0 464.24 542.89
  Q 487.75 537.55 511.76 537.36
  Q 523.01 537.27 531.73 537.91
  Q 545.37 538.91 558.68 542.33
  Q 571.71 545.68 584.01 553.76
  A 1.27 1.25 47.7 0 0 585.30 553.83
  Q 623.65 533.76 666.52 537.27
  Q 696.27 539.72 722.41 554.34
  A 1.36 1.36 46.8 0 0 723.67 554.38
  Q 735.04 548.97 747.33 545.40
  A 1.89 1.88 85.8 0 0 748.68 543.83
  Q 753.69 504.11 739.22 468.22
  Q 735.48 458.92 730.45 450.25
  Q 715.10 423.75 690.94 406.56
  Q 648.52 376.39 594.77 380.23
  Q 564.39 382.39 538.31 396.31
  Q 496.47 418.65 475.60 461.83
  Q 466.20 481.30 463.00 503.75
  Q 460.27 522.92 463.41 541.00
  Q 463.46 541.27 463.30 541.96
  Z
  M 866.56 449.94
  Q 845.41 449.53 818.00 448.60
  Q 805.42 448.17 798.02 448.95
  Q 776.09 451.27 755.08 460.31
  A 0.78 0.78 -21.6 0 0 754.65 461.30
  Q 761.28 479.09 764.00 497.48
  A 0.52 0.51 83.5 0 0 764.55 497.92
  Q 767.48 497.71 770.38 496.88
  Q 771.85 496.46 775.89 494.72
  Q 793.16 487.28 812.01 487.43
  Q 817.95 487.48 818.00 487.48
  Q 861.08 487.02 903.68 480.66
  Q 920.06 478.21 935.93 473.68
  Q 941.01 472.24 954.88 467.26
  Q 985.60 456.25 1017.71 450.06
  Q 1020.86 449.45 1024.16 448.71
  Q 1025.22 448.48 1024.38 447.79
  Q 1023.50 447.06 1022.26 446.95
  Q 1021.02 446.84 1020.88 446.82
  Q 1006.60 444.39 992.16 444.77
  Q 981.96 445.04 981.84 445.05
  Q 975.70 445.12 969.56 445.28
  Q 969.42 445.29 955.44 445.56
  Q 942.78 445.80 930.19 447.08
  Q 913.87 448.74 910.28 448.96
  Q 888.00 450.35 866.56 449.94
  Z
  M 256.68 466.35
  Q 292.87 477.31 330.59 478.61
  Q 334.35 478.74 342.40 478.28
  Q 349.48 477.88 354.25 478.50
  Q 372.27 480.83 392.15 487.71
  Q 407.73 493.09 408.57 493.35
  Q 416.87 495.93 425.27 498.16
  Q 435.45 500.85 446.53 501.87
  A 0.66 0.66 6.5 0 0 447.24 501.31
  Q 449.49 486.36 453.31 471.80
  A 0.83 0.81 -62.0 0 0 453.07 470.98
  Q 442.13 461.25 427.74 458.05
  Q 413.35 454.85 398.72 456.13
  Q 391.82 456.74 391.77 456.74
  Q 354.18 459.22 316.70 455.97
  Q 314.66 455.79 296.84 453.68
  Q 281.14 451.82 269.25 452.00
  Q 262.80 452.10 241.75 453.49
  Q 236.42 453.85 226.73 454.01
  Q 219.21 454.14 211.70 454.73
  Q 211.48 454.75 211.33 454.84
  Q 210.71 455.19 211.53 455.36
  Q 221.95 457.53 232.49 459.04
  Q 237.26 459.73 244.50 462.50
  Q 246.49 463.26 256.68 466.35
  Z
  M 342.38 617.38
  Q 346.64 621.22 352.56 622.69
  Q 393.39 632.78 434.49 625.96
  Q 443.88 624.41 452.78 621.08
  Q 456.72 619.61 459.17 616.75
  A 1.30 1.30 49.5 0 0 459.29 615.22
  Q 451.24 602.10 444.86 589.10
  Q 436.60 572.29 421.46 562.58
  Q 413.68 557.59 403.25 554.52
  Q 393.00 551.50 381.75 550.50
  Q 344.85 547.21 311.07 560.33
  Q 309.69 560.87 308.79 561.83
  A 0.64 0.64 52.0 0 0 308.70 562.58
  Q 312.06 568.28 314.58 573.61
  Q 322.12 589.55 331.52 604.47
  Q 336.06 611.68 342.38 617.38
  Z
  M 263.19 612.81
  Q 270.02 619.01 271.37 620.14
  Q 278.82 626.34 287.90 628.32
  Q 295.94 630.08 304.15 628.92
  Q 312.24 627.78 319.78 623.34
  Q 322.16 621.94 320.57 619.68
  Q 317.96 615.97 314.99 610.59
  Q 308.05 598.02 300.26 585.98
  Q 296.03 579.45 292.67 575.48
  Q 288.47 570.50 283.64 566.12
  Q 265.71 549.84 241.25 549.75
  Q 223.51 549.69 206.82 555.60
  Q 199.36 558.25 193.62 563.26
  Q 187.91 568.23 184.86 575.29
  Q 180.85 584.57 182.09 594.51
  Q 183.24 603.69 188.83 611.99
  Q 200.35 629.11 223.25 630.25
  Q 229.11 630.54 236.81 628.06
  Q 242.90 626.11 246.37 620.38
  A 0.76 0.75 -47.8 0 0 246.33 619.53
  Q 238.81 609.75 230.82 600.94
  Q 227.54 597.32 221.50 596.00
  Q 217.79 595.19 216.83 591.83
  Q 216.06 589.11 217.41 586.29
  Q 219.21 582.55 223.30 581.84
  Q 226.25 581.34 230.04 582.83
  Q 235.43 584.94 239.69 589.06
  Q 249.80 598.83 259.31 609.19
  Q 259.86 609.80 263.19 612.81
  Z
  M 1012.90 575.85
  Q 999.01 562.10 980.20 556.52
  Q 956.61 549.52 931.99 551.05
  Q 916.13 552.04 900.70 555.81
  Q 891.29 558.11 882.05 562.56
  A 0.69 0.69 62.4 0 0 881.75 563.52
  Q 890.73 579.69 898.77 595.33
  Q 905.05 607.55 914.61 617.40
  Q 918.70 621.61 923.06 622.94
  Q 949.71 631.04 979.50 629.66
  Q 991.11 629.13 1005.50 625.00
  Q 1015.72 622.07 1022.44 615.43
  Q 1025.31 612.60 1026.09 609.15
  Q 1027.22 604.16 1025.81 598.69
  Q 1022.34 585.19 1012.90 575.85
  Z
  M 489.19 622.56
  Q 493.82 626.60 499.29 628.38
  Q 512.21 632.58 524.77 627.55
  Q 527.52 626.45 530.01 624.14
  A 2.07 2.06 -38.4 0 0 530.32 621.48
  Q 524.12 612.27 516.63 603.64
  Q 512.83 599.27 508.11 595.91
  Q 505.86 594.31 503.96 592.29
  Q 499.42 587.43 503.14 583.01
  Q 504.28 581.66 505.80 581.04
  Q 507.54 580.32 509.19 580.56
  Q 516.16 581.58 521.79 586.97
  Q 526.55 591.53 528.94 594.56
  Q 539.85 608.44 551.86 621.38
  Q 556.52 626.40 562.96 628.75
  Q 581.54 635.55 599.92 628.38
  Q 604.30 626.67 605.16 622.25
  A 1.36 1.23 37.5 0 0 604.99 621.32
  Q 598.96 611.31 594.08 600.68
  Q 588.47 588.47 582.44 580.06
  Q 568.17 560.18 543.37 554.70
  Q 524.40 550.51 505.00 551.94
  Q 477.05 553.99 450.58 563.48
  A 0.49 0.49 -26.5 0 0 450.33 564.22
  Q 460.39 579.15 469.16 593.88
  Q 475.18 604.00 481.58 613.88
  Q 484.61 618.57 489.19 622.56
  Z
  M 775.69 621.31
  Q 790.27 633.88 809.72 628.88
  Q 814.04 627.77 816.89 624.49
  A 1.23 1.23 49.7 0 0 817.01 623.02
  Q 811.16 613.64 803.90 605.34
  Q 799.95 600.81 794.88 597.59
  Q 792.44 596.04 790.75 593.25
  Q 789.54 591.25 789.78 589.21
  Q 789.99 587.41 791.55 585.77
  Q 795.56 581.52 801.79 584.25
  Q 808.10 587.02 812.06 591.94
  Q 822.18 604.51 829.95 613.61
  Q 837.42 622.37 839.12 623.82
  Q 844.49 628.37 851.75 630.01
  Q 862.38 632.42 873.26 631.70
  Q 880.86 631.20 887.73 627.97
  Q 890.68 626.58 891.34 623.56
  A 1.52 1.35 41.7 0 0 891.23 622.62
  Q 888.52 616.94 885.74 611.30
  Q 885.66 611.16 881.54 602.50
  Q 877.71 594.45 872.56 586.19
  Q 859.52 565.26 836.24 557.78
  Q 816.39 551.42 797.50 552.25
  Q 768.76 553.52 740.82 563.50
  A 0.46 0.46 67.5 0 0 740.56 564.13
  Q 749.48 582.54 760.02 600.17
  Q 765.70 609.69 766.89 611.42
  Q 770.85 617.14 775.69 621.31
  Z
  M 674.25 554.21
  Q 671.36 553.16 668.25 553.79
  Q 632.24 550.57 597.39 563.76
  Q 595.21 564.58 596.39 566.60
  Q 598.79 570.68 601.39 576.08
  Q 608.22 590.24 616.20 603.78
  Q 621.50 612.79 629.01 619.99
  Q 630.63 621.54 632.28 622.69
  Q 634.72 624.39 636.00 624.75
  Q 668.08 633.68 701.11 631.55
  Q 711.90 630.85 719.35 629.65
  Q 728.44 628.19 737.22 625.28
  Q 741.78 623.76 746.00 620.47
  A 1.63 1.63 55.1 0 0 746.38 618.32
  Q 744.02 614.52 741.62 610.43
  Q 739.62 607.01 737.31 602.28
  Q 731.66 590.71 728.19 585.31
  Q 715.23 565.21 692.25 558.25
  Q 683.40 555.57 674.25 554.21
  Z"
/>
<path fill="none" stroke-width="1.00" stroke="#d9d9d9" vector-effect="non-scaling-stroke" d="
  M 696.94 244.94
  Q 692.89 242.80 688.79 245.86
  Q 687.23 247.03 687.15 247.08
  Q 670.13 258.60 650.34 263.02
  Q 640.10 265.30 630.51 264.93
  Q 613.41 264.27 597.60 256.86
  Q 585.50 251.18 572.06 240.94
  Q 567.69 237.60 563.45 239.46
  Q 561.80 240.19 557.37 244.49
  Q 542.47 258.98 524.94 268.44
  Q 514.38 274.14 501.50 276.76
  Q 484.12 280.30 466.50 274.00
  Q 462.13 272.44 458.72 274.62
  Q 457.34 275.50 454.00 280.04
  Q 446.39 290.40 435.69 295.94
  Q 411.57 308.41 384.87 302.13
  Q 376.74 300.21 374.87 300.37
  Q 367.45 300.99 368.50 311.00
  Q 369.46 320.17 368.96 327.50
  Q 367.41 350.05 350.94 363.94
  Q 342.59 370.98 330.43 375.05
  Q 300.42 385.11 269.00 375.00
  Q 266.00 374.04 262.63 376.41
  Q 253.64 382.76 243.44 384.69
  Q 238.70 385.58 233.73 384.94
  Q 229.28 384.37 224.51 382.24
  Q 207.70 374.73 202.67 357.50
  Q 200.12 348.78 201.72 340.87
  Q 203.47 332.22 209.44 325.44
  Q 217.06 316.78 228.61 311.68
  Q 246.50 303.79 268.75 301.50
  Q 273.32 301.03 275.57 297.42
  Q 276.42 296.05 277.74 290.37
  Q 283.39 266.13 305.30 256.42
  Q 309.72 254.46 319.95 251.85
  Q 327.40 249.94 334.86 248.05
  Q 339.03 246.99 340.72 245.50
  Q 343.47 243.09 343.50 239.25
  Q 343.58 229.98 346.10 223.44
  Q 359.48 188.68 395.75 183.50
  Q 407.36 181.84 422.44 184.06
  Q 437.59 186.29 454.62 192.82
  Q 459.91 194.84 462.09 194.73
  Q 465.19 194.57 467.44 192.39
  Q 468.82 191.05 470.21 187.57
  Q 474.12 177.79 478.25 170.50
  Q 487.19 154.73 501.97 144.25
  Q 510.12 138.46 519.54 134.82
  Q 539.55 127.10 560.25 130.50
  Q 582.33 134.13 600.19 146.81
  Q 603.18 148.94 605.13 149.79
  Q 608.57 151.31 612.00 149.76
  Q 614.61 148.58 617.07 147.12
  Q 632.04 138.22 648.87 134.78
  Q 658.74 132.76 668.74 132.91
  Q 699.61 133.34 724.42 152.83
  Q 740.29 165.28 751.26 182.22
  Q 755.17 188.25 758.79 194.44
  Q 761.75 199.49 763.71 200.72
  Q 767.33 202.98 772.50 201.25
  Q 783.52 197.56 794.99 195.70
  Q 805.47 193.99 816.00 195.24
  Q 839.19 197.97 848.69 218.06
  Q 851.68 224.40 853.66 233.94
  Q 854.47 237.86 855.99 239.59
  Q 859.90 244.03 866.75 241.74
  Q 881.57 236.78 897.01 236.18
  Q 908.14 235.75 916.96 237.12
  Q 933.27 239.64 946.19 249.31
  Q 959.70 259.43 963.41 276.57
  Q 964.41 281.21 965.41 282.66
  Q 966.75 284.58 968.90 285.68
  Q 970.34 286.42 973.25 286.65
  Q 982.47 287.39 991.33 290.15
  Q 999.59 292.72 1006.28 297.78
  Q 1012.97 302.84 1017.07 310.19
  Q 1024.87 324.19 1020.57 339.63
  Q 1017.85 349.37 1011.09 357.03
  Q 998.80 370.95 978.50 372.21
  Q 968.18 372.85 958.08 370.60
  Q 943.32 367.32 929.80 360.57
  Q 929.74 360.54 927.40 359.20
  Q 922.16 356.21 916.55 359.05
  Q 906.91 363.93 896.55 366.55
  Q 886.27 369.15 876.77 368.98
  Q 857.28 368.62 840.29 357.93
  Q 820.77 345.64 809.19 325.06
  Q 805.31 318.18 803.40 311.12
  Q 801.80 305.22 800.64 303.77
  Q 797.28 299.56 790.25 300.75
  Q 776.49 303.08 761.39 301.46
  Q 750.37 300.28 741.85 297.42
  Q 710.33 286.85 701.75 253.00
  Q 701.05 250.26 700.17 248.38
  Q 699.08 246.07 696.94 244.94
  Z
  M 498.19 171.44
  Q 495.14 174.68 492.98 177.59
  Q 490.51 180.94 490.53 183.97
  Q 490.55 187.86 493.31 190.94
  Q 497.33 195.42 501.07 192.82
  Q 501.33 192.65 505.67 187.91
  Q 516.22 176.41 528.81 170.56
  Q 551.18 160.18 574.10 171.62
  Q 579.36 174.25 584.55 177.59
  Q 586.32 178.73 587.85 177.30
  Q 592.50 173.00 591.94 166.43
  Q 591.77 164.38 590.58 163.03
  Q 589.55 161.84 587.81 160.44
  Q 572.10 147.68 553.23 146.71
  Q 543.73 146.22 533.53 149.29
  Q 513.32 155.35 498.19 171.44
  Z
  M 615.05 173.55
  Q 612.11 176.69 612.00 180.00
  Q 611.74 187.80 617.88 192.49
  A 1.70 1.70 -52.8 0 0 620.27 192.16
  Q 623.01 188.51 626.20 185.48
  Q 629.23 182.60 633.28 180.12
  Q 651.28 169.06 672.99 170.57
  Q 695.61 172.15 711.44 185.56
  Q 724.10 196.29 731.94 210.31
  Q 733.46 213.04 735.59 212.23
  Q 736.26 211.98 738.53 210.37
  Q 746.50 204.73 740.87 195.66
  Q 734.39 185.22 725.64 176.61
  Q 704.42 155.71 674.49 153.59
  Q 659.48 152.52 645.28 156.49
  Q 635.74 159.15 629.01 162.77
  Q 621.23 166.96 615.05 173.55
  Z
  M 359.01 255.94
  Q 362.11 257.73 365.40 257.30
  Q 367.24 257.05 367.75 255.26
  Q 371.06 243.48 377.75 233.28
  Q 384.32 223.27 394.25 217.75
  Q 404.36 212.13 416.50 213.06
  Q 425.32 213.73 434.29 217.22
  Q 436.61 218.12 438.47 216.47
  Q 443.32 212.14 441.86 204.93
  Q 441.27 201.99 438.06 201.19
  Q 422.89 197.37 408.51 198.58
  Q 387.28 200.37 372.19 215.19
  Q 360.68 226.48 356.21 243.48
  Q 354.93 248.36 355.00 249.96
  Q 355.18 253.74 359.01 255.94
  Z
  M 776.26 215.08
  Q 773.44 219.62 774.66 224.77
  Q 775.33 227.64 777.67 228.31
  Q 779.04 228.71 781.75 227.85
  Q 792.65 224.40 800.81 224.06
  Q 819.58 223.29 827.26 241.00
  Q 829.20 245.47 830.06 246.44
  Q 831.71 248.27 834.26 247.86
  Q 836.21 247.54 837.95 246.08
  Q 842.01 242.68 840.23 236.80
  Q 834.13 216.66 815.85 211.42
  Q 807.49 209.02 796.49 209.96
  Q 786.63 210.81 777.30 214.23
  A 2.01 2.01 -84.1 0 0 776.26 215.08
  Z
  M 868.69 274.31
  Q 869.98 275.68 871.74 275.03
  Q 882.43 271.07 893.01 270.45
  Q 911.77 269.35 925.19 280.96
  Q 928.74 284.03 932.36 288.95
  Q 935.55 293.29 938.30 297.95
  Q 941.20 302.84 945.56 300.06
  Q 949.36 297.65 949.87 293.27
  Q 950.20 290.33 948.45 285.95
  Q 941.02 267.45 923.94 259.06
  Q 902.04 248.31 877.23 256.43
  Q 873.81 257.55 870.83 259.44
  Q 867.42 261.61 866.28 264.55
  Q 864.30 269.65 868.69 274.31
  Z
  M 293.69 304.31
  Q 297.29 306.87 300.98 305.39
  A 1.70 1.56 -82.8 0 0 301.71 304.77
  Q 302.95 302.84 303.78 300.70
  Q 305.30 296.79 305.69 296.06
  Q 314.68 279.37 334.60 277.99
  Q 336.81 277.84 337.93 275.94
  Q 340.47 271.65 339.18 266.46
  Q 338.71 264.53 337.25 263.87
  Q 335.79 263.21 333.75 263.25
  Q 319.00 263.53 307.39 271.12
  Q 294.11 279.80 290.52 294.97
  Q 289.78 298.12 290.40 300.04
  Q 291.21 302.55 293.69 304.31
  Z
  M 964.08 317.46
  A 3.70 3.68 66.5 0 0 966.77 318.53
  Q 973.38 318.34 978.93 319.36
  Q 988.20 321.07 991.53 328.86
  Q 992.84 331.90 993.15 336.82
  Q 993.40 340.69 993.20 345.00
  Q 993.10 347.24 995.12 348.21
  Q 999.16 350.14 1003.78 347.99
  Q 1006.30 346.82 1007.00 343.25
  Q 1009.99 327.93 1002.18 317.13
  Q 996.91 309.83 988.04 306.12
  Q 979.41 302.52 969.60 303.49
  Q 966.27 303.82 965.43 304.13
  Q 963.25 304.93 962.33 307.40
  Q 960.09 313.45 964.08 317.46
  Z
  M 273.05 315.18
  Q 271.50 314.14 269.64 313.99
  Q 246.50 312.16 227.50 325.28
  Q 215.65 333.46 212.88 347.07
  Q 211.80 352.37 212.71 355.43
  Q 214.07 359.99 219.33 361.77
  Q 223.45 363.17 224.12 358.93
  Q 225.13 352.62 228.39 347.16
  Q 238.60 330.11 258.51 328.08
  Q 266.05 327.31 271.75 327.50
  Q 275.62 327.63 276.77 324.91
  Q 277.67 322.80 276.80 320.06
  Q 275.86 317.07 273.05 315.18
  Z"
/>
<path fill="none" stroke-width="1.00" stroke="#d9d9d9" vector-effect="non-scaling-stroke" d="
  M 498.19 171.44
  Q 513.32 155.35 533.53 149.29
  Q 543.73 146.22 553.23 146.71
  Q 572.10 147.68 587.81 160.44
  Q 589.55 161.84 590.58 163.03
  Q 591.77 164.38 591.94 166.43
  Q 592.50 173.00 587.85 177.30
  Q 586.32 178.73 584.55 177.59
  Q 579.36 174.25 574.10 171.62
  Q 551.18 160.18 528.81 170.56
  Q 516.22 176.41 505.67 187.91
  Q 501.33 192.65 501.07 192.82
  Q 497.33 195.42 493.31 190.94
  Q 490.55 187.86 490.53 183.97
  Q 490.51 180.94 492.98 177.59
  Q 495.14 174.68 498.19 171.44
  Z"
/>
<path fill="none" stroke-width="1.00" stroke="#d9d9d9" vector-effect="non-scaling-stroke" d="
  M 615.05 173.55
  Q 621.23 166.96 629.01 162.77
  Q 635.74 159.15 645.28 156.49
  Q 659.48 152.52 674.49 153.59
  Q 704.42 155.71 725.64 176.61
  Q 734.39 185.22 740.87 195.66
  Q 746.50 204.73 738.53 210.37
  Q 736.26 211.98 735.59 212.23
  Q 733.46 213.04 731.94 210.31
  Q 724.10 196.29 711.44 185.56
  Q 695.61 172.15 672.99 170.57
  Q 651.28 169.06 633.28 180.12
  Q 629.23 182.60 626.20 185.48
  Q 623.01 188.51 620.27 192.16
  A 1.70 1.70 -52.8 0 1 617.88 192.49
  Q 611.74 187.80 612.00 180.00
  Q 612.11 176.69 615.05 173.55
  Z"
/>
<path fill="none" stroke-width="1.00" stroke="#d9d9d9" vector-effect="non-scaling-stroke" d="
  M 359.01 255.94
  Q 355.18 253.74 355.00 249.96
  Q 354.93 248.36 356.21 243.48
  Q 360.68 226.48 372.19 215.19
  Q 387.28 200.37 408.51 198.58
  Q 422.89 197.37 438.06 201.19
  Q 441.27 201.99 441.86 204.93
  Q 443.32 212.14 438.47 216.47
  Q 436.61 218.12 434.29 217.22
  Q 425.32 213.73 416.50 213.06
  Q 404.36 212.13 394.25 217.75
  Q 384.32 223.27 377.75 233.28
  Q 371.06 243.48 367.75 255.26
  Q 367.24 257.05 365.40 257.30
  Q 362.11 257.73 359.01 255.94
  Z"
/>
<path fill="none" stroke-width="1.00" stroke="#d9d9d9" vector-effect="non-scaling-stroke" d="
  M 776.26 215.08
  A 2.01 2.01 -84.1 0 1 777.30 214.23
  Q 786.63 210.81 796.49 209.96
  Q 807.49 209.02 815.85 211.42
  Q 834.13 216.66 840.23 236.80
  Q 842.01 242.68 837.95 246.08
  Q 836.21 247.54 834.26 247.86
  Q 831.71 248.27 830.06 246.44
  Q 829.20 245.47 827.26 241.00
  Q 819.58 223.29 800.81 224.06
  Q 792.65 224.40 781.75 227.85
  Q 779.04 228.71 777.67 228.31
  Q 775.33 227.64 774.66 224.77
  Q 773.44 219.62 776.26 215.08
  Z"
/>
<path fill="none" stroke-width="1.00" stroke="#d9d9d9" vector-effect="non-scaling-stroke" d="
  M 868.69 274.31
  Q 864.30 269.65 866.28 264.55
  Q 867.42 261.61 870.83 259.44
  Q 873.81 257.55 877.23 256.43
  Q 902.04 248.31 923.94 259.06
  Q 941.02 267.45 948.45 285.95
  Q 950.20 290.33 949.87 293.27
  Q 949.36 297.65 945.56 300.06
  Q 941.20 302.84 938.30 297.95
  Q 935.55 293.29 932.36 288.95
  Q 928.74 284.03 925.19 280.96
  Q 911.77 269.35 893.01 270.45
  Q 882.43 271.07 871.74 275.03
  Q 869.98 275.68 868.69 274.31
  Z"
/>
<path fill="none" stroke-width="1.00" stroke="#d9d9d9" vector-effect="non-scaling-stroke" d="
  M 293.69 304.31
  Q 291.21 302.55 290.40 300.04
  Q 289.78 298.12 290.52 294.97
  Q 294.11 279.80 307.39 271.12
  Q 319.00 263.53 333.75 263.25
  Q 335.79 263.21 337.25 263.87
  Q 338.71 264.53 339.18 266.46
  Q 340.47 271.65 337.93 275.94
  Q 336.81 277.84 334.60 277.99
  Q 314.68 279.37 305.69 296.06
  Q 305.30 296.79 303.78 300.70
  Q 302.95 302.84 301.71 304.77
  A 1.70 1.56 -82.8 0 1 300.98 305.39
  Q 297.29 306.87 293.69 304.31
  Z"
/>
<path fill="none" stroke-width="1.00" stroke="#d9d9d9" vector-effect="non-scaling-stroke" d="
  M 615.18 364.70
  Q 601.35 364.08 587.56 365.15
  A 0.59 0.59 80.8 0 1 586.94 364.70
  Q 585.64 359.38 585.50 357.50
  Q 582.52 316.45 592.44 276.55
  A 0.45 0.43 16.3 0 1 593.02 276.25
  L 610.72 282.47
  A 2.26 1.99 1.9 0 1 612.05 283.72
  Q 614.74 291.01 616.48 298.30
  Q 617.80 303.87 619.50 313.21
  Q 624.13 338.68 622.04 364.21
  A 0.94 0.94 4.5 0 1 621.02 365.08
  Q 617.59 364.81 615.18 364.70
  Z"
/>
<path fill="none" stroke-width="1.00" stroke="#d9d9d9" vector-effect="non-scaling-stroke" d="
  M 657.07 372.54
  A 1.01 1.00 17.1 0 1 656.47 371.42
  Q 659.98 352.98 669.32 336.90
  Q 681.02 316.74 697.36 300.11
  Q 699.17 298.28 702.00 296.05
  A 0.85 0.85 48.4 0 1 703.14 296.12
  Q 711.09 304.34 720.71 309.57
  A 1.30 1.29 -59.5 0 1 721.18 311.40
  Q 713.98 322.85 710.08 335.01
  Q 709.08 338.09 707.82 344.11
  Q 707.17 347.23 706.44 350.33
  Q 706.43 350.41 705.19 356.20
  Q 701.34 374.12 688.41 387.21
  A 0.67 0.66 -53.3 0 1 687.63 387.33
  Q 672.99 379.37 657.07 372.54
  Z"
/>
<path fill="none" stroke-width="1.00" stroke="#d9d9d9" vector-effect="non-scaling-stroke" d="
  M 517.70 389.78
  Q 510.53 381.23 505.85 370.67
  Q 495.92 348.25 487.90 325.07
  Q 482.93 310.71 474.30 298.17
  Q 473.63 297.19 474.80 297.40
  Q 483.44 298.95 492.69 298.82
  A 1.15 1.13 67.2 0 1 493.54 299.18
  Q 526.05 333.12 550.23 372.96
  A 0.68 0.68 -26.4 0 1 549.90 373.94
  Q 533.87 380.50 518.71 389.94
  A 0.78 0.77 -35.7 0 1 517.70 389.78
  Z"
/>
<path fill="none" stroke-width="1.00" stroke="#d9d9d9" vector-effect="non-scaling-stroke" d="
  M 964.08 317.46
  Q 960.09 313.45 962.33 307.40
  Q 963.25 304.93 965.43 304.13
  Q 966.27 303.82 969.60 303.49
  Q 979.41 302.52 988.04 306.12
  Q 996.91 309.83 1002.18 317.13
  Q 1009.99 327.93 1007.00 343.25
  Q 1006.30 346.82 1003.78 347.99
  Q 999.16 350.14 995.12 348.21
  Q 993.10 347.24 993.20 345.00
  Q 993.40 340.69 993.15 336.82
  Q 992.84 331.90 991.53 328.86
  Q 988.20 321.07 978.93 319.36
  Q 973.38 318.34 966.77 318.53
  A 3.70 3.68 66.5 0 1 964.08 317.46
  Z"
/>
<path fill="none" stroke-width="1.00" stroke="#d9d9d9" vector-effect="non-scaling-stroke" d="
  M 273.05 315.18
  Q 275.86 317.07 276.80 320.06
  Q 277.67 322.80 276.77 324.91
  Q 275.62 327.63 271.75 327.50
  Q 266.05 327.31 258.51 328.08
  Q 238.60 330.11 228.39 347.16
  Q 225.13 352.62 224.12 358.93
  Q 223.45 363.17 219.33 361.77
  Q 214.07 359.99 212.71 355.43
  Q 211.80 352.37 212.88 347.07
  Q 215.65 333.46 227.50 325.28
  Q 246.50 312.16 269.64 313.99
  Q 271.50 314.14 273.05 315.18
  Z"
/>
<path fill="none" stroke-width="1.00" stroke="#d9d9d9" vector-effect="non-scaling-stroke" d="
  M 715.48 406.87
  A 0.75 0.75 -42.0 0 1 715.54 405.72
  Q 728.85 395.49 742.93 387.63
  Q 773.16 370.78 782.94 363.94
  Q 792.50 357.25 803.23 350.81
  A 0.75 0.75 -35.8 0 1 804.18 350.96
  Q 811.90 359.92 821.34 367.02
  A 0.46 0.46 -41.4 0 1 821.29 367.79
  Q 813.85 372.08 806.94 376.19
  Q 800.04 380.31 793.99 385.50
  Q 789.99 388.94 783.05 396.99
  Q 770.72 411.28 757.39 424.65
  Q 750.06 432.00 740.81 437.00
  A 0.54 0.54 59.7 0 1 740.09 436.81
  Q 729.83 420.17 715.48 406.87
  Z"
/>
<path fill="none" stroke-width="1.00" stroke="#d9d9d9" vector-effect="non-scaling-stroke" d="
  M 381.10 384.61
  Q 375.95 379.34 371.16 373.47
  A 0.93 0.93 41.4 0 1 371.09 372.38
  Q 377.35 362.51 380.78 352.42
  A 0.68 0.68 26.9 0 1 381.82 352.08
  Q 394.94 361.39 409.52 368.68
  Q 415.44 371.63 427.82 376.72
  Q 449.68 385.71 463.94 392.06
  Q 479.24 398.88 493.12 409.94
  A 0.47 0.46 -49.1 0 1 493.16 410.62
  Q 480.06 424.76 469.70 441.02
  A 0.65 0.64 24.4 0 1 468.96 441.29
  Q 440.12 432.58 414.44 413.56
  Q 401.59 404.05 391.80 394.98
  Q 385.86 389.47 381.10 384.61
  Z"
/>
<path fill="none" stroke-width="1.00" stroke="#d9d9d9" vector-effect="non-scaling-stroke" d="
  M 463.41 541.00
  Q 460.27 522.92 463.00 503.75
  Q 466.20 481.30 475.60 461.83
  Q 496.47 418.65 538.31 396.31
  Q 564.39 382.39 594.77 380.23
  Q 648.52 376.39 690.94 406.56
  Q 715.10 423.75 730.45 450.25
  Q 735.48 458.92 739.22 468.22
  Q 753.69 504.11 748.68 543.83
  A 1.89 1.88 85.8 0 1 747.33 545.40
  Q 735.04 548.97 723.67 554.38
  A 1.36 1.36 46.8 0 1 722.41 554.34
  Q 696.27 539.72 666.52 537.27
  Q 623.65 533.76 585.30 553.83
  A 1.27 1.25 47.7 0 1 584.01 553.76
  Q 571.71 545.68 558.68 542.33
  Q 545.37 538.91 531.73 537.91
  Q 523.01 537.27 511.76 537.36
  Q 487.75 537.55 464.24 542.89
  A 0.87 0.62 -19.1 0 1 463.40 542.64
  Q 463.21 542.33 463.30 541.96
  Q 463.46 541.27 463.41 541.00
  Z
  M 514.91 474.40
  Q 518.26 475.07 521.55 472.83
  Q 528.94 467.83 537.73 469.34
  Q 540.85 469.88 540.70 473.00
  Q 540.39 479.21 544.28 483.98
  Q 548.61 489.29 554.73 490.25
  Q 560.58 491.17 565.86 488.09
  Q 572.96 483.94 574.22 474.44
  A 1.75 1.75 6.1 0 1 576.09 472.93
  Q 583.11 473.48 588.83 475.20
  A 0.68 0.67 17.1 0 0 589.67 474.76
  Q 592.50 465.94 591.34 457.90
  Q 591.07 456.02 589.26 455.48
  Q 570.78 449.92 552.25 450.03
  Q 545.52 450.07 539.81 452.31
  Q 526.70 457.46 516.22 467.72
  Q 514.44 469.45 513.49 471.77
  Q 512.60 473.95 514.91 474.40
  Z
  M 638.75 475.05
  Q 639.95 483.79 646.60 487.90
  Q 651.38 490.85 656.70 490.60
  Q 662.37 490.34 666.89 486.13
  Q 672.99 480.44 672.47 471.47
  A 0.95 0.95 -7.3 0 1 673.24 470.48
  Q 678.30 469.50 683.45 471.52
  Q 688.81 473.61 693.32 477.14
  Q 694.61 478.15 695.51 478.34
  Q 697.67 478.80 697.82 476.50
  Q 697.91 475.24 697.14 473.62
  Q 693.70 466.38 686.56 461.69
  Q 678.49 456.39 669.92 454.38
  Q 654.26 450.71 638.25 452.50
  Q 629.82 453.44 623.99 455.37
  Q 621.72 456.12 620.79 457.68
  Q 619.71 459.48 619.68 461.75
  Q 619.58 468.56 621.75 475.01
  A 1.05 1.04 72.8 0 0 623.01 475.68
  Q 630.36 473.59 638.18 474.50
  A 0.66 0.64 -0.5 0 1 638.75 475.05
  Z
  M 585.69 527.63
  Q 590.44 531.06 595.85 531.96
  Q 600.60 532.76 606.65 532.12
  Q 613.34 531.42 619.32 527.98
  Q 621.78 526.56 622.62 523.83
  Q 624.90 516.44 623.95 508.30
  Q 623.75 506.59 622.30 505.65
  Q 620.65 504.57 620.52 509.00
  Q 620.47 510.79 618.73 511.17
  Q 602.03 514.83 585.77 512.64
  Q 584.70 512.50 583.79 512.13
  Q 582.85 511.75 581.92 511.30
  A 1.01 1.00 -66.8 0 0 580.54 511.86
  Q 579.93 513.52 580.26 515.29
  Q 581.30 520.84 583.68 525.33
  Q 584.42 526.72 585.69 527.63
  Z"
/>
<path fill="none" stroke-width="1.00" stroke="#d9d9d9" vector-effect="non-scaling-stroke" d="
  M 707.96 391.00
  Q 707.92 391.58 708.50 391.54
  Q 705.17 394.03 707.96 391.00
  Z"
/>
<path fill="none" stroke-width="1.00" stroke="#d9d9d9" vector-effect="non-scaling-stroke" d="
  M 866.56 449.94
  Q 888.00 450.35 910.28 448.96
  Q 913.87 448.74 930.19 447.08
  Q 942.78 445.80 955.44 445.56
  Q 969.42 445.29 969.56 445.28
  Q 975.70 445.12 981.84 445.05
  Q 981.96 445.04 992.16 444.77
  Q 1006.60 444.39 1020.88 446.82
  Q 1021.02 446.84 1022.26 446.95
  Q 1023.50 447.06 1024.38 447.79
  Q 1025.22 448.48 1024.16 448.71
  Q 1020.86 449.45 1017.71 450.06
  Q 985.60 456.25 954.88 467.26
  Q 941.01 472.24 935.93 473.68
  Q 920.06 478.21 903.68 480.66
  Q 861.08 487.02 818.00 487.48
  Q 817.95 487.48 812.01 487.43
  Q 793.16 487.28 775.89 494.72
  Q 771.85 496.46 770.38 496.88
  Q 767.48 497.71 764.55 497.92
  A 0.52 0.51 83.5 0 1 764.00 497.48
  Q 761.28 479.09 754.65 461.30
  A 0.78 0.78 -21.6 0 1 755.08 460.31
  Q 776.09 451.27 798.02 448.95
  Q 805.42 448.17 818.00 448.60
  Q 845.41 449.53 866.56 449.94
  Z"
/>
<path fill="none" stroke-width="1.00" stroke="#d9d9d9" vector-effect="non-scaling-stroke" d="
  M 514.91 474.40
  Q 512.60 473.95 513.49 471.77
  Q 514.44 469.45 516.22 467.72
  Q 526.70 457.46 539.81 452.31
  Q 545.52 450.07 552.25 450.03
  Q 570.78 449.92 589.26 455.48
  Q 591.07 456.02 591.34 457.90
  Q 592.50 465.94 589.67 474.76
  A 0.68 0.67 17.1 0 1 588.83 475.20
  Q 583.11 473.48 576.09 472.93
  A 1.75 1.75 6.1 0 0 574.22 474.44
  Q 572.96 483.94 565.86 488.09
  Q 560.58 491.17 554.73 490.25
  Q 548.61 489.29 544.28 483.98
  Q 540.39 479.21 540.70 473.00
  Q 540.85 469.88 537.73 469.34
  Q 528.94 467.83 521.55 472.83
  Q 518.26 475.07 514.91 474.40
  Z"
/>
<path fill="none" stroke-width="1.00" stroke="#d9d9d9" vector-effect="non-scaling-stroke" d="
  M 256.68 466.35
  Q 246.49 463.26 244.50 462.50
  Q 237.26 459.73 232.49 459.04
  Q 221.95 457.53 211.53 455.36
  Q 210.71 455.19 211.33 454.84
  Q 211.48 454.75 211.70 454.73
  Q 219.21 454.14 226.73 454.01
  Q 236.42 453.85 241.75 453.49
  Q 262.80 452.10 269.25 452.00
  Q 281.14 451.82 296.84 453.68
  Q 314.66 455.79 316.70 455.97
  Q 354.18 459.22 391.77 456.74
  Q 391.82 456.74 398.72 456.13
  Q 413.35 454.85 427.74 458.05
  Q 442.13 461.25 453.07 470.98
  A 0.83 0.81 -62.0 0 1 453.31 471.80
  Q 449.49 486.36 447.24 501.31
  A 0.66 0.66 6.5 0 1 446.53 501.87
  Q 435.45 500.85 425.27 498.16
  Q 416.87 495.93 408.57 493.35
  Q 407.73 493.09 392.15 487.71
  Q 372.27 480.83 354.25 478.50
  Q 349.48 477.88 342.40 478.28
  Q 334.35 478.74 330.59 478.61
  Q 292.87 477.31 256.68 466.35
  Z"
/>
<path fill="none" stroke-width="1.00" stroke="#d9d9d9" vector-effect="non-scaling-stroke" d="
  M 638.18 474.50
  Q 630.36 473.59 623.01 475.68
  A 1.05 1.04 72.8 0 1 621.75 475.01
  Q 619.58 468.56 619.68 461.75
  Q 619.71 459.48 620.79 457.68
  Q 621.72 456.12 623.99 455.37
  Q 629.82 453.44 638.25 452.50
  Q 654.26 450.71 669.92 454.38
  Q 678.49 456.39 686.56 461.69
  Q 693.70 466.38 697.14 473.62
  Q 697.91 475.24 697.82 476.50
  Q 697.67 478.80 695.51 478.34
  Q 694.61 478.15 693.32 477.14
  Q 688.81 473.61 683.45 471.52
  Q 678.30 469.50 673.24 470.48
  A 0.95 0.95 -7.3 0 0 672.47 471.47
  Q 672.99 480.44 666.89 486.13
  Q 662.37 490.34 656.70 490.60
  Q 651.38 490.85 646.60 487.90
  Q 639.95 483.79 638.75 475.05
  A 0.66 0.64 -0.5 0 0 638.18 474.50
  Z"
/>
<path fill="none" stroke-width="1.00" stroke="#d9d9d9" vector-effect="non-scaling-stroke" d="
  M 585.69 527.63
  Q 584.42 526.72 583.68 525.33
  Q 581.30 520.84 580.26 515.29
  Q 579.93 513.52 580.54 511.86
  A 1.01 1.00 -66.8 0 1 581.92 511.30
  Q 582.85 511.75 583.79 512.13
  Q 584.70 512.50 585.77 512.64
  Q 602.03 514.83 618.73 511.17
  Q 620.47 510.79 620.52 509.00
  Q 620.65 504.57 622.30 505.65
  Q 623.75 506.59 623.95 508.30
  Q 624.90 516.44 622.62 523.83
  Q 621.78 526.56 619.32 527.98
  Q 613.34 531.42 606.65 532.12
  Q 600.60 532.76 595.85 531.96
  Q 590.44 531.06 585.69 527.63
  Z"
/>
<path fill="none" stroke-width="1.00" stroke="#d9d9d9" vector-effect="non-scaling-stroke" d="
  M 342.38 617.38
  Q 336.06 611.68 331.52 604.47
  Q 322.12 589.55 314.58 573.61
  Q 312.06 568.28 308.70 562.58
  A 0.64 0.64 52.0 0 1 308.79 561.83
  Q 309.69 560.87 311.07 560.33
  Q 344.85 547.21 381.75 550.50
  Q 393.00 551.50 403.25 554.52
  Q 413.68 557.59 421.46 562.58
  Q 436.60 572.29 444.86 589.10
  Q 451.24 602.10 459.29 615.22
  A 1.30 1.30 49.5 0 1 459.17 616.75
  Q 456.72 619.61 452.78 621.08
  Q 443.88 624.41 434.49 625.96
  Q 393.39 632.78 352.56 622.69
  Q 346.64 621.22 342.38 617.38
  Z"
/>
<path fill="none" stroke-width="1.00" stroke="#d9d9d9" vector-effect="non-scaling-stroke" d="
  M 263.19 612.81
  Q 259.86 609.80 259.31 609.19
  Q 249.80 598.83 239.69 589.06
  Q 235.43 584.94 230.04 582.83
  Q 226.25 581.34 223.30 581.84
  Q 219.21 582.55 217.41 586.29
  Q 216.06 589.11 216.83 591.83
  Q 217.79 595.19 221.50 596.00
  Q 227.54 597.32 230.82 600.94
  Q 238.81 609.75 246.33 619.53
  A 0.76 0.75 -47.8 0 1 246.37 620.38
  Q 242.90 626.11 236.81 628.06
  Q 229.11 630.54 223.25 630.25
  Q 200.35 629.11 188.83 611.99
  Q 183.24 603.69 182.09 594.51
  Q 180.85 584.57 184.86 575.29
  Q 187.91 568.23 193.62 563.26
  Q 199.36 558.25 206.82 555.60
  Q 223.51 549.69 241.25 549.75
  Q 265.71 549.84 283.64 566.12
  Q 288.47 570.50 292.67 575.48
  Q 296.03 579.45 300.26 585.98
  Q 308.05 598.02 314.99 610.59
  Q 317.96 615.97 320.57 619.68
  Q 322.16 621.94 319.78 623.34
  Q 312.24 627.78 304.15 628.92
  Q 295.94 630.08 287.90 628.32
  Q 278.82 626.34 271.37 620.14
  Q 270.02 619.01 263.19 612.81
  Z"
/>
<path fill="none" stroke-width="1.00" stroke="#d9d9d9" vector-effect="non-scaling-stroke" d="
  M 1012.90 575.85
  Q 1022.34 585.19 1025.81 598.69
  Q 1027.22 604.16 1026.09 609.15
  Q 1025.31 612.60 1022.44 615.43
  Q 1015.72 622.07 1005.50 625.00
  Q 991.11 629.13 979.50 629.66
  Q 949.71 631.04 923.06 622.94
  Q 918.70 621.61 914.61 617.40
  Q 905.05 607.55 898.77 595.33
  Q 890.73 579.69 881.75 563.52
  A 0.69 0.69 62.4 0 1 882.05 562.56
  Q 891.29 558.11 900.70 555.81
  Q 916.13 552.04 931.99 551.05
  Q 956.61 549.52 980.20 556.52
  Q 999.01 562.10 1012.90 575.85
  Z"
/>
<path fill="none" stroke-width="1.00" stroke="#d9d9d9" vector-effect="non-scaling-stroke" d="
  M 489.19 622.56
  Q 484.61 618.57 481.58 613.88
  Q 475.18 604.00 469.16 593.88
  Q 460.39 579.15 450.33 564.22
  A 0.49 0.49 -26.5 0 1 450.58 563.48
  Q 477.05 553.99 505.00 551.94
  Q 524.40 550.51 543.37 554.70
  Q 568.17 560.18 582.44 580.06
  Q 588.47 588.47 594.08 600.68
  Q 598.96 611.31 604.99 621.32
  A 1.36 1.23 37.5 0 1 605.16 622.25
  Q 604.30 626.67 599.92 628.38
  Q 581.54 635.55 562.96 628.75
  Q 556.52 626.40 551.86 621.38
  Q 539.85 608.44 528.94 594.56
  Q 526.55 591.53 521.79 586.97
  Q 516.16 581.58 509.19 580.56
  Q 507.54 580.32 505.80 581.04
  Q 504.28 581.66 503.14 583.01
  Q 499.42 587.43 503.96 592.29
  Q 505.86 594.31 508.11 595.91
  Q 512.83 599.27 516.63 603.64
  Q 524.12 612.27 530.32 621.48
  A 2.07 2.06 -38.4 0 1 530.01 624.14
  Q 527.52 626.45 524.77 627.55
  Q 512.21 632.58 499.29 628.38
  Q 493.82 626.60 489.19 622.56
  Z"
/>
<path fill="none" stroke-width="1.00" stroke="#d9d9d9" vector-effect="non-scaling-stroke" d="
  M 775.69 621.31
  Q 770.85 617.14 766.89 611.42
  Q 765.70 609.69 760.02 600.17
  Q 749.48 582.54 740.56 564.13
  A 0.46 0.46 67.5 0 1 740.82 563.50
  Q 768.76 553.52 797.50 552.25
  Q 816.39 551.42 836.24 557.78
  Q 859.52 565.26 872.56 586.19
  Q 877.71 594.45 881.54 602.50
  Q 885.66 611.16 885.74 611.30
  Q 888.52 616.94 891.23 622.62
  A 1.52 1.35 41.7 0 1 891.34 623.56
  Q 890.68 626.58 887.73 627.97
  Q 880.86 631.20 873.26 631.70
  Q 862.38 632.42 851.75 630.01
  Q 844.49 628.37 839.12 623.82
  Q 837.42 622.37 829.95 613.61
  Q 822.18 604.51 812.06 591.94
  Q 808.10 587.02 801.79 584.25
  Q 795.56 581.52 791.55 585.77
  Q 789.99 587.41 789.78 589.21
  Q 789.54 591.25 790.75 593.25
  Q 792.44 596.04 794.88 597.59
  Q 799.95 600.81 803.90 605.34
  Q 811.16 613.64 817.01 623.02
  A 1.23 1.23 49.7 0 1 816.89 624.49
  Q 814.04 627.77 809.72 628.88
  Q 790.27 633.88 775.69 621.31
  Z"
/>
<path fill="none" stroke-width="1.00" stroke="#d9d9d9" vector-effect="non-scaling-stroke" d="
  M 668.25 553.79
  L 674.25 554.21
  Q 683.40 555.57 692.25 558.25
  Q 715.23 565.21 728.19 585.31
  Q 731.66 590.71 737.31 602.28
  Q 739.62 607.01 741.62 610.43
  Q 744.02 614.52 746.38 618.32
  A 1.63 1.63 55.1 0 1 746.00 620.47
  Q 741.78 623.76 737.22 625.28
  Q 728.44 628.19 719.35 629.65
  Q 711.90 630.85 701.11 631.55
  Q 668.08 633.68 636.00 624.75
  Q 634.72 624.39 632.28 622.69
  Q 630.63 621.54 629.01 619.99
  Q 621.50 612.79 616.20 603.78
  Q 608.22 590.24 601.39 576.08
  Q 598.79 570.68 596.39 566.60
  Q 595.21 564.58 597.39 563.76
  Q 632.24 550.57 668.25 553.79
  Z"
/>
<path fill="none" stroke-width="1.00" stroke="#d9d9d9" vector-effect="non-scaling-stroke" d="
  M 674.25 554.21
  L 668.25 553.79
  Q 671.36 553.16 674.25 554.21
  Z"
/>
<path fill="none" stroke-width="1.00" stroke="#d9d9d9" vector-effect="non-scaling-stroke" d="
  M 941.73 1497.73
  Q 920.66 1518.69 896.47 1535.96
  Q 865.61 1557.99 831.69 1574.94
  Q 790.08 1595.72 740.00 1612.50
  Q 681.78 1632.00 610.59 1648.50
  Q 610.46 1648.53 608.47 1649.15
  Q 606.54 1649.76 604.49 1649.28
  Q 565.95 1640.15 527.81 1629.44
  Q 495.73 1620.43 464.23 1609.57
  Q 421.29 1594.77 380.54 1574.74
  Q 342.57 1556.08 308.62 1530.86
  Q 258.79 1493.84 226.31 1443.44
  Q 200.81 1403.86 185.96 1356.14
  Q 170.82 1307.49 165.50 1255.50
  Q 162.56 1226.76 161.73 1199.99
  Q 161.50 1192.36 161.50 1180.01
  Q 161.50 951.77 161.50 723.54
  Q 161.50 722.86 161.30 715.97
  Q 161.19 712.10 161.47 708.40
  A 0.98 0.97 -87.8 0 1 162.44 707.50
  L 1048.89 707.50
  A 1.36 1.36 89.9 0 1 1050.25 708.86
  Q 1050.25 934.75 1050.25 1159.75
  Q 1050.25 1183.59 1050.05 1194.00
  Q 1049.19 1239.42 1042.43 1284.33
  Q 1035.65 1329.41 1020.32 1372.32
  Q 995.66 1441.36 944.81 1494.56
  Q 942.94 1496.52 941.73 1497.73
  Z
  M 548.19 1166.05
  L 548.25 1611.10
  A 0.99 0.98 7.7 0 0 548.98 1612.05
  Q 575.87 1619.14 600.95 1625.48
  Q 601.02 1625.50 603.01 1626.15
  Q 605.58 1626.99 608.69 1626.19
  Q 635.56 1619.21 662.79 1612.43
  A 0.94 0.94 -7.1 0 0 663.50 1611.52
  L 663.50 1166.06
  A 0.56 0.56 0.0 0 1 664.06 1165.50
  L 1028.19 1165.44
  A 0.50 0.50 0.0 0 0 1028.69 1164.94
  L 1028.75 1063.74
  A 0.55 0.55 0.0 0 0 1028.20 1063.19
  L 664.00 1063.00
  A 0.51 0.50 90.0 0 1 663.50 1062.49
  Q 663.50 896.94 663.50 731.38
  Q 663.50 731.25 663.60 730.12
  Q 663.74 728.44 662.22 728.84
  Q 661.70 728.98 661.26 728.92
  Q 660.05 728.75 658.00 728.75
  Q 606.00 728.75 554.00 728.75
  Q 550.62 728.75 548.79 729.19
  A 0.65 0.62 83.9 0 0 548.31 729.82
  L 548.19 1062.43
  A 0.51 0.50 -90.0 0 1 547.69 1062.94
  L 183.59 1063.00
  A 1.09 1.09 -0.1 0 0 182.50 1064.09
  L 182.50 1164.73
  A 0.71 0.71 90.0 0 0 183.21 1165.44
  L 547.70 1165.56
  A 0.49 0.49 0.0 0 1 548.19 1166.05
  Z
  M 530.01 729.26
  A 0.26 0.26 0.0 0 0 529.75 729.00
  L 183.01 729.00
  A 0.26 0.26 0.0 0 0 182.75 729.26
  L 182.75 1043.24
  A 0.26 0.26 0.0 0 0 183.01 1043.50
  L 529.75 1043.50
  A 0.26 0.26 0.0 0 0 530.01 1043.24
  L 530.01 729.26
  Z
  M 1028.75 729.26
  A 0.26 0.26 0.0 0 0 1028.49 729.00
  L 682.01 729.00
  A 0.26 0.26 0.0 0 0 681.75 729.26
  L 681.75 1043.24
  A 0.26 0.26 0.0 0 0 682.01 1043.50
  L 1028.49 1043.50
  A 0.26 0.26 0.0 0 0 1028.75 1043.24
  L 1028.75 729.26
  Z
  M 237.83 1265.06
  L 257.43 1264.94
  A 0.52 0.49 0.0 0 0 257.95 1264.45
  L 257.94 1235.84
  A 1.13 1.10 -85.3 0 1 259.23 1234.72
  Q 271.16 1236.69 284.08 1234.95
  Q 296.62 1233.27 304.69 1231.69
  Q 313.01 1230.06 319.86 1229.02
  Q 329.47 1227.57 335.19 1228.01
  Q 346.69 1228.89 356.77 1235.05
  A 0.80 0.80 90.0 0 0 357.61 1235.05
  Q 372.45 1225.89 389.00 1228.25
  Q 406.54 1230.75 412.50 1232.00
  Q 425.88 1234.80 438.25 1235.50
  Q 446.59 1235.97 455.69 1234.64
  A 0.43 0.43 -4.6 0 1 456.19 1235.06
  L 456.25 1264.39
  A 0.67 0.67 0.0 0 0 456.92 1265.06
  L 476.74 1264.94
  A 0.51 0.50 89.4 0 1 477.25 1265.45
  L 477.25 1432.75
  A 0.50 0.50 0.0 0 1 476.75 1433.25
  L 378.40 1433.25
  A 0.72 0.68 -89.6 0 0 377.72 1433.96
  L 377.49 1445.43
  A 0.55 0.51 0.5 0 1 376.94 1445.93
  L 337.24 1445.75
  A 0.58 0.58 85.3 0 1 336.67 1445.26
  Q 335.80 1439.74 336.47 1433.93
  A 0.61 0.61 3.3 0 0 335.86 1433.25
  L 248.62 1433.25
  Q 248.07 1433.25 248.37 1433.71
  Q 283.59 1486.98 335.96 1522.68
  Q 343.39 1527.74 352.85 1533.40
  Q 389.41 1555.30 428.97 1571.33
  Q 478.20 1591.28 529.32 1606.02
  A 0.53 0.53 -81.8 0 0 530.00 1605.51
  L 530.00 1185.87
  A 0.87 0.87 0.1 0 0 529.13 1185.00
  L 183.66 1185.00
  A 0.69 0.68 89.2 0 0 182.98 1185.71
  Q 183.86 1216.83 186.96 1247.00
  Q 190.12 1277.66 196.63 1307.78
  Q 207.35 1357.36 230.21 1402.61
  Q 233.11 1408.35 236.32 1413.95
  Q 236.94 1415.02 236.94 1413.78
  L 236.96 1265.93
  A 0.87 0.87 -89.9 0 1 237.83 1265.06
  Z
  M 977.19 1265.56
  L 977.19 1415.45
  Q 977.19 1417.03 977.96 1415.65
  Q 1000.06 1376.07 1011.06 1332.02
  Q 1021.43 1290.48 1025.75 1245.25
  Q 1028.20 1219.65 1029.27 1201.71
  Q 1029.49 1198.05 1029.20 1193.80
  Q 1028.92 1189.75 1028.76 1185.86
  A 0.89 0.89 89.0 0 0 1027.87 1185.00
  L 682.67 1185.00
  A 0.92 0.92 90.0 0 0 681.75 1185.92
  L 681.75 1605.54
  A 0.74 0.74 -8.2 0 0 682.70 1606.25
  Q 710.71 1598.22 738.07 1588.95
  Q 784.66 1573.15 828.69 1551.19
  Q 847.95 1541.60 869.31 1528.06
  Q 927.83 1491.00 966.69 1433.68
  Q 966.98 1433.25 966.47 1433.25
  L 878.31 1433.31
  A 0.50 0.49 -89.4 0 0 877.82 1433.80
  L 877.53 1445.25
  A 0.54 0.52 -0.0 0 1 877.00 1445.76
  Q 857.15 1446.31 837.30 1445.70
  A 0.55 0.53 0.0 0 1 836.76 1445.18
  L 836.56 1434.41
  A 1.18 1.11 89.5 0 0 835.45 1433.25
  L 737.31 1433.25
  A 0.56 0.56 0.0 0 1 736.75 1432.69
  L 736.75 1265.88
  A 0.88 0.87 -90.0 0 1 737.62 1265.00
  L 757.32 1265.06
  A 0.51 0.50 -0.0 0 0 757.83 1264.56
  L 757.83 1235.06
  A 0.43 0.43 -86.5 0 1 758.31 1234.63
  Q 770.85 1236.31 783.30 1234.99
  Q 785.24 1234.78 802.69 1231.90
  Q 812.38 1230.30 822.08 1228.70
  Q 839.96 1225.75 856.64 1234.83
  A 1.20 1.17 43.9 0 0 857.80 1234.82
  Q 874.35 1225.27 893.10 1228.75
  Q 897.83 1229.63 897.93 1229.65
  Q 905.31 1230.86 912.68 1232.08
  Q 929.25 1234.82 929.84 1234.89
  Q 942.36 1236.34 955.59 1234.61
  A 0.53 0.52 86.2 0 1 956.18 1235.14
  L 956.00 1264.46
  A 0.55 0.54 0.0 0 0 956.55 1265.00
  L 976.68 1265.06
  A 0.51 0.50 0.0 0 1 977.19 1265.56
  Z
  M 276.58 1399.03
  Q 280.07 1400.66 283.25 1400.98
  Q 291.86 1401.84 300.27 1399.85
  Q 306.43 1398.40 312.60 1396.97
  Q 322.81 1394.61 333.25 1395.54
  Q 339.71 1396.11 345.39 1398.94
  A 0.42 0.42 13.6 0 0 346.00 1398.57
  L 346.00 1254.57
  Q 346.00 1252.57 344.45 1251.32
  Q 340.39 1248.05 335.50 1247.34
  Q 333.01 1246.99 325.99 1247.53
  Q 318.52 1248.11 311.17 1249.55
  Q 302.42 1251.27 302.30 1251.29
  Q 297.65 1252.14 293.01 1253.07
  Q 284.74 1254.73 277.08 1254.35
  A 1.04 1.04 1.0 0 0 275.99 1255.40
  Q 276.09 1279.63 276.03 1301.00
  Q 275.89 1343.25 276.10 1385.50
  Q 276.13 1391.97 276.07 1398.21
  A 0.90 0.89 13.5 0 0 276.58 1399.03
  Z
  M 389.94 1395.21
  Q 399.39 1395.88 408.50 1398.49
  Q 416.23 1400.71 424.25 1401.27
  Q 431.12 1401.75 437.06 1399.34
  A 1.50 1.50 -11.1 0 0 438.00 1397.95
  L 438.00 1254.69
  A 0.46 0.46 -2.8 0 0 437.49 1254.23
  Q 435.12 1254.45 433.01 1254.30
  Q 422.62 1253.56 412.40 1251.47
  Q 399.65 1248.85 393.94 1248.06
  Q 384.20 1246.71 379.25 1247.25
  Q 373.19 1247.91 369.48 1251.64
  Q 368.25 1252.88 368.25 1254.62
  L 368.31 1398.44
  A 0.34 0.33 -11.8 0 0 368.78 1398.74
  Q 378.88 1394.42 389.94 1395.21
  Z
  M 776.86 1399.28
  Q 780.94 1400.92 785.26 1401.12
  Q 792.45 1401.45 799.45 1399.78
  Q 807.44 1397.87 815.52 1396.34
  Q 824.32 1394.68 833.25 1395.47
  Q 839.62 1396.04 845.30 1398.93
  A 0.31 0.31 13.7 0 0 845.75 1398.66
  L 845.75 1254.02
  A 2.83 2.83 21.5 0 0 844.85 1251.95
  Q 841.89 1249.21 838.38 1248.03
  Q 835.79 1247.17 831.03 1247.24
  Q 822.16 1247.38 813.41 1249.06
  Q 803.21 1251.02 793.01 1253.06
  Q 784.86 1254.70 776.56 1254.34
  A 0.48 0.47 1.2 0 0 776.06 1254.81
  L 776.00 1398.01
  A 1.37 1.36 -79.3 0 0 776.86 1399.28
  Z
  M 889.94 1395.26
  Q 899.17 1395.91 908.07 1398.40
  Q 916.02 1400.63 924.25 1401.25
  Q 931.00 1401.76 936.86 1399.33
  A 1.87 1.86 78.6 0 0 938.00 1397.61
  L 938.00 1254.76
  A 0.49 0.49 -2.2 0 0 937.47 1254.27
  Q 933.50 1254.54 929.25 1254.25
  Q 926.82 1254.08 917.45 1252.37
  Q 917.41 1252.37 908.09 1250.47
  Q 896.39 1248.09 882.50 1247.25
  Q 873.69 1246.71 868.57 1252.86
  A 1.41 1.35 65.9 0 0 868.25 1253.75
  L 868.07 1398.44
  A 0.33 0.32 78.2 0 0 868.52 1398.74
  Q 878.78 1394.49 889.94 1395.26
  Z"
/>
<path fill="none" stroke-width="1.00" stroke="#d9d9d9" vector-effect="non-scaling-stroke" d="
  M 547.70 1165.56
  L 183.21 1165.44
  A 0.71 0.71 89.7 0 1 182.50 1164.73
  L 182.50 1064.09
  A 1.09 1.09 -0.1 0 1 183.59 1063.00
  L 547.69 1062.94
  A 0.51 0.50 -90.0 0 0 548.19 1062.43
  L 548.31 729.82
  A 0.65 0.62 83.9 0 1 548.79 729.19
  Q 550.62 728.75 554.00 728.75
  Q 606.00 728.75 658.00 728.75
  Q 660.05 728.75 661.26 728.92
  Q 661.70 728.98 662.22 728.84
  Q 663.74 728.44 663.60 730.12
  Q 663.50 731.25 663.50 731.38
  Q 663.50 896.94 663.50 1062.49
  A 0.51 0.50 90.0 0 0 664.00 1063.00
  L 1028.20 1063.19
  A 0.55 0.55 0.0 0 1 1028.75 1063.74
  L 1028.69 1164.94
  A 0.50 0.50 0.0 0 1 1028.19 1165.44
  L 664.06 1165.50
  A 0.56 0.56 0.0 0 0 663.50 1166.06
  L 663.50 1611.52
  A 0.94 0.94 -7.1 0 1 662.79 1612.43
  Q 635.56 1619.21 608.69 1626.19
  Q 605.58 1626.99 603.01 1626.15
  Q 601.02 1625.50 600.95 1625.48
  Q 575.87 1619.14 548.98 1612.05
  A 0.99 0.98 7.7 0 1 548.25 1611.10
  L 548.19 1166.05
  A 0.49 0.49 0.0 0 0 547.70 1165.56
  Z"
/>
<path fill="none" stroke-width="1.00" stroke="#d9d9d9" vector-effect="non-scaling-stroke" d="
  M 530.01 1043.24
  A 0.26 0.26 0.0 0 1 529.75 1043.50
  L 183.01 1043.50
  A 0.26 0.26 0.0 0 1 182.75 1043.24
  L 182.75 729.26
  A 0.26 0.26 0.0 0 1 183.01 729.00
  L 529.75 729.00
  A 0.26 0.26 0.0 0 1 530.01 729.26
  L 530.01 1043.24
  Z
  M 450.00 979.29
  Q 462.86 979.88 475.77 979.26
  Q 476.36 979.67 476.84 979.51
  A 0.83 0.57 84.4 0 0 477.25 978.76
  L 477.19 811.55
  A 0.51 0.47 0.0 0 0 476.68 811.08
  L 456.31 811.20
  A 0.51 0.48 -89.4 0 1 455.83 810.68
  L 455.94 781.31
  A 0.43 0.43 -3.5 0 0 455.45 780.88
  Q 440.16 783.03 424.91 780.45
  Q 415.19 778.80 405.46 777.15
  Q 388.37 774.25 386.00 774.14
  Q 371.46 773.47 357.62 781.08
  A 1.36 1.35 -43.6 0 1 356.26 781.05
  Q 342.25 772.39 325.25 774.52
  Q 312.91 776.06 307.06 777.31
  Q 291.85 780.57 276.37 781.72
  Q 271.44 782.08 267.61 781.85
  Q 263.14 781.58 258.90 780.82
  A 0.73 0.71 -85.0 0 0 258.06 781.54
  L 258.08 810.56
  A 0.52 0.52 -90.0 0 1 257.56 811.08
  L 237.58 811.24
  A 0.59 0.57 -0.5 0 0 237.00 811.81
  L 237.06 978.70
  A 0.50 0.49 0.0 0 0 237.56 979.19
  Q 282.80 979.21 328.03 979.49
  Q 328.36 979.49 331.97 979.29
  Q 333.95 979.19 335.93 979.48
  A 0.60 0.58 -86.6 0 1 336.43 980.06
  L 336.66 991.31
  A 0.53 0.52 -0.6 0 0 337.19 991.82
  L 376.87 991.99
  A 0.88 0.87 -89.7 0 0 377.75 991.11
  L 377.75 980.38
  A 0.88 0.87 -90.0 0 1 378.62 979.50
  L 450.00 979.29
  Z"
/>
<path fill="none" stroke-width="1.00" stroke="#d9d9d9" vector-effect="non-scaling-stroke" d="
  M 1028.75 1043.24
  A 0.26 0.26 0.0 0 1 1028.49 1043.50
  L 682.01 1043.50
  A 0.26 0.26 0.0 0 1 681.75 1043.24
  L 681.75 729.26
  A 0.26 0.26 0.0 0 1 682.01 729.00
  L 1028.49 729.00
  A 0.26 0.26 0.0 0 1 1028.75 729.26
  L 1028.75 1043.24
  Z
  M 878.32 979.31
  L 976.68 979.19
  A 0.51 0.49 -0.0 0 0 977.19 978.70
  L 977.25 812.09
  A 0.85 0.84 0.0 0 0 976.40 811.25
  L 956.32 811.19
  A 0.50 0.49 90.0 0 1 955.83 810.69
  L 955.83 781.43
  A 0.46 0.44 -3.5 0 0 955.32 781.00
  Q 938.07 783.02 920.98 779.89
  Q 906.14 777.17 891.24 774.82
  Q 873.99 772.09 857.17 781.20
  A 0.93 0.93 47.2 0 1 856.21 781.16
  Q 845.92 774.41 833.25 774.18
  Q 825.57 774.04 821.75 774.75
  Q 805.04 777.87 788.27 780.64
  Q 774.03 782.99 758.37 780.81
  A 0.33 0.32 3.9 0 0 758.00 781.13
  L 757.94 810.69
  A 0.51 0.50 -0.0 0 1 757.43 811.19
  L 737.25 811.25
  A 0.50 0.50 0.0 0 0 736.75 811.75
  L 736.81 978.79
  A 0.65 0.65 -0.4 0 0 737.47 979.44
  Q 770.84 979.11 804.00 979.30
  Q 819.72 979.39 835.44 979.31
  A 0.60 0.60 -5.2 0 1 836.03 979.80
  Q 836.81 984.08 836.35 990.22
  A 1.61 1.60 -88.0 0 0 837.95 991.94
  L 877.09 992.00
  A 0.68 0.66 90.0 0 0 877.75 991.32
  L 877.80 979.81
  A 0.52 0.50 -0.0 0 1 878.32 979.31
  Z"
/>
<path fill="none" stroke-width="1.00" stroke="#d9d9d9" vector-effect="non-scaling-stroke" d="
  M 475.77 979.26
  Q 462.88 978.08 450.00 979.29
  L 378.62 979.50
  A 0.88 0.87 90.0 0 0 377.75 980.38
  L 377.75 991.11
  A 0.88 0.87 -89.7 0 1 376.87 991.99
  L 337.19 991.82
  A 0.53 0.52 -0.6 0 1 336.66 991.31
  L 336.43 980.06
  A 0.60 0.58 -86.6 0 0 335.93 979.48
  Q 333.95 979.19 331.97 979.29
  Q 328.36 979.49 328.03 979.49
  Q 282.80 979.21 237.56 979.19
  A 0.50 0.49 0.0 0 1 237.06 978.70
  L 237.00 811.81
  A 0.59 0.57 -0.5 0 1 237.58 811.24
  L 257.56 811.08
  A 0.52 0.52 90.0 0 0 258.08 810.56
  L 258.06 781.54
  A 0.73 0.71 -85.0 0 1 258.90 780.82
  Q 263.14 781.58 267.61 781.85
  Q 271.44 782.08 276.37 781.72
  Q 291.85 780.57 307.06 777.31
  Q 312.91 776.06 325.25 774.52
  Q 342.25 772.39 356.26 781.05
  A 1.36 1.35 -43.6 0 0 357.62 781.08
  Q 371.46 773.47 386.00 774.14
  Q 388.37 774.25 405.46 777.15
  Q 415.19 778.80 424.91 780.45
  Q 440.16 783.03 455.45 780.88
  A 0.43 0.43 -3.5 0 1 455.94 781.31
  L 455.83 810.68
  A 0.51 0.48 -89.4 0 0 456.31 811.20
  L 476.68 811.08
  A 0.51 0.47 -0.0 0 1 477.19 811.55
  L 477.25 978.76
  A 0.83 0.57 84.4 0 1 476.84 979.51
  Q 476.36 979.67 475.77 979.26
  Z
  M 276.43 945.08
  Q 281.91 947.65 288.00 947.40
  Q 298.11 946.99 307.81 944.06
  Q 318.21 940.93 331.25 941.53
  Q 338.21 941.86 345.54 945.12
  A 0.37 0.36 12.0 0 0 346.06 944.79
  Q 345.96 872.90 346.00 801.84
  Q 346.00 799.43 344.84 798.01
  Q 343.11 795.90 340.41 794.87
  Q 334.67 792.68 328.50 793.28
  Q 315.81 794.51 303.33 797.16
  Q 292.51 799.45 281.49 800.41
  Q 279.11 800.62 276.74 800.25
  A 0.87 0.87 89.5 0 0 275.75 801.26
  Q 276.07 803.11 276.07 805.00
  Q 275.95 874.87 276.06 944.73
  A 0.31 0.30 11.8 0 0 276.25 945.01
  Q 276.34 945.04 276.43 945.08
  Z
  M 392.43 941.65
  Q 402.97 942.79 407.44 944.31
  Q 419.87 948.53 433.69 946.69
  Q 438.71 946.02 438.39 941.54
  Q 438.24 939.52 438.24 939.45
  Q 437.69 871.83 438.27 801.46
  A 1.08 1.08 88.3 0 0 437.12 800.37
  Q 430.50 800.80 423.16 799.47
  Q 412.48 797.54 409.81 796.94
  Q 398.65 794.44 387.27 793.27
  Q 381.57 792.68 376.02 794.09
  Q 371.49 795.24 368.77 798.56
  A 2.34 2.32 64.8 0 0 368.25 800.03
  L 368.07 944.70
  A 0.33 0.32 78.6 0 0 368.52 945.00
  Q 379.98 940.31 392.43 941.65
  Z"
/>
<path fill="none" stroke-width="1.00" stroke="#d9d9d9" vector-effect="non-scaling-stroke" d="
  M 877.80 979.81
  L 877.75 991.32
  A 0.68 0.66 90.0 0 1 877.09 992.00
  L 837.95 991.94
  A 1.61 1.60 -88.0 0 1 836.35 990.22
  Q 836.81 984.08 836.03 979.80
  A 0.60 0.60 -5.2 0 0 835.44 979.31
  Q 819.72 979.39 804.00 979.30
  Q 770.84 979.11 737.47 979.44
  A 0.65 0.65 -0.4 0 1 736.81 978.79
  L 736.75 811.75
  A 0.50 0.50 0.0 0 1 737.25 811.25
  L 757.43 811.19
  A 0.51 0.50 -0.0 0 0 757.94 810.69
  L 758.00 781.13
  A 0.33 0.32 3.9 0 1 758.37 780.81
  Q 774.03 782.99 788.27 780.64
  Q 805.04 777.87 821.75 774.75
  Q 825.57 774.04 833.25 774.18
  Q 845.92 774.41 856.21 781.16
  A 0.93 0.93 47.2 0 0 857.17 781.20
  Q 873.99 772.09 891.24 774.82
  Q 906.14 777.17 920.98 779.89
  Q 938.07 783.02 955.32 781.00
  A 0.46 0.44 -3.5 0 1 955.83 781.43
  L 955.83 810.69
  A 0.50 0.49 90.0 0 0 956.32 811.19
  L 976.40 811.25
  A 0.85 0.84 -0.0 0 1 977.25 812.09
  L 977.19 978.70
  A 0.51 0.49 0.0 0 1 976.68 979.19
  L 878.32 979.31
  A 0.52 0.50 0.0 0 0 877.80 979.81
  Z
  M 773.55 945.15
  Q 779.59 947.63 785.75 947.50
  Q 794.42 947.31 806.10 943.96
  Q 812.05 942.26 822.00 941.50
  Q 833.03 940.66 842.82 945.17
  A 0.31 0.31 11.9 0 0 843.25 944.89
  Q 843.30 873.27 843.19 802.02
  Q 843.19 799.45 842.01 797.96
  Q 840.32 795.79 837.69 794.81
  Q 831.86 792.64 825.26 793.35
  Q 809.34 795.07 793.69 798.45
  Q 783.80 800.59 773.69 800.45
  A 0.49 0.48 0.6 0 0 773.19 800.93
  L 773.31 944.79
  A 0.39 0.37 -80.3 0 0 773.55 945.15
  Z
  M 889.92 941.69
  Q 899.23 942.73 908.26 945.23
  Q 915.98 947.37 924.00 947.46
  Q 929.67 947.52 934.73 945.15
  A 0.79 0.78 -12.4 0 0 935.19 944.44
  L 935.31 800.60
  A 0.28 0.27 88.1 0 0 935.02 800.32
  Q 927.40 800.81 919.73 799.33
  Q 907.10 796.90 894.41 794.71
  Q 887.38 793.50 880.26 793.13
  Q 873.01 792.75 867.25 797.11
  Q 865.25 798.62 865.25 801.12
  L 865.31 944.69
  A 0.33 0.33 78.8 0 0 865.77 945.00
  Q 877.36 940.30 889.92 941.69
  Z"
/>
<path fill="none" stroke-width="1.00" stroke="#d9d9d9" vector-effect="non-scaling-stroke" d="
  M 276.43 945.08
  Q 276.34 945.04 276.25 945.01
  A 0.31 0.30 11.8 0 1 276.06 944.73
  Q 275.95 874.87 276.07 805.00
  Q 276.07 803.11 275.75 801.26
  A 0.87 0.87 89.5 0 1 276.74 800.25
  Q 279.11 800.62 281.49 800.41
  Q 292.51 799.45 303.33 797.16
  Q 315.81 794.51 328.50 793.28
  Q 334.67 792.68 340.41 794.87
  Q 343.11 795.90 344.84 798.01
  Q 346.00 799.43 346.00 801.84
  Q 345.96 872.90 346.06 944.79
  A 0.37 0.36 12.0 0 1 345.54 945.12
  Q 338.21 941.86 331.25 941.53
  Q 318.21 940.93 307.81 944.06
  Q 298.11 946.99 288.00 947.40
  Q 281.91 947.65 276.43 945.08
  Z"
/>
<path fill="none" stroke-width="1.00" stroke="#d9d9d9" vector-effect="non-scaling-stroke" d="
  M 392.43 941.65
  Q 379.98 940.31 368.52 945.00
  A 0.33 0.32 78.6 0 1 368.07 944.70
  L 368.25 800.03
  A 2.34 2.32 64.8 0 1 368.77 798.56
  Q 371.49 795.24 376.02 794.09
  Q 381.57 792.68 387.27 793.27
  Q 398.65 794.44 409.81 796.94
  Q 412.48 797.54 423.16 799.47
  Q 430.50 800.80 437.12 800.37
  A 1.08 1.08 88.3 0 1 438.27 801.46
  Q 437.69 871.83 438.24 939.45
  Q 438.24 939.52 438.39 941.54
  Q 438.71 946.02 433.69 946.69
  Q 419.87 948.53 407.44 944.31
  Q 402.97 942.79 392.43 941.65
  Z"
/>
<path fill="none" stroke-width="1.00" stroke="#d9d9d9" vector-effect="non-scaling-stroke" d="
  M 773.55 945.15
  A 0.39 0.37 -80.3 0 1 773.31 944.79
  L 773.19 800.93
  A 0.49 0.48 0.6 0 1 773.69 800.45
  Q 783.80 800.59 793.69 798.45
  Q 809.34 795.07 825.26 793.35
  Q 831.86 792.64 837.69 794.81
  Q 840.32 795.79 842.01 797.96
  Q 843.19 799.45 843.19 802.02
  Q 843.30 873.27 843.25 944.89
  A 0.31 0.31 11.9 0 1 842.82 945.17
  Q 833.03 940.66 822.00 941.50
  Q 812.05 942.26 806.10 943.96
  Q 794.42 947.31 785.75 947.50
  Q 779.59 947.63 773.55 945.15
  Z"
/>
<path fill="none" stroke-width="1.00" stroke="#d9d9d9" vector-effect="non-scaling-stroke" d="
  M 889.92 941.69
  Q 877.36 940.30 865.77 945.00
  A 0.33 0.33 78.8 0 1 865.31 944.69
  L 865.25 801.12
  Q 865.25 798.62 867.25 797.11
  Q 873.01 792.75 880.26 793.13
  Q 887.38 793.50 894.41 794.71
  Q 907.10 796.90 919.73 799.33
  Q 927.40 800.81 935.02 800.32
  A 0.28 0.27 88.1 0 1 935.31 800.60
  L 935.19 944.44
  A 0.79 0.78 -12.4 0 1 934.73 945.15
  Q 929.67 947.52 924.00 947.46
  Q 915.98 947.37 908.26 945.23
  Q 899.23 942.73 889.92 941.69
  Z"
/>
<path fill="none" stroke-width="1.00" stroke="#d9d9d9" vector-effect="non-scaling-stroke" d="
  M 475.77 979.26
  Q 462.86 979.88 450.00 979.29
  Q 462.88 978.08 475.77 979.26
  Z"
/>
<path fill="none" stroke-width="1.00" stroke="#d9d9d9" vector-effect="non-scaling-stroke" d="
  M 237.83 1265.06
  A 0.87 0.87 89.9 0 0 236.96 1265.93
  L 236.94 1413.78
  Q 236.94 1415.02 236.32 1413.95
  Q 233.11 1408.35 230.21 1402.61
  Q 207.35 1357.36 196.63 1307.78
  Q 190.12 1277.66 186.96 1247.00
  Q 183.86 1216.83 182.98 1185.71
  A 0.69 0.68 89.2 0 1 183.66 1185.00
  L 529.13 1185.00
  A 0.87 0.87 0.1 0 1 530.00 1185.87
  L 530.00 1605.51
  A 0.53 0.53 -81.8 0 1 529.32 1606.02
  Q 478.20 1591.28 428.97 1571.33
  Q 389.41 1555.30 352.85 1533.40
  Q 343.39 1527.74 335.96 1522.68
  Q 283.59 1486.98 248.37 1433.71
  Q 248.07 1433.25 248.62 1433.25
  L 335.86 1433.25
  A 0.61 0.61 3.3 0 1 336.47 1433.93
  Q 335.80 1439.74 336.67 1445.26
  A 0.58 0.58 85.3 0 0 337.24 1445.75
  L 376.94 1445.93
  A 0.55 0.51 0.5 0 0 377.49 1445.43
  L 377.72 1433.96
  A 0.72 0.68 -89.6 0 1 378.40 1433.25
  L 476.75 1433.25
  A 0.50 0.50 0.0 0 0 477.25 1432.75
  L 477.25 1265.45
  A 0.51 0.50 89.4 0 0 476.74 1264.94
  L 456.92 1265.06
  A 0.67 0.67 0.0 0 1 456.25 1264.39
  L 456.19 1235.06
  A 0.43 0.43 -4.6 0 0 455.69 1234.64
  Q 446.59 1235.97 438.25 1235.50
  Q 425.88 1234.80 412.50 1232.00
  Q 406.54 1230.75 389.00 1228.25
  Q 372.45 1225.89 357.61 1235.05
  A 0.80 0.80 0.0 0 1 356.77 1235.05
  Q 346.69 1228.89 335.19 1228.01
  Q 329.47 1227.57 319.86 1229.02
  Q 313.01 1230.06 304.69 1231.69
  Q 296.62 1233.27 284.08 1234.95
  Q 271.16 1236.69 259.23 1234.72
  A 1.13 1.10 -85.3 0 0 257.94 1235.84
  L 257.95 1264.45
  A 0.52 0.49 -0.0 0 1 257.43 1264.94
  L 237.83 1265.06
  Z"
/>
<path fill="none" stroke-width="1.00" stroke="#d9d9d9" vector-effect="non-scaling-stroke" d="
  M 976.68 1265.06
  L 956.55 1265.00
  A 0.55 0.54 -0.0 0 1 956.00 1264.46
  L 956.18 1235.14
  A 0.53 0.52 86.2 0 0 955.59 1234.61
  Q 942.36 1236.34 929.84 1234.89
  Q 929.25 1234.82 912.68 1232.08
  Q 905.31 1230.86 897.93 1229.65
  Q 897.83 1229.63 893.10 1228.75
  Q 874.35 1225.27 857.80 1234.82
  A 1.20 1.17 43.9 0 1 856.64 1234.83
  Q 839.96 1225.75 822.08 1228.70
  Q 812.38 1230.30 802.69 1231.90
  Q 785.24 1234.78 783.30 1234.99
  Q 770.85 1236.31 758.31 1234.63
  A 0.43 0.43 -86.5 0 0 757.83 1235.06
  L 757.83 1264.56
  A 0.51 0.50 -0.0 0 1 757.32 1265.06
  L 737.62 1265.00
  A 0.88 0.87 90.0 0 0 736.75 1265.88
  L 736.75 1432.69
  A 0.56 0.56 0.0 0 0 737.31 1433.25
  L 835.45 1433.25
  A 1.18 1.11 89.5 0 1 836.56 1434.41
  L 836.76 1445.18
  A 0.55 0.53 0.0 0 0 837.30 1445.70
  Q 857.15 1446.31 877.00 1445.76
  A 0.54 0.52 -0.0 0 0 877.53 1445.25
  L 877.82 1433.80
  A 0.50 0.49 -89.4 0 1 878.31 1433.31
  L 966.47 1433.25
  Q 966.98 1433.25 966.69 1433.68
  Q 927.83 1491.00 869.31 1528.06
  Q 847.95 1541.60 828.69 1551.19
  Q 784.66 1573.15 738.07 1588.95
  Q 710.71 1598.22 682.70 1606.25
  A 0.74 0.74 -8.2 0 1 681.75 1605.54
  L 681.75 1185.92
  A 0.92 0.92 89.9 0 1 682.67 1185.00
  L 1027.87 1185.00
  A 0.89 0.89 89.0 0 1 1028.76 1185.86
  Q 1028.92 1189.75 1029.20 1193.80
  Q 1029.49 1198.05 1029.27 1201.71
  Q 1028.20 1219.65 1025.75 1245.25
  Q 1021.43 1290.48 1011.06 1332.02
  Q 1000.06 1376.07 977.96 1415.65
  Q 977.19 1417.03 977.19 1415.45
  L 977.19 1265.56
  A 0.51 0.50 0.0 0 0 976.68 1265.06
  Z"
/>
<path fill="none" stroke-width="1.00" stroke="#d9d9d9" vector-effect="non-scaling-stroke" d="
  M 276.58 1399.03
  A 0.90 0.89 13.5 0 1 276.07 1398.21
  Q 276.13 1391.97 276.10 1385.50
  Q 275.89 1343.25 276.03 1301.00
  Q 276.09 1279.63 275.99 1255.40
  A 1.04 1.04 1.0 0 1 277.08 1254.35
  Q 284.74 1254.73 293.01 1253.07
  Q 297.65 1252.14 302.30 1251.29
  Q 302.42 1251.27 311.17 1249.55
  Q 318.52 1248.11 325.99 1247.53
  Q 333.01 1246.99 335.50 1247.34
  Q 340.39 1248.05 344.45 1251.32
  Q 346.00 1252.57 346.00 1254.57
  L 346.00 1398.57
  A 0.42 0.42 13.6 0 1 345.39 1398.94
  Q 339.71 1396.11 333.25 1395.54
  Q 322.81 1394.61 312.60 1396.97
  Q 306.43 1398.40 300.27 1399.85
  Q 291.86 1401.84 283.25 1400.98
  Q 280.07 1400.66 276.58 1399.03
  Z"
/>
<path fill="none" stroke-width="1.00" stroke="#d9d9d9" vector-effect="non-scaling-stroke" d="
  M 389.94 1395.21
  Q 378.88 1394.42 368.78 1398.74
  A 0.34 0.33 -11.8 0 1 368.31 1398.44
  L 368.25 1254.62
  Q 368.25 1252.88 369.48 1251.64
  Q 373.19 1247.91 379.25 1247.25
  Q 384.20 1246.71 393.94 1248.06
  Q 399.65 1248.85 412.40 1251.47
  Q 422.62 1253.56 433.01 1254.30
  Q 435.12 1254.45 437.49 1254.23
  A 0.46 0.46 -2.8 0 1 438.00 1254.69
  L 438.00 1397.95
  A 1.50 1.50 -11.1 0 1 437.06 1399.34
  Q 431.12 1401.75 424.25 1401.27
  Q 416.23 1400.71 408.50 1398.49
  Q 399.39 1395.88 389.94 1395.21
  Z"
/>
<path fill="none" stroke-width="1.00" stroke="#d9d9d9" vector-effect="non-scaling-stroke" d="
  M 776.86 1399.28
  A 1.37 1.36 -79.3 0 1 776.00 1398.01
  L 776.06 1254.81
  A 0.48 0.47 1.2 0 1 776.56 1254.34
  Q 784.86 1254.70 793.01 1253.06
  Q 803.21 1251.02 813.41 1249.06
  Q 822.16 1247.38 831.03 1247.24
  Q 835.79 1247.17 838.38 1248.03
  Q 841.89 1249.21 844.85 1251.95
  A 2.83 2.83 21.5 0 1 845.75 1254.02
  L 845.75 1398.66
  A 0.31 0.31 13.7 0 1 845.30 1398.93
  Q 839.62 1396.04 833.25 1395.47
  Q 824.32 1394.68 815.52 1396.34
  Q 807.44 1397.87 799.45 1399.78
  Q 792.45 1401.45 785.26 1401.12
  Q 780.94 1400.92 776.86 1399.28
  Z"
/>
<path fill="none" stroke-width="1.00" stroke="#d9d9d9" vector-effect="non-scaling-stroke" d="
  M 889.94 1395.26
  Q 878.78 1394.49 868.52 1398.74
  A 0.33 0.32 78.2 0 1 868.07 1398.44
  L 868.25 1253.75
  A 1.41 1.35 65.9 0 1 868.57 1252.86
  Q 873.69 1246.71 882.50 1247.25
  Q 896.39 1248.09 908.09 1250.47
  Q 917.41 1252.37 917.45 1252.37
  Q 926.82 1254.08 929.25 1254.25
  Q 933.50 1254.54 937.47 1254.27
  A 0.49 0.49 -2.2 0 1 938.00 1254.76
  L 938.00 1397.61
  A 1.87 1.86 78.6 0 1 936.86 1399.33
  Q 931.00 1401.76 924.25 1401.25
  Q 916.02 1400.63 908.07 1398.40
  Q 899.17 1395.91 889.94 1395.26
  Z"
/>
</svg>
