<?xml version="1.0" encoding="UTF-8" standalone="no"?>
<!DOCTYPE svg PUBLIC "-//W3C//DTD SVG 1.1//EN" "http://www.w3.org/Graphics/SVG/1.1/DTD/svg11.dtd">
<svg xmlns="http://www.w3.org/2000/svg" version="1.1" viewBox="0 0 600 600" height="108px">
<path fill="none" stroke-width="1.00" stroke="#d9d9d9" vector-effect="non-scaling-stroke" d="
  M 128.93 199.88
  A 1.37 1.34 12.2 0 1 129.74 201.11
  L 129.52 227.25
  A 1.04 0.91 75.5 0 1 129.12 228.05
  Q 127.00 229.49 125.79 225.07
  Q 125.21 222.96 123.19 223.78
  Q 119.91 225.09 116.70 226.72
  Q 110.95 229.63 104.49 230.13
  Q 83.47 231.77 71.69 215.06
  Q 65.30 206.01 64.11 194.49
  Q 61.82 172.32 75.44 156.69
  Q 85.63 144.99 100.75 144.25
  Q 104.10 144.09 107.81 145.02
  Q 109.59 145.46 114.40 147.53
  Q 118.39 149.24 121.50 150.00
  Q 125.27 150.92 126.37 147.48
  A 1.47 0.94 -87.9 0 1 126.91 146.70
  Q 127.87 146.11 128.85 146.70
  A 0.97 0.87 -75.4 0 1 129.26 147.49
  L 129.26 173.50
  A 0.95 0.84 76.0 0 1 128.85 174.28
  Q 127.64 175.03 126.78 174.21
  Q 126.32 173.77 126.07 172.61
  Q 123.22 159.20 113.19 151.31
  Q 109.81 148.66 105.24 147.85
  Q 100.67 147.05 96.86 148.42
  Q 92.36 150.03 89.69 154.19
  Q 86.66 158.89 85.46 165.54
  Q 83.27 177.61 83.44 189.82
  Q 83.57 198.81 84.20 204.17
  Q 85.10 211.94 87.81 218.19
  Q 90.93 225.36 97.89 226.78
  Q 103.57 227.93 109.92 225.40
  Q 118.37 222.03 122.61 213.09
  Q 125.39 207.24 126.25 200.81
  A 1.19 0.94 81.5 0 1 126.71 200.01
  Q 127.75 199.35 128.93 199.88
  Z"
/>
<circle fill="none" stroke-width="1.00" stroke="#d9d9d9" vector-effect="non-scaling-stroke" cx="435.68" cy="161.77" r="7.98"/>
<path fill="none" stroke-width="1.00" stroke="#d9d9d9" vector-effect="non-scaling-stroke" d="
  M 219.53 185.25
  Q 223.51 177.47 232.24 175.94
  Q 238.39 174.86 241.50 178.79
  Q 243.77 181.66 243.37 185.66
  Q 242.91 190.27 238.91 192.14
  Q 234.66 194.13 230.62 192.06
  Q 225.82 189.59 227.15 182.74
  A 1.08 0.74 -68.6 0 0 226.94 181.85
  Q 226.21 181.15 225.19 182.44
  Q 219.36 189.83 219.32 198.75
  Q 219.25 211.75 219.25 224.75
  A 0.50 0.50 0.0 0 0 219.75 225.25
  L 229.13 225.25
  A 0.71 0.71 84.6 0 1 229.83 225.83
  Q 230.28 228.28 229.14 228.71
  Q 229.05 228.75 226.86 228.75
  Q 212.46 228.75 198.06 228.75
  Q 196.14 228.75 195.97 228.68
  Q 194.94 228.23 195.40 226.02
  A 0.97 0.97 5.8 0 1 196.35 225.25
  L 202.44 225.25
  A 0.56 0.56 0.0 0 0 203.00 224.69
  L 203.00 182.04
  A 0.79 0.79 0.0 0 0 202.21 181.25
  L 196.25 181.25
  A 0.79 0.79 -12.2 0 1 195.53 180.79
  Q 194.03 177.41 197.49 177.63
  Q 199.41 177.75 199.51 177.75
  Q 208.42 177.75 218.01 177.75
  A 1.17 1.06 89.2 0 1 219.07 178.89
  L 219.23 185.20
  Q 219.25 185.81 219.53 185.25
  Z"
/>
<path fill="none" stroke-width="1.00" stroke="#d9d9d9" vector-effect="non-scaling-stroke" d="
  M 253.69 224.69
  L 253.75 181.76
  A 0.73 0.72 1.7 0 0 253.06 181.04
  Q 251.22 180.95 249.02 181.21
  Q 244.59 181.72 246.11 178.02
  A 0.75 0.74 11.2 0 1 246.80 177.56
  L 269.25 177.50
  A 0.76 0.75 90.0 0 1 270.00 178.26
  L 270.00 185.06
  Q 270.00 186.23 270.70 185.30
  Q 278.42 174.98 290.99 176.12
  Q 303.01 177.21 304.53 189.25
  Q 304.98 192.86 304.97 196.50
  Q 304.95 210.59 305.06 224.77
  A 0.58 0.57 -1.0 0 0 305.65 225.33
  L 311.99 225.25
  A 0.94 0.92 84.5 0 1 312.91 226.03
  Q 313.41 228.71 311.44 228.56
  Q 310.62 228.50 310.57 228.50
  Q 297.03 228.50 283.27 228.50
  A 1.00 0.99 -6.6 0 1 282.30 227.74
  Q 281.69 225.08 284.00 225.18
  Q 285.63 225.25 287.98 225.25
  A 0.77 0.76 -89.6 0 0 288.74 224.49
  Q 288.92 206.32 288.57 188.98
  Q 288.48 184.53 287.23 182.78
  Q 285.50 180.36 282.12 180.96
  Q 279.90 181.35 277.62 183.14
  Q 273.52 186.37 271.46 191.05
  Q 270.06 194.22 270.00 199.80
  Q 269.87 212.18 270.17 224.57
  A 0.57 0.53 89.9 0 0 270.68 225.12
  L 275.75 225.28
  A 0.95 0.69 -9.1 0 1 276.52 225.67
  Q 277.15 226.84 276.51 228.07
  A 0.87 0.78 12.2 0 1 275.76 228.50
  L 246.51 228.50
  A 0.60 0.60 84.1 0 1 245.92 228.02
  Q 245.26 224.99 247.32 225.18
  Q 248.12 225.26 248.19 225.26
  Q 250.69 225.29 253.19 225.20
  A 0.51 0.51 -0.6 0 0 253.69 224.69
  Z"
/>
<path fill="none" stroke-width="1.00" stroke="#d9d9d9" vector-effect="non-scaling-stroke" d="
  M 170.35 223.41
  Q 167.19 226.64 165.44 227.44
  Q 154.02 232.65 143.56 227.19
  Q 140.07 225.37 138.37 221.70
  Q 136.89 218.51 137.17 214.60
  Q 137.60 208.44 142.24 204.93
  Q 145.27 202.64 151.75 201.27
  Q 160.17 199.50 169.37 199.50
  A 0.88 0.88 0.0 0 0 170.25 198.62
  Q 170.25 192.62 170.24 187.00
  Q 170.24 183.62 168.17 181.71
  Q 166.59 180.26 163.34 179.78
  Q 157.04 178.85 151.08 181.56
  Q 149.14 182.44 151.18 183.07
  Q 153.44 183.77 154.72 185.29
  Q 155.89 186.68 155.93 189.00
  Q 156.00 194.08 151.76 195.47
  Q 148.09 196.68 144.85 195.05
  Q 141.04 193.13 141.50 187.75
  Q 141.84 183.79 145.37 181.14
  Q 149.37 178.14 154.28 177.16
  Q 165.32 174.94 175.56 178.44
  Q 181.35 180.42 183.91 185.33
  Q 185.49 188.35 185.61 194.95
  Q 185.80 205.63 185.75 221.75
  Q 185.74 224.43 188.18 224.66
  A 0.97 0.95 -66.7 0 0 189.01 224.32
  Q 190.86 222.11 191.42 219.24
  A 0.84 0.79 87.5 0 1 191.98 218.59
  Q 195.07 217.66 194.11 220.96
  Q 191.25 230.82 180.50 229.75
  Q 173.77 229.08 170.91 223.51
  A 0.36 0.34 53.7 0 0 170.35 223.41
  Z
  M 156.26 224.21
  Q 162.43 227.87 167.03 222.79
  Q 170.19 219.29 170.24 214.50
  Q 170.30 208.78 170.20 203.06
  A 0.49 0.48 -2.3 0 0 169.68 202.59
  Q 162.41 203.03 159.00 203.75
  Q 155.07 204.58 154.19 207.44
  Q 151.78 215.21 154.69 222.38
  A 3.81 3.78 -85.8 0 0 156.26 224.21
  Z"
/>
<path fill="none" stroke-width="1.00" stroke="#d9d9d9" vector-effect="non-scaling-stroke" d="
  M 330.29 201.31
  Q 329.93 208.92 330.74 216.50
  Q 331.23 221.13 334.30 223.75
  Q 336.92 225.98 341.33 226.31
  Q 349.25 226.91 354.19 220.69
  Q 356.95 217.20 359.16 210.29
  A 1.05 0.97 -89.3 0 1 359.78 209.64
  Q 362.89 208.61 361.81 212.06
  Q 357.35 226.36 345.08 229.18
  Q 335.22 231.45 326.34 226.95
  Q 319.85 223.67 316.29 217.09
  Q 313.14 211.27 312.89 203.98
  Q 312.39 189.83 324.00 181.00
  Q 332.61 174.45 342.33 176.69
  Q 350.33 178.54 355.69 184.71
  Q 361.02 190.85 362.04 199.89
  A 0.77 0.77 86.7 0 1 361.28 200.75
  L 330.81 200.81
  A 0.52 0.52 -88.9 0 0 330.29 201.31
  Z
  M 331.11 185.09
  Q 329.68 190.13 330.42 196.46
  A 0.90 0.89 -3.2 0 0 331.31 197.25
  L 344.00 197.25
  A 0.50 0.50 0.0 0 0 344.50 196.75
  Q 344.50 191.87 344.38 187.00
  Q 344.26 182.33 340.67 180.43
  Q 339.02 179.56 337.20 179.65
  Q 335.21 179.74 333.69 180.85
  Q 331.95 182.12 331.11 185.09
  Z"
/>
<path fill="none" stroke-width="1.00" stroke="#d9d9d9" vector-effect="non-scaling-stroke" d="
  M 410.65 242.43
  Q 410.06 242.72 409.18 242.07
  Q 407.25 240.66 407.13 242.68
  Q 407.98 237.43 405.32 234.93
  Q 403.58 233.30 398.72 233.00
  Q 387.15 232.31 375.57 233.03
  A 1.32 1.23 18.5 0 0 374.71 233.42
  Q 370.21 238.05 369.81 243.31
  Q 369.46 247.92 373.64 252.48
  Q 371.99 252.34 371.19 254.05
  A 0.59 0.48 30.0 0 0 371.44 254.71
  Q 372.06 255.10 370.75 255.46
  Q 367.17 253.73 365.00 250.69
  Q 362.86 247.70 362.95 243.87
  Q 363.14 235.83 371.77 232.74
  Q 372.79 232.38 371.77 232.00
  Q 366.50 230.04 365.47 224.25
  Q 363.09 210.89 375.35 207.69
  Q 376.48 207.39 375.45 206.82
  Q 369.98 203.78 368.01 198.42
  Q 366.31 193.77 367.68 189.02
  Q 368.63 185.72 370.91 183.10
  Q 372.89 180.83 376.17 179.15
  Q 388.02 173.08 401.20 179.96
  A 1.00 1.00 38.2 0 0 402.31 179.83
  Q 407.38 175.48 413.31 177.43
  Q 415.88 178.27 417.10 179.90
  Q 418.77 182.14 417.44 184.94
  Q 416.03 187.90 413.05 187.75
  Q 410.45 187.62 408.97 185.71
  Q 407.28 183.54 408.36 180.17
  Q 408.59 179.43 407.96 179.76
  L 404.05 181.82
  A 0.79 0.67 57.7 0 0 403.89 182.91
  Q 407.11 187.36 407.60 192.30
  Q 408.10 197.31 405.40 201.64
  Q 401.92 207.21 394.94 209.18
  Q 388.54 210.98 382.18 209.63
  Q 378.90 208.94 377.28 209.39
  Q 374.69 210.11 372.89 212.13
  Q 371.49 213.70 371.50 215.32
  Q 371.51 217.85 375.00 217.88
  Q 383.01 217.97 391.03 217.99
  Q 398.96 218.01 402.80 219.38
  Q 416.72 224.35 410.65 242.43
  Z
  M 381.81 182.75
  Q 380.66 185.57 380.47 188.72
  Q 380.39 189.92 380.42 194.77
  Q 380.45 198.96 381.25 202.25
  Q 382.78 208.54 389.60 206.71
  Q 392.81 205.84 393.52 202.50
  Q 394.79 196.53 394.44 190.49
  Q 394.11 184.76 393.42 182.94
  Q 391.59 178.11 384.60 180.21
  Q 382.60 180.81 381.81 182.75
  Z"
/>
<path fill="none" stroke-width="1.00" stroke="#d9d9d9" vector-effect="non-scaling-stroke" d="
  M 469.55 201.06
  Q 469.45 206.16 469.46 211.25
  Q 469.47 216.67 471.31 220.94
  Q 472.04 222.62 473.57 223.90
  Q 474.82 224.94 476.80 225.52
  Q 487.47 228.66 494.16 219.42
  Q 496.99 215.51 497.97 210.80
  A 1.62 1.12 83.3 0 1 498.42 209.96
  Q 499.58 208.98 501.07 209.75
  A 0.68 0.62 -70.8 0 1 501.39 210.49
  Q 497.94 225.94 483.97 229.19
  Q 477.92 230.60 472.01 229.28
  Q 465.71 227.87 460.99 223.79
  Q 454.62 218.29 452.67 209.59
  Q 450.74 200.95 454.31 192.31
  Q 457.59 184.39 464.52 180.11
  Q 471.42 175.85 479.12 176.36
  Q 487.96 176.94 494.55 184.21
  Q 500.16 190.40 501.31 199.23
  A 1.14 1.14 85.0 0 1 500.23 200.52
  Q 485.40 201.05 470.06 200.58
  A 0.49 0.49 1.7 0 0 469.55 201.06
  Z
  M 471.19 182.69
  Q 468.73 188.56 469.68 196.46
  A 0.89 0.89 86.7 0 0 470.56 197.25
  L 483.24 197.25
  A 0.49 0.49 -89.4 0 0 483.73 196.77
  Q 483.85 192.98 483.70 189.44
  Q 483.51 184.67 482.38 182.76
  Q 480.69 179.92 476.93 179.72
  Q 475.12 179.62 473.67 180.28
  Q 471.85 181.12 471.19 182.69
  Z"
/>
<path fill="none" stroke-width="1.00" stroke="#d9d9d9" vector-effect="non-scaling-stroke" d="
  M 427.44 224.68
  Q 427.54 204.36 427.50 184.03
  Q 427.50 183.90 427.73 182.51
  Q 428.04 180.53 424.21 181.24
  Q 422.33 181.58 421.46 179.87
  Q 420.30 177.58 423.01 177.66
  Q 424.89 177.72 424.99 177.71
  Q 434.02 177.39 443.06 177.67
  A 0.53 0.51 1.2 0 1 443.57 178.18
  L 443.68 224.58
  A 0.68 0.67 89.6 0 0 444.35 225.25
  L 450.75 225.25
  A 0.93 0.82 -13.1 0 1 451.53 225.67
  Q 452.13 226.77 451.57 227.89
  A 0.93 0.80 10.6 0 1 450.81 228.33
  Q 436.79 228.80 422.77 228.29
  Q 422.68 228.28 420.75 228.46
  Q 418.72 228.64 419.58 225.97
  A 0.74 0.73 8.0 0 1 420.25 225.47
  L 426.93 225.20
  A 0.53 0.52 -1.1 0 0 427.44 224.68
  Z"
/>
<path fill="none" stroke-width="1.00" stroke="#d9d9d9" vector-effect="non-scaling-stroke" d="
  M 333.69 180.85
  Q 335.21 179.74 337.20 179.65
  Q 339.02 179.56 340.67 180.43
  Q 344.26 182.33 344.38 187.00
  Q 344.50 191.87 344.50 196.75
  A 0.50 0.50 0.0 0 1 344.00 197.25
  L 331.31 197.25
  A 0.90 0.89 -3.2 0 1 330.42 196.46
  Q 329.68 190.13 331.11 185.09
  Q 331.95 182.12 333.69 180.85
  Z"
/>
<path fill="none" stroke-width="1.00" stroke="#d9d9d9" vector-effect="non-scaling-stroke" d="
  M 381.81 182.75
  Q 382.60 180.81 384.60 180.21
  Q 391.59 178.11 393.42 182.94
  Q 394.11 184.76 394.44 190.49
  Q 394.79 196.53 393.52 202.50
  Q 392.81 205.84 389.60 206.71
  Q 382.78 208.54 381.25 202.25
  Q 380.45 198.96 380.42 194.77
  Q 380.39 189.92 380.47 188.72
  Q 380.66 185.57 381.81 182.75
  Z"
/>
<path fill="none" stroke-width="1.00" stroke="#d9d9d9" vector-effect="non-scaling-stroke" d="
  M 471.19 182.69
  Q 471.85 181.12 473.67 180.28
  Q 475.12 179.62 476.93 179.72
  Q 480.69 179.92 482.38 182.76
  Q 483.51 184.67 483.70 189.44
  Q 483.85 192.98 483.73 196.77
  A 0.49 0.49 -89.4 0 1 483.24 197.25
  L 470.56 197.25
  A 0.89 0.89 86.7 0 1 469.68 196.46
  Q 468.73 188.56 471.19 182.69
  Z"
/>
<path fill="none" stroke-width="1.00" stroke="#d9d9d9" vector-effect="non-scaling-stroke" d="
  M 156.26 224.21
  A 3.81 3.78 -85.8 0 1 154.69 222.38
  Q 151.78 215.21 154.19 207.44
  Q 155.07 204.58 159.00 203.75
  Q 162.41 203.03 169.68 202.59
  A 0.49 0.48 -2.3 0 1 170.20 203.06
  Q 170.30 208.78 170.24 214.50
  Q 170.19 219.29 167.03 222.79
  Q 162.43 227.87 156.26 224.21
  Z"
/>
<path fill="none" stroke-width="1.00" stroke="#d9d9d9" vector-effect="non-scaling-stroke" d="
  M 407.13 242.68
  Q 395.17 262.97 373.64 252.48
  Q 369.46 247.92 369.81 243.31
  Q 370.21 238.05 374.71 233.42
  A 1.32 1.23 18.5 0 1 375.57 233.03
  Q 387.15 232.31 398.72 233.00
  Q 403.58 233.30 405.32 234.93
  Q 407.98 237.43 407.13 242.68
  Z"
/>
<path fill="none" stroke-width="1.00" stroke="#d9d9d9" vector-effect="non-scaling-stroke" d="
  M 410.65 242.43
  Q 407.47 252.98 396.74 256.97
  Q 383.35 261.95 370.75 255.46
  Q 372.06 255.10 371.44 254.71
  A 0.59 0.48 30.0 0 1 371.19 254.05
  Q 371.99 252.34 373.64 252.48
  Q 395.17 262.97 407.13 242.68
  Q 407.25 240.66 409.18 242.07
  Q 410.06 242.72 410.65 242.43
  Z"
/>
<path fill="none" stroke-width="1.00" stroke="#d9d9d9" vector-effect="non-scaling-stroke" d="
  M 132.44 324.68
  L 132.56 254.05
  Q 132.57 251.36 131.68 253.90
  Q 119.29 289.69 106.36 326.48
  Q 105.79 328.11 105.05 328.57
  Q 104.01 329.23 102.62 328.55
  A 1.34 1.12 89.7 0 1 102.02 327.84
  Q 88.59 289.71 75.11 251.59
  Q 75.03 251.35 74.87 251.30
  A 0.30 0.23 -82.7 0 0 74.56 251.61
  Q 74.88 282.12 74.76 312.64
  Q 74.76 312.71 74.64 315.85
  Q 74.47 320.31 76.06 323.19
  Q 77.09 325.03 79.72 325.23
  Q 79.74 325.23 81.77 325.11
  Q 84.75 324.93 83.61 328.22
  A 0.71 0.69 9.1 0 1 82.94 328.69
  L 64.49 328.75
  A 0.89 0.83 -13.7 0 1 63.73 328.32
  Q 63.01 327.00 63.77 325.73
  A 1.00 0.84 11.5 0 1 64.56 325.30
  Q 71.26 324.96 71.25 318.25
  Q 71.20 284.72 71.31 253.02
  Q 71.32 250.28 68.62 250.73
  Q 62.23 251.79 63.81 247.70
  A 0.74 0.69 9.7 0 1 64.49 247.25
  L 91.91 247.25
  A 1.05 1.04 -9.3 0 1 92.90 247.96
  L 110.93 301.02
  Q 111.21 301.84 111.50 301.02
  L 130.02 248.16
  A 0.74 0.72 -80.6 0 1 130.69 247.67
  L 155.62 247.51
  A 1.02 0.99 83.7 0 1 156.61 248.32
  Q 157.21 251.20 155.00 251.00
  Q 153.84 250.90 149.81 251.04
  A 0.53 0.52 88.9 0 0 149.31 251.57
  L 149.31 324.68
  A 0.56 0.56 -87.2 0 0 149.81 325.24
  Q 152.67 325.52 154.00 325.25
  Q 157.47 324.54 156.70 327.89
  A 1.11 1.11 -83.4 0 1 155.62 328.75
  Q 141.09 328.75 127.60 328.75
  Q 125.54 328.75 125.42 328.70
  Q 124.41 328.24 124.95 325.88
  A 0.82 0.80 6.1 0 1 125.75 325.25
  L 131.93 325.20
  A 0.52 0.51 90.0 0 0 132.44 324.68
  Z"
/>
<path fill="none" stroke-width="1.00" stroke="#d9d9d9" vector-effect="non-scaling-stroke" d="
  M 214.94 324.68
  L 215.00 251.56
  A 1.01 1.01 -4.2 0 0 213.84 250.56
  Q 211.96 250.84 209.79 250.79
  Q 207.89 250.75 207.72 250.68
  Q 206.69 250.24 207.15 248.03
  A 0.67 0.66 -84.1 0 1 207.80 247.50
  L 230.31 247.50
  A 0.69 0.69 0.0 0 1 231.00 248.19
  L 231.00 324.80
  A 0.58 0.55 -0.0 0 0 231.58 325.35
  L 238.18 325.29
  A 0.70 0.69 81.2 0 1 238.86 325.79
  Q 239.24 327.00 238.86 328.21
  A 0.71 0.67 7.6 0 1 238.19 328.69
  L 208.09 328.75
  A 0.97 0.97 84.6 0 1 207.14 327.96
  Q 206.52 324.79 209.02 325.02
  Q 211.72 325.27 214.44 325.20
  A 0.52 0.51 89.4 0 0 214.94 324.68
  Z"
/>
<path fill="none" stroke-width="1.00" stroke="#d9d9d9" vector-effect="non-scaling-stroke" d="
  M 248.94 324.69
  L 249.00 251.60
  A 0.85 0.85 0.0 0 0 248.15 250.75
  Q 245.50 250.75 242.50 250.76
  Q 240.46 250.76 241.07 248.21
  A 0.93 0.93 -83.3 0 1 241.97 247.50
  L 264.31 247.50
  A 0.69 0.69 0.0 0 1 265.00 248.19
  L 265.00 324.41
  A 1.18 1.10 -1.5 0 0 266.24 325.50
  L 272.01 325.23
  A 0.81 0.76 75.3 0 1 272.74 325.69
  Q 273.33 326.93 272.92 328.28
  A 0.71 0.66 7.6 0 1 272.25 328.75
  L 241.80 328.69
  A 0.70 0.69 -9.3 0 1 241.14 328.22
  Q 239.93 324.63 244.25 325.25
  Q 245.02 325.36 248.44 325.21
  A 0.52 0.52 -1.1 0 0 248.94 324.69
  Z"
/>
<path fill="none" stroke-width="1.00" stroke="#d9d9d9" vector-effect="non-scaling-stroke" d="
  M 334.69 281.30
  L 328.41 281.25
  A 1.05 1.03 -5.9 0 1 327.40 280.45
  Q 326.76 277.51 328.78 277.68
  Q 329.65 277.75 329.73 277.75
  Q 340.24 277.75 350.76 277.75
  A 0.71 0.71 88.3 0 1 351.47 278.42
  Q 351.66 281.89 351.13 284.73
  Q 350.98 285.52 351.44 285.67
  A 0.86 0.57 -59.1 0 0 352.23 285.29
  Q 358.27 277.01 368.69 276.19
  Q 380.09 275.28 384.26 283.69
  Q 385.96 287.13 386.23 294.60
  Q 386.74 309.20 386.48 324.55
  A 0.81 0.80 -87.4 0 0 387.22 325.37
  Q 389.25 325.54 390.60 325.65
  Q 390.82 325.67 392.89 325.55
  Q 395.06 325.42 394.01 328.10
  A 0.78 0.74 9.5 0 1 393.31 328.57
  Q 379.78 328.88 366.24 328.75
  Q 366.14 328.75 365.26 328.83
  Q 363.26 328.99 363.88 326.17
  A 0.74 0.64 -82.2 0 1 364.55 325.58
  L 369.22 325.74
  A 0.99 0.83 1.3 0 0 370.25 324.92
  Q 370.25 307.75 370.48 290.75
  Q 370.54 286.12 369.25 283.75
  Q 367.60 280.72 363.75 281.25
  Q 360.66 281.68 358.74 283.49
  Q 354.91 287.11 352.75 291.78
  Q 351.50 294.49 351.44 298.45
  Q 351.24 311.55 351.51 325.22
  A 0.55 0.52 88.3 0 0 352.04 325.75
  L 357.20 325.60
  A 0.96 0.74 -12.6 0 1 357.98 325.96
  Q 358.72 327.10 357.99 328.28
  A 0.99 0.87 14.3 0 1 357.19 328.69
  Q 343.35 328.79 329.50 328.75
  Q 328.11 328.75 327.60 328.33
  Q 326.84 327.71 327.26 326.41
  A 0.92 0.84 1.7 0 1 327.93 325.83
  Q 331.20 325.18 334.45 325.74
  A 0.68 0.68 5.0 0 0 335.25 325.07
  L 335.19 281.81
  A 0.51 0.50 90.0 0 0 334.69 281.30
  Z"
/>
<path fill="none" stroke-width="1.00" stroke="#d9d9d9" vector-effect="non-scaling-stroke" d="
  M 175.30 301.57
  Q 175.20 307.91 175.23 314.25
  Q 175.25 319.19 177.97 322.61
  Q 180.53 325.83 185.12 326.53
  Q 190.54 327.35 194.94 324.44
  Q 201.73 319.93 203.95 310.56
  A 0.89 0.80 -89.8 0 1 204.53 309.92
  Q 207.90 308.94 206.93 311.55
  Q 206.26 313.36 206.21 313.51
  Q 203.21 323.56 194.85 327.62
  Q 187.39 331.25 178.31 329.65
  Q 168.93 328.00 163.22 320.44
  Q 158.80 314.59 157.84 307.16
  Q 156.84 299.50 159.94 292.44
  Q 165.18 280.48 177.44 277.19
  Q 182.05 275.95 186.78 276.81
  Q 191.10 277.60 195.19 280.30
  Q 205.48 287.11 207.03 300.49
  A 0.46 0.46 -3.3 0 1 206.57 301.00
  L 175.81 301.06
  A 0.52 0.51 -89.4 0 0 175.30 301.57
  Z
  M 176.18 297.55
  L 188.92 297.50
  A 0.54 0.53 1.1 0 0 189.46 296.99
  Q 189.77 290.84 188.84 285.53
  Q 187.99 280.68 183.75 280.00
  Q 177.31 278.97 175.75 285.50
  Q 174.52 290.67 175.60 297.07
  A 0.58 0.57 -5.2 0 0 176.18 297.55
  Z"
/>
<path fill="none" stroke-width="1.00" stroke="#d9d9d9" vector-effect="non-scaling-stroke" d="
  M 327.7196 303.1452
  A 27.65 26.96 -0.3 0 1 300.2112 330.2496
  A 27.65 26.96 -0.3 0 1 272.4204 303.4348
  A 27.65 26.96 -0.3 0 1 299.9288 276.3304
  A 27.65 26.96 -0.3 0 1 327.7196 303.1452
  Z
  M 309.38 288.94
  A 8.89 8.89 0.0 0 0 300.49 280.05
  L 299.71 280.05
  A 8.89 8.89 0.0 0 0 290.82 288.94
  L 290.82 317.80
  A 8.89 8.89 0.0 0 0 299.71 326.69
  L 300.49 326.69
  A 8.89 8.89 0.0 0 0 309.38 317.80
  L 309.38 288.94
  Z"
/>
<path fill="none" stroke-width="1.00" stroke="#d9d9d9" vector-effect="non-scaling-stroke" d="
  M 175.60 297.07
  Q 174.52 290.67 175.75 285.50
  Q 177.31 278.97 183.75 280.00
  Q 187.99 280.68 188.84 285.53
  Q 189.77 290.84 189.46 296.99
  A 0.54 0.53 1.1 0 1 188.92 297.50
  L 176.18 297.55
  A 0.58 0.57 -5.2 0 1 175.60 297.07
  Z"
/>
<rect fill="none" stroke-width="1.00" stroke="#d9d9d9" vector-effect="non-scaling-stroke" x="290.82" y="280.05" width="18.56" height="46.64" rx="8.89"/>
<path fill="none" stroke-width="1.00" stroke="#d9d9d9" vector-effect="non-scaling-stroke" d="
  M 88.81 349.31
  Q 88.70 372.15 88.75 395.00
  Q 88.77 402.36 90.49 409.50
  Q 92.83 419.20 100.64 422.53
  Q 107.75 425.55 115.61 423.23
  Q 125.21 420.39 128.44 409.19
  Q 129.72 404.72 129.66 397.00
  Q 129.50 377.63 129.50 358.25
  Q 129.50 355.26 129.07 352.80
  Q 128.70 350.73 127.48 349.75
  Q 125.99 348.56 123.91 348.62
  Q 122.19 348.68 121.68 348.33
  Q 120.58 347.58 121.45 345.87
  A 0.85 0.80 12.2 0 1 122.20 345.42
  L 140.93 345.30
  A 0.78 0.72 -9.9 0 1 141.64 345.76
  Q 142.17 347.19 141.32 348.37
  A 0.93 0.80 19.4 0 1 140.51 348.69
  Q 133.45 347.89 133.50 355.50
  Q 133.73 388.11 133.25 403.50
  Q 132.96 412.80 127.41 419.30
  Q 122.98 424.49 115.10 426.86
  Q 103.70 430.30 91.94 427.06
  Q 77.79 423.17 73.46 410.68
  Q 71.78 405.83 71.63 394.14
  Q 71.35 372.38 71.51 349.70
  A 1.06 1.00 0.6 0 0 70.46 348.69
  L 64.18 348.62
  A 0.55 0.54 -89.5 0 1 63.65 348.07
  L 63.65 345.93
  A 0.54 0.51 0.0 0 1 64.19 345.42
  L 95.56 345.42
  A 0.80 0.78 77.8 0 1 96.28 345.90
  Q 97.80 349.45 93.50 348.75
  Q 92.79 348.64 89.32 348.79
  A 0.53 0.52 -1.1 0 0 88.81 349.31
  Z"
/>
<path fill="none" stroke-width="1.00" stroke="#d9d9d9" vector-effect="non-scaling-stroke" d="
  M 485.06 379.81
  Q 484.89 409.25 485.00 416.25
  Q 485.15 425.95 491.88 420.80
  Q 492.18 420.57 493.59 418.73
  Q 494.79 417.16 496.65 418.89
  A 0.63 0.62 -51.9 0 1 496.74 419.67
  Q 491.14 428.69 481.41 427.88
  Q 475.98 427.43 472.77 424.44
  Q 469.07 420.97 469.05 415.00
  Q 469.00 397.88 469.00 380.13
  A 0.88 0.88 0.0 0 0 468.12 379.25
  L 464.00 379.25
  A 1.14 0.93 -15.6 0 1 463.16 378.88
  Q 462.23 377.72 462.97 376.42
  A 1.13 0.95 6.8 0 1 463.73 375.92
  Q 474.22 374.18 479.21 364.73
  Q 482.06 359.35 482.70 353.29
  Q 482.70 353.25 482.71 352.20
  Q 482.73 350.62 484.42 351.14
  A 0.84 0.82 -81.6 0 1 485.00 351.94
  L 485.06 374.87
  A 0.93 0.90 0.3 0 0 485.98 375.77
  L 523.75 375.99
  A 0.81 0.79 -11.9 0 1 524.48 376.45
  Q 525.86 379.48 520.68 379.15
  Q 518.25 378.99 519.23 381.20
  L 530.36 406.25
  Q 530.70 407.01 531.02 406.24
  Q 534.82 397.19 538.78 387.98
  Q 539.96 385.23 540.27 382.06
  Q 540.44 380.22 538.65 379.78
  Q 536.77 379.34 535.00 379.28
  Q 532.72 379.21 533.21 376.94
  A 1.09 1.09 3.9 0 1 534.20 376.08
  Q 542.94 375.43 550.69 376.02
  A 0.81 0.77 -7.2 0 1 551.38 376.53
  Q 552.31 379.04 549.45 379.50
  Q 546.72 379.93 545.36 382.34
  Q 542.45 387.50 540.15 392.96
  Q 530.68 415.47 521.34 438.04
  Q 518.47 444.96 516.19 448.94
  Q 515.23 450.61 513.45 452.22
  Q 511.80 453.72 509.87 454.44
  Q 504.85 456.32 500.96 453.53
  Q 497.82 451.29 497.53 447.32
  Q 497.18 442.52 501.34 440.22
  Q 504.61 438.42 507.84 439.39
  Q 511.43 440.47 513.07 444.45
  Q 513.88 446.43 514.71 444.49
  L 521.55 428.52
  A 2.49 2.24 46.8 0 0 521.51 426.63
  L 501.23 380.13
  A 1.44 1.41 77.8 0 0 499.91 379.26
  L 485.55 379.31
  A 0.50 0.49 -90.0 0 0 485.06 379.81
  Z"
/>
<circle fill="none" stroke-width="1.00" stroke="#d9d9d9" vector-effect="non-scaling-stroke" cx="224.64" cy="359.88" r="7.98"/>
<circle fill="none" stroke-width="1.00" stroke="#d9d9d9" vector-effect="non-scaling-stroke" cx="447.99" cy="359.89" r="7.99"/>
<path fill="none" stroke-width="1.00" stroke="#d9d9d9" vector-effect="non-scaling-stroke" d="
  M 371.68 379.47
  Q 370.97 379.38 370.04 380.57
  Q 367.01 384.46 365.86 389.28
  Q 364.19 396.29 364.32 403.50
  Q 364.50 412.75 364.50 422.69
  A 0.56 0.56 0.0 0 0 365.06 423.25
  L 374.40 423.25
  A 0.65 0.64 83.9 0 1 375.03 423.76
  Q 375.60 426.34 374.40 426.75
  Q 374.40 426.75 372.08 426.75
  Q 357.31 426.75 342.54 426.75
  Q 341.05 426.75 340.70 426.14
  Q 340.27 425.37 340.70 423.75
  A 0.68 0.67 -82.0 0 1 341.35 423.25
  L 347.83 423.25
  A 0.67 0.67 0.0 0 0 348.50 422.58
  L 348.50 380.20
  A 0.96 0.95 -0.0 0 0 347.54 379.25
  L 341.64 379.25
  A 0.97 0.96 -6.8 0 1 340.70 378.52
  Q 340.13 376.29 341.20 375.84
  Q 341.41 375.75 343.31 375.75
  Q 353.58 375.71 363.13 375.80
  A 1.63 1.48 89.8 0 1 364.59 377.40
  L 364.67 382.76
  Q 364.68 383.37 364.99 382.82
  Q 369.32 375.18 377.75 373.75
  Q 380.44 373.30 383.06 374.20
  Q 385.67 375.10 387.23 377.22
  Q 389.27 379.98 388.84 383.38
  Q 388.45 386.52 386.20 388.70
  Q 383.72 391.11 380.22 391.07
  Q 376.20 391.02 373.95 388.40
  Q 371.53 385.57 372.60 380.78
  A 1.08 1.07 10.1 0 0 371.68 379.47
  Z"
/>
<path fill="none" stroke-width="1.00" stroke="#d9d9d9" vector-effect="non-scaling-stroke" d="
  M 182.44 422.93
  Q 182.55 405.47 182.50 388.00
  Q 182.49 385.38 181.96 383.28
  Q 181.32 380.74 179.25 379.75
  Q 176.06 378.22 172.53 380.58
  Q 168.05 383.57 165.19 389.44
  Q 163.51 392.87 163.66 396.01
  Q 163.75 397.90 163.75 398.00
  Q 163.69 410.65 163.80 421.61
  Q 163.82 424.00 166.19 423.70
  Q 171.66 423.00 170.17 426.24
  A 0.82 0.78 11.9 0 1 169.44 426.69
  Q 155.84 426.79 142.23 426.75
  Q 142.15 426.75 141.27 426.83
  Q 139.45 426.98 139.51 424.63
  A 1.16 1.16 -89.2 0 1 140.67 423.50
  L 146.68 423.50
  A 0.81 0.80 -0.3 0 0 147.49 422.69
  L 147.32 379.93
  A 0.53 0.52 1.8 0 0 146.82 379.41
  L 140.43 379.09
  A 0.82 0.79 -9.2 0 1 139.73 378.60
  Q 138.47 375.53 141.67 375.67
  Q 143.20 375.74 143.35 375.73
  Q 153.28 375.56 163.19 376.04
  A 0.53 0.51 1.2 0 1 163.70 376.55
  L 163.74 383.49
  Q 163.75 384.41 164.29 383.68
  Q 170.02 375.95 178.47 374.47
  Q 185.97 373.16 191.66 376.38
  Q 198.42 380.20 198.50 389.75
  Q 198.73 416.21 198.92 423.06
  A 0.55 0.55 0.6 0 0 199.44 423.59
  Q 201.59 423.69 203.73 423.61
  Q 205.19 423.56 205.83 423.90
  Q 207.16 424.60 205.99 426.29
  A 0.98 0.93 16.6 0 1 205.20 426.69
  L 176.99 426.75
  A 0.92 0.91 84.7 0 1 176.09 426.00
  Q 175.53 422.94 178.24 423.54
  Q 180.12 423.96 181.95 423.56
  A 0.65 0.63 83.9 0 0 182.44 422.93
  Z"
/>
<path fill="none" stroke-width="1.00" stroke="#d9d9d9" vector-effect="non-scaling-stroke" d="
  M 396.98 404.50
  Q 392.20 401.01 391.75 395.00
  Q 391.23 388.10 393.70 383.61
  Q 399.77 372.55 412.56 374.94
  Q 414.08 375.22 418.44 376.55
  Q 422.11 377.67 424.21 374.91
  A 1.92 1.11 -69.1 0 1 424.96 374.30
  Q 426.79 373.63 426.78 375.75
  Q 426.75 382.25 426.81 388.75
  Q 426.84 392.46 423.96 390.48
  A 1.63 1.23 -88.1 0 1 423.41 389.70
  Q 421.79 384.83 418.25 381.49
  Q 414.83 378.27 410.36 377.74
  Q 405.57 377.18 401.31 379.56
  Q 399.80 380.41 398.92 382.20
  Q 398.15 383.77 398.23 385.55
  Q 398.42 390.14 403.53 391.10
  Q 408.94 392.12 414.35 393.18
  Q 422.12 394.70 424.75 396.50
  Q 430.33 400.32 430.22 408.50
  Q 430.08 418.82 422.65 424.39
  Q 418.88 427.22 414.30 427.80
  Q 409.68 428.39 405.03 426.90
  Q 401.93 425.91 398.74 425.30
  Q 396.91 424.95 395.88 426.52
  A 3.38 3.37 12.4 0 1 393.50 428.03
  Q 391.58 428.31 391.68 426.34
  Q 391.74 425.24 391.74 425.15
  Q 391.61 417.31 391.98 409.49
  A 1.00 0.84 78.3 0 1 392.40 408.71
  Q 393.42 408.08 394.31 408.70
  Q 394.85 409.07 395.19 410.14
  Q 396.79 415.09 400.11 418.87
  Q 403.40 422.62 407.30 423.85
  Q 411.68 425.24 416.49 423.73
  Q 423.49 421.53 422.75 414.50
  Q 422.52 412.31 420.70 411.08
  Q 419.63 410.35 417.14 409.90
  Q 412.72 409.09 405.25 408.00
  Q 400.91 407.37 396.98 404.50
  Z"
/>
<path fill="none" stroke-width="1.00" stroke="#d9d9d9" vector-effect="non-scaling-stroke" d="
  M 307.54 399.56
  Q 307.16 410.19 308.06 414.94
  Q 310.07 425.45 321.00 424.47
  Q 327.00 423.93 330.94 419.44
  Q 334.66 415.19 336.32 408.66
  A 1.04 0.89 89.0 0 1 336.89 407.97
  Q 338.06 407.52 339.25 408.07
  A 0.65 0.60 -70.9 0 1 339.57 408.80
  Q 337.83 415.85 334.44 419.94
  Q 328.40 427.22 318.50 428.00
  Q 309.08 428.74 301.66 423.80
  Q 291.02 416.70 290.31 403.75
  Q 289.75 393.36 295.16 385.57
  Q 299.34 379.56 305.76 376.58
  Q 312.80 373.32 320.29 375.18
  Q 327.98 377.09 333.21 383.17
  Q 338.45 389.26 339.49 397.91
  A 0.98 0.97 -3.4 0 1 338.52 399.00
  L 308.06 399.06
  A 0.52 0.52 -88.9 0 0 307.54 399.56
  Z
  M 318.81 379.19
  Q 314.74 376.54 311.42 378.76
  Q 309.04 380.34 308.16 384.24
  Q 306.96 389.53 307.68 395.01
  A 0.58 0.57 -4.0 0 0 308.25 395.50
  L 321.49 395.50
  A 0.51 0.50 0.6 0 0 322.00 395.01
  Q 322.14 389.99 321.76 385.00
  Q 321.45 380.90 318.81 379.19
  Z"
/>
<path fill="none" stroke-width="1.00" stroke="#d9d9d9" vector-effect="non-scaling-stroke" d="
  M 216.44 422.94
  Q 216.52 413.39 216.51 403.83
  Q 216.51 403.76 216.72 392.67
  Q 216.85 386.30 216.35 379.93
  A 0.61 0.60 1.2 0 0 215.82 379.38
  Q 213.29 379.12 210.75 379.19
  Q 207.39 379.28 208.71 376.39
  A 0.87 0.83 10.1 0 1 209.44 375.91
  Q 220.82 375.40 232.19 376.03
  A 0.53 0.52 -88.3 0 1 232.68 376.56
  L 232.81 422.93
  A 0.53 0.51 -89.4 0 0 233.31 423.46
  L 239.76 423.51
  A 0.90 0.76 -11.8 0 1 240.52 423.92
  Q 241.15 425.10 240.47 426.28
  A 0.92 0.83 14.6 0 1 239.69 426.69
  L 209.44 426.57
  A 0.83 0.81 -12.5 0 1 208.70 426.11
  Q 207.92 424.45 209.03 423.84
  Q 209.56 423.56 210.88 423.61
  Q 213.41 423.72 215.94 423.49
  A 0.56 0.55 -2.9 0 0 216.44 422.94
  Z"
/>
<path fill="none" stroke-width="1.00" stroke="#d9d9d9" vector-effect="non-scaling-stroke" d="
  M 271.31 405.86
  Q 271.83 407.03 272.34 405.86
  Q 276.53 396.34 280.43 387.12
  Q 281.90 383.65 281.52 381.25
  Q 281.10 378.62 278.49 379.08
  Q 273.67 379.92 274.55 376.42
  A 0.71 0.67 4.9 0 1 275.19 375.91
  Q 283.57 375.43 291.93 376.03
  A 0.81 0.77 -8.3 0 1 292.63 376.52
  Q 293.69 379.28 290.85 379.25
  Q 288.50 379.23 287.30 381.24
  Q 283.74 387.22 281.56 392.81
  Q 279.47 398.19 267.01 427.11
  A 1.35 1.18 -87.1 0 1 266.36 427.78
  Q 263.55 428.99 262.61 426.38
  Q 262.24 425.35 262.20 425.27
  Q 252.74 403.37 242.50 379.99
  A 1.43 1.17 -8.2 0 0 241.32 379.28
  L 237.93 379.13
  A 1.13 1.06 71.7 0 1 237.10 378.68
  Q 236.31 377.60 236.98 376.42
  A 0.97 0.83 11.0 0 1 237.76 375.98
  Q 250.44 375.60 263.13 375.74
  Q 263.20 375.74 264.36 375.65
  Q 266.57 375.48 265.88 378.54
  A 0.91 0.91 6.3 0 1 264.99 379.25
  L 260.72 379.25
  A 0.76 0.76 78.0 0 0 260.03 380.32
  L 271.31 405.86
  Z"
/>
<path fill="none" stroke-width="1.00" stroke="#d9d9d9" vector-effect="non-scaling-stroke" d="
  M 439.94 422.93
  L 440.00 379.91
  A 0.66 0.66 0.0 0 0 439.34 379.25
  L 432.99 379.25
  A 0.86 0.79 -12.2 0 1 432.24 378.81
  Q 431.57 377.50 432.24 376.18
  A 0.89 0.78 11.9 0 1 433.00 375.75
  L 455.33 375.75
  A 0.67 0.67 0.0 0 1 456.00 376.42
  L 456.00 422.84
  A 0.66 0.66 0.0 0 0 456.66 423.50
  L 462.99 423.50
  A 0.92 0.80 -12.2 0 1 463.77 423.93
  Q 464.41 425.12 463.76 426.33
  A 0.91 0.77 11.6 0 1 462.99 426.75
  L 432.82 426.69
  A 0.80 0.71 -9.7 0 1 432.10 426.24
  Q 431.61 425.03 432.27 423.97
  A 1.01 0.82 11.7 0 1 433.07 423.56
  L 439.44 423.45
  A 0.52 0.51 89.4 0 0 439.94 422.93
  Z"
/>
<path fill="none" stroke-width="1.00" stroke="#d9d9d9" vector-effect="non-scaling-stroke" d="
  M 318.81 379.19
  Q 321.45 380.90 321.76 385.00
  Q 322.14 389.99 322.00 395.01
  A 0.51 0.50 0.6 0 1 321.49 395.50
  L 308.25 395.50
  A 0.58 0.57 -4.0 0 1 307.68 395.01
  Q 306.96 389.53 308.16 384.24
  Q 309.04 380.34 311.42 378.76
  Q 314.74 376.54 318.81 379.19
  Z"
/>
</svg>
