<?xml version="1.0" encoding="UTF-8" standalone="no"?>
<!DOCTYPE svg PUBLIC "-//W3C//DTD SVG 1.1//EN" "http://www.w3.org/Graphics/SVG/1.1/DTD/svg11.dtd">
<svg xmlns="http://www.w3.org/2000/svg" version="1.1" viewBox="0 0 1200 1038" height="108px">
<path fill="none" stroke-width="1.00" stroke="#d9d9d9" vector-effect="non-scaling-stroke" d="
  M 235.81 0.00
  L 962.31 0.00
  L 962.29 0.23
  L 235.66 0.23
  Q 235.78 0.10 235.81 0.00
  Z"
/>
<path fill="none" stroke-width="1.00" stroke="#d9d9d9" vector-effect="non-scaling-stroke" d="
  M 235.66 0.23
  L 962.29 0.23
  Q 964.53 134.70 963.75 269.25
  Q 963.71 275.85 961.98 289.75
  Q 953.81 355.27 934.13 418.29
  Q 909.42 497.42 864.81 565.56
  Q 831.80 615.99 788.72 661.22
  Q 736.27 716.28 672.75 761.50
  Q 636.14 787.56 599.19 807.51
  A 1.13 1.05 -47.2 0 1 598.27 807.58
  Q 596.90 807.02 593.44 805.06
  Q 469.91 735.27 379.06 627.94
  Q 352.61 596.68 328.88 559.40
  Q 286.31 492.50 261.69 412.06
  Q 244.54 356.04 236.53 298.00
  Q 233.68 277.35 233.60 256.50
  Q 233.12 128.33 235.66 0.23
  Z
  M 610.84 194.66
  Q 754.03 336.97 897.33 480.46
  A 0.35 0.35 -55.6 0 0 897.90 480.35
  Q 909.32 454.09 917.81 427.32
  Q 920.23 419.70 923.70 408.19
  Q 937.77 361.51 945.50 314.50
  Q 948.44 296.60 950.36 276.97
  Q 951.25 267.83 951.57 257.01
  Q 952.03 241.46 952.00 234.75
  Q 951.84 196.40 950.64 100.25
  Q 950.11 57.66 949.94 15.43
  A 0.69 0.68 0.0 0 0 949.25 14.75
  L 247.41 14.75
  A 0.47 0.47 -88.9 0 0 246.94 15.22
  Q 245.73 121.47 245.00 228.00
  Q 244.91 240.38 245.47 262.00
  Q 245.75 272.58 246.80 281.94
  Q 258.24 383.01 298.16 476.91
  A 0.42 0.41 56.4 0 0 298.83 477.05
  Q 353.60 423.60 407.99 369.49
  Q 502.23 275.73 596.82 182.30
  A 0.82 0.81 -45.8 0 1 597.93 182.28
  Q 604.38 188.24 610.84 194.66
  Z
  M 697.61 477.89
  Q 759.84 540.29 822.35 603.11
  A 0.50 0.50 41.0 0 0 823.09 603.06
  Q 864.79 550.08 894.19 488.92
  A 0.92 0.91 35.5 0 0 894.01 487.88
  L 597.60 192.10
  A 0.59 0.59 -44.7 0 0 596.77 192.10
  L 302.67 485.71
  A 0.71 0.70 55.3 0 0 302.53 486.52
  Q 332.61 550.31 376.51 605.66
  A 0.77 0.77 -41.4 0 0 377.65 605.73
  Q 418.74 565.61 459.22 524.46
  Q 522.94 459.69 587.44 395.69
  Q 596.21 386.99 600.37 383.33
  A 0.58 0.58 0.0 0 1 601.13 383.33
  Q 608.09 389.38 617.06 398.19
  Q 666.60 446.79 697.61 477.89
  Z
  M 432.14 663.96
  Q 435.88 667.84 439.73 671.60
  Q 450.31 681.92 450.52 682.13
  Q 470.83 702.07 497.19 723.31
  Q 545.14 761.96 600.00 791.36
  A 1.03 1.02 44.2 0 0 601.01 791.35
  Q 641.44 768.71 678.96 741.01
  Q 708.89 718.90 736.85 694.36
  Q 779.81 656.66 815.44 612.50
  Q 816.59 611.07 815.51 609.60
  Q 810.89 603.30 805.73 598.02
  Q 719.85 510.03 632.48 423.52
  Q 616.77 407.97 600.73 393.21
  A 0.61 0.61 43.6 0 0 599.89 393.23
  Q 507.81 486.31 416.56 579.05
  Q 400.75 595.12 384.82 611.56
  A 0.57 0.56 -43.0 0 0 384.79 612.32
  Q 404.14 635.28 424.66 656.24
  Q 426.49 658.10 432.14 663.96
  Z"
/>
<path fill="none" stroke-width="1.00" stroke="#d9d9d9" vector-effect="non-scaling-stroke" d="
  M 610.84 194.66
  Q 604.38 188.24 597.93 182.28
  A 0.82 0.81 -45.8 0 0 596.82 182.30
  Q 502.23 275.73 407.99 369.49
  Q 353.60 423.60 298.83 477.05
  A 0.42 0.41 56.4 0 1 298.16 476.91
  Q 258.24 383.01 246.80 281.94
  Q 245.75 272.58 245.47 262.00
  Q 244.91 240.38 245.00 228.00
  Q 245.73 121.47 246.94 15.22
  A 0.47 0.47 88.9 0 1 247.41 14.75
  L 949.25 14.75
  A 0.69 0.68 -0.0 0 1 949.94 15.43
  Q 950.11 57.66 950.64 100.25
  Q 951.84 196.40 952.00 234.75
  Q 952.03 241.46 951.57 257.01
  Q 951.25 267.83 950.36 276.97
  Q 948.44 296.60 945.50 314.50
  Q 937.77 361.51 923.70 408.19
  Q 920.23 419.70 917.81 427.32
  Q 909.32 454.09 897.90 480.35
  A 0.35 0.35 -55.6 0 1 897.33 480.46
  Q 754.03 336.97 610.84 194.66
  Z
  M 800.04 62.95
  L 799.50 54.74
  A 2.28 2.21 4.4 0 0 797.71 52.71
  Q 793.48 51.78 788.93 53.05
  A 1.29 1.14 4.6 0 0 788.18 53.61
  Q 787.04 55.61 787.29 58.00
  Q 787.55 60.47 787.46 62.94
  A 0.55 0.54 -0.6 0 1 786.94 63.46
  L 778.98 64.00
  A 2.28 2.25 -84.4 0 0 776.95 65.69
  Q 776.05 69.09 776.91 73.58
  Q 777.24 75.27 778.92 75.65
  Q 781.70 76.28 786.46 75.91
  A 0.98 0.93 -0.4 0 1 787.52 76.90
  L 786.99 84.59
  Q 786.88 86.25 785.32 87.56
  Q 780.89 91.27 778.73 96.63
  Q 775.66 104.24 779.56 111.44
  Q 780.26 112.71 783.44 116.85
  A 0.72 0.67 44.1 0 1 783.48 117.66
  Q 780.48 122.18 775.73 122.06
  Q 774.50 122.02 767.81 120.15
  Q 750.99 115.45 734.25 110.50
  Q 725.43 107.89 715.76 107.91
  Q 704.95 107.93 697.80 111.67
  Q 688.28 116.65 684.59 127.00
  Q 682.12 133.94 682.57 142.73
  Q 683.01 151.34 686.31 158.44
  Q 693.75 174.42 696.50 179.75
  Q 704.02 194.29 706.75 202.00
  Q 709.18 208.88 709.19 218.32
  A 0.49 0.49 90.0 0 0 709.68 218.81
  L 877.80 219.00
  A 0.73 0.73 89.6 0 0 878.53 218.26
  Q 878.33 208.90 881.06 201.31
  Q 883.28 195.14 894.81 171.73
  Q 901.59 157.93 902.67 154.56
  Q 905.64 145.25 904.75 135.50
  Q 903.20 118.55 889.23 111.37
  Q 884.20 108.78 877.35 108.20
  Q 871.11 107.68 864.91 108.29
  Q 859.12 108.87 846.94 112.38
  Q 832.64 116.51 818.31 120.56
  Q 813.59 121.90 810.13 121.88
  Q 808.28 121.86 806.77 120.59
  Q 805.33 119.36 804.07 117.94
  A 1.04 1.04 -45.9 0 1 804.05 116.58
  Q 806.88 113.21 808.64 109.20
  Q 811.53 102.63 808.69 96.06
  Q 806.48 90.97 801.45 86.76
  A 2.00 1.66 15.0 0 1 800.89 85.97
  Q 799.31 81.35 800.16 76.49
  A 0.63 0.58 3.3 0 1 800.75 76.01
  L 807.96 75.68
  Q 810.05 75.59 810.65 73.43
  Q 811.47 70.51 810.59 65.90
  Q 810.20 63.88 808.23 63.79
  L 800.56 63.44
  A 0.54 0.52 -0.5 0 1 800.04 62.95
  Z
  M 397.81 65.18
  L 397.08 56.97
  A 2.29 2.06 2.9 0 0 395.19 55.08
  Q 391.10 54.38 386.91 55.39
  Q 384.98 55.86 385.05 57.64
  L 385.32 64.47
  A 1.41 1.33 87.9 0 1 384.04 65.93
  L 377.49 66.20
  Q 375.75 66.27 375.25 68.10
  Q 373.91 72.98 375.07 76.95
  A 1.49 1.46 -5.8 0 0 376.40 78.01
  L 383.36 78.47
  A 2.43 2.38 83.7 0 1 385.50 80.22
  Q 387.03 85.59 383.45 89.44
  Q 381.52 91.52 379.69 93.70
  Q 372.14 102.71 376.97 113.05
  Q 377.62 114.43 378.95 116.15
  Q 380.08 117.62 381.20 119.10
  A 0.73 0.69 43.6 0 1 381.24 119.92
  Q 379.22 123.12 375.93 124.08
  Q 373.66 124.75 369.64 123.69
  Q 358.67 120.78 347.83 117.40
  Q 340.78 115.19 329.00 112.25
  Q 320.46 110.12 312.14 110.26
  Q 302.29 110.44 295.82 113.80
  Q 287.90 117.91 283.55 126.56
  Q 280.23 133.17 280.25 141.25
  Q 280.28 151.47 283.81 160.19
  Q 286.10 165.83 299.47 192.55
  Q 302.24 198.10 304.35 203.92
  Q 307.09 211.46 306.72 220.18
  A 1.03 1.03 -88.9 0 0 307.75 221.25
  Q 342.75 221.03 378.25 221.13
  Q 426.13 221.25 474.98 221.25
  A 0.79 0.79 -88.1 0 0 475.77 220.51
  Q 476.49 208.99 480.81 198.06
  Q 482.21 194.53 489.87 179.82
  Q 489.90 179.77 492.83 174.35
  Q 498.80 163.35 501.94 151.19
  Q 503.95 143.40 502.25 135.00
  Q 499.66 122.17 490.22 115.69
  Q 483.15 110.84 471.88 110.35
  Q 460.93 109.87 449.94 113.19
  Q 438.59 116.61 416.67 122.73
  Q 410.59 124.43 409.26 124.44
  Q 404.88 124.48 402.05 120.42
  A 1.38 1.37 50.3 0 1 402.21 118.66
  Q 406.23 114.69 407.43 109.42
  Q 408.56 104.46 406.70 99.32
  Q 404.48 93.15 399.08 88.87
  A 1.68 1.50 13.5 0 1 398.54 88.09
  Q 397.12 83.51 397.91 78.74
  A 0.66 0.58 2.5 0 1 398.51 78.26
  L 405.90 77.88
  Q 407.55 77.79 408.14 76.10
  Q 409.07 73.46 408.96 69.99
  Q 408.82 65.64 404.50 66.00
  Q 402.51 66.17 398.31 65.74
  A 0.62 0.56 -89.7 0 1 397.81 65.18
  Z
  M 879.50 230.64
  A 0.39 0.39 0.0 0 0 879.11 230.25
  L 708.39 230.25
  A 0.39 0.39 0.0 0 0 708.00 230.64
  L 708.00 244.62
  A 0.39 0.39 0.0 0 0 708.39 245.01
  L 879.11 245.01
  A 0.39 0.39 0.0 0 0 879.50 244.62
  L 879.50 230.64
  Z
  M 477.25 232.89
  A 0.36 0.36 0.0 0 0 476.89 232.53
  L 306.11 232.53
  A 0.36 0.36 0.0 0 0 305.75 232.89
  L 305.75 246.89
  A 0.36 0.36 0.0 0 0 306.11 247.25
  L 476.89 247.25
  A 0.36 0.36 0.0 0 0 477.25 246.89
  L 477.25 232.89
  Z"
/>
<path fill="none" stroke-width="1.00" stroke="#d9d9d9" vector-effect="non-scaling-stroke" d="
  M 800.56 63.44
  L 808.23 63.79
  Q 810.20 63.88 810.59 65.90
  Q 811.47 70.51 810.65 73.43
  Q 810.05 75.59 807.96 75.68
  L 800.75 76.01
  A 0.63 0.58 3.3 0 0 800.16 76.49
  Q 799.31 81.35 800.89 85.97
  A 2.00 1.66 15.0 0 0 801.45 86.76
  Q 806.48 90.97 808.69 96.06
  Q 811.53 102.63 808.64 109.20
  Q 806.88 113.21 804.05 116.58
  A 1.04 1.04 -45.9 0 0 804.07 117.94
  Q 805.33 119.36 806.77 120.59
  Q 808.28 121.86 810.13 121.88
  Q 813.59 121.90 818.31 120.56
  Q 832.64 116.51 846.94 112.38
  Q 859.12 108.87 864.91 108.29
  Q 871.11 107.68 877.35 108.20
  Q 884.20 108.78 889.23 111.37
  Q 903.20 118.55 904.75 135.50
  Q 905.64 145.25 902.67 154.56
  Q 901.59 157.93 894.81 171.73
  Q 883.28 195.14 881.06 201.31
  Q 878.33 208.90 878.53 218.26
  A 0.73 0.73 89.6 0 1 877.80 219.00
  L 709.68 218.81
  A 0.49 0.49 -90.0 0 1 709.19 218.32
  Q 709.18 208.88 706.75 202.00
  Q 704.02 194.29 696.50 179.75
  Q 693.75 174.42 686.31 158.44
  Q 683.01 151.34 682.57 142.73
  Q 682.12 133.94 684.59 127.00
  Q 688.28 116.65 697.80 111.67
  Q 704.95 107.93 715.76 107.91
  Q 725.43 107.89 734.25 110.50
  Q 750.99 115.45 767.81 120.15
  Q 774.50 122.02 775.73 122.06
  Q 780.48 122.18 783.48 117.66
  A 0.72 0.67 44.1 0 0 783.44 116.85
  Q 780.26 112.71 779.56 111.44
  Q 775.66 104.24 778.73 96.63
  Q 780.89 91.27 785.32 87.56
  Q 786.88 86.25 786.99 84.59
  L 787.52 76.90
  A 0.98 0.93 -0.4 0 0 786.46 75.91
  Q 781.70 76.28 778.92 75.65
  Q 777.24 75.27 776.91 73.58
  Q 776.05 69.09 776.95 65.69
  A 2.28 2.25 -84.4 0 1 778.98 64.00
  L 786.94 63.46
  A 0.55 0.54 -0.6 0 0 787.46 62.94
  Q 787.55 60.47 787.29 58.00
  Q 787.04 55.61 788.18 53.61
  A 1.29 1.14 4.6 0 1 788.93 53.05
  Q 793.48 51.78 797.71 52.71
  A 2.28 2.21 4.4 0 1 799.50 54.74
  L 800.04 62.95
  A 0.54 0.52 -0.5 0 0 800.56 63.44
  Z
  M 862.34 179.80
  Q 861.82 182.63 861.25 185.45
  Q 860.53 189.06 856.84 189.73
  Q 852.33 190.55 847.51 190.76
  Q 845.35 190.85 844.85 192.96
  Q 843.83 197.27 844.94 202.22
  Q 845.32 203.92 846.96 204.48
  Q 854.14 206.96 859.22 201.98
  Q 863.89 197.41 866.94 193.19
  Q 874.34 182.95 880.59 171.05
  Q 886.77 159.28 888.27 154.96
  Q 891.24 146.41 890.74 137.00
  Q 890.57 133.67 889.06 131.44
  Q 885.31 125.87 879.37 123.38
  Q 874.77 121.45 867.40 121.52
  Q 861.87 121.58 856.42 122.58
  Q 852.45 123.32 845.88 125.64
  Q 832.04 130.54 816.36 136.21
  A 1.20 1.19 87.7 0 0 815.60 137.04
  Q 813.38 145.66 810.31 154.21
  Q 806.61 164.54 805.96 167.62
  Q 804.50 174.56 804.71 181.75
  Q 805.02 192.54 811.32 200.59
  Q 814.43 204.57 817.76 205.51
  Q 822.11 206.75 826.47 203.73
  Q 831.28 200.41 833.60 195.04
  Q 835.55 190.55 830.75 190.73
  Q 826.84 190.88 822.94 190.60
  A 0.51 0.51 4.3 0 1 822.47 190.05
  Q 822.87 185.37 825.02 181.19
  A 1.55 1.48 -88.7 0 1 825.69 180.52
  Q 828.92 178.89 833.32 179.33
  Q 836.81 179.68 837.67 176.28
  L 839.13 170.47
  Q 839.75 168.00 842.30 168.00
  L 848.89 168.00
  Q 851.05 168.00 850.55 170.01
  L 848.46 178.38
  A 0.70 0.67 -82.6 0 0 849.10 179.25
  L 861.93 179.30
  A 0.42 0.42 6.2 0 1 862.34 179.80
  Z
  M 764.69 190.68
  L 755.20 190.99
  Q 752.73 191.06 753.50 193.49
  Q 755.34 199.34 760.09 203.18
  Q 764.09 206.42 768.53 205.74
  Q 772.28 205.17 775.44 201.60
  Q 779.37 197.16 781.25 190.50
  Q 783.54 182.39 782.53 174.00
  Q 781.57 166.13 779.07 158.65
  Q 779.06 158.61 776.19 151.44
  Q 773.42 144.53 772.53 137.22
  A 0.86 0.86 -83.7 0 0 771.98 136.53
  Q 756.74 130.89 742.01 125.81
  Q 734.82 123.33 729.76 122.57
  Q 723.46 121.63 717.07 121.66
  Q 711.80 121.70 708.28 123.24
  Q 704.03 125.10 700.82 128.50
  Q 698.29 131.18 697.46 133.96
  Q 696.60 136.81 696.75 140.50
  Q 697.21 151.73 701.27 160.14
  Q 708.87 175.89 718.56 190.44
  Q 722.30 196.05 727.98 201.34
  Q 730.91 204.08 733.13 204.81
  Q 736.19 205.83 739.60 204.96
  Q 742.80 204.15 742.96 200.75
  Q 743.14 196.86 742.75 192.99
  Q 742.57 191.23 740.72 190.97
  L 730.24 189.50
  Q 727.46 189.11 726.97 186.89
  L 725.59 180.70
  A 0.85 0.81 -7.2 0 1 726.39 179.71
  L 738.70 179.18
  A 0.39 0.39 82.0 0 0 739.06 178.70
  L 736.94 169.70
  A 1.26 1.24 -10.9 0 1 737.99 168.18
  Q 740.05 167.88 742.48 167.95
  Q 742.56 167.96 744.52 167.89
  Q 747.65 167.77 748.51 171.00
  Q 749.37 174.22 750.05 177.77
  A 1.24 1.20 86.7 0 0 751.13 178.76
  L 759.33 179.53
  Q 761.74 179.75 762.85 181.84
  Q 764.74 185.39 765.15 190.19
  A 0.47 0.45 -2.9 0 1 764.69 190.68
  Z"
/>
<path fill="none" stroke-width="1.00" stroke="#d9d9d9" vector-effect="non-scaling-stroke" d="
  M 398.31 65.74
  Q 402.51 66.17 404.50 66.00
  Q 408.82 65.64 408.96 69.99
  Q 409.07 73.46 408.14 76.10
  Q 407.55 77.79 405.90 77.88
  L 398.51 78.26
  A 0.66 0.58 2.5 0 0 397.91 78.74
  Q 397.12 83.51 398.54 88.09
  A 1.68 1.50 13.5 0 0 399.08 88.87
  Q 404.48 93.15 406.70 99.32
  Q 408.56 104.46 407.43 109.42
  Q 406.23 114.69 402.21 118.66
  A 1.38 1.37 50.3 0 0 402.05 120.42
  Q 404.88 124.48 409.26 124.44
  Q 410.59 124.43 416.67 122.73
  Q 438.59 116.61 449.94 113.19
  Q 460.93 109.87 471.88 110.35
  Q 483.15 110.84 490.22 115.69
  Q 499.66 122.17 502.25 135.00
  Q 503.95 143.40 501.94 151.19
  Q 498.80 163.35 492.83 174.35
  Q 489.90 179.77 489.87 179.82
  Q 482.21 194.53 480.81 198.06
  Q 476.49 208.99 475.77 220.51
  A 0.79 0.79 -88.1 0 1 474.98 221.25
  Q 426.13 221.25 378.25 221.13
  Q 342.75 221.03 307.75 221.25
  A 1.03 1.03 -88.9 0 1 306.72 220.18
  Q 307.09 211.46 304.35 203.92
  Q 302.24 198.10 299.47 192.55
  Q 286.10 165.83 283.81 160.19
  Q 280.28 151.47 280.25 141.25
  Q 280.23 133.17 283.55 126.56
  Q 287.90 117.91 295.82 113.80
  Q 302.29 110.44 312.14 110.26
  Q 320.46 110.12 329.00 112.25
  Q 340.78 115.19 347.83 117.40
  Q 358.67 120.78 369.64 123.69
  Q 373.66 124.75 375.93 124.08
  Q 379.22 123.12 381.24 119.92
  A 0.73 0.69 43.6 0 0 381.20 119.10
  Q 380.08 117.62 378.95 116.15
  Q 377.62 114.43 376.97 113.05
  Q 372.14 102.71 379.69 93.70
  Q 381.52 91.52 383.45 89.44
  Q 387.03 85.59 385.50 80.22
  A 2.43 2.38 83.7 0 0 383.36 78.47
  L 376.40 78.01
  A 1.49 1.46 -5.8 0 1 375.07 76.95
  Q 373.91 72.98 375.25 68.10
  Q 375.75 66.27 377.49 66.20
  L 384.04 65.93
  A 1.41 1.33 87.9 0 0 385.32 64.47
  L 385.05 57.64
  Q 384.98 55.86 386.91 55.39
  Q 391.10 54.38 395.19 55.08
  A 2.29 2.06 2.9 0 1 397.08 56.97
  L 397.81 65.18
  A 0.62 0.56 -89.7 0 0 398.31 65.74
  Z
  M 297.03 132.76
  Q 294.28 136.39 294.50 142.25
  Q 294.92 153.32 298.81 161.47
  Q 303.95 172.24 309.94 182.56
  Q 318.01 196.49 327.73 205.25
  Q 330.13 207.42 334.75 207.25
  Q 338.28 207.12 339.76 206.86
  A 0.70 0.67 88.4 0 0 340.31 206.26
  Q 340.96 201.01 340.50 195.74
  Q 340.26 193.06 337.58 192.99
  Q 333.62 192.88 329.44 192.30
  Q 327.00 191.95 325.86 190.92
  Q 324.33 189.53 323.98 187.25
  Q 323.73 185.60 323.21 183.88
  Q 322.60 181.83 324.75 181.74
  L 336.26 181.25
  A 0.77 0.74 80.9 0 0 336.93 180.28
  L 334.60 171.65
  A 0.93 0.87 81.8 0 1 335.41 170.48
  L 343.16 170.38
  Q 345.34 170.36 345.83 172.34
  L 347.68 179.73
  Q 348.34 182.38 350.74 182.25
  Q 353.35 182.11 355.90 181.71
  Q 359.09 181.21 360.44 183.56
  Q 362.16 186.56 362.88 192.20
  A 0.53 0.52 -8.7 0 1 362.45 192.78
  Q 360.13 193.21 357.76 192.93
  Q 354.53 192.56 352.77 193.42
  Q 350.40 194.56 351.52 196.94
  Q 356.05 206.51 365.42 208.48
  A 3.68 3.67 -55.4 0 0 368.19 207.97
  Q 373.70 204.39 376.45 199.26
  Q 380.84 191.08 380.72 181.75
  Q 380.59 172.35 378.25 165.50
  Q 374.65 154.97 371.10 144.43
  Q 370.57 142.88 370.50 141.35
  Q 370.41 139.25 368.44 138.51
  Q 350.02 131.59 332.00 125.75
  Q 323.23 122.91 313.54 123.88
  Q 308.05 124.42 304.41 126.39
  Q 300.11 128.71 297.03 132.76
  Z
  M 412.93 140.47
  Q 411.13 148.96 407.84 157.04
  Q 403.52 167.62 402.54 179.00
  Q 401.69 189.01 405.78 198.13
  Q 408.01 203.07 412.06 206.19
  Q 414.35 207.95 417.13 208.14
  Q 419.48 208.31 422.18 207.00
  Q 429.03 203.69 431.69 196.17
  Q 432.75 193.19 429.77 193.16
  L 420.71 193.04
  A 0.56 0.53 4.1 0 1 420.16 192.44
  Q 420.89 187.03 422.51 183.88
  Q 423.67 181.64 426.73 181.75
  L 432.58 181.95
  A 2.37 2.03 -75.4 0 0 434.62 180.53
  Q 436.37 176.51 437.25 171.73
  A 1.49 1.47 0.8 0 1 438.49 170.54
  Q 443.13 169.82 446.57 170.35
  Q 448.83 170.70 448.27 173.05
  L 446.38 180.95
  A 0.46 0.38 7.5 0 0 446.82 181.43
  L 459.31 182.13
  A 0.57 0.55 90.0 0 1 459.84 182.68
  Q 460.04 187.23 457.29 190.41
  Q 455.96 191.93 453.50 192.33
  Q 450.27 192.84 447.00 193.01
  Q 443.17 193.20 442.50 196.25
  Q 441.55 200.55 442.73 204.69
  Q 443.24 206.46 444.99 207.00
  Q 450.22 208.61 454.66 205.64
  Q 458.22 203.26 461.04 200.03
  Q 466.12 194.20 470.20 187.66
  Q 472.10 184.61 477.77 174.32
  Q 483.55 163.82 486.19 157.19
  Q 489.36 149.20 488.41 139.54
  Q 488.03 135.78 486.15 133.05
  Q 480.47 124.82 469.75 123.95
  Q 458.62 123.05 448.75 126.25
  Q 441.80 128.50 425.37 134.25
  Q 419.40 136.35 413.80 139.32
  A 1.72 1.70 82.4 0 0 412.93 140.47
  Z"
/>
<path fill="none" stroke-width="1.00" stroke="#d9d9d9" vector-effect="non-scaling-stroke" d="
  M 861.93 179.30
  L 849.10 179.25
  A 0.70 0.67 -82.6 0 1 848.46 178.38
  L 850.55 170.01
  Q 851.05 168.00 848.89 168.00
  L 842.30 168.00
  Q 839.75 168.00 839.13 170.47
  L 837.67 176.28
  Q 836.81 179.68 833.32 179.33
  Q 828.92 178.89 825.69 180.52
  A 1.55 1.48 -88.7 0 0 825.02 181.19
  Q 822.87 185.37 822.47 190.05
  A 0.51 0.51 4.5 0 0 822.94 190.60
  Q 826.84 190.88 830.75 190.73
  Q 835.55 190.55 833.60 195.04
  Q 831.28 200.41 826.47 203.73
  Q 822.11 206.75 817.76 205.51
  Q 814.43 204.57 811.32 200.59
  Q 805.02 192.54 804.71 181.75
  Q 804.50 174.56 805.96 167.62
  Q 806.61 164.54 810.31 154.21
  Q 813.38 145.66 815.60 137.04
  A 1.20 1.19 87.7 0 1 816.36 136.21
  Q 832.04 130.54 845.88 125.64
  Q 852.45 123.32 856.42 122.58
  Q 861.87 121.58 867.40 121.52
  Q 874.77 121.45 879.37 123.38
  Q 885.31 125.87 889.06 131.44
  Q 890.57 133.67 890.74 137.00
  Q 891.24 146.41 888.27 154.96
  Q 886.77 159.28 880.59 171.05
  Q 874.34 182.95 866.94 193.19
  Q 863.89 197.41 859.22 201.98
  Q 854.14 206.96 846.96 204.48
  Q 845.32 203.92 844.94 202.22
  Q 843.83 197.27 844.85 192.96
  Q 845.35 190.85 847.51 190.76
  Q 852.33 190.55 856.84 189.73
  Q 860.53 189.06 861.25 185.45
  Q 861.82 182.63 862.34 179.80
  A 0.42 0.42 6.2 0 0 861.93 179.30
  Z"
/>
<path fill="none" stroke-width="1.00" stroke="#d9d9d9" vector-effect="non-scaling-stroke" d="
  M 765.15 190.19
  Q 764.74 185.39 762.85 181.84
  Q 761.74 179.75 759.33 179.53
  L 751.13 178.76
  A 1.24 1.20 86.7 0 1 750.05 177.77
  Q 749.37 174.22 748.51 171.00
  Q 747.65 167.77 744.52 167.89
  Q 742.56 167.96 742.48 167.95
  Q 740.05 167.88 737.99 168.18
  A 1.26 1.24 -10.9 0 0 736.94 169.70
  L 739.06 178.70
  A 0.39 0.39 82.0 0 1 738.70 179.18
  L 726.39 179.71
  A 0.85 0.81 -7.2 0 0 725.59 180.70
  L 726.97 186.89
  Q 727.46 189.11 730.24 189.50
  L 740.72 190.97
  Q 742.57 191.23 742.75 192.99
  Q 743.14 196.86 742.96 200.75
  Q 742.80 204.15 739.60 204.96
  Q 736.19 205.83 733.13 204.81
  Q 730.91 204.08 727.98 201.34
  Q 722.30 196.05 718.56 190.44
  Q 708.87 175.89 701.27 160.14
  Q 697.21 151.73 696.75 140.50
  Q 696.60 136.81 697.46 133.96
  Q 698.29 131.18 700.82 128.50
  Q 704.03 125.10 708.28 123.24
  Q 711.80 121.70 717.07 121.66
  Q 723.46 121.63 729.76 122.57
  Q 734.82 123.33 742.01 125.81
  Q 756.74 130.89 771.98 136.53
  A 0.86 0.86 -83.7 0 1 772.53 137.22
  Q 773.42 144.53 776.19 151.44
  Q 779.06 158.61 779.07 158.65
  Q 781.57 166.13 782.53 174.00
  Q 783.54 182.39 781.25 190.50
  Q 779.37 197.16 775.44 201.60
  Q 772.28 205.17 768.53 205.74
  Q 764.09 206.42 760.09 203.18
  Q 755.34 199.34 753.50 193.49
  Q 752.73 191.06 755.20 190.99
  L 764.69 190.68
  A 0.47 0.45 -2.9 0 0 765.15 190.19
  Z"
/>
<path fill="none" stroke-width="1.00" stroke="#d9d9d9" vector-effect="non-scaling-stroke" d="
  M 297.03 132.76
  Q 300.11 128.71 304.41 126.39
  Q 308.05 124.42 313.54 123.88
  Q 323.23 122.91 332.00 125.75
  Q 350.02 131.59 368.44 138.51
  Q 370.41 139.25 370.50 141.35
  Q 370.57 142.88 371.10 144.43
  Q 374.65 154.97 378.25 165.50
  Q 380.59 172.35 380.72 181.75
  Q 380.84 191.08 376.45 199.26
  Q 373.70 204.39 368.19 207.97
  A 3.68 3.67 -55.4 0 1 365.42 208.48
  Q 356.05 206.51 351.52 196.94
  Q 350.40 194.56 352.77 193.42
  Q 354.53 192.56 357.76 192.93
  Q 360.13 193.21 362.45 192.78
  A 0.53 0.52 -8.7 0 0 362.88 192.20
  Q 362.16 186.56 360.44 183.56
  Q 359.09 181.21 355.90 181.71
  Q 353.35 182.11 350.74 182.25
  Q 348.34 182.38 347.68 179.73
  L 345.83 172.34
  Q 345.34 170.36 343.16 170.38
  L 335.41 170.48
  A 0.93 0.87 81.8 0 0 334.60 171.65
  L 336.93 180.28
  A 0.77 0.74 80.9 0 1 336.26 181.25
  L 324.75 181.74
  Q 322.60 181.83 323.21 183.88
  Q 323.73 185.60 323.98 187.25
  Q 324.33 189.53 325.86 190.92
  Q 327.00 191.95 329.44 192.30
  Q 333.62 192.88 337.58 192.99
  Q 340.26 193.06 340.50 195.74
  Q 340.96 201.01 340.31 206.26
  A 0.70 0.67 88.4 0 1 339.76 206.86
  Q 338.28 207.12 334.75 207.25
  Q 330.13 207.42 327.73 205.25
  Q 318.01 196.49 309.94 182.56
  Q 303.95 172.24 298.81 161.47
  Q 294.92 153.32 294.50 142.25
  Q 294.28 136.39 297.03 132.76
  Z"
/>
<path fill="none" stroke-width="1.00" stroke="#d9d9d9" vector-effect="non-scaling-stroke" d="
  M 412.93 140.47
  A 1.72 1.70 82.4 0 1 413.80 139.32
  Q 419.40 136.35 425.37 134.25
  Q 441.80 128.50 448.75 126.25
  Q 458.62 123.05 469.75 123.95
  Q 480.47 124.82 486.15 133.05
  Q 488.03 135.78 488.41 139.54
  Q 489.36 149.20 486.19 157.19
  Q 483.55 163.82 477.77 174.32
  Q 472.10 184.61 470.20 187.66
  Q 466.12 194.20 461.04 200.03
  Q 458.22 203.26 454.66 205.64
  Q 450.22 208.61 444.99 207.00
  Q 443.24 206.46 442.73 204.69
  Q 441.55 200.55 442.50 196.25
  Q 443.17 193.20 447.00 193.01
  Q 450.27 192.84 453.50 192.33
  Q 455.96 191.93 457.29 190.41
  Q 460.04 187.23 459.84 182.68
  A 0.57 0.55 90.0 0 0 459.31 182.13
  L 446.82 181.43
  A 0.46 0.38 7.5 0 1 446.38 180.95
  L 448.27 173.05
  Q 448.83 170.70 446.57 170.35
  Q 443.13 169.82 438.49 170.54
  A 1.49 1.47 0.8 0 0 437.25 171.73
  Q 436.37 176.51 434.62 180.53
  A 2.37 2.03 -75.4 0 1 432.58 181.95
  L 426.73 181.75
  Q 423.67 181.64 422.51 183.88
  Q 420.89 187.03 420.16 192.44
  A 0.56 0.53 4.1 0 0 420.71 193.04
  L 429.77 193.16
  Q 432.75 193.19 431.69 196.17
  Q 429.03 203.69 422.18 207.00
  Q 419.48 208.31 417.13 208.14
  Q 414.35 207.95 412.06 206.19
  Q 408.01 203.07 405.78 198.13
  Q 401.69 189.01 402.54 179.00
  Q 403.52 167.62 407.84 157.04
  Q 411.13 148.96 412.93 140.47
  Z"
/>
<path fill="none" stroke-width="1.00" stroke="#d9d9d9" vector-effect="non-scaling-stroke" d="
  M 697.61 477.89
  Q 666.60 446.79 617.06 398.19
  Q 608.09 389.38 601.13 383.33
  A 0.58 0.58 0.0 0 0 600.37 383.33
  Q 596.21 386.99 587.44 395.69
  Q 522.94 459.69 459.22 524.46
  Q 418.74 565.61 377.65 605.73
  A 0.77 0.77 -41.4 0 1 376.51 605.66
  Q 332.61 550.31 302.53 486.52
  A 0.71 0.70 55.3 0 1 302.67 485.71
  L 596.77 192.10
  A 0.59 0.59 -44.7 0 1 597.60 192.10
  L 894.01 487.88
  A 0.92 0.91 35.5 0 1 894.19 488.92
  Q 864.79 550.08 823.09 603.06
  A 0.50 0.50 41.0 0 1 822.35 603.11
  Q 759.84 540.29 697.61 477.89
  Z"
/>
<rect fill="none" stroke-width="1.00" stroke="#d9d9d9" vector-effect="non-scaling-stroke" x="708.00" y="230.25" width="171.50" height="14.76" rx="0.39"/>
<rect fill="none" stroke-width="1.00" stroke="#d9d9d9" vector-effect="non-scaling-stroke" x="305.75" y="232.53" width="171.50" height="14.72" rx="0.36"/>
<path fill="none" stroke-width="1.00" stroke="#d9d9d9" vector-effect="non-scaling-stroke" d="
  M 424.66 656.24
  Q 404.14 635.28 384.79 612.32
  A 0.57 0.56 -43.0 0 1 384.82 611.56
  Q 400.75 595.12 416.56 579.05
  Q 507.81 486.31 599.89 393.23
  A 0.61 0.61 43.6 0 1 600.73 393.21
  Q 616.77 407.97 632.48 423.52
  Q 719.85 510.03 805.73 598.02
  Q 810.89 603.30 815.51 609.60
  Q 816.59 611.07 815.44 612.50
  Q 779.81 656.66 736.85 694.36
  Q 708.89 718.90 678.96 741.01
  Q 641.44 768.71 601.01 791.35
  A 1.03 1.02 44.2 0 1 600.00 791.36
  Q 545.14 761.96 497.19 723.31
  Q 470.83 702.07 450.52 682.13
  Q 450.31 681.92 439.73 671.60
  Q 435.88 667.84 432.14 663.96
  Q 426.49 658.10 424.66 656.24
  Z
  M 615.81 550.66
  Q 614.97 549.78 614.34 548.74
  Q 613.97 548.12 615.05 547.06
  Q 620.59 541.63 620.24 533.82
  Q 619.81 524.13 612.30 518.18
  Q 610.50 516.75 610.46 514.86
  L 610.28 507.55
  A 0.58 0.55 0.5 0 1 610.88 506.99
  Q 615.55 507.21 619.73 506.31
  A 1.62 1.62 1.2 0 0 620.96 505.13
  Q 621.67 502.48 621.47 499.87
  Q 621.28 497.44 620.97 496.63
  Q 620.26 494.74 617.75 494.75
  Q 613.22 494.76 610.94 494.60
  A 0.66 0.66 -4.0 0 1 610.33 494.07
  Q 609.77 491.45 610.00 488.75
  Q 610.34 484.64 607.39 483.74
  Q 605.40 483.13 602.59 483.53
  Q 596.99 484.33 597.73 492.49
  Q 597.92 494.68 595.86 494.69
  L 588.02 494.73
  A 0.52 0.49 0.0 0 0 587.50 495.22
  L 587.55 506.43
  A 0.59 0.55 3.0 0 0 588.07 506.97
  L 596.10 507.89
  Q 598.06 508.11 598.35 510.20
  Q 599.07 515.26 596.32 518.07
  Q 592.84 521.64 589.94 525.69
  Q 586.50 530.49 588.00 537.50
  Q 589.04 542.33 593.12 547.42
  A 1.15 1.01 33.3 0 1 593.36 548.30
  Q 592.82 551.11 590.74 552.51
  Q 589.09 553.62 586.07 553.19
  Q 582.99 552.76 581.25 552.25
  Q 562.35 546.74 543.41 541.42
  Q 532.16 538.26 520.49 539.06
  Q 514.88 539.44 509.06 542.56
  Q 492.93 551.23 492.92 569.50
  Q 492.91 582.29 499.06 594.94
  Q 506.88 611.00 514.61 627.10
  Q 519.70 637.68 519.33 649.45
  A 0.48 0.48 -89.4 0 0 519.81 649.94
  L 687.45 649.94
  A 0.59 0.56 -85.9 0 0 688.01 649.43
  Q 689.88 636.88 692.25 630.25
  Q 694.73 623.33 702.45 608.97
  Q 706.25 601.90 709.56 594.60
  Q 713.48 585.96 714.51 579.44
  Q 715.43 573.60 715.19 567.66
  Q 714.94 561.23 712.69 556.29
  Q 707.90 545.80 697.29 541.48
  Q 691.88 539.28 684.32 538.99
  Q 677.24 538.72 671.00 540.00
  Q 662.64 541.71 654.49 544.22
  Q 639.39 548.87 624.20 553.24
  Q 619.55 554.57 615.81 550.66
  Z
  M 690.76 661.79
  A 0.29 0.29 0.0 0 0 690.47 661.50
  L 518.55 661.50
  A 0.29 0.29 0.0 0 0 518.26 661.79
  L 518.26 675.71
  A 0.29 0.29 0.0 0 0 518.55 676.00
  L 690.47 676.00
  A 0.29 0.29 0.0 0 0 690.76 675.71
  L 690.76 661.79
  Z"
/>
<path fill="none" stroke-width="1.00" stroke="#d9d9d9" vector-effect="non-scaling-stroke" d="
  M 116.47 583.54
  A 0.64 0.63 58.1 0 0 116.69 582.57
  Q 106.38 569.55 92.38 559.63
  A 0.91 0.91 49.1 0 0 91.44 559.56
  Q 77.71 566.46 65.39 575.18
  Q 48.96 586.82 33.55 600.06
  A 1.46 1.45 38.4 0 1 31.94 600.24
  Q 16.00 591.98 5.84 576.67
  Q 3.25 572.77 1.87 568.38
  Q 0.78 564.89 0.60 559.38
  Q 0.39 553.06 0.75 547.75
  Q 1.03 543.70 2.63 539.81
  Q 3.74 537.13 6.23 532.56
  Q 9.62 526.36 14.31 522.06
  Q 18.27 518.44 24.56 516.31
  Q 25.98 515.83 31.83 514.54
  Q 32.80 514.33 39.19 513.11
  Q 44.76 512.05 54.06 509.81
  Q 75.00 504.79 92.92 492.91
  Q 115.13 478.20 126.81 470.81
  Q 135.48 465.33 147.44 459.19
  Q 155.43 455.08 162.48 452.28
  Q 171.08 448.86 178.42 448.26
  Q 190.34 447.28 201.44 451.31
  Q 211.89 455.11 222.49 462.49
  Q 235.21 471.33 246.38 481.99
  Q 253.87 489.13 260.40 496.22
  Q 271.01 507.73 279.19 520.56
  Q 285.74 530.85 289.25 543.25
  Q 291.79 552.22 290.53 563.03
  Q 289.78 569.51 287.39 573.39
  Q 284.30 578.43 278.96 580.88
  Q 278.52 581.09 266.49 584.51
  Q 260.22 586.30 253.97 588.15
  Q 228.28 595.78 207.07 613.93
  A 1.07 1.06 54.8 0 0 206.84 615.26
  Q 224.13 645.76 243.49 673.52
  Q 271.51 713.71 308.94 749.56
  Q 326.68 766.56 342.79 778.75
  Q 396.65 819.50 461.14 838.76
  Q 468.01 840.82 480.46 843.89
  Q 528.79 855.84 559.25 864.00
  Q 562.74 864.94 567.98 867.47
  Q 573.64 870.20 575.94 875.06
  Q 578.18 879.80 575.75 885.25
  Q 574.08 889.00 569.53 894.30
  Q 565.68 898.78 563.40 903.39
  A 2.05 2.04 33.7 0 0 563.89 905.85
  Q 572.15 913.02 581.99 915.28
  Q 593.71 917.97 605.75 917.44
  Q 620.17 916.80 632.15 908.87
  Q 634.70 907.18 636.39 904.76
  A 1.72 1.72 -41.1 0 0 636.51 903.01
  Q 634.97 900.03 632.69 897.57
  Q 627.16 891.62 624.94 888.31
  Q 623.48 886.15 623.08 883.39
  Q 622.71 880.79 622.82 878.24
  Q 623.08 872.77 627.81 869.56
  Q 631.29 867.20 636.01 865.66
  Q 646.57 862.20 657.31 859.31
  Q 663.56 857.64 695.25 849.75
  Q 721.01 843.34 736.70 839.03
  Q 747.13 836.17 755.81 833.17
  Q 787.12 822.35 813.44 807.19
  Q 861.04 779.75 899.77 740.77
  Q 926.52 713.84 948.96 683.22
  Q 973.09 650.28 992.72 614.55
  A 1.27 1.27 -55.7 0 0 992.42 612.96
  Q 971.28 595.53 945.58 587.88
  Q 937.95 585.61 930.21 583.71
  Q 921.29 581.52 918.24 579.55
  Q 910.99 574.85 909.13 565.32
  Q 908.53 562.24 908.23 559.11
  Q 907.93 556.08 908.38 552.90
  Q 911.47 531.08 925.44 512.94
  Q 938.13 496.46 952.06 483.17
  Q 960.42 475.20 967.00 469.89
  Q 980.28 459.19 994.81 452.81
  Q 1014.05 444.37 1033.31 450.94
  Q 1040.10 453.25 1048.23 457.17
  Q 1054.36 460.12 1062.42 464.87
  Q 1076.40 473.11 1089.94 482.05
  Q 1096.35 486.28 1102.88 490.32
  Q 1114.82 497.71 1115.96 498.36
  Q 1128.74 505.67 1143.20 509.24
  Q 1163.08 514.15 1169.31 514.94
  Q 1179.99 516.30 1186.31 523.44
  Q 1192.00 529.86 1196.19 538.56
  Q 1198.76 543.91 1199.26 549.44
  Q 1199.71 554.32 1199.13 560.57
  Q 1198.17 570.81 1191.79 579.29
  Q 1182.19 592.04 1167.93 599.83
  A 1.55 1.53 -40.6 0 1 1166.26 599.71
  Q 1159.92 594.97 1153.63 589.89
  Q 1144.28 582.35 1141.05 579.99
  Q 1125.47 568.59 1108.59 559.68
  A 1.42 1.40 40.1 0 0 1107.08 559.80
  Q 1093.49 570.09 1081.91 582.57
  A 0.37 0.37 34.5 0 0 1082.02 583.16
  Q 1101.21 592.65 1120.68 601.57
  Q 1123.18 602.71 1125.27 604.40
  A 1.89 1.89 29.3 0 1 1125.86 606.49
  Q 1092.97 698.74 1034.87 776.42
  Q 1012.23 806.69 981.56 836.56
  Q 955.90 861.56 931.61 879.63
  Q 866.27 928.21 788.75 953.26
  Q 751.95 965.15 714.33 974.13
  Q 691.80 979.51 669.30 985.07
  A 1.04 1.04 70.5 0 0 668.61 986.53
  Q 672.03 993.76 673.02 1001.78
  Q 674.02 1009.94 667.94 1015.69
  Q 662.18 1021.13 656.15 1024.47
  Q 638.69 1034.16 619.13 1036.90
  Q 612.21 1037.87 602.34 1037.75
  Q 594.64 1037.66 585.50 1037.25
  Q 573.99 1036.73 563.81 1033.19
  Q 555.36 1030.26 547.44 1026.18
  Q 540.33 1022.51 537.06 1020.24
  Q 531.98 1016.70 528.31 1011.94
  Q 526.71 1009.85 526.36 1006.77
  Q 525.54 999.56 528.37 992.91
  Q 529.55 990.12 530.68 986.71
  A 0.62 0.61 -72.0 0 0 530.29 985.93
  Q 518.72 982.11 506.84 979.31
  Q 495.29 976.57 483.74 973.78
  Q 447.55 965.03 412.08 953.76
  Q 401.72 950.47 393.15 947.31
  Q 350.43 931.57 315.19 910.81
  Q 219.51 854.47 154.94 763.56
  Q 138.97 741.08 126.32 719.46
  Q 95.76 667.20 75.04 610.31
  Q 75.02 610.23 74.36 608.73
  Q 72.78 605.09 76.81 603.06
  Q 96.68 593.10 116.47 583.54
  Z
  M 116.69 573.24
  Q 120.13 576.77 124.15 579.75
  A 2.33 2.32 -41.0 0 0 126.67 579.92
  Q 138.91 573.14 146.52 562.29
  Q 153.11 552.90 156.56 549.06
  Q 160.77 544.40 166.25 542.50
  Q 173.01 540.16 179.81 543.12
  Q 187.87 546.62 195.50 551.00
  Q 200.46 553.84 216.58 562.15
  Q 223.89 565.92 231.50 568.96
  Q 241.71 573.03 246.89 574.58
  Q 257.34 577.69 268.34 577.61
  Q 272.70 577.58 275.47 576.36
  Q 279.04 574.79 281.40 571.81
  Q 284.15 568.35 284.88 562.06
  Q 286.26 550.33 281.90 539.08
  Q 276.16 524.24 266.33 512.04
  Q 262.26 506.98 252.90 497.21
  Q 244.00 487.93 233.19 478.31
  Q 217.22 464.11 198.22 456.50
  Q 194.55 455.03 190.52 454.03
  Q 184.37 452.51 182.50 452.75
  Q 161.09 455.45 147.17 470.30
  Q 140.14 477.80 137.79 486.20
  Q 135.21 495.40 137.28 505.29
  Q 137.82 507.86 140.18 506.69
  Q 145.27 504.16 149.88 500.85
  Q 161.66 492.40 172.16 482.71
  A 0.65 0.65 53.4 0 1 173.16 482.86
  Q 174.78 485.59 176.38 488.15
  Q 179.06 492.44 179.37 497.51
  Q 179.98 507.72 173.34 515.35
  Q 164.26 525.78 152.08 532.40
  Q 130.31 544.23 106.81 552.19
  Q 102.73 553.57 98.32 555.43
  A 0.58 0.57 -37.1 0 0 98.18 556.41
  Q 105.54 562.31 112.04 568.49
  Q 112.11 568.56 116.69 573.24
  Z
  M 920.69 574.31
  Q 927.53 578.83 936.01 577.87
  Q 945.14 576.83 953.87 574.20
  Q 960.13 572.31 970.69 567.40
  Q 993.42 556.84 1015.57 545.08
  Q 1023.99 540.61 1033.52 541.83
  Q 1037.21 542.30 1039.97 544.78
  Q 1043.74 548.16 1046.79 552.21
  Q 1053.61 561.25 1060.73 570.05
  Q 1066.60 577.30 1075.05 581.18
  A 1.25 1.25 -58.4 0 0 1076.55 580.82
  Q 1087.64 566.93 1101.86 556.29
  A 0.40 0.39 -43.3 0 0 1101.88 555.67
  Q 1100.06 554.14 1096.25 552.75
  Q 1084.46 548.44 1072.70 544.03
  Q 1050.79 535.81 1032.56 521.19
  Q 1026.63 516.42 1023.33 509.63
  Q 1020.13 503.04 1020.84 496.96
  Q 1021.65 490.14 1026.70 484.67
  A 1.52 1.51 35.9 0 1 1028.56 484.38
  Q 1031.74 486.17 1034.63 488.62
  Q 1046.50 498.67 1060.01 506.81
  Q 1062.27 508.17 1062.84 505.59
  Q 1064.91 496.25 1062.70 486.51
  Q 1061.28 480.27 1057.81 475.69
  Q 1045.32 459.20 1025.44 454.56
  Q 1019.11 453.09 1013.97 453.35
  Q 1008.13 453.64 1002.54 455.77
  Q 986.07 462.04 972.39 473.16
  Q 952.90 488.98 936.53 508.02
  Q 925.01 521.42 918.03 537.66
  Q 913.72 547.69 913.75 556.00
  Q 913.77 563.31 916.94 569.88
  Q 918.32 572.75 920.69 574.31
  Z
  M 21.09 585.92
  Q 25.78 589.92 31.27 593.53
  A 0.73 0.70 42.1 0 0 32.11 593.50
  Q 43.81 584.17 55.68 575.22
  Q 81.11 556.03 110.81 544.89
  Q 124.46 539.77 124.48 539.76
  Q 137.84 534.27 150.48 527.27
  Q 155.25 524.62 149.84 523.97
  Q 146.50 523.56 144.31 522.19
  Q 133.71 515.55 131.98 502.75
  Q 129.75 486.21 138.22 472.05
  Q 138.48 471.61 138.45 471.26
  Q 138.37 470.44 137.31 471.06
  Q 118.84 481.98 96.57 497.57
  Q 86.90 504.34 75.95 508.71
  Q 60.79 514.76 44.75 517.78
  Q 39.34 518.79 28.19 521.44
  Q 22.12 522.88 17.87 526.69
  Q 14.50 529.71 11.04 535.61
  Q 4.64 546.50 5.86 558.95
  Q 6.62 566.76 10.78 573.76
  Q 14.86 580.62 21.09 585.92
  Z
  M 1049.47 526.68
  Q 1059.82 533.08 1070.81 537.69
  Q 1076.76 540.18 1086.36 543.72
  Q 1095.98 547.26 1101.78 549.98
  Q 1136.70 566.34 1163.56 590.69
  Q 1165.80 592.72 1168.00 592.70
  Q 1169.59 592.69 1171.98 590.81
  Q 1177.76 586.28 1182.69 580.88
  Q 1188.25 574.79 1190.19 571.13
  Q 1192.98 565.84 1193.50 559.00
  Q 1194.15 550.46 1193.19 547.06
  Q 1189.09 532.52 1177.10 523.43
  Q 1175.41 522.15 1171.75 521.25
  Q 1165.30 519.66 1158.76 518.45
  Q 1139.51 514.90 1121.33 507.66
  Q 1114.62 504.99 1106.06 499.44
  Q 1086.50 486.75 1066.98 474.00
  Q 1065.10 472.77 1063.45 472.17
  Q 1062.09 471.67 1062.81 472.92
  Q 1069.78 485.23 1068.91 498.75
  Q 1068.30 508.28 1064.38 514.50
  Q 1059.45 522.34 1049.89 524.29
  Q 1046.68 524.95 1049.47 526.68
  Z
  M 1033.94 513.56
  Q 1037.26 516.31 1040.61 517.85
  Q 1044.42 519.61 1048.24 519.14
  Q 1054.28 518.41 1058.45 513.42
  A 1.00 1.00 -54.6 0 0 1058.20 511.92
  Q 1046.10 504.65 1035.06 495.42
  Q 1032.31 493.12 1029.23 491.24
  A 1.02 1.02 -55.2 0 0 1027.90 491.48
  Q 1026.88 492.80 1026.64 494.52
  Q 1025.02 506.20 1033.94 513.56
  Z
  M 144.57 516.21
  Q 147.91 518.86 151.89 519.16
  Q 155.15 519.41 159.34 517.80
  Q 170.28 513.62 174.00 501.75
  Q 175.62 496.61 172.90 492.32
  Q 171.80 490.59 170.07 491.70
  Q 167.60 493.30 165.44 495.18
  Q 154.57 504.64 141.84 511.94
  A 0.70 0.70 -31.6 0 0 141.60 512.93
  Q 142.88 514.87 144.57 516.21
  Z
  M 972.60 568.00
  Q 972.30 567.99 971.94 568.19
  Q 959.30 575.27 945.27 579.82
  Q 943.91 580.27 945.15 580.99
  Q 946.36 581.69 947.78 582.17
  Q 975.41 591.43 998.52 610.05
  A 0.34 0.33 -55.6 0 0 999.03 609.95
  Q 1006.03 596.91 1012.98 583.77
  Q 1015.67 578.68 1018.77 573.83
  Q 1022.47 568.05 1023.00 566.00
  Q 1024.90 558.70 1026.06 556.31
  Q 1028.21 551.90 1028.25 546.99
  A 0.75 0.70 -8.0 0 0 1027.30 546.32
  L 1023.55 547.35
  A 1.01 0.73 53.9 0 1 1022.71 547.08
  Q 1021.84 546.26 1020.73 545.89
  A 1.36 1.16 -44.8 0 0 1019.80 545.96
  Q 1009.09 550.95 998.58 556.35
  Q 980.88 565.43 976.94 566.44
  Q 974.60 567.04 973.45 567.87
  A 1.30 0.45 10.4 0 1 972.60 568.00
  Z
  M 256.13 863.13
  Q 316.04 911.57 388.06 939.10
  Q 416.19 949.85 445.23 957.81
  Q 488.18 969.59 532.41 978.89
  A 1.20 1.20 14.3 0 0 533.80 978.07
  Q 544.91 941.86 555.99 905.25
  Q 558.13 898.18 561.94 894.19
  Q 566.76 889.13 570.52 883.06
  Q 571.49 881.49 571.19 879.66
  Q 570.72 876.73 568.76 874.59
  Q 567.31 873.00 564.12 871.87
  Q 557.32 869.45 548.25 867.00
  Q 517.55 858.70 497.20 853.76
  Q 462.98 845.45 453.00 842.25
  Q 378.03 818.20 318.85 766.40
  Q 279.47 731.94 251.81 694.94
  Q 222.08 655.17 201.81 617.69
  Q 185.58 587.68 171.39 556.65
  Q 169.35 552.20 167.81 546.85
  A 0.36 0.36 -27.7 0 0 167.23 546.67
  Q 159.55 553.12 153.94 561.15
  Q 148.50 568.93 144.31 573.31
  Q 139.63 578.21 133.69 581.44
  Q 123.19 587.14 112.35 592.16
  Q 97.42 599.08 81.61 606.97
  A 1.31 1.31 72.2 0 0 80.90 608.35
  Q 81.50 612.23 82.68 615.28
  Q 100.14 660.31 123.38 702.65
  Q 141.99 736.55 167.19 770.31
  Q 206.50 822.98 256.13 863.13
  Z
  M 666.41 978.56
  Q 668.86 978.50 671.49 977.97
  Q 727.85 966.44 782.73 949.18
  Q 874.40 920.34 948.31 859.06
  Q 1010.80 807.25 1055.97 736.34
  Q 1062.91 725.43 1064.23 723.34
  Q 1068.32 716.81 1072.11 710.09
  Q 1099.61 661.32 1119.22 608.39
  A 0.56 0.56 -67.0 0 0 1118.94 607.69
  Q 1098.35 597.46 1077.72 587.89
  Q 1077.62 587.84 1074.14 586.30
  Q 1066.67 583.01 1060.63 577.74
  Q 1056.91 574.49 1051.32 566.93
  Q 1047.07 561.17 1042.78 555.43
  Q 1039.29 550.77 1034.49 547.49
  Q 1031.44 545.41 1030.63 549.02
  Q 1030.01 551.81 1028.64 554.92
  Q 1014.28 587.45 997.12 618.60
  Q 974.78 659.14 946.65 695.91
  Q 918.69 732.46 884.38 763.12
  Q 858.98 785.81 830.07 803.83
  Q 788.79 829.56 742.36 843.51
  Q 735.63 845.53 723.05 848.69
  Q 704.03 853.48 685.00 858.25
  Q 652.88 866.29 635.28 872.10
  Q 628.14 874.45 628.62 880.47
  Q 628.91 883.98 632.57 888.69
  Q 636.15 893.27 640.62 897.75
  Q 641.67 898.79 642.10 900.23
  L 665.56 977.94
  A 0.87 0.87 -8.8 0 0 666.41 978.56
  Z
  M 179.69 572.56
  Q 190.76 590.89 200.43 609.68
  A 0.83 0.82 -33.0 0 0 201.68 609.94
  Q 225.42 591.00 254.32 581.56
  Q 256.66 580.79 254.32 580.03
  Q 237.55 574.54 221.18 565.83
  Q 210.74 560.27 208.81 559.44
  Q 196.95 554.30 193.12 552.09
  Q 182.98 546.21 171.40 547.48
  A 0.78 0.78 -12.3 0 0 170.75 548.49
  Q 172.01 552.47 173.48 556.36
  Q 174.45 558.96 176.11 564.26
  Q 177.66 569.21 179.69 572.56
  Z
  M 537.66 1013.35
  Q 559.22 1029.59 586.25 1032.00
  Q 595.37 1032.81 610.02 1032.10
  Q 617.17 1031.76 622.40 1030.64
  Q 627.84 1029.48 634.50 1027.50
  Q 651.37 1022.49 663.66 1011.66
  Q 669.84 1006.21 667.19 998.56
  Q 661.76 982.96 659.17 974.52
  Q 649.73 943.80 640.46 912.86
  A 1.17 1.16 -18.0 0 0 638.96 912.10
  Q 636.40 913.01 633.85 914.62
  Q 625.22 920.07 615.17 921.85
  Q 602.76 924.05 590.24 922.57
  Q 574.20 920.67 560.66 911.37
  A 0.95 0.95 25.5 0 0 559.22 911.88
  Q 546.12 955.99 532.19 1000.19
  Q 530.77 1004.68 533.12 1008.21
  Q 533.83 1009.29 535.18 1010.95
  Q 536.26 1012.29 537.66 1013.35
  Z"
/>
<path fill="none" stroke-width="1.00" stroke="#d9d9d9" vector-effect="non-scaling-stroke" d="
  M 112.04 568.49
  Q 105.54 562.31 98.18 556.41
  A 0.58 0.57 -37.1 0 1 98.32 555.43
  Q 102.73 553.57 106.81 552.19
  Q 130.31 544.23 152.08 532.40
  Q 164.26 525.78 173.34 515.35
  Q 179.98 507.72 179.37 497.51
  Q 179.06 492.44 176.38 488.15
  Q 174.78 485.59 173.16 482.86
  A 0.65 0.65 53.4 0 0 172.16 482.71
  Q 161.66 492.40 149.88 500.85
  Q 145.27 504.16 140.18 506.69
  Q 137.82 507.86 137.28 505.29
  Q 135.21 495.40 137.79 486.20
  Q 140.14 477.80 147.17 470.30
  Q 161.09 455.45 182.50 452.75
  Q 184.37 452.51 190.52 454.03
  Q 194.55 455.03 198.22 456.50
  Q 217.22 464.11 233.19 478.31
  Q 244.00 487.93 252.90 497.21
  Q 262.26 506.98 266.33 512.04
  Q 276.16 524.24 281.90 539.08
  Q 286.26 550.33 284.88 562.06
  Q 284.15 568.35 281.40 571.81
  Q 279.04 574.79 275.47 576.36
  Q 272.70 577.58 268.34 577.61
  Q 257.34 577.69 246.89 574.58
  Q 241.71 573.03 231.50 568.96
  Q 223.89 565.92 216.58 562.15
  Q 200.46 553.84 195.50 551.00
  Q 187.87 546.62 179.81 543.12
  Q 173.01 540.16 166.25 542.50
  Q 160.77 544.40 156.56 549.06
  Q 153.11 552.90 146.52 562.29
  Q 138.91 573.14 126.67 579.92
  A 2.33 2.32 -41.0 0 1 124.15 579.75
  Q 120.13 576.77 116.69 573.24
  Q 112.11 568.56 112.04 568.49
  Z"
/>
<path fill="none" stroke-width="1.00" stroke="#d9d9d9" vector-effect="non-scaling-stroke" d="
  M 920.69 574.31
  Q 918.32 572.75 916.94 569.88
  Q 913.77 563.31 913.75 556.00
  Q 913.72 547.69 918.03 537.66
  Q 925.01 521.42 936.53 508.02
  Q 952.90 488.98 972.39 473.16
  Q 986.07 462.04 1002.54 455.77
  Q 1008.13 453.64 1013.97 453.35
  Q 1019.11 453.09 1025.44 454.56
  Q 1045.32 459.20 1057.81 475.69
  Q 1061.28 480.27 1062.70 486.51
  Q 1064.91 496.25 1062.84 505.59
  Q 1062.27 508.17 1060.01 506.81
  Q 1046.50 498.67 1034.63 488.62
  Q 1031.74 486.17 1028.56 484.38
  A 1.52 1.51 35.9 0 0 1026.70 484.67
  Q 1021.65 490.14 1020.84 496.96
  Q 1020.13 503.04 1023.33 509.63
  Q 1026.63 516.42 1032.56 521.19
  Q 1050.79 535.81 1072.70 544.03
  Q 1084.46 548.44 1096.25 552.75
  Q 1100.06 554.14 1101.88 555.67
  A 0.40 0.39 -43.3 0 1 1101.86 556.29
  Q 1087.64 566.93 1076.55 580.82
  A 1.25 1.25 -58.4 0 1 1075.05 581.18
  Q 1066.60 577.30 1060.73 570.05
  Q 1053.61 561.25 1046.79 552.21
  Q 1043.74 548.16 1039.97 544.78
  Q 1037.21 542.30 1033.52 541.83
  Q 1023.99 540.61 1015.57 545.08
  Q 993.42 556.84 970.69 567.40
  Q 960.13 572.31 953.87 574.20
  Q 945.14 576.83 936.01 577.87
  Q 927.53 578.83 920.69 574.31
  Z"
/>
<path fill="none" stroke-width="1.00" stroke="#d9d9d9" vector-effect="non-scaling-stroke" d="
  M 21.09 585.92
  Q 14.86 580.62 10.78 573.76
  Q 6.62 566.76 5.86 558.95
  Q 4.64 546.50 11.04 535.61
  Q 14.50 529.71 17.87 526.69
  Q 22.12 522.88 28.19 521.44
  Q 39.34 518.79 44.75 517.78
  Q 60.79 514.76 75.95 508.71
  Q 86.90 504.34 96.57 497.57
  Q 118.84 481.98 137.31 471.06
  Q 138.37 470.44 138.45 471.26
  Q 138.48 471.61 138.22 472.05
  Q 129.75 486.21 131.98 502.75
  Q 133.71 515.55 144.31 522.19
  Q 146.50 523.56 149.84 523.97
  Q 155.25 524.62 150.48 527.27
  Q 137.84 534.27 124.48 539.76
  Q 124.46 539.77 110.81 544.89
  Q 81.11 556.03 55.68 575.22
  Q 43.81 584.17 32.11 593.50
  A 0.73 0.70 42.1 0 1 31.27 593.53
  Q 25.78 589.92 21.09 585.92
  Z"
/>
<path fill="none" stroke-width="1.00" stroke="#d9d9d9" vector-effect="non-scaling-stroke" d="
  M 1049.47 526.68
  Q 1046.68 524.95 1049.89 524.29
  Q 1059.45 522.34 1064.38 514.50
  Q 1068.30 508.28 1068.91 498.75
  Q 1069.78 485.23 1062.81 472.92
  Q 1062.09 471.67 1063.45 472.17
  Q 1065.10 472.77 1066.98 474.00
  Q 1086.50 486.75 1106.06 499.44
  Q 1114.62 504.99 1121.33 507.66
  Q 1139.51 514.90 1158.76 518.45
  Q 1165.30 519.66 1171.75 521.25
  Q 1175.41 522.15 1177.10 523.43
  Q 1189.09 532.52 1193.19 547.06
  Q 1194.15 550.46 1193.50 559.00
  Q 1192.98 565.84 1190.19 571.13
  Q 1188.25 574.79 1182.69 580.88
  Q 1177.76 586.28 1171.98 590.81
  Q 1169.59 592.69 1168.00 592.70
  Q 1165.80 592.72 1163.56 590.69
  Q 1136.70 566.34 1101.78 549.98
  Q 1095.98 547.26 1086.36 543.72
  Q 1076.76 540.18 1070.81 537.69
  Q 1059.82 533.08 1049.47 526.68
  Z"
/>
<path fill="none" stroke-width="1.00" stroke="#d9d9d9" vector-effect="non-scaling-stroke" d="
  M 615.81 550.66
  Q 619.55 554.57 624.20 553.24
  Q 639.39 548.87 654.49 544.22
  Q 662.64 541.71 671.00 540.00
  Q 677.24 538.72 684.32 538.99
  Q 691.88 539.28 697.29 541.48
  Q 707.90 545.80 712.69 556.29
  Q 714.94 561.23 715.19 567.66
  Q 715.43 573.60 714.51 579.44
  Q 713.48 585.96 709.56 594.60
  Q 706.25 601.90 702.45 608.97
  Q 694.73 623.33 692.25 630.25
  Q 689.88 636.88 688.01 649.43
  A 0.59 0.56 -85.9 0 1 687.45 649.94
  L 519.81 649.94
  A 0.48 0.48 -89.4 0 1 519.33 649.45
  Q 519.70 637.68 514.61 627.10
  Q 506.88 611.00 499.06 594.94
  Q 492.91 582.29 492.92 569.50
  Q 492.93 551.23 509.06 542.56
  Q 514.88 539.44 520.49 539.06
  Q 532.16 538.26 543.41 541.42
  Q 562.35 546.74 581.25 552.25
  Q 582.99 552.76 586.07 553.19
  Q 589.09 553.62 590.74 552.51
  Q 592.82 551.11 593.36 548.30
  A 1.15 1.01 33.3 0 0 593.12 547.42
  Q 589.04 542.33 588.00 537.50
  Q 586.50 530.49 589.94 525.69
  Q 592.84 521.64 596.32 518.07
  Q 599.07 515.26 598.35 510.20
  Q 598.06 508.11 596.10 507.89
  L 588.07 506.97
  A 0.59 0.55 3.0 0 1 587.55 506.43
  L 587.50 495.22
  A 0.52 0.49 -0.0 0 1 588.02 494.73
  L 595.86 494.69
  Q 597.92 494.68 597.73 492.49
  Q 596.99 484.33 602.59 483.53
  Q 605.40 483.13 607.39 483.74
  Q 610.34 484.64 610.00 488.75
  Q 609.77 491.45 610.33 494.07
  A 0.66 0.66 -4.0 0 0 610.94 494.60
  Q 613.22 494.76 617.75 494.75
  Q 620.26 494.74 620.97 496.63
  Q 621.28 497.44 621.47 499.87
  Q 621.67 502.48 620.96 505.13
  A 1.62 1.62 1.2 0 1 619.73 506.31
  Q 615.55 507.21 610.88 506.99
  A 0.58 0.55 0.5 0 0 610.28 507.55
  L 610.46 514.86
  Q 610.50 516.75 612.30 518.18
  Q 619.81 524.13 620.24 533.82
  Q 620.59 541.63 615.05 547.06
  Q 613.97 548.12 614.34 548.74
  Q 614.97 549.78 615.81 550.66
  Z
  M 537.05 610.30
  L 549.07 610.25
  A 0.79 0.78 80.8 0 0 549.81 609.21
  L 546.81 599.86
  A 0.44 0.44 77.3 0 1 547.17 599.29
  Q 552.10 598.63 556.49 599.28
  A 2.22 2.22 -5.3 0 1 558.25 600.74
  Q 558.98 602.88 559.52 605.06
  Q 560.55 609.28 560.61 609.37
  Q 561.88 611.14 565.77 610.88
  Q 567.42 610.77 569.02 610.32
  Q 571.23 609.70 573.21 612.84
  Q 575.45 616.37 574.81 620.14
  A 1.68 1.62 2.7 0 1 573.26 621.50
  L 565.01 622.00
  A 1.41 1.39 81.3 0 0 563.75 623.74
  Q 566.27 634.22 576.19 636.85
  Q 578.20 637.38 579.81 636.92
  Q 581.63 636.40 583.15 635.14
  Q 591.34 628.37 592.48 617.75
  Q 594.41 599.82 587.28 583.34
  Q 584.78 577.55 582.40 569.46
  A 3.16 3.12 3.8 0 0 580.63 567.46
  Q 570.82 563.25 560.30 559.56
  Q 549.17 555.65 545.13 554.71
  Q 537.90 553.05 529.25 552.75
  Q 518.71 552.39 511.83 558.65
  Q 509.79 560.50 508.78 562.80
  Q 507.71 565.25 507.46 567.91
  Q 507.34 569.13 507.32 575.59
  Q 507.30 580.92 508.75 584.50
  Q 515.91 602.20 529.42 622.08
  Q 531.81 625.59 533.95 628.11
  Q 537.23 631.98 539.31 633.44
  Q 543.78 636.57 549.25 636.41
  Q 553.15 636.29 553.75 633.00
  Q 554.64 628.09 552.37 622.27
  A 0.82 0.81 -7.6 0 0 551.69 621.76
  L 540.43 620.72
  Q 538.07 620.51 537.20 618.34
  Q 535.96 615.28 536.50 610.82
  A 0.59 0.56 -87.0 0 1 537.05 610.30
  Z
  M 672.42 610.81
  Q 672.28 615.47 670.80 618.73
  Q 669.93 620.65 667.70 620.98
  L 657.61 622.48
  Q 655.75 622.76 655.19 624.67
  Q 653.93 629.00 655.30 633.71
  A 2.71 2.66 -88.1 0 0 656.92 635.47
  Q 660.46 636.82 663.81 636.09
  Q 666.42 635.52 669.49 632.78
  Q 676.69 626.35 682.06 617.56
  Q 691.76 601.69 698.44 586.44
  Q 700.64 581.41 700.95 574.75
  Q 701.13 570.89 701.11 569.26
  Q 701.07 565.75 699.94 563.81
  Q 693.88 553.46 681.75 552.80
  Q 671.08 552.22 662.81 554.81
  Q 644.94 560.41 626.27 567.73
  A 1.58 1.56 -6.4 0 0 625.29 568.94
  Q 623.99 576.94 620.82 584.53
  Q 616.54 594.80 615.40 605.72
  Q 614.54 614.07 616.07 620.21
  Q 617.93 627.66 622.81 633.44
  Q 625.98 637.19 630.43 636.98
  Q 633.86 636.82 637.46 634.16
  Q 640.59 631.84 642.82 628.53
  Q 644.50 626.06 644.26 623.77
  Q 644.05 621.75 642.02 621.75
  L 633.86 621.75
  A 0.71 0.65 5.8 0 1 633.15 620.96
  L 634.99 612.85
  A 1.95 1.75 2.9 0 1 636.70 611.47
  L 646.69 610.70
  A 0.73 0.68 5.0 0 0 647.32 610.21
  L 650.29 600.05
  A 1.38 1.26 -80.2 0 1 651.58 599.05
  L 659.32 599.38
  Q 661.30 599.46 660.76 601.73
  L 658.83 609.76
  A 0.44 0.40 6.4 0 0 659.26 610.25
  L 671.93 610.30
  A 0.50 0.49 1.7 0 1 672.42 610.81
  Z"
/>
<path fill="none" stroke-width="1.00" stroke="#d9d9d9" vector-effect="non-scaling-stroke" d="
  M 1033.94 513.56
  Q 1025.02 506.20 1026.64 494.52
  Q 1026.88 492.80 1027.90 491.48
  A 1.02 1.02 -55.2 0 1 1029.23 491.24
  Q 1032.31 493.12 1035.06 495.42
  Q 1046.10 504.65 1058.20 511.92
  A 1.00 1.00 -54.6 0 1 1058.45 513.42
  Q 1054.28 518.41 1048.24 519.14
  Q 1044.42 519.61 1040.61 517.85
  Q 1037.26 516.31 1033.94 513.56
  Z"
/>
<path fill="none" stroke-width="1.00" stroke="#d9d9d9" vector-effect="non-scaling-stroke" d="
  M 144.57 516.21
  Q 142.88 514.87 141.60 512.93
  A 0.70 0.70 -31.6 0 1 141.84 511.94
  Q 154.57 504.64 165.44 495.18
  Q 167.60 493.30 170.07 491.70
  Q 171.80 490.59 172.90 492.32
  Q 175.62 496.61 174.00 501.75
  Q 170.28 513.62 159.34 517.80
  Q 155.15 519.41 151.89 519.16
  Q 147.91 518.86 144.57 516.21
  Z"
/>
<path fill="none" stroke-width="1.00" stroke="#d9d9d9" vector-effect="non-scaling-stroke" d="
  M 973.45 567.87
  Q 974.60 567.04 976.94 566.44
  Q 980.88 565.43 998.58 556.35
  Q 1009.09 550.95 1019.80 545.96
  A 1.36 1.16 -44.8 0 1 1020.73 545.89
  Q 1021.84 546.26 1022.71 547.08
  A 1.01 0.73 53.9 0 0 1023.55 547.35
  L 1027.30 546.32
  A 0.75 0.70 -8.0 0 1 1028.25 546.99
  Q 1028.21 551.90 1026.06 556.31
  Q 1024.90 558.70 1023.00 566.00
  Q 1022.47 568.05 1018.77 573.83
  Q 1015.67 578.68 1012.98 583.77
  Q 1006.03 596.91 999.03 609.95
  A 0.34 0.33 -55.6 0 1 998.52 610.05
  Q 975.41 591.43 947.78 582.17
  Q 946.36 581.69 945.15 580.99
  Q 943.91 580.27 945.27 579.82
  Q 959.30 575.27 971.94 568.19
  Q 972.30 567.99 972.60 568.00
  A 1.30 0.45 10.4 0 0 973.45 567.87
  Z"
/>
<path fill="none" stroke-width="1.00" stroke="#d9d9d9" vector-effect="non-scaling-stroke" d="
  M 256.13 863.13
  Q 206.50 822.98 167.19 770.31
  Q 141.99 736.55 123.38 702.65
  Q 100.14 660.31 82.68 615.28
  Q 81.50 612.23 80.90 608.35
  A 1.31 1.31 72.2 0 1 81.61 606.97
  Q 97.42 599.08 112.35 592.16
  Q 123.19 587.14 133.69 581.44
  Q 139.63 578.21 144.31 573.31
  Q 148.50 568.93 153.94 561.15
  Q 159.55 553.12 167.23 546.67
  A 0.36 0.36 -27.7 0 1 167.81 546.85
  Q 169.35 552.20 171.39 556.65
  Q 185.58 587.68 201.81 617.69
  Q 222.08 655.17 251.81 694.94
  Q 279.47 731.94 318.85 766.40
  Q 378.03 818.20 453.00 842.25
  Q 462.98 845.45 497.20 853.76
  Q 517.55 858.70 548.25 867.00
  Q 557.32 869.45 564.12 871.87
  Q 567.31 873.00 568.76 874.59
  Q 570.72 876.73 571.19 879.66
  Q 571.49 881.49 570.52 883.06
  Q 566.76 889.13 561.94 894.19
  Q 558.13 898.18 555.99 905.25
  Q 544.91 941.86 533.80 978.07
  A 1.20 1.20 14.3 0 1 532.41 978.89
  Q 488.18 969.59 445.23 957.81
  Q 416.19 949.85 388.06 939.10
  Q 316.04 911.57 256.13 863.13
  Z
  M 173.25 644.50
  Q 173.63 645.91 171.31 647.31
  Q 161.70 653.13 151.44 657.69
  Q 147.71 659.34 144.27 658.00
  Q 143.81 657.83 143.97 658.30
  Q 146.23 664.88 149.56 669.94
  Q 150.06 670.69 150.45 670.39
  A 0.91 0.52 68.9 0 0 150.58 669.53
  Q 150.20 668.11 151.24 666.98
  Q 153.27 664.79 155.87 663.31
  Q 164.61 658.35 173.81 654.30
  Q 176.60 653.07 179.92 654.98
  Q 180.67 655.41 180.34 654.61
  Q 177.90 648.64 174.82 643.75
  Q 174.46 643.18 174.09 642.82
  Q 172.34 641.10 173.25 644.50
  Z
  M 179.08 671.80
  Q 176.57 682.88 173.32 693.77
  Q 171.44 700.08 170.31 706.56
  Q 170.11 707.74 171.17 707.20
  Q 183.76 700.73 196.00 693.64
  Q 196.09 693.59 197.08 692.94
  Q 199.84 691.14 202.11 693.47
  Q 202.36 693.73 202.58 693.78
  Q 203.01 693.89 203.17 693.59
  Q 203.29 693.34 203.10 692.93
  Q 200.67 687.89 197.59 683.23
  Q 197.32 682.82 197.21 683.29
  Q 196.19 687.72 194.06 689.56
  Q 188.06 694.76 180.67 697.69
  Q 179.56 698.13 179.81 696.97
  Q 182.51 684.37 186.18 671.77
  Q 187.16 668.42 186.58 666.14
  Q 185.74 662.82 183.28 660.16
  Q 181.02 657.70 181.33 661.02
  Q 181.62 664.11 179.04 666.04
  Q 170.50 672.44 160.86 677.02
  Q 158.17 678.30 154.49 677.61
  Q 153.20 677.37 153.80 678.54
  Q 156.05 682.94 159.16 686.38
  Q 159.49 686.75 159.57 686.26
  Q 160.07 683.16 161.19 682.19
  Q 169.05 675.35 178.72 671.49
  Q 179.19 671.31 179.08 671.80
  Z
  M 222.79 721.21
  Q 224.06 721.35 223.31 720.35
  L 215.26 709.59
  Q 214.34 708.36 214.30 709.92
  Q 214.18 714.43 210.43 717.18
  Q 207.90 719.04 207.81 719.11
  Q 201.69 724.21 195.03 728.58
  Q 192.09 730.51 188.45 729.92
  Q 187.36 729.74 187.96 730.67
  Q 194.08 740.04 201.93 749.85
  A 1.65 1.63 72.4 0 0 203.09 750.46
  Q 205.89 750.64 208.07 749.98
  Q 208.80 749.76 209.34 749.36
  Q 211.12 748.01 208.00 747.75
  Q 204.35 747.44 202.39 745.84
  Q 199.07 743.14 197.04 739.02
  A 2.06 2.05 55.2 0 1 197.47 736.62
  Q 205.20 729.30 213.63 723.96
  Q 216.94 721.85 217.82 721.57
  Q 219.90 720.89 222.79 721.21
  Z
  M 270.09 790.78
  Q 264.72 798.02 257.17 803.95
  Q 255.38 805.35 252.51 804.65
  Q 250.09 804.05 251.68 805.97
  Q 255.63 810.76 260.10 814.22
  Q 260.83 814.78 260.74 813.86
  Q 260.57 812.35 261.55 811.04
  Q 268.69 801.43 277.63 793.52
  Q 279.71 791.68 281.39 791.29
  Q 283.62 790.77 285.97 791.53
  Q 286.57 791.72 286.12 791.31
  L 279.45 785.37
  Q 278.05 784.13 275.86 784.78
  L 253.40 791.46
  Q 252.21 791.81 252.55 790.61
  Q 255.47 780.17 259.27 770.07
  Q 259.32 769.95 259.95 768.62
  Q 261.11 766.20 259.19 763.81
  Q 253.35 756.55 246.34 750.23
  A 0.33 0.33 -62.1 0 0 245.79 750.40
  Q 245.28 752.62 243.49 753.62
  Q 243.15 753.81 239.98 754.83
  Q 232.76 757.14 224.89 758.80
  Q 222.95 759.21 223.63 757.34
  Q 226.86 748.42 232.76 738.97
  A 1.93 1.92 19.5 0 1 234.63 738.08
  Q 237.27 738.40 235.78 736.68
  Q 235.14 735.95 234.92 735.64
  Q 232.00 731.59 228.19 728.38
  Q 227.81 728.06 227.79 728.57
  Q 227.69 731.04 227.44 731.69
  Q 221.83 745.94 214.86 759.59
  Q 213.78 761.70 213.24 764.04
  A 0.34 0.34 1.7 0 0 213.63 764.45
  Q 217.46 763.75 221.23 762.90
  Q 223.18 762.46 228.71 760.86
  Q 237.50 758.34 246.58 757.24
  Q 249.11 756.94 250.64 758.05
  Q 253.06 759.82 253.67 763.01
  A 1.00 0.93 -29.3 0 1 253.40 763.86
  Q 247.09 770.37 236.81 778.56
  Q 233.09 781.53 229.06 781.57
  Q 228.56 781.57 228.84 781.97
  Q 231.83 786.24 236.15 789.17
  A 0.37 0.33 22.4 0 0 236.71 788.97
  Q 236.82 788.16 236.15 787.11
  A 1.91 1.90 -41.4 0 1 236.30 784.83
  Q 242.19 777.90 249.81 772.15
  Q 251.31 771.03 250.75 772.81
  L 243.55 796.05
  Q 242.91 798.13 244.98 797.51
  L 269.58 790.06
  Q 270.93 789.65 270.09 790.78
  Z
  M 270.00 822.58
  Q 273.62 826.42 277.08 828.95
  Q 278.37 829.89 277.96 828.35
  Q 277.69 827.32 277.96 826.27
  Q 278.15 825.53 278.91 824.50
  Q 284.87 816.34 293.06 807.81
  Q 295.26 805.52 297.79 804.51
  Q 298.38 804.27 299.26 804.33
  Q 301.93 804.50 299.98 802.52
  Q 295.98 798.48 291.43 795.05
  Q 290.05 794.02 290.55 795.67
  Q 291.01 797.15 290.09 798.62
  Q 282.52 810.81 271.90 819.56
  A 3.05 3.03 25.2 0 1 269.97 820.25
  Q 267.24 820.25 269.02 821.68
  Q 269.54 822.09 270.00 822.58
  Z
  M 316.69 843.88
  Q 315.74 844.72 315.54 843.47
  Q 313.12 828.61 312.31 815.76
  Q 312.11 812.68 309.72 810.77
  Q 307.47 808.98 304.46 807.17
  Q 303.45 806.57 303.78 807.60
  L 304.65 810.24
  Q 305.33 812.32 304.60 813.58
  Q 298.07 824.78 288.53 834.09
  A 2.01 2.01 31.2 0 1 286.57 834.57
  Q 284.86 834.06 284.44 834.47
  A 0.75 0.42 45.0 0 0 284.67 835.30
  Q 288.64 839.29 293.70 841.82
  Q 294.69 842.31 294.08 841.40
  Q 292.16 838.52 293.28 835.84
  Q 293.37 835.60 296.08 831.52
  Q 299.87 825.81 304.52 820.73
  Q 306.12 818.99 306.41 821.33
  Q 308.04 834.51 309.20 847.50
  Q 309.55 851.43 310.51 855.31
  A 0.96 0.96 61.1 0 0 312.10 855.77
  Q 314.17 853.79 315.84 851.61
  Q 322.51 842.93 329.63 834.63
  Q 331.78 832.13 335.18 831.46
  Q 336.28 831.25 335.46 830.58
  L 328.96 825.28
  Q 327.33 823.95 327.72 826.11
  Q 327.91 827.10 327.86 828.04
  Q 327.82 828.88 327.32 829.86
  Q 323.13 838.19 316.69 843.88
  Z
  M 333.24 866.07
  L 339.64 855.85
  A 1.06 1.00 28.4 0 1 340.97 855.50
  Q 344.22 857.05 346.40 859.27
  A 2.82 2.81 -62.8 0 1 347.17 861.68
  Q 346.82 863.87 347.69 864.16
  A 0.95 0.62 -56.0 0 0 348.52 863.81
  Q 351.47 860.43 353.14 856.51
  Q 353.55 855.54 352.52 855.75
  Q 346.41 856.98 342.00 852.63
  A 0.88 0.83 39.2 0 1 341.86 851.57
  L 348.01 842.21
  A 0.72 0.67 25.2 0 1 348.80 841.96
  Q 350.26 842.44 351.59 843.21
  Q 353.38 844.25 354.57 845.13
  Q 358.60 848.11 358.49 853.88
  Q 358.48 854.40 358.78 853.98
  Q 361.03 850.73 361.39 847.30
  A 0.85 0.78 21.6 0 0 361.02 846.53
  Q 351.70 840.31 341.98 834.76
  Q 340.74 834.05 340.30 834.19
  Q 339.49 834.44 340.99 837.02
  A 2.32 2.32 43.0 0 1 341.07 839.20
  Q 336.63 848.29 330.12 857.00
  Q 330.05 857.08 328.65 859.21
  Q 326.52 862.45 322.89 862.44
  Q 321.31 862.43 322.63 863.27
  L 345.51 877.86
  A 0.70 0.68 -50.4 0 0 346.34 877.77
  Q 348.91 875.45 350.57 872.56
  Q 350.79 872.19 350.77 871.89
  Q 350.73 871.34 350.26 871.28
  Q 349.92 871.24 349.47 871.60
  Q 348.07 872.71 346.41 873.19
  Q 344.92 873.62 343.16 872.91
  Q 337.74 870.76 333.37 866.84
  A 0.64 0.58 38.0 0 1 333.24 866.07
  Z
  M 427.30 902.55
  A 0.80 0.80 -24.2 0 1 426.01 902.06
  Q 424.39 892.19 424.35 882.25
  Q 424.35 880.17 425.92 879.55
  Q 427.66 878.85 425.95 878.07
  Q 412.45 871.95 398.84 866.13
  Q 392.16 863.27 385.99 859.45
  A 1.76 1.06 82.4 0 1 385.40 858.71
  Q 385.03 857.83 384.26 857.83
  Q 383.66 857.82 382.91 858.52
  Q 380.84 860.44 379.69 862.81
  Q 378.88 864.46 380.67 864.02
  Q 385.82 862.76 390.95 865.21
  Q 393.57 866.47 392.48 869.17
  Q 388.12 879.90 382.21 890.70
  Q 380.72 893.42 377.66 893.06
  Q 377.17 893.00 376.86 893.13
  Q 375.82 893.54 376.81 894.19
  Q 382.09 897.65 389.84 899.83
  Q 391.47 900.29 390.77 899.42
  Q 390.63 899.25 390.29 899.01
  Q 388.02 897.43 389.19 894.19
  Q 393.47 882.32 400.38 871.05
  A 1.54 1.53 24.6 0 1 402.17 870.39
  Q 405.84 871.58 408.74 874.61
  A 3.05 3.04 -63.9 0 1 409.57 877.04
  Q 409.37 879.04 410.44 879.03
  A 1.08 0.96 -71.9 0 0 411.26 878.55
  L 413.25 875.49
  A 0.97 0.89 -55.9 0 1 414.55 875.18
  Q 415.99 876.19 416.69 877.81
  Q 417.78 880.37 418.28 887.00
  Q 419.02 896.74 419.24 906.50
  Q 419.30 909.19 420.10 912.49
  A 0.51 0.51 -24.9 0 0 420.90 912.78
  Q 423.84 910.62 426.58 907.83
  Q 435.74 898.47 445.63 889.89
  Q 447.20 888.53 448.76 888.06
  Q 450.44 887.56 449.09 886.44
  Q 445.81 883.71 441.76 883.51
  A 0.59 0.35 -3.1 0 0 441.10 883.95
  L 441.81 885.89
  A 0.58 0.42 56.2 0 1 441.79 886.35
  Q 435.56 895.82 427.30 902.55
  Z
  M 451.12 920.14
  Q 458.07 926.11 467.09 926.09
  Q 470.16 926.08 471.40 925.94
  Q 473.70 925.69 475.56 924.56
  Q 483.70 919.65 485.01 910.76
  Q 485.68 906.18 484.44 902.31
  Q 483.04 897.96 479.44 895.06
  Q 474.23 890.87 467.63 889.96
  Q 461.91 889.17 457.09 891.27
  Q 451.99 893.49 448.55 898.30
  Q 445.50 902.56 446.00 909.00
  Q 446.56 916.22 451.12 920.14
  Z"
/>
<path fill="none" stroke-width="1.00" stroke="#d9d9d9" vector-effect="non-scaling-stroke" d="
  M 666.41 978.56
  A 0.87 0.87 -8.8 0 1 665.56 977.94
  L 642.10 900.23
  Q 641.67 898.79 640.62 897.75
  Q 636.15 893.27 632.57 888.69
  Q 628.91 883.98 628.62 880.47
  Q 628.14 874.45 635.28 872.10
  Q 652.88 866.29 685.00 858.25
  Q 704.03 853.48 723.05 848.69
  Q 735.63 845.53 742.36 843.51
  Q 788.79 829.56 830.07 803.83
  Q 858.98 785.81 884.38 763.12
  Q 918.69 732.46 946.65 695.91
  Q 974.78 659.14 997.12 618.60
  Q 1014.28 587.45 1028.64 554.92
  Q 1030.01 551.81 1030.63 549.02
  Q 1031.44 545.41 1034.49 547.49
  Q 1039.29 550.77 1042.78 555.43
  Q 1047.07 561.17 1051.32 566.93
  Q 1056.91 574.49 1060.63 577.74
  Q 1066.67 583.01 1074.14 586.30
  Q 1077.62 587.84 1077.72 587.89
  Q 1098.35 597.46 1118.94 607.69
  A 0.56 0.56 -67.0 0 1 1119.22 608.39
  Q 1099.61 661.32 1072.11 710.09
  Q 1068.32 716.81 1064.23 723.34
  Q 1062.91 725.43 1055.97 736.34
  Q 1010.80 807.25 948.31 859.06
  Q 874.40 920.34 782.73 949.18
  Q 727.85 966.44 671.49 977.97
  Q 668.86 978.50 666.41 978.56
  Z
  M 1063.17 624.43
  Q 1064.83 625.26 1063.14 626.03
  Q 1050.13 631.96 1036.24 635.33
  Q 1034.38 635.78 1033.45 637.46
  Q 1031.33 641.31 1030.44 644.37
  Q 1029.76 646.67 1031.49 645.01
  Q 1033.96 642.64 1037.20 643.67
  Q 1048.67 647.31 1058.88 653.65
  Q 1060.86 654.88 1061.60 656.83
  Q 1062.02 657.95 1062.68 656.95
  Q 1065.20 653.12 1066.32 649.37
  Q 1066.79 647.78 1065.29 648.48
  Q 1064.22 648.98 1063.12 649.26
  Q 1062.09 649.53 1060.90 649.19
  Q 1051.77 646.55 1043.54 641.47
  Q 1042.38 640.75 1043.67 640.28
  L 1075.70 628.43
  Q 1076.95 627.97 1075.76 627.34
  Q 1064.17 621.17 1051.75 615.58
  Q 1048.27 614.01 1047.77 610.37
  Q 1047.41 607.79 1046.01 609.99
  Q 1043.52 613.89 1042.69 618.45
  Q 1042.39 620.08 1043.72 619.09
  Q 1044.43 618.56 1045.36 618.24
  Q 1046.16 617.97 1047.14 618.25
  Q 1055.80 620.73 1063.17 624.43
  Z
  M 1033.23 669.98
  Q 1027.82 667.49 1023.15 663.82
  A 0.71 0.70 29.4 0 1 1022.92 663.02
  Q 1024.23 659.40 1027.24 655.35
  Q 1028.30 653.93 1030.05 654.23
  Q 1032.62 654.66 1032.67 653.49
  Q 1032.71 652.71 1031.68 651.94
  Q 1029.97 650.66 1027.94 650.28
  A 1.09 1.07 -68.9 0 0 1026.83 650.78
  Q 1020.94 660.34 1016.34 670.31
  Q 1015.76 671.56 1017.09 671.21
  Q 1018.89 670.74 1020.53 671.43
  Q 1030.33 675.59 1039.34 681.23
  Q 1042.87 683.43 1043.42 684.03
  Q 1045.23 686.02 1044.75 689.25
  Q 1044.55 690.60 1045.19 689.44
  L 1057.92 666.35
  Q 1058.82 664.71 1057.45 663.32
  Q 1049.58 655.35 1054.28 665.05
  A 1.52 1.38 40.4 0 1 1054.40 665.98
  Q 1053.07 671.97 1048.85 676.39
  A 0.99 0.98 -64.1 0 1 1048.00 676.69
  Q 1044.22 676.16 1039.06 673.19
  Q 1036.58 671.75 1037.20 669.73
  Q 1037.48 668.80 1038.73 666.73
  Q 1040.57 663.69 1044.14 664.12
  Q 1046.64 664.42 1044.70 662.82
  Q 1040.94 659.73 1036.24 658.61
  A 0.52 0.40 7.8 0 0 1035.61 658.97
  Q 1035.62 659.82 1036.94 661.61
  A 1.96 1.73 41.9 0 1 1037.17 663.56
  L 1033.95 669.75
  A 0.56 0.53 25.5 0 1 1033.23 669.98
  Z
  M 1001.33 714.65
  Q 1000.12 713.56 1001.73 713.75
  L 1027.23 716.68
  Q 1028.20 716.79 1027.74 715.91
  L 1016.06 693.43
  Q 1015.15 691.67 1016.92 692.59
  Q 1024.40 696.46 1030.90 702.10
  Q 1033.01 703.92 1033.32 706.70
  Q 1033.43 707.75 1034.14 706.97
  Q 1037.87 702.78 1040.47 697.51
  A 0.32 0.31 13.3 0 0 1040.19 697.06
  Q 1037.12 697.00 1034.19 695.31
  Q 1023.49 689.17 1015.07 683.17
  Q 1012.23 681.14 1013.25 677.74
  Q 1013.95 675.43 1012.35 677.24
  Q 1010.05 679.83 1008.06 683.82
  Q 1007.27 685.40 1008.19 686.90
  Q 1014.58 697.29 1019.97 708.49
  A 0.30 0.30 78.1 0 1 1019.69 708.92
  Q 1008.35 708.50 995.22 706.14
  Q 993.07 705.75 991.83 707.44
  L 981.04 722.24
  Q 980.18 723.41 981.64 723.26
  Q 983.50 723.07 984.44 724.56
  Q 989.85 733.15 993.71 742.63
  Q 994.12 743.64 993.06 743.43
  Q 982.83 741.46 973.82 737.67
  Q 972.43 737.08 971.51 735.51
  A 0.81 0.80 -36.4 0 0 970.27 735.33
  Q 966.56 738.76 963.10 744.02
  Q 962.43 745.03 963.63 744.86
  Q 966.22 744.48 969.06 744.68
  Q 971.11 744.83 974.36 745.67
  Q 987.60 749.07 1000.85 752.78
  Q 1002.19 753.15 1001.61 751.88
  L 986.74 719.20
  A 1.74 1.69 53.8 0 1 987.00 717.36
  L 990.75 713.08
  A 1.55 1.50 37.2 0 1 992.73 712.84
  Q 1002.37 719.09 1011.06 726.69
  Q 1013.66 728.96 1015.03 731.56
  A 2.02 1.47 -65.5 0 1 1015.22 732.49
  Q 1015.10 735.04 1016.66 733.15
  Q 1019.45 729.78 1021.14 726.18
  Q 1021.72 724.95 1020.40 725.29
  Q 1018.49 725.79 1016.80 724.96
  Q 1008.06 720.69 1001.33 714.65
  Z
  M 990.48 764.83
  A 0.62 0.61 52.5 0 0 990.56 764.17
  Q 988.96 761.03 987.92 759.96
  Q 985.61 757.59 986.14 760.86
  Q 986.90 765.48 984.29 768.28
  Q 982.28 770.44 979.46 772.29
  Q 977.77 773.40 976.19 772.14
  Q 967.42 765.13 959.16 756.83
  Q 957.45 755.12 957.07 752.80
  Q 956.99 752.33 957.15 751.72
  Q 957.78 749.25 955.95 750.95
  Q 952.32 754.29 949.32 758.18
  Q 949.27 758.25 948.50 759.15
  Q 946.95 760.96 950.06 760.75
  A 4.26 4.25 -29.1 0 1 952.85 761.54
  Q 963.06 768.85 971.14 778.13
  Q 972.06 779.19 972.20 780.25
  Q 972.35 781.41 972.14 782.72
  Q 971.86 784.48 973.15 783.25
  Q 981.83 774.93 990.48 764.83
  Z
  M 943.69 797.06
  Q 947.20 797.35 948.28 800.27
  Q 949.18 802.69 947.69 805.05
  Q 946.40 807.11 944.16 808.09
  Q 942.61 808.77 939.75 808.54
  Q 936.88 808.31 933.98 808.25
  Q 932.44 808.22 933.39 809.43
  Q 936.29 813.13 940.29 812.83
  Q 943.34 812.60 946.54 809.86
  Q 948.70 808.01 950.31 805.66
  Q 951.94 803.28 952.24 800.49
  Q 953.29 790.72 942.50 789.75
  Q 940.24 789.55 934.96 790.73
  Q 930.47 791.73 928.47 791.17
  Q 924.90 790.16 925.26 786.18
  Q 925.52 783.27 927.59 781.58
  Q 930.80 778.98 935.72 780.84
  Q 938.15 781.77 936.78 779.55
  Q 933.75 774.66 928.88 777.43
  Q 922.58 780.99 920.90 787.71
  Q 920.39 789.71 921.35 791.65
  Q 922.88 794.74 925.17 797.37
  A 1.00 0.96 -21.7 0 0 926.00 797.71
  Q 939.81 796.75 943.69 797.06
  Z
  M 858.53 844.72
  Q 860.64 845.45 863.44 847.06
  Q 872.30 852.17 880.46 857.07
  Q 882.80 858.48 882.50 855.76
  Q 881.46 846.25 880.47 836.75
  Q 880.20 834.11 880.45 831.91
  Q 880.57 830.86 881.28 831.64
  Q 887.11 838.08 890.69 845.75
  Q 891.84 848.23 891.58 850.35
  Q 891.40 851.79 892.60 850.99
  L 902.79 844.19
  Q 903.89 843.46 902.56 843.34
  Q 899.77 843.10 898.08 841.85
  Q 897.58 841.48 895.14 838.45
  Q 888.71 830.44 883.30 821.67
  Q 882.23 819.93 883.29 818.18
  Q 884.58 816.07 887.15 814.51
  A 3.03 3.02 40.0 0 1 889.83 814.28
  Q 898.06 817.51 905.91 821.77
  Q 913.42 825.84 920.97 829.64
  Q 922.39 830.36 922.06 828.80
  Q 919.37 815.95 916.54 803.44
  Q 915.17 797.39 915.06 791.16
  A 0.34 0.34 74.2 0 0 914.55 790.87
  Q 910.72 793.16 908.20 796.38
  A 0.56 0.55 27.0 0 0 908.49 797.25
  Q 910.70 797.87 911.69 799.66
  Q 911.87 799.99 912.92 803.22
  Q 915.40 810.90 916.14 818.93
  A 0.32 0.30 -82.6 0 1 915.73 819.26
  Q 906.20 815.57 898.06 809.40
  Q 896.71 808.38 897.25 806.74
  Q 897.80 805.08 896.17 805.69
  Q 893.95 806.53 892.14 808.05
  Q 890.51 809.44 890.42 809.51
  Q 884.21 814.29 877.83 818.84
  Q 875.74 820.33 876.25 823.75
  Q 877.98 835.32 877.76 846.40
  A 0.73 0.72 14.2 0 1 876.70 847.03
  Q 865.22 840.99 854.92 834.27
  A 0.80 0.72 42.8 0 0 854.07 834.26
  L 846.24 839.79
  Q 844.91 840.73 846.50 840.31
  Q 850.24 839.34 852.26 842.24
  Q 859.13 852.12 864.52 863.58
  A 2.87 2.85 44.2 0 1 864.56 865.93
  Q 863.24 868.95 865.31 868.06
  Q 869.71 866.19 873.34 863.27
  Q 874.50 862.33 873.02 862.50
  Q 870.43 862.79 868.75 861.39
  Q 868.42 861.12 866.13 858.21
  Q 861.35 852.14 858.26 845.02
  Q 858.05 844.55 858.53 844.72
  Z
  M 839.92 845.03
  Q 840.33 844.12 841.23 843.64
  A 0.59 0.41 -30.2 0 0 841.55 842.95
  Q 841.29 842.57 840.52 842.82
  Q 834.11 844.90 828.81 849.06
  Q 826.98 850.50 829.50 850.25
  Q 830.46 850.15 831.39 850.27
  Q 832.31 850.39 832.98 851.10
  Q 834.40 852.59 835.81 854.94
  Q 842.28 865.71 845.89 872.84
  Q 847.06 875.15 845.39 877.56
  Q 843.82 879.82 846.34 878.73
  Q 851.87 876.33 856.96 872.97
  Q 859.24 871.46 856.50 871.50
  Q 854.15 871.54 852.69 869.56
  Q 844.68 858.64 839.92 845.97
  A 1.36 1.05 52.4 0 1 839.92 845.03
  Z
  M 801.22 866.97
  Q 808.59 877.89 813.43 890.14
  Q 814.26 892.22 814.00 894.52
  Q 813.91 895.26 814.59 894.96
  Q 822.65 891.42 830.21 886.73
  Q 833.59 884.63 834.56 883.06
  Q 838.55 876.65 833.31 871.69
  Q 831.60 870.06 828.97 869.26
  Q 828.42 869.09 827.00 869.08
  Q 825.96 869.06 825.02 868.66
  A 0.63 0.60 -71.9 0 1 824.68 867.95
  Q 825.03 866.44 825.50 864.96
  Q 826.09 863.12 825.92 861.96
  Q 825.37 858.34 821.51 857.21
  Q 818.02 856.19 814.00 857.25
  Q 805.63 859.46 799.39 864.44
  A 0.76 0.66 -30.1 0 0 799.12 865.24
  Q 799.45 866.13 800.45 866.45
  A 1.58 1.12 -1.2 0 1 801.22 866.97
  Z
  M 784.76 890.10
  L 790.87 887.69
  A 3.23 2.68 46.2 0 1 793.44 887.98
  Q 796.79 889.93 795.96 887.19
  Q 794.85 883.52 792.44 880.56
  Q 791.47 879.38 791.25 881.00
  Q 791.09 882.15 790.73 883.25
  Q 790.36 884.35 789.35 884.95
  Q 787.10 886.28 783.95 886.91
  A 0.98 0.88 -17.1 0 1 782.90 886.42
  L 778.56 876.70
  A 0.77 0.71 -28.8 0 1 778.87 875.78
  Q 781.34 874.16 784.13 873.04
  Q 788.54 871.28 792.07 873.98
  Q 794.20 875.60 793.50 873.01
  Q 792.75 870.22 790.64 868.33
  A 0.86 0.86 56.1 0 0 789.78 868.16
  Q 778.74 871.90 768.64 877.69
  Q 767.35 878.43 770.92 879.24
  A 1.43 1.42 -6.9 0 1 771.86 879.97
  Q 777.85 891.35 783.25 904.74
  A 1.36 1.06 -39.4 0 1 782.97 905.98
  L 780.27 909.24
  Q 779.79 909.81 780.54 909.52
  L 804.73 899.88
  A 1.19 1.11 81.8 0 0 805.44 898.85
  Q 805.63 894.64 805.07 891.83
  Q 804.95 891.23 804.62 891.24
  A 0.84 0.46 -79.6 0 0 804.08 891.90
  Q 802.04 900.05 792.48 901.39
  Q 790.09 901.73 788.69 899.76
  Q 786.10 896.16 784.46 890.80
  A 0.59 0.53 71.0 0 1 784.76 890.10
  Z
  M 759.17 886.39
  Q 755.69 884.83 751.91 884.91
  Q 748.85 884.98 741.65 886.95
  Q 735.69 888.58 729.63 891.30
  A 1.35 1.35 -32.0 0 0 729.14 893.39
  Q 730.61 895.15 731.91 898.07
  Q 736.59 908.57 739.09 919.78
  Q 739.44 921.34 738.50 923.25
  Q 737.82 924.65 739.33 924.28
  Q 746.52 922.51 754.02 919.54
  Q 757.93 917.99 761.28 915.55
  Q 764.74 913.03 766.77 909.55
  Q 772.65 899.47 764.90 890.74
  Q 762.29 887.79 759.17 886.39
  Z
  M 711.10 899.03
  Q 715.12 910.91 718.11 923.08
  Q 718.75 925.66 718.04 929.34
  A 0.70 0.70 -89.7 0 0 718.85 930.16
  Q 724.10 929.23 729.09 927.06
  Q 730.52 926.44 729.66 925.99
  Q 729.04 925.66 727.50 925.37
  A 1.77 1.76 -4.4 0 1 726.17 924.24
  Q 721.71 911.96 718.75 898.37
  A 2.03 2.02 64.6 0 1 719.46 896.37
  Q 720.82 895.27 721.14 894.68
  Q 721.83 893.38 720.39 893.73
  Q 708.81 896.59 697.69 899.88
  Q 696.91 900.11 696.47 900.33
  Q 694.37 901.39 697.53 901.98
  A 1.53 1.52 -81.3 0 1 698.76 903.66
  Q 697.52 913.81 694.64 924.17
  Q 694.36 925.17 693.66 924.40
  Q 686.42 916.51 681.31 906.93
  A 1.18 1.17 -35.6 0 1 681.55 905.51
  Q 683.85 903.38 681.49 903.59
  Q 675.37 904.11 670.33 906.17
  Q 668.68 906.85 670.33 907.52
  Q 671.81 908.12 672.80 909.20
  Q 676.68 913.47 680.08 918.14
  Q 686.77 927.30 693.90 936.30
  A 0.74 0.74 -52.2 0 0 695.16 936.14
  Q 695.61 935.14 695.91 933.68
  Q 698.20 922.36 701.01 911.15
  Q 702.89 903.64 703.01 903.37
  Q 704.99 899.13 710.44 898.60
  A 0.65 0.63 77.1 0 1 711.10 899.03
  Z"
/>
<path fill="none" stroke-width="1.00" stroke="#d9d9d9" vector-effect="non-scaling-stroke" d="
  M 179.69 572.56
  Q 177.66 569.21 176.11 564.26
  Q 174.45 558.96 173.48 556.36
  Q 172.01 552.47 170.75 548.49
  A 0.78 0.78 -12.3 0 1 171.40 547.48
  Q 182.98 546.21 193.12 552.09
  Q 196.95 554.30 208.81 559.44
  Q 210.74 560.27 221.18 565.83
  Q 237.55 574.54 254.32 580.03
  Q 256.66 580.79 254.32 581.56
  Q 225.42 591.00 201.68 609.94
  A 0.83 0.82 -33.0 0 1 200.43 609.68
  Q 190.76 590.89 179.69 572.56
  Z"
/>
<path fill="none" stroke-width="1.00" stroke="#d9d9d9" vector-effect="non-scaling-stroke" d="
  M 536.50 610.82
  Q 535.96 615.28 537.20 618.34
  Q 538.07 620.51 540.43 620.72
  L 551.69 621.76
  A 0.82 0.81 -7.6 0 1 552.37 622.27
  Q 554.64 628.09 553.75 633.00
  Q 553.15 636.29 549.25 636.41
  Q 543.78 636.57 539.31 633.44
  Q 537.23 631.98 533.95 628.11
  Q 531.81 625.59 529.42 622.08
  Q 515.91 602.20 508.75 584.50
  Q 507.30 580.92 507.32 575.59
  Q 507.34 569.13 507.46 567.91
  Q 507.71 565.25 508.78 562.80
  Q 509.79 560.50 511.83 558.65
  Q 518.71 552.39 529.25 552.75
  Q 537.90 553.05 545.13 554.71
  Q 549.17 555.65 560.30 559.56
  Q 570.82 563.25 580.63 567.46
  A 3.16 3.12 3.8 0 1 582.40 569.46
  Q 584.78 577.55 587.28 583.34
  Q 594.41 599.82 592.48 617.75
  Q 591.34 628.37 583.15 635.14
  Q 581.63 636.40 579.81 636.92
  Q 578.20 637.38 576.19 636.85
  Q 566.27 634.22 563.75 623.74
  A 1.41 1.39 81.3 0 1 565.01 622.00
  L 573.26 621.50
  A 1.68 1.62 2.7 0 0 574.81 620.14
  Q 575.45 616.37 573.21 612.84
  Q 571.23 609.70 569.02 610.32
  Q 567.42 610.77 565.77 610.88
  Q 561.88 611.14 560.61 609.37
  Q 560.55 609.28 559.52 605.06
  Q 558.98 602.88 558.25 600.74
  A 2.22 2.22 -5.3 0 0 556.49 599.28
  Q 552.10 598.63 547.17 599.29
  A 0.44 0.44 77.3 0 0 546.81 599.86
  L 549.81 609.21
  A 0.79 0.78 80.8 0 1 549.07 610.25
  L 537.05 610.30
  A 0.59 0.56 -87.0 0 0 536.50 610.82
  Z"
/>
<path fill="none" stroke-width="1.00" stroke="#d9d9d9" vector-effect="non-scaling-stroke" d="
  M 671.93 610.30
  L 659.26 610.25
  A 0.44 0.40 6.4 0 1 658.83 609.76
  L 660.76 601.73
  Q 661.30 599.46 659.32 599.38
  L 651.58 599.05
  A 1.38 1.26 -80.2 0 0 650.29 600.05
  L 647.32 610.21
  A 0.73 0.68 5.0 0 1 646.69 610.70
  L 636.70 611.47
  A 1.95 1.75 2.9 0 0 634.99 612.85
  L 633.15 620.96
  A 0.71 0.65 5.8 0 0 633.86 621.75
  L 642.02 621.75
  Q 644.05 621.75 644.26 623.77
  Q 644.50 626.06 642.82 628.53
  Q 640.59 631.84 637.46 634.16
  Q 633.86 636.82 630.43 636.98
  Q 625.98 637.19 622.81 633.44
  Q 617.93 627.66 616.07 620.21
  Q 614.54 614.07 615.40 605.72
  Q 616.54 594.80 620.82 584.53
  Q 623.99 576.94 625.29 568.94
  A 1.58 1.56 -6.4 0 1 626.27 567.73
  Q 644.94 560.41 662.81 554.81
  Q 671.08 552.22 681.75 552.80
  Q 693.88 553.46 699.94 563.81
  Q 701.07 565.75 701.11 569.26
  Q 701.13 570.89 700.95 574.75
  Q 700.64 581.41 698.44 586.44
  Q 691.76 601.69 682.06 617.56
  Q 676.69 626.35 669.49 632.78
  Q 666.42 635.52 663.81 636.09
  Q 660.46 636.82 656.92 635.47
  A 2.71 2.66 -88.1 0 1 655.30 633.71
  Q 653.93 629.00 655.19 624.67
  Q 655.75 622.76 657.61 622.48
  L 667.70 620.98
  Q 669.93 620.65 670.80 618.73
  Q 672.28 615.47 672.42 610.81
  A 0.50 0.49 1.7 0 0 671.93 610.30
  Z"
/>
<path fill="none" stroke-width="1.00" stroke="#d9d9d9" vector-effect="non-scaling-stroke" d="
  M 1063.17 624.43
  Q 1055.80 620.73 1047.14 618.25
  Q 1046.16 617.97 1045.36 618.24
  Q 1044.43 618.56 1043.72 619.09
  Q 1042.39 620.08 1042.69 618.45
  Q 1043.52 613.89 1046.01 609.99
  Q 1047.41 607.79 1047.77 610.37
  Q 1048.27 614.01 1051.75 615.58
  Q 1064.17 621.17 1075.76 627.34
  Q 1076.95 627.97 1075.70 628.43
  L 1043.67 640.28
  Q 1042.38 640.75 1043.54 641.47
  Q 1051.77 646.55 1060.90 649.19
  Q 1062.09 649.53 1063.12 649.26
  Q 1064.22 648.98 1065.29 648.48
  Q 1066.79 647.78 1066.32 649.37
  Q 1065.20 653.12 1062.68 656.95
  Q 1062.02 657.95 1061.60 656.83
  Q 1060.86 654.88 1058.88 653.65
  Q 1048.67 647.31 1037.20 643.67
  Q 1033.96 642.64 1031.49 645.01
  Q 1029.76 646.67 1030.44 644.37
  Q 1031.33 641.31 1033.45 637.46
  Q 1034.38 635.78 1036.24 635.33
  Q 1050.13 631.96 1063.14 626.03
  Q 1064.83 625.26 1063.17 624.43
  Z"
/>
<path fill="none" stroke-width="1.00" stroke="#d9d9d9" vector-effect="non-scaling-stroke" d="
  M 173.25 644.50
  Q 172.34 641.10 174.09 642.82
  Q 174.46 643.18 174.82 643.75
  Q 177.90 648.64 180.34 654.61
  Q 180.67 655.41 179.92 654.98
  Q 176.60 653.07 173.81 654.30
  Q 164.61 658.35 155.87 663.31
  Q 153.27 664.79 151.24 666.98
  Q 150.20 668.11 150.58 669.53
  A 0.91 0.52 68.9 0 1 150.45 670.39
  Q 150.06 670.69 149.56 669.94
  Q 146.23 664.88 143.97 658.30
  Q 143.81 657.83 144.27 658.00
  Q 147.71 659.34 151.44 657.69
  Q 161.70 653.13 171.31 647.31
  Q 173.63 645.91 173.25 644.50
  Z"
/>
<path fill="none" stroke-width="1.00" stroke="#d9d9d9" vector-effect="non-scaling-stroke" d="
  M 1033.95 669.75
  L 1037.17 663.56
  A 1.96 1.73 41.9 0 0 1036.94 661.61
  Q 1035.62 659.82 1035.61 658.97
  A 0.52 0.40 7.8 0 1 1036.24 658.61
  Q 1040.94 659.73 1044.70 662.82
  Q 1046.64 664.42 1044.14 664.12
  Q 1040.57 663.69 1038.73 666.73
  Q 1037.48 668.80 1037.20 669.73
  Q 1036.58 671.75 1039.06 673.19
  Q 1044.22 676.16 1048.00 676.69
  A 0.99 0.98 -64.1 0 0 1048.85 676.39
  Q 1053.07 671.97 1054.40 665.98
  A 1.52 1.38 40.4 0 0 1054.28 665.05
  Q 1049.58 655.35 1057.45 663.32
  Q 1058.82 664.71 1057.92 666.35
  L 1045.19 689.44
  Q 1044.55 690.60 1044.75 689.25
  Q 1045.23 686.02 1043.42 684.03
  Q 1042.87 683.43 1039.34 681.23
  Q 1030.33 675.59 1020.53 671.43
  Q 1018.89 670.74 1017.09 671.21
  Q 1015.76 671.56 1016.34 670.31
  Q 1020.94 660.34 1026.83 650.78
  A 1.09 1.07 -68.9 0 1 1027.94 650.28
  Q 1029.97 650.66 1031.68 651.94
  Q 1032.71 652.71 1032.67 653.49
  Q 1032.62 654.66 1030.05 654.23
  Q 1028.30 653.93 1027.24 655.35
  Q 1024.23 659.40 1022.92 663.02
  A 0.71 0.70 29.4 0 0 1023.15 663.82
  Q 1027.82 667.49 1033.23 669.98
  A 0.56 0.53 25.5 0 0 1033.95 669.75
  Z"
/>
<path fill="none" stroke-width="1.00" stroke="#d9d9d9" vector-effect="non-scaling-stroke" d="
  M 178.72 671.49
  Q 169.05 675.35 161.19 682.19
  Q 160.07 683.16 159.57 686.26
  Q 159.49 686.75 159.16 686.38
  Q 156.05 682.94 153.80 678.54
  Q 153.20 677.37 154.49 677.61
  Q 158.17 678.30 160.86 677.02
  Q 170.50 672.44 179.04 666.04
  Q 181.62 664.11 181.33 661.02
  Q 181.02 657.70 183.28 660.16
  Q 185.74 662.82 186.58 666.14
  Q 187.16 668.42 186.18 671.77
  Q 182.51 684.37 179.81 696.97
  Q 179.56 698.13 180.67 697.69
  Q 188.06 694.76 194.06 689.56
  Q 196.19 687.72 197.21 683.29
  Q 197.32 682.82 197.59 683.23
  Q 200.67 687.89 203.10 692.93
  Q 203.29 693.34 203.17 693.59
  Q 203.01 693.89 202.58 693.78
  Q 202.36 693.73 202.11 693.47
  Q 199.84 691.14 197.08 692.94
  Q 196.09 693.59 196.00 693.64
  Q 183.76 700.73 171.17 707.20
  Q 170.11 707.74 170.31 706.56
  Q 171.44 700.08 173.32 693.77
  Q 176.57 682.88 179.08 671.80
  Q 179.19 671.31 178.72 671.49
  Z"
/>
<rect fill="none" stroke-width="1.00" stroke="#d9d9d9" vector-effect="non-scaling-stroke" x="518.26" y="661.50" width="172.50" height="14.50" rx="0.29"/>
<path fill="none" stroke-width="1.00" stroke="#d9d9d9" vector-effect="non-scaling-stroke" d="
  M 1001.33 714.65
  Q 1008.06 720.69 1016.80 724.96
  Q 1018.49 725.79 1020.40 725.29
  Q 1021.72 724.95 1021.14 726.18
  Q 1019.45 729.78 1016.66 733.15
  Q 1015.10 735.04 1015.22 732.49
  A 2.02 1.47 -65.5 0 0 1015.03 731.56
  Q 1013.66 728.96 1011.06 726.69
  Q 1002.37 719.09 992.73 712.84
  A 1.55 1.50 37.2 0 0 990.75 713.08
  L 987.00 717.36
  A 1.74 1.69 53.8 0 0 986.74 719.20
  L 1001.61 751.88
  Q 1002.19 753.15 1000.85 752.78
  Q 987.60 749.07 974.36 745.67
  Q 971.11 744.83 969.06 744.68
  Q 966.22 744.48 963.63 744.86
  Q 962.43 745.03 963.10 744.02
  Q 966.56 738.76 970.27 735.33
  A 0.81 0.80 -36.4 0 1 971.51 735.51
  Q 972.43 737.08 973.82 737.67
  Q 982.83 741.46 993.06 743.43
  Q 994.12 743.64 993.71 742.63
  Q 989.85 733.15 984.44 724.56
  Q 983.50 723.07 981.64 723.26
  Q 980.18 723.41 981.04 722.24
  L 991.83 707.44
  Q 993.07 705.75 995.22 706.14
  Q 1008.35 708.50 1019.69 708.92
  A 0.30 0.30 78.1 0 0 1019.97 708.49
  Q 1014.58 697.29 1008.19 686.90
  Q 1007.27 685.40 1008.06 683.82
  Q 1010.05 679.83 1012.35 677.24
  Q 1013.95 675.43 1013.25 677.74
  Q 1012.23 681.14 1015.07 683.17
  Q 1023.49 689.17 1034.19 695.31
  Q 1037.12 697.00 1040.19 697.06
  A 0.32 0.31 13.3 0 1 1040.47 697.51
  Q 1037.87 702.78 1034.14 706.97
  Q 1033.43 707.75 1033.32 706.70
  Q 1033.01 703.92 1030.90 702.10
  Q 1024.40 696.46 1016.92 692.59
  Q 1015.15 691.67 1016.06 693.43
  L 1027.74 715.91
  Q 1028.20 716.79 1027.23 716.68
  L 1001.73 713.75
  Q 1000.12 713.56 1001.33 714.65
  Z"
/>
<path fill="none" stroke-width="1.00" stroke="#d9d9d9" vector-effect="non-scaling-stroke" d="
  M 222.79 721.21
  Q 219.90 720.89 217.82 721.57
  Q 216.94 721.85 213.63 723.96
  Q 205.20 729.30 197.47 736.62
  A 2.06 2.05 55.2 0 0 197.04 739.02
  Q 199.07 743.14 202.39 745.84
  Q 204.35 747.44 208.00 747.75
  Q 211.12 748.01 209.34 749.36
  Q 208.80 749.76 208.07 749.98
  Q 205.89 750.64 203.09 750.46
  A 1.65 1.63 72.4 0 1 201.93 749.85
  Q 194.08 740.04 187.96 730.67
  Q 187.36 729.74 188.45 729.92
  Q 192.09 730.51 195.03 728.58
  Q 201.69 724.21 207.81 719.11
  Q 207.90 719.04 210.43 717.18
  Q 214.18 714.43 214.30 709.92
  Q 214.34 708.36 215.26 709.59
  L 223.31 720.35
  Q 224.06 721.35 222.79 721.21
  Z"
/>
<path fill="none" stroke-width="1.00" stroke="#d9d9d9" vector-effect="non-scaling-stroke" d="
  M 270.09 790.78
  Q 270.93 789.65 269.58 790.06
  L 244.98 797.51
  Q 242.91 798.13 243.55 796.05
  L 250.75 772.81
  Q 251.31 771.03 249.81 772.15
  Q 242.19 777.90 236.30 784.83
  A 1.91 1.90 -41.4 0 0 236.15 787.11
  Q 236.82 788.16 236.71 788.97
  A 0.37 0.33 22.4 0 1 236.15 789.17
  Q 231.83 786.24 228.84 781.97
  Q 228.56 781.57 229.06 781.57
  Q 233.09 781.53 236.81 778.56
  Q 247.09 770.37 253.40 763.86
  A 1.00 0.93 -29.3 0 0 253.67 763.01
  Q 253.06 759.82 250.64 758.05
  Q 249.11 756.94 246.58 757.24
  Q 237.50 758.34 228.71 760.86
  Q 223.18 762.46 221.23 762.90
  Q 217.46 763.75 213.63 764.45
  A 0.34 0.34 1.7 0 1 213.24 764.04
  Q 213.78 761.70 214.86 759.59
  Q 221.83 745.94 227.44 731.69
  Q 227.69 731.04 227.79 728.57
  Q 227.81 728.06 228.19 728.38
  Q 232.00 731.59 234.92 735.64
  Q 235.14 735.95 235.78 736.68
  Q 237.27 738.40 234.63 738.08
  A 1.93 1.92 19.5 0 0 232.76 738.97
  Q 226.86 748.42 223.63 757.34
  Q 222.95 759.21 224.89 758.80
  Q 232.76 757.14 239.98 754.83
  Q 243.15 753.81 243.49 753.62
  Q 245.28 752.62 245.79 750.40
  A 0.33 0.33 -62.1 0 1 246.34 750.23
  Q 253.35 756.55 259.19 763.81
  Q 261.11 766.20 259.95 768.62
  Q 259.32 769.95 259.27 770.07
  Q 255.47 780.17 252.55 790.61
  Q 252.21 791.81 253.40 791.46
  L 275.86 784.78
  Q 278.05 784.13 279.45 785.37
  L 286.12 791.31
  Q 286.57 791.72 285.97 791.53
  Q 283.62 790.77 281.39 791.29
  Q 279.71 791.68 277.63 793.52
  Q 268.69 801.43 261.55 811.04
  Q 260.57 812.35 260.74 813.86
  Q 260.83 814.78 260.10 814.22
  Q 255.63 810.76 251.68 805.97
  Q 250.09 804.05 252.51 804.65
  Q 255.38 805.35 257.17 803.95
  Q 264.72 798.02 270.09 790.78
  Z"
/>
<path fill="none" stroke-width="1.00" stroke="#d9d9d9" vector-effect="non-scaling-stroke" d="
  M 990.48 764.83
  Q 981.83 774.93 973.15 783.25
  Q 971.86 784.48 972.14 782.72
  Q 972.35 781.41 972.20 780.25
  Q 972.06 779.19 971.14 778.13
  Q 963.06 768.85 952.85 761.54
  A 4.26 4.25 -29.1 0 0 950.06 760.75
  Q 946.95 760.96 948.50 759.15
  Q 949.27 758.25 949.32 758.18
  Q 952.32 754.29 955.95 750.95
  Q 957.78 749.25 957.15 751.72
  Q 956.99 752.33 957.07 752.80
  Q 957.45 755.12 959.16 756.83
  Q 967.42 765.13 976.19 772.14
  Q 977.77 773.40 979.46 772.29
  Q 982.28 770.44 984.29 768.28
  Q 986.90 765.48 986.14 760.86
  Q 985.61 757.59 987.92 759.96
  Q 988.96 761.03 990.56 764.17
  A 0.62 0.61 52.5 0 1 990.48 764.83
  Z"
/>
<path fill="none" stroke-width="1.00" stroke="#d9d9d9" vector-effect="non-scaling-stroke" d="
  M 943.69 797.06
  Q 939.81 796.75 926.00 797.71
  A 1.00 0.96 -21.7 0 1 925.17 797.37
  Q 922.88 794.74 921.35 791.65
  Q 920.39 789.71 920.90 787.71
  Q 922.58 780.99 928.88 777.43
  Q 933.75 774.66 936.78 779.55
  Q 938.15 781.77 935.72 780.84
  Q 930.80 778.98 927.59 781.58
  Q 925.52 783.27 925.26 786.18
  Q 924.90 790.16 928.47 791.17
  Q 930.47 791.73 934.96 790.73
  Q 940.24 789.55 942.50 789.75
  Q 953.29 790.72 952.24 800.49
  Q 951.94 803.28 950.31 805.66
  Q 948.70 808.01 946.54 809.86
  Q 943.34 812.60 940.29 812.83
  Q 936.29 813.13 933.39 809.43
  Q 932.44 808.22 933.98 808.25
  Q 936.88 808.31 939.75 808.54
  Q 942.61 808.77 944.16 808.09
  Q 946.40 807.11 947.69 805.05
  Q 949.18 802.69 948.28 800.27
  Q 947.20 797.35 943.69 797.06
  Z"
/>
<path fill="none" stroke-width="1.00" stroke="#d9d9d9" vector-effect="non-scaling-stroke" d="
  M 858.26 845.02
  Q 861.35 852.14 866.13 858.21
  Q 868.42 861.12 868.75 861.39
  Q 870.43 862.79 873.02 862.50
  Q 874.50 862.33 873.34 863.27
  Q 869.71 866.19 865.31 868.06
  Q 863.24 868.95 864.56 865.93
  A 2.87 2.85 44.2 0 0 864.52 863.58
  Q 859.13 852.12 852.26 842.24
  Q 850.24 839.34 846.50 840.31
  Q 844.91 840.73 846.24 839.79
  L 854.07 834.26
  A 0.80 0.72 42.8 0 1 854.92 834.27
  Q 865.22 840.99 876.70 847.03
  A 0.73 0.72 14.2 0 0 877.76 846.40
  Q 877.98 835.32 876.25 823.75
  Q 875.74 820.33 877.83 818.84
  Q 884.21 814.29 890.42 809.51
  Q 890.51 809.44 892.14 808.05
  Q 893.95 806.53 896.17 805.69
  Q 897.80 805.08 897.25 806.74
  Q 896.71 808.38 898.06 809.40
  Q 906.20 815.57 915.73 819.26
  A 0.32 0.30 -82.6 0 0 916.14 818.93
  Q 915.40 810.90 912.92 803.22
  Q 911.87 799.99 911.69 799.66
  Q 910.70 797.87 908.49 797.25
  A 0.56 0.55 27.0 0 1 908.20 796.38
  Q 910.72 793.16 914.55 790.87
  A 0.34 0.34 74.2 0 1 915.06 791.16
  Q 915.17 797.39 916.54 803.44
  Q 919.37 815.95 922.06 828.80
  Q 922.39 830.36 920.97 829.64
  Q 913.42 825.84 905.91 821.77
  Q 898.06 817.51 889.83 814.28
  A 3.03 3.02 40.0 0 0 887.15 814.51
  Q 884.58 816.07 883.29 818.18
  Q 882.23 819.93 883.30 821.67
  Q 888.71 830.44 895.14 838.45
  Q 897.58 841.48 898.08 841.85
  Q 899.77 843.10 902.56 843.34
  Q 903.89 843.46 902.79 844.19
  L 892.60 850.99
  Q 891.40 851.79 891.58 850.35
  Q 891.84 848.23 890.69 845.75
  Q 887.11 838.08 881.28 831.64
  Q 880.57 830.86 880.45 831.91
  Q 880.20 834.11 880.47 836.75
  Q 881.46 846.25 882.50 855.76
  Q 882.80 858.48 880.46 857.07
  Q 872.30 852.17 863.44 847.06
  Q 860.64 845.45 858.53 844.72
  Q 858.05 844.55 858.26 845.02
  Z"
/>
<path fill="none" stroke-width="1.00" stroke="#d9d9d9" vector-effect="non-scaling-stroke" d="
  M 270.00 822.58
  Q 269.54 822.09 269.02 821.68
  Q 267.24 820.25 269.97 820.25
  A 3.05 3.03 25.2 0 0 271.90 819.56
  Q 282.52 810.81 290.09 798.62
  Q 291.01 797.15 290.55 795.67
  Q 290.05 794.02 291.43 795.05
  Q 295.98 798.48 299.98 802.52
  Q 301.93 804.50 299.26 804.33
  Q 298.38 804.27 297.79 804.51
  Q 295.26 805.52 293.06 807.81
  Q 284.87 816.34 278.91 824.50
  Q 278.15 825.53 277.96 826.27
  Q 277.69 827.32 277.96 828.35
  Q 278.37 829.89 277.08 828.95
  Q 273.62 826.42 270.00 822.58
  Z"
/>
<path fill="none" stroke-width="1.00" stroke="#d9d9d9" vector-effect="non-scaling-stroke" d="
  M 316.69 843.88
  Q 323.13 838.19 327.32 829.86
  Q 327.82 828.88 327.86 828.04
  Q 327.91 827.10 327.72 826.11
  Q 327.33 823.95 328.96 825.28
  L 335.46 830.58
  Q 336.28 831.25 335.18 831.46
  Q 331.78 832.13 329.63 834.63
  Q 322.51 842.93 315.84 851.61
  Q 314.17 853.79 312.10 855.77
  A 0.96 0.96 61.1 0 1 310.51 855.31
  Q 309.55 851.43 309.20 847.50
  Q 308.04 834.51 306.41 821.33
  Q 306.12 818.99 304.52 820.73
  Q 299.87 825.81 296.08 831.52
  Q 293.37 835.60 293.28 835.84
  Q 292.16 838.52 294.08 841.40
  Q 294.69 842.31 293.70 841.82
  Q 288.64 839.29 284.67 835.30
  A 0.75 0.42 45.0 0 1 284.44 834.47
  Q 284.86 834.06 286.57 834.57
  A 2.01 2.01 31.2 0 0 288.53 834.09
  Q 298.07 824.78 304.60 813.58
  Q 305.33 812.32 304.65 810.24
  L 303.78 807.60
  Q 303.45 806.57 304.46 807.17
  Q 307.47 808.98 309.72 810.77
  Q 312.11 812.68 312.31 815.76
  Q 313.12 828.61 315.54 843.47
  Q 315.74 844.72 316.69 843.88
  Z"
/>
<path fill="none" stroke-width="1.00" stroke="#d9d9d9" vector-effect="non-scaling-stroke" d="
  M 333.37 866.84
  Q 337.74 870.76 343.16 872.91
  Q 344.92 873.62 346.41 873.19
  Q 348.07 872.71 349.47 871.60
  Q 349.92 871.24 350.26 871.28
  Q 350.73 871.34 350.77 871.89
  Q 350.79 872.19 350.57 872.56
  Q 348.91 875.45 346.34 877.77
  A 0.70 0.68 -50.4 0 1 345.51 877.86
  L 322.63 863.27
  Q 321.31 862.43 322.89 862.44
  Q 326.52 862.45 328.65 859.21
  Q 330.05 857.08 330.12 857.00
  Q 336.63 848.29 341.07 839.20
  A 2.32 2.32 43.0 0 0 340.99 837.02
  Q 339.49 834.44 340.30 834.19
  Q 340.74 834.05 341.98 834.76
  Q 351.70 840.31 361.02 846.53
  A 0.85 0.78 21.6 0 1 361.39 847.30
  Q 361.03 850.73 358.78 853.98
  Q 358.48 854.40 358.49 853.88
  Q 358.60 848.11 354.57 845.13
  Q 353.38 844.25 351.59 843.21
  Q 350.26 842.44 348.80 841.96
  A 0.72 0.67 25.2 0 0 348.01 842.21
  L 341.86 851.57
  A 0.88 0.83 39.2 0 0 342.00 852.63
  Q 346.41 856.98 352.52 855.75
  Q 353.55 855.54 353.14 856.51
  Q 351.47 860.43 348.52 863.81
  A 0.95 0.62 -56.0 0 1 347.69 864.16
  Q 346.82 863.87 347.17 861.68
  A 2.82 2.81 -62.8 0 0 346.40 859.27
  Q 344.22 857.05 340.97 855.50
  A 1.06 1.00 28.4 0 0 339.64 855.85
  L 333.24 866.07
  A 0.64 0.58 38.0 0 0 333.37 866.84
  Z"
/>
<path fill="none" stroke-width="1.00" stroke="#d9d9d9" vector-effect="non-scaling-stroke" d="
  M 839.92 845.97
  Q 844.68 858.64 852.69 869.56
  Q 854.15 871.54 856.50 871.50
  Q 859.24 871.46 856.96 872.97
  Q 851.87 876.33 846.34 878.73
  Q 843.82 879.82 845.39 877.56
  Q 847.06 875.15 845.89 872.84
  Q 842.28 865.71 835.81 854.94
  Q 834.40 852.59 832.98 851.10
  Q 832.31 850.39 831.39 850.27
  Q 830.46 850.15 829.50 850.25
  Q 826.98 850.50 828.81 849.06
  Q 834.11 844.90 840.52 842.82
  Q 841.29 842.57 841.55 842.95
  A 0.59 0.41 -30.2 0 1 841.23 843.64
  Q 840.33 844.12 839.92 845.03
  A 1.36 1.05 52.4 0 0 839.92 845.97
  Z"
/>
<path fill="none" stroke-width="1.00" stroke="#d9d9d9" vector-effect="non-scaling-stroke" d="
  M 800.45 866.45
  Q 799.45 866.13 799.12 865.24
  A 0.76 0.66 -30.1 0 1 799.39 864.44
  Q 805.63 859.46 814.00 857.25
  Q 818.02 856.19 821.51 857.21
  Q 825.37 858.34 825.92 861.96
  Q 826.09 863.12 825.50 864.96
  Q 825.03 866.44 824.68 867.95
  A 0.63 0.60 -71.9 0 0 825.02 868.66
  Q 825.96 869.06 827.00 869.08
  Q 828.42 869.09 828.97 869.26
  Q 831.60 870.06 833.31 871.69
  Q 838.55 876.65 834.56 883.06
  Q 833.59 884.63 830.21 886.73
  Q 822.65 891.42 814.59 894.96
  Q 813.91 895.26 814.00 894.52
  Q 814.26 892.22 813.43 890.14
  Q 808.59 877.89 801.22 866.97
  A 1.58 1.12 -1.2 0 0 800.45 866.45
  Z
  M 813.47 860.12
  Q 811.32 860.17 809.31 861.76
  A 2.14 2.00 -33.4 0 0 808.69 864.32
  L 812.80 872.16
  A 1.55 1.46 -29.0 0 0 814.92 872.70
  Q 823.41 867.67 817.20 861.80
  Q 815.37 860.09 813.47 860.12
  Z
  M 821.37 886.99
  Q 822.96 888.59 824.98 887.60
  Q 828.04 886.10 829.03 883.60
  Q 829.89 881.42 828.78 878.44
  Q 825.85 870.55 816.44 875.12
  A 1.99 1.99 66.8 0 0 815.45 877.60
  Q 817.51 883.12 821.37 886.99
  Z"
/>
<path fill="none" stroke-width="1.00" stroke="#d9d9d9" vector-effect="non-scaling-stroke" d="
  M 427.30 902.55
  Q 435.56 895.82 441.79 886.35
  A 0.58 0.42 56.2 0 0 441.81 885.89
  L 441.10 883.95
  A 0.59 0.35 -3.1 0 1 441.76 883.51
  Q 445.81 883.71 449.09 886.44
  Q 450.44 887.56 448.76 888.06
  Q 447.20 888.53 445.63 889.89
  Q 435.74 898.47 426.58 907.83
  Q 423.84 910.62 420.90 912.78
  A 0.51 0.51 -24.9 0 1 420.10 912.49
  Q 419.30 909.19 419.24 906.50
  Q 419.02 896.74 418.28 887.00
  Q 417.78 880.37 416.69 877.81
  Q 415.99 876.19 414.55 875.18
  A 0.97 0.89 -55.9 0 0 413.25 875.49
  L 411.26 878.55
  A 1.08 0.96 -71.9 0 1 410.44 879.03
  Q 409.37 879.04 409.57 877.04
  A 3.05 3.04 -63.9 0 0 408.74 874.61
  Q 405.84 871.58 402.17 870.39
  A 1.54 1.53 24.6 0 0 400.38 871.05
  Q 393.47 882.32 389.19 894.19
  Q 388.02 897.43 390.29 899.01
  Q 390.63 899.25 390.77 899.42
  Q 391.47 900.29 389.84 899.83
  Q 382.09 897.65 376.81 894.19
  Q 375.82 893.54 376.86 893.13
  Q 377.17 893.00 377.66 893.06
  Q 380.72 893.42 382.21 890.70
  Q 388.12 879.90 392.48 869.17
  Q 393.57 866.47 390.95 865.21
  Q 385.82 862.76 380.67 864.02
  Q 378.88 864.46 379.69 862.81
  Q 380.84 860.44 382.91 858.52
  Q 383.66 857.82 384.26 857.83
  Q 385.03 857.83 385.40 858.71
  A 1.76 1.06 82.4 0 0 385.99 859.45
  Q 392.16 863.27 398.84 866.13
  Q 412.45 871.95 425.95 878.07
  Q 427.66 878.85 425.92 879.55
  Q 424.35 880.17 424.35 882.25
  Q 424.39 892.19 426.01 902.06
  A 0.80 0.80 -24.2 0 0 427.30 902.55
  Z"
/>
<path fill="none" stroke-width="1.00" stroke="#d9d9d9" vector-effect="non-scaling-stroke" d="
  M 817.20 861.80
  Q 823.41 867.67 814.92 872.70
  A 1.55 1.46 -29.0 0 1 812.80 872.16
  L 808.69 864.32
  A 2.14 2.00 -33.4 0 1 809.31 861.76
  Q 811.32 860.17 813.47 860.12
  Q 815.37 860.09 817.20 861.80
  Z"
/>
<path fill="none" stroke-width="1.00" stroke="#d9d9d9" vector-effect="non-scaling-stroke" d="
  M 784.46 890.80
  Q 786.10 896.16 788.69 899.76
  Q 790.09 901.73 792.48 901.39
  Q 802.04 900.05 804.08 891.90
  A 0.84 0.46 -79.6 0 1 804.62 891.24
  Q 804.95 891.23 805.07 891.83
  Q 805.63 894.64 805.44 898.85
  A 1.19 1.11 81.8 0 1 804.73 899.88
  L 780.54 909.52
  Q 779.79 909.81 780.27 909.24
  L 782.97 905.98
  A 1.36 1.06 -39.4 0 0 783.25 904.74
  Q 777.85 891.35 771.86 879.97
  A 1.43 1.42 -6.9 0 0 770.92 879.24
  Q 767.35 878.43 768.64 877.69
  Q 778.74 871.90 789.78 868.16
  A 0.86 0.86 56.1 0 1 790.64 868.33
  Q 792.75 870.22 793.50 873.01
  Q 794.20 875.60 792.07 873.98
  Q 788.54 871.28 784.13 873.04
  Q 781.34 874.16 778.87 875.78
  A 0.77 0.71 -28.8 0 0 778.56 876.70
  L 782.90 886.42
  A 0.98 0.88 -17.1 0 0 783.95 886.91
  Q 787.10 886.28 789.35 884.95
  Q 790.36 884.35 790.73 883.25
  Q 791.09 882.15 791.25 881.00
  Q 791.47 879.38 792.44 880.56
  Q 794.85 883.52 795.96 887.19
  Q 796.79 889.93 793.44 887.98
  A 3.23 2.68 46.2 0 0 790.87 887.69
  L 784.76 890.10
  A 0.59 0.53 71.0 0 0 784.46 890.80
  Z"
/>
<path fill="none" stroke-width="1.00" stroke="#d9d9d9" vector-effect="non-scaling-stroke" d="
  M 821.37 886.99
  Q 817.51 883.12 815.45 877.60
  A 1.99 1.99 66.8 0 1 816.44 875.12
  Q 825.85 870.55 828.78 878.44
  Q 829.89 881.42 829.03 883.60
  Q 828.04 886.10 824.98 887.60
  Q 822.96 888.59 821.37 886.99
  Z"
/>
<path fill="none" stroke-width="1.00" stroke="#d9d9d9" vector-effect="non-scaling-stroke" d="
  M 764.90 890.74
  Q 772.65 899.47 766.77 909.55
  Q 764.74 913.03 761.28 915.55
  Q 757.93 917.99 754.02 919.54
  Q 746.52 922.51 739.33 924.28
  Q 737.82 924.65 738.50 923.25
  Q 739.44 921.34 739.09 919.78
  Q 736.59 908.57 731.91 898.07
  Q 730.61 895.15 729.14 893.39
  A 1.35 1.35 -32.0 0 1 729.63 891.30
  Q 735.69 888.58 741.65 886.95
  Q 748.85 884.98 751.91 884.91
  Q 755.69 884.83 759.17 886.39
  Q 762.29 887.79 764.90 890.74
  Z
  M 746.93 916.82
  Q 748.13 917.98 749.27 918.13
  Q 749.71 918.19 751.73 917.81
  Q 759.44 916.34 761.50 909.25
  Q 764.08 900.36 757.70 892.58
  Q 755.65 890.09 752.50 889.24
  Q 745.05 887.25 737.75 890.91
  A 0.68 0.67 -23.2 0 0 737.41 891.74
  L 745.74 915.00
  Q 746.11 916.02 746.93 916.82
  Z"
/>
<path fill="none" stroke-width="1.00" stroke="#d9d9d9" vector-effect="non-scaling-stroke" d="
  M 746.93 916.82
  Q 746.11 916.02 745.74 915.00
  L 737.41 891.74
  A 0.68 0.67 -23.2 0 1 737.75 890.91
  Q 745.05 887.25 752.50 889.24
  Q 755.65 890.09 757.70 892.58
  Q 764.08 900.36 761.50 909.25
  Q 759.44 916.34 751.73 917.81
  Q 749.71 918.19 749.27 918.13
  Q 748.13 917.98 746.93 916.82
  Z"
/>
<path fill="none" stroke-width="1.00" stroke="#d9d9d9" vector-effect="non-scaling-stroke" d="
  M 451.12 920.14
  Q 446.56 916.22 446.00 909.00
  Q 445.50 902.56 448.55 898.30
  Q 451.99 893.49 457.09 891.27
  Q 461.91 889.17 467.63 889.96
  Q 474.23 890.87 479.44 895.06
  Q 483.04 897.96 484.44 902.31
  Q 485.68 906.18 485.01 910.76
  Q 483.70 919.65 475.56 924.56
  Q 473.70 925.69 471.40 925.94
  Q 470.16 926.08 467.09 926.09
  Q 458.07 926.11 451.12 920.14
  Z
  M 457.92 920.87
  Q 466.28 926.77 472.18 920.89
  Q 474.16 918.91 475.56 915.56
  Q 476.80 912.59 477.42 909.45
  Q 478.47 904.14 476.84 900.18
  Q 474.18 893.72 466.26 891.95
  A 3.65 3.61 38.7 0 0 463.95 892.19
  Q 457.70 895.01 455.36 900.65
  Q 451.89 909.00 454.88 916.94
  Q 455.79 919.37 457.92 920.87
  Z"
/>
<path fill="none" stroke-width="1.00" stroke="#d9d9d9" vector-effect="non-scaling-stroke" d="
  M 457.92 920.87
  Q 455.79 919.37 454.88 916.94
  Q 451.89 909.00 455.36 900.65
  Q 457.70 895.01 463.95 892.19
  A 3.65 3.61 38.7 0 1 466.26 891.95
  Q 474.18 893.72 476.84 900.18
  Q 478.47 904.14 477.42 909.45
  Q 476.80 912.59 475.56 915.56
  Q 474.16 918.91 472.18 920.89
  Q 466.28 926.77 457.92 920.87
  Z"
/>
<path fill="none" stroke-width="1.00" stroke="#d9d9d9" vector-effect="non-scaling-stroke" d="
  M 710.44 898.60
  Q 704.99 899.13 703.01 903.37
  Q 702.89 903.64 701.01 911.15
  Q 698.20 922.36 695.91 933.68
  Q 695.61 935.14 695.16 936.14
  A 0.74 0.74 -52.2 0 1 693.90 936.30
  Q 686.77 927.30 680.08 918.14
  Q 676.68 913.47 672.80 909.20
  Q 671.81 908.12 670.33 907.52
  Q 668.68 906.85 670.33 906.17
  Q 675.37 904.11 681.49 903.59
  Q 683.85 903.38 681.55 905.51
  A 1.18 1.17 -35.6 0 0 681.31 906.93
  Q 686.42 916.51 693.66 924.40
  Q 694.36 925.17 694.64 924.17
  Q 697.52 913.81 698.76 903.66
  A 1.53 1.52 -81.3 0 0 697.53 901.98
  Q 694.37 901.39 696.47 900.33
  Q 696.91 900.11 697.69 899.88
  Q 708.81 896.59 720.39 893.73
  Q 721.83 893.38 721.14 894.68
  Q 720.82 895.27 719.46 896.37
  A 2.03 2.02 64.6 0 0 718.75 898.37
  Q 721.71 911.96 726.17 924.24
  A 1.77 1.76 -4.4 0 0 727.50 925.37
  Q 729.04 925.66 729.66 925.99
  Q 730.52 926.44 729.09 927.06
  Q 724.10 929.23 718.85 930.16
  A 0.70 0.70 -89.7 0 1 718.04 929.34
  Q 718.75 925.66 718.11 923.08
  Q 715.12 910.91 711.10 899.03
  A 0.65 0.63 77.1 0 0 710.44 898.60
  Z"
/>
<path fill="none" stroke-width="1.00" stroke="#d9d9d9" vector-effect="non-scaling-stroke" d="
  M 537.66 1013.35
  Q 536.26 1012.29 535.18 1010.95
  Q 533.83 1009.29 533.12 1008.21
  Q 530.77 1004.68 532.19 1000.19
  Q 546.12 955.99 559.22 911.88
  A 0.95 0.95 25.5 0 1 560.66 911.37
  Q 574.20 920.67 590.24 922.57
  Q 602.76 924.05 615.17 921.85
  Q 625.22 920.07 633.85 914.62
  Q 636.40 913.01 638.96 912.10
  A 1.17 1.16 -18.0 0 1 640.46 912.86
  Q 649.73 943.80 659.17 974.52
  Q 661.76 982.96 667.19 998.56
  Q 669.84 1006.21 663.66 1011.66
  Q 651.37 1022.49 634.50 1027.50
  Q 627.84 1029.48 622.40 1030.64
  Q 617.17 1031.76 610.02 1032.10
  Q 595.37 1032.81 586.25 1032.00
  Q 559.22 1029.59 537.66 1013.35
  Z"
/>
</svg>
