<?xml version="1.0" encoding="UTF-8" standalone="no"?>
<svg width="64px" height="12px" viewBox="0 0 64 12" version="1.1" xmlns="http://www.w3.org/2000/svg" xmlns:xlink="http://www.w3.org/1999/xlink">
    <!-- Generator: Sketch 43.2 (39069) - http://www.bohemiancoding.com/sketch -->
    <title>Copyright</title>
    <desc>Created with Sketch.</desc>
    <defs></defs>
    <g id="Page-1" stroke="none" stroke-width="1" fill="none" fill-rule="evenodd">
        <g id="Desktop-HD" transform="translate(-36.000000, -975.000000)" fill="#D9D9D9">
            <g id="Copyright" transform="translate(36.000000, 975.000000)">
                <path d="M0.322265625,5.74023438 C0.322265625,4.50975947 0.760737803,3.45605907 1.63769531,2.57910156 C2.51465282,1.70214405 3.56835322,1.26367188 4.79882812,1.26367188 C6.02930303,1.26367188 7.08300343,1.70214405 7.95996094,2.57910156 C8.83691845,3.45605907 9.27539062,4.50975947 9.27539062,5.74023438 C9.27539062,6.97070928 8.83691845,8.02440968 7.95996094,8.90136719 C7.08300343,9.7783247 6.02930303,10.2167969 4.79882812,10.2167969 C3.56835322,10.2167969 2.51465282,9.7783247 1.63769531,8.90136719 C0.760737803,8.02440968 0.322265625,6.97070928 0.322265625,5.74023438 Z M8.71289062,5.74023438 C8.71289062,4.66601025 8.3291054,3.74512103 7.56152344,2.97753906 C6.79394147,2.2099571 5.87305225,1.82617188 4.79882812,1.82617188 C3.724604,1.82617188 2.80469133,2.2099571 2.0390625,2.97753906 C1.27343367,3.74512103 0.890625,4.66601025 0.890625,5.74023438 C0.890625,6.8144585 1.27343367,7.73534772 2.0390625,8.50292969 C2.80469133,9.27051165 3.724604,9.65429688 4.79882812,9.65429688 C5.87305225,9.65429688 6.79394147,9.27051165 7.56152344,8.50292969 C8.3291054,7.73534772 8.71289062,6.8144585 8.71289062,5.74023438 Z M6.74414062,4.609375 L6.18164062,4.75585938 C5.90038922,4.10741863 5.45508117,3.78320312 4.84570312,3.78320312 C4.36913824,3.78320312 3.97461094,3.9531233 3.66210938,4.29296875 C3.34960781,4.6328142 3.19335938,5.08007535 3.19335938,5.63476562 C3.19335938,6.27539383 3.33984229,6.79101367 3.6328125,7.18164062 C3.92578271,7.57226758 4.31054449,7.76757812 4.78710938,7.76757812 C5.5019567,7.76757812 5.99413928,7.3671915 6.26367188,6.56640625 L6.79101562,6.75976562 C6.66210873,7.23242424 6.4189471,7.60644394 6.06152344,7.88183594 C5.70409978,8.15722794 5.29101797,8.29492188 4.82226562,8.29492188 C4.17773115,8.29492188 3.64258025,8.05176024 3.21679688,7.56542969 C2.7910135,7.07909913 2.578125,6.46680057 2.578125,5.72851562 C2.578125,5.03319965 2.78906039,4.45312732 3.2109375,3.98828125 C3.63281461,3.52343518 4.18163725,3.29101562 4.85742188,3.29101562 C5.68164475,3.29101562 6.31054471,3.73046436 6.74414062,4.609375 Z" id="©"></path>
                <path d="M21.0507812,8.0625 L21.0507812,8.54296875 C20.554685,8.91797062 20.1914074,9.10546875 19.9609375,9.10546875 C19.8281243,9.10546875 19.7363284,9.06152388 19.6855469,8.97363281 C19.6347654,8.88574175 19.5976564,8.7070326 19.5742188,8.4375 C19.0078097,8.88281473 18.4453153,9.10546875 17.8867188,9.10546875 C17.4804667,9.10546875 17.1367202,8.97265758 16.8554688,8.70703125 C16.5742173,8.44140492 16.4335938,8.11914252 16.4335938,7.74023438 C16.4335938,7.15429395 16.7050754,6.6923845 17.2480469,6.35449219 C17.7910183,6.01659987 18.5664012,5.82226588 19.5742188,5.77148438 L19.5742188,5.0859375 C19.5742188,4.35155883 19.1757852,3.984375 18.3789062,3.984375 C17.8710912,3.984375 17.3222686,4.21288834 16.7324219,4.66992188 L16.7324219,4.078125 C17.3417999,3.69531059 17.9218722,3.50390625 18.4726562,3.50390625 C18.9609399,3.50390625 19.3632797,3.62402224 19.6796875,3.86425781 C19.9960953,4.10449339 20.1542969,4.45312271 20.1542969,4.91015625 L20.1542969,8.26757812 C20.1542969,8.45117279 20.1972652,8.54296875 20.2832031,8.54296875 C20.3925787,8.54296875 20.6484355,8.3828141 21.0507812,8.0625 Z M19.5742188,7.93359375 L19.5742188,6.25195312 C18.8359338,6.22460924 18.2236352,6.35449075 17.7373047,6.64160156 C17.2509741,6.92871237 17.0078125,7.29491965 17.0078125,7.74023437 C17.0078125,7.99023562 17.109374,8.20117102 17.3125,8.37304688 C17.515626,8.54492273 17.7695297,8.63085938 18.0742188,8.63085938 C18.5664087,8.63085938 19.0664037,8.39843982 19.5742188,7.93359375 Z M23.5556641,6.95507812 C23.5556641,6.75390524 23.627929,6.58154369 23.7724609,6.43798828 C23.9169929,6.29443288 24.0888662,6.22265625 24.2880859,6.22265625 C24.4873057,6.22265625 24.659179,6.29443288 24.8037109,6.43798828 C24.9482429,6.58154369 25.0205078,6.75390524 25.0205078,6.95507812 C25.0205078,7.15429787 24.9482429,7.32568288 24.8037109,7.46923828 C24.659179,7.61279369 24.4873057,7.68457031 24.2880859,7.68457031 C24.0888662,7.68457031 23.9169929,7.61279369 23.7724609,7.46923828 C23.627929,7.32568288 23.5556641,7.15429787 23.5556641,6.95507812 Z M32.7929688,6.10546875 L28.5449219,6.10546875 C28.5332031,6.19921922 28.5273438,6.29296828 28.5273438,6.38671875 C28.5273438,6.98828426 28.7421854,7.49804479 29.171875,7.91601562 C29.6015646,8.33398646 30.1093721,8.54296875 30.6953125,8.54296875 C31.3789097,8.54296875 32.0468717,8.2753933 32.6992188,7.74023438 L32.6992188,8.390625 C32.0820282,8.86718988 31.3906288,9.10546875 30.625,9.10546875 C29.8476524,9.10546875 29.2050807,8.8359402 28.6972656,8.296875 C28.1894506,7.7578098 27.9355469,7.07226979 27.9355469,6.24023438 C27.9355469,5.45116793 28.1699195,4.79785415 28.6386719,4.28027344 C29.1074242,3.76269272 29.6972621,3.50390625 30.4082031,3.50390625 C31.0761752,3.50390625 31.6406227,3.73730235 32.1015625,4.20410156 C32.5625023,4.67090077 32.7929688,5.3046835 32.7929688,6.10546875 Z M28.6210938,5.64257812 L32.1132812,5.64257812 C31.9101552,4.59179162 31.3418015,4.06640625 30.4082031,4.06640625 C29.9667947,4.06640625 29.5849625,4.20410019 29.2626953,4.47949219 C28.9404281,4.75488419 28.726563,5.14257562 28.6210938,5.64257812 Z M35.6376953,6.95507812 C35.6376953,6.75390524 35.7099602,6.58154369 35.8544922,6.43798828 C35.9990242,6.29443288 36.1708974,6.22265625 36.3701172,6.22265625 C36.5693369,6.22265625 36.7412102,6.29443288 36.8857422,6.43798828 C37.0302742,6.58154369 37.1025391,6.75390524 37.1025391,6.95507812 C37.1025391,7.15429787 37.0302742,7.32568288 36.8857422,7.46923828 C36.7412102,7.61279369 36.5693369,7.68457031 36.3701172,7.68457031 C36.1708974,7.68457031 35.9990242,7.61279369 35.8544922,7.46923828 C35.7099602,7.32568288 35.6376953,7.15429787 35.6376953,6.95507812 Z M44.5410156,3.609375 L44.5410156,4.078125 L43.3164062,4.078125 C43.8125025,4.53125227 44.0605469,5.00781 44.0605469,5.5078125 C44.0605469,5.9570335 43.9638682,6.31249869 43.7705078,6.57421875 C43.5771475,6.83593881 43.346681,7.02636659 43.0791016,7.14550781 C42.8115221,7.26464903 42.4550804,7.38183536 42.0097656,7.49707031 C41.5644509,7.61230526 41.2851568,7.72070262 41.171875,7.82226562 C41.0585932,7.92382863 41.0019531,8.04101496 41.0019531,8.17382812 C41.0019531,8.33007891 41.0751946,8.45507766 41.2216797,8.54882812 C41.3681648,8.64257859 41.8232384,8.71093729 42.5869141,8.75390625 C43.3505898,8.79687521 43.865233,8.94335812 44.1308594,9.19335938 C44.3964857,9.44336063 44.5292969,9.77538855 44.5292969,10.1894531 C44.5292969,10.6777368 44.3164084,11.061522 43.890625,11.3408203 C43.4648416,11.6201186 42.8730507,11.7597656 42.1152344,11.7597656 C41.3613244,11.7597656 40.7792989,11.627931 40.3691406,11.3642578 C39.9589823,11.1005846 39.7539062,10.7519553 39.7539062,10.3183594 C39.7539062,9.61523086 40.2773385,9.17968834 41.3242188,9.01171875 L41.3242188,8.98828125 C40.7421846,8.85156182 40.4511719,8.595705 40.4511719,8.22070312 C40.4511719,7.84179498 40.8105433,7.54882916 41.5292969,7.34179688 L41.5292969,7.31835938 C41.0566383,7.17773367 40.6982434,6.94433757 40.4541016,6.61816406 C40.2099597,6.29199056 40.0878906,5.92968949 40.0878906,5.53125 C40.0878906,4.96484092 40.2851543,4.50293147 40.6796875,4.14550781 C41.0742207,3.78808415 41.6406213,3.609375 42.3789062,3.609375 L44.5410156,3.609375 Z M42.0683594,6.9609375 C42.4628926,6.9609375 42.8017564,6.81933735 43.0849609,6.53613281 C43.3681655,6.25292827 43.5097656,5.91406447 43.5097656,5.51953125 C43.5097656,5.12499803 43.3681655,4.78808733 43.0849609,4.50878906 C42.8017564,4.22949079 42.4589864,4.08984375 42.0566406,4.08984375 C41.6582011,4.08984375 41.322267,4.22656113 41.0488281,4.5 C40.7753893,4.77343887 40.6386719,5.1054668 40.6386719,5.49609375 C40.6386719,5.90234578 40.7773424,6.24804545 41.0546875,6.53320312 C41.3320326,6.8183608 41.6699199,6.9609375 42.0683594,6.9609375 Z M42.1503906,11.2792969 C42.7089872,11.2792969 43.1533187,11.1835947 43.4833984,10.9921875 C43.8134782,10.8007803 43.9785156,10.5488297 43.9785156,10.2363281 C43.9785156,9.60351246 43.4062557,9.28710938 42.2617188,9.28710938 C40.9570247,9.28710938 40.3046875,9.6191373 40.3046875,10.2832031 C40.3046875,10.9472689 40.9199157,11.2792969 42.1503906,11.2792969 Z M47.0927734,6.95507812 C47.0927734,6.75390524 47.1650383,6.58154369 47.3095703,6.43798828 C47.4541023,6.29443288 47.6259756,6.22265625 47.8251953,6.22265625 C48.0244151,6.22265625 48.1962883,6.29443288 48.3408203,6.43798828 C48.4853523,6.58154369 48.5576172,6.75390524 48.5576172,6.95507812 C48.5576172,7.15429787 48.4853523,7.32568288 48.3408203,7.46923828 C48.1962883,7.61279369 48.0244151,7.68457031 47.8251953,7.68457031 C47.6259756,7.68457031 47.4541023,7.61279369 47.3095703,7.46923828 C47.1650383,7.32568288 47.0927734,7.15429787 47.0927734,6.95507812 Z M52.4101562,0.814453125 L52.4101562,1.79882812 L51.8300781,1.79882812 L51.8300781,0.814453125 L52.4101562,0.814453125 Z M52.4101562,3.609375 L52.4101562,9 L51.8300781,9 L51.8300781,3.609375 L52.4101562,3.609375 Z M55.6826172,6.95507812 C55.6826172,6.75390524 55.7548821,6.58154369 55.8994141,6.43798828 C56.043946,6.29443288 56.2158193,6.22265625 56.4150391,6.22265625 C56.6142588,6.22265625 56.7861321,6.29443288 56.9306641,6.43798828 C57.075196,6.58154369 57.1474609,6.75390524 57.1474609,6.95507812 C57.1474609,7.15429787 57.075196,7.32568288 56.9306641,7.46923828 C56.7861321,7.61279369 56.6142588,7.68457031 56.4150391,7.68457031 C56.2158193,7.68457031 56.043946,7.61279369 55.8994141,7.46923828 C55.7548821,7.32568288 55.6826172,7.15429787 55.6826172,6.95507812 Z M63.2910156,3.9609375 L63.2910156,4.58203125 C62.7441379,4.21484191 62.2519553,4.03125 61.8144531,4.03125 C61.4902328,4.03125 61.216798,4.11913975 60.9941406,4.29492188 C60.7714833,4.470704 60.6601562,4.68749871 60.6601562,4.9453125 C60.6601562,5.12890717 60.7275384,5.29785079 60.8623047,5.45214844 C60.997071,5.60644608 61.3701141,5.80078008 61.9814453,6.03515625 C62.5927765,6.26953242 62.9921866,6.51367061 63.1796875,6.76757812 C63.3671884,7.02148564 63.4609375,7.30468594 63.4609375,7.6171875 C63.4609375,8.03515834 63.2910173,8.38769388 62.9511719,8.67480469 C62.6113264,8.9619155 62.1914088,9.10546875 61.6914062,9.10546875 C61.1484348,9.10546875 60.6093777,8.94140789 60.0742188,8.61328125 L60.0742188,8.05078125 C60.7109407,8.37890789 61.2753882,8.54296875 61.7675781,8.54296875 C62.099611,8.54296875 62.3720692,8.455079 62.5849609,8.27929688 C62.7978526,8.10351475 62.9042969,7.87890762 62.9042969,7.60546875 C62.9042969,7.41796781 62.8349616,7.24511798 62.6962891,7.08691406 C62.5576165,6.92871015 62.1826202,6.72851684 61.5712891,6.48632812 C60.9599579,6.24413941 60.5634775,6.00488399 60.3818359,5.76855469 C60.2001944,5.53222538 60.109375,5.2695327 60.109375,4.98046875 C60.109375,4.57031045 60.2783186,4.22168112 60.6162109,3.93457031 C60.9541033,3.6474595 61.365232,3.50390625 61.8496094,3.50390625 C62.2910178,3.50390625 62.7714818,3.65624848 63.2910156,3.9609375 Z" id="a-e-g-i-s"></path>
            </g>
        </g>
    </g>
</svg>