<?xml version="1.0" encoding="UTF-8" standalone="no"?>
<!DOCTYPE svg PUBLIC "-//W3C//DTD SVG 1.1//EN" "http://www.w3.org/Graphics/SVG/1.1/DTD/svg11.dtd">
<svg xmlns="http://www.w3.org/2000/svg" version="1.1" viewBox="0 0 1535 1366" height="108px">
<path fill="none" stroke-width="1.00" stroke="#d9d9d9" vector-effect="non-scaling-stroke" d="
  M 220.94 298.69
  Q 250.20 257.13 282.74 222.99
  Q 394.54 105.71 546.06 52.06
  Q 620.11 25.84 701.26 17.87
  Q 823.75 5.84 942.10 37.59
  Q 951.70 40.16 961.33 43.11
  Q 1118.38 91.24 1235.50 206.00
  Q 1307.14 276.20 1355.35 364.87
  Q 1360.11 373.62 1364.61 382.60
  Q 1425.11 503.12 1434.25 636.00
  Q 1436.39 667.17 1435.32 706.26
  Q 1435.03 716.90 1434.43 726.23
  Q 1426.59 847.59 1376.69 957.94
  Q 1324.08 1074.25 1231.92 1163.42
  Q 1137.40 1254.86 1015.94 1303.69
  Q 914.34 1344.53 803.99 1350.39
  Q 660.15 1358.02 526.49 1306.71
  Q 517.22 1303.15 507.96 1299.20
  Q 359.29 1235.72 255.81 1112.94
  Q 184.47 1028.29 143.74 923.41
  Q 140.12 914.08 136.83 904.63
  Q 87.20 762.10 103.00 611.50
  Q 110.97 535.52 136.47 462.49
  Q 166.83 375.54 220.94 298.69
  Z
  M 255.44 281.69
  Q 176.01 383.11 141.17 506.30
  Q 111.95 609.62 117.33 717.01
  Q 117.46 719.76 117.49 722.51
  Q 117.50 723.67 117.94 725.42
  Q 118.30 726.89 118.32 728.40
  Q 118.36 731.56 118.37 731.59
  Q 126.03 834.32 164.44 928.56
  Q 211.46 1043.93 298.42 1134.25
  Q 299.04 1134.88 301.07 1137.25
  Q 302.21 1138.58 303.81 1140.19
  Q 369.44 1206.11 449.75 1251.40
  Q 458.43 1256.30 467.35 1260.92
  Q 591.47 1325.33 730.06 1333.06
  Q 852.73 1339.91 966.81 1303.06
  Q 1116.12 1254.83 1228.04 1143.17
  Q 1235.17 1136.06 1241.96 1128.81
  Q 1304.13 1062.52 1345.44 982.94
  Q 1407.94 862.53 1416.88 725.74
  Q 1422.71 636.55 1405.50 553.00
  Q 1369.47 378.05 1249.26 245.12
  Q 1242.51 237.66 1235.59 230.51
  Q 1156.55 148.87 1056.75 99.50
  Q 956.96 50.14 847.75 36.75
  Q 728.54 22.14 611.19 50.81
  Q 601.51 53.17 591.87 55.92
  Q 437.30 99.98 320.18 210.43
  Q 285.98 242.69 255.44 281.69
  Z"
/>
<path fill="none" stroke-width="1.00" stroke="#d9d9d9" vector-effect="non-scaling-stroke" d="
  M 694.09 154.65
  Q 688.56 147.75 686.81 139.28
  Q 686.73 138.90 685.20 122.71
  Q 682.85 97.88 681.00 73.00
  Q 680.79 70.13 683.07 70.15
  Q 684.81 70.16 684.94 70.14
  Q 693.59 69.14 702.25 68.25
  Q 705.17 67.95 705.11 70.15
  Q 705.07 71.74 705.08 71.87
  Q 707.42 96.82 710.00 121.75
  Q 710.84 129.86 712.11 133.67
  Q 716.39 146.55 729.75 143.75
  Q 735.97 142.45 738.19 135.94
  Q 739.84 131.08 739.71 125.30
  Q 739.70 124.89 738.76 114.71
  Q 736.55 90.86 734.13 66.02
  A 0.99 0.99 3.2 0 1 735.32 64.96
  Q 738.16 65.57 740.84 65.12
  Q 744.31 64.55 745.73 64.56
  Q 751.36 64.61 756.94 63.88
  A 0.74 0.70 -17.4 0 1 757.68 64.24
  Q 758.83 66.41 758.86 68.86
  Q 758.89 72.08 758.89 72.13
  Q 761.07 97.07 763.15 122.01
  Q 763.16 122.11 763.57 125.87
  Q 764.28 132.39 763.00 139.75
  Q 761.05 150.98 752.44 157.19
  Q 747.19 160.97 740.61 163.00
  Q 734.56 164.87 727.80 165.55
  Q 715.68 166.76 704.31 162.19
  Q 701.44 161.03 698.69 159.05
  Q 696.17 157.24 694.09 154.65
  Z"
/>
<path fill="none" stroke-width="1.00" stroke="#d9d9d9" vector-effect="non-scaling-stroke" d="
  M 862.31 128.11
  Q 863.12 127.82 863.00 126.50
  Q 862.85 124.79 863.45 121.42
  Q 864.15 117.47 864.29 116.43
  Q 866.67 99.61 869.10 82.80
  Q 869.11 82.74 869.23 80.69
  Q 869.31 79.53 869.78 78.45
  A 1.96 1.65 -40.2 0 0 869.94 77.51
  Q 869.39 72.70 873.20 73.44
  Q 876.74 74.13 876.87 74.14
  Q 884.43 74.75 892.49 76.13
  A 0.54 0.53 -81.7 0 1 892.93 76.73
  L 881.18 171.30
  A 0.96 0.95 7.9 0 1 880.08 172.12
  L 853.79 168.26
  A 1.35 1.33 -4.9 0 1 852.71 167.36
  L 833.69 110.09
  Q 832.99 107.96 832.68 110.18
  Q 830.44 126.39 828.45 141.28
  Q 826.92 152.66 824.78 163.94
  A 0.41 0.41 15.5 0 1 824.23 164.25
  Q 822.78 163.73 821.25 163.68
  Q 818.81 163.61 818.26 163.53
  Q 810.65 162.46 801.70 161.90
  A 0.70 0.69 -84.7 0 1 801.05 161.11
  L 814.37 65.93
  A 0.50 0.49 -82.0 0 1 814.93 65.50
  L 840.57 69.12
  A 0.83 0.82 84.0 0 1 841.23 69.66
  L 861.65 127.71
  A 0.60 0.49 70.5 0 0 862.31 128.11
  Z"
/>
<path fill="none" stroke-width="1.00" stroke="#d9d9d9" vector-effect="non-scaling-stroke" d="
  M 942.40 90.24
  A 0.88 0.88 17.3 0 1 943.51 89.66
  L 965.66 96.89
  A 1.23 1.21 -72.3 0 1 966.44 98.43
  L 937.59 188.96
  A 0.51 0.49 -71.6 0 1 936.96 189.29
  L 915.79 181.98
  A 1.40 1.37 -72.0 0 1 914.93 180.25
  L 942.40 90.24
  Z"
/>
<path fill="none" stroke-width="1.00" stroke="#d9d9d9" vector-effect="non-scaling-stroke" d="
  M 585.04 173.27
  L 615.63 161.88
  A 0.94 0.93 -21.1 0 1 616.82 162.40
  L 624.23 180.93
  A 0.65 0.65 -21.0 0 1 623.85 181.78
  L 568.76 201.41
  A 0.56 0.55 70.1 0 1 568.05 201.07
  L 535.40 112.23
  A 1.57 1.56 -19.2 0 1 536.38 110.21
  L 557.96 103.00
  A 1.06 1.05 -18.4 0 1 559.30 103.66
  Q 560.12 106.09 560.89 108.04
  Q 562.17 111.21 562.57 112.39
  Q 573.09 142.82 584.39 172.98
  A 0.52 0.50 -19.9 0 0 585.04 173.27
  Z"
/>
<path fill="none" stroke-width="1.00" stroke="#d9d9d9" vector-effect="non-scaling-stroke" d="
  M 1044.30 193.93
  Q 1030.14 208.20 1015.83 221.82
  Q 1014.57 223.01 1013.03 222.19
  L 992.73 211.32
  A 1.10 1.09 18.0 0 1 992.16 210.21
  L 1005.26 110.18
  A 0.53 0.52 -73.0 0 1 1006.01 109.78
  L 1028.28 120.89
  A 1.88 1.84 18.1 0 1 1029.30 122.85
  L 1019.04 185.73
  Q 1018.59 188.53 1020.74 186.69
  Q 1021.73 185.85 1022.98 184.10
  Q 1024.13 182.50 1025.14 181.47
  Q 1044.60 161.84 1064.59 141.26
  A 1.97 1.90 -55.0 0 1 1066.80 140.83
  L 1087.30 150.52
  A 0.38 0.37 -55.3 0 1 1087.40 151.12
  Q 1073.39 165.94 1058.60 179.98
  Q 1050.61 187.57 1044.30 193.93
  Z"
/>
<path fill="none" stroke-width="1.00" stroke="#d9d9d9" vector-effect="non-scaling-stroke" d="
  M 444.49 157.40
  L 464.81 145.98
  A 0.57 0.56 57.2 0 1 465.54 146.15
  Q 467.47 148.80 469.08 151.68
  Q 485.56 181.12 502.56 210.26
  A 0.53 0.52 60.4 0 0 503.26 210.46
  L 531.81 195.24
  A 0.53 0.50 -28.9 0 1 532.50 195.42
  L 542.69 213.41
  A 0.50 0.49 -28.6 0 1 542.48 214.09
  L 491.64 241.42
  A 0.88 0.87 -28.8 0 1 490.45 241.08
  L 444.34 157.96
  A 0.42 0.41 60.6 0 1 444.49 157.40
  Z"
/>
<path fill="none" stroke-width="1.00" stroke="#d9d9d9" vector-effect="non-scaling-stroke" d="
  M 1158.63 229.40
  L 1131.65 208.80
  A 0.56 0.55 -50.3 0 0 1130.91 208.87
  Q 1126.19 214.11 1122.67 219.52
  A 1.32 1.31 -54.3 0 0 1122.95 221.27
  L 1146.50 239.91
  A 0.72 0.68 39.9 0 1 1146.62 240.91
  L 1133.84 255.89
  A 0.55 0.52 38.9 0 1 1133.11 255.95
  L 1110.57 238.54
  A 1.24 1.21 38.0 0 0 1108.87 238.73
  L 1098.53 251.61
  A 1.03 1.02 38.2 0 0 1098.71 253.06
  L 1124.33 272.68
  Q 1125.83 273.83 1124.63 275.26
  L 1113.09 289.00
  A 1.27 1.25 -51.2 0 1 1111.36 289.20
  L 1066.52 254.54
  A 1.18 1.18 36.8 0 1 1066.31 252.89
  L 1125.03 177.10
  A 1.07 1.06 -51.1 0 1 1126.55 176.93
  L 1170.35 212.97
  A 1.06 1.04 38.0 0 1 1170.54 214.40
  L 1159.47 229.29
  A 0.60 0.59 37.3 0 1 1158.63 229.40
  Z"
/>
<path fill="none" stroke-width="1.00" stroke="#d9d9d9" vector-effect="non-scaling-stroke" d="
  M 406.30 287.43
  Q 381.05 256.17 355.07 223.72
  A 1.00 1.00 -38.6 0 1 355.23 222.30
  L 400.74 185.97
  A 0.65 0.64 -38.9 0 1 401.64 186.06
  L 413.90 200.72
  A 1.25 1.22 -39.7 0 1 413.72 202.47
  L 387.77 223.52
  A 1.18 1.15 -39.7 0 0 387.60 225.18
  L 396.90 235.88
  A 0.53 0.52 -40.7 0 0 397.64 235.93
  L 420.12 217.38
  A 1.60 1.59 -39.6 0 1 422.36 217.58
  L 434.23 231.81
  A 0.70 0.69 50.0 0 1 434.15 232.78
  L 411.46 251.74
  A 1.07 1.02 -38.4 0 0 411.26 253.16
  L 421.14 266.57
  A 0.66 0.63 -38.0 0 0 422.06 266.66
  L 448.67 245.17
  A 0.95 0.93 50.3 0 1 449.97 245.31
  L 462.09 259.45
  A 1.26 1.25 49.9 0 1 461.94 261.23
  L 416.35 298.92
  A 0.51 0.50 50.1 0 1 415.63 298.85
  Q 410.71 292.89 406.30 287.43
  Z"
/>
<path fill="none" stroke-width="1.00" stroke="#d9d9d9" vector-effect="non-scaling-stroke" d="
  M 408.41 1015.09
  Q 355.48 957.89 322.91 887.30
  Q 318.75 878.29 314.95 868.98
  Q 271.66 763.07 279.50 648.50
  Q 282.87 599.29 296.68 550.55
  Q 329.34 435.32 411.11 348.11
  Q 471.24 283.97 550.00 244.81
  Q 639.62 200.23 739.64 194.46
  Q 739.68 194.46 747.37 194.35
  Q 750.18 194.31 752.98 193.94
  Q 756.43 193.49 758.57 193.49
  Q 788.78 193.40 815.75 196.00
  Q 844.21 198.74 874.95 205.73
  Q 992.68 232.51 1084.00 310.00
  Q 1158.97 373.62 1203.91 462.08
  Q 1249.54 551.91 1255.67 652.69
  Q 1255.67 652.72 1256.01 655.29
  Q 1256.19 656.65 1256.25 659.00
  Q 1257.18 693.78 1255.05 720.98
  Q 1246.45 830.96 1193.00 924.50
  Q 1149.05 1001.40 1081.56 1058.06
  Q 1029.76 1101.55 967.55 1129.54
  Q 898.62 1160.55 822.50 1169.25
  Q 812.94 1170.34 806.85 1170.64
  Q 805.99 1170.69 805.05 1170.92
  Q 803.81 1171.24 803.25 1171.25
  Q 794.90 1171.43 786.57 1171.92
  Q 775.89 1172.56 769.91 1172.54
  Q 753.05 1172.46 735.00 1171.25
  Q 647.78 1165.39 568.50 1129.93
  Q 476.68 1088.86 408.41 1015.09
  Z
  M 446.94 1029.06
  Q 507.45 1084.98 581.29 1116.66
  Q 656.77 1149.05 738.86 1154.17
  Q 739.56 1154.21 741.64 1154.18
  Q 743.05 1154.17 744.45 1154.36
  Q 747.34 1154.75 748.59 1154.75
  Q 761.80 1154.75 775.01 1154.75
  Q 786.53 1154.75 794.98 1154.23
  Q 829.47 1152.08 862.00 1145.50
  Q 926.63 1132.42 985.86 1101.29
  Q 1080.09 1051.76 1144.10 967.34
  Q 1150.12 959.41 1155.80 951.13
  Q 1227.01 847.54 1237.75 721.72
  Q 1238.56 712.20 1238.90 701.75
  Q 1240.03 666.76 1237.25 638.50
  Q 1233.76 602.95 1226.50 573.00
  Q 1197.63 453.85 1114.58 363.30
  Q 1107.75 355.86 1100.74 348.87
  Q 1038.26 286.56 957.17 250.85
  Q 877.98 215.97 792.75 211.75
  Q 790.91 211.66 789.73 211.52
  Q 787.53 211.25 786.75 211.25
  Q 773.50 211.25 760.25 211.25
  Q 748.55 211.25 740.26 211.74
  Q 658.25 216.58 583.69 248.19
  Q 495.20 285.70 427.94 355.30
  Q 421.03 362.45 414.37 370.01
  Q 321.52 475.48 300.49 615.84
  Q 299.40 623.10 297.25 644.25
  Q 296.51 651.54 296.48 657.12
  Q 296.47 658.93 295.98 661.81
  Q 295.58 664.19 295.71 666.60
  Q 295.98 671.86 295.98 671.92
  Q 295.82 692.55 296.45 713.18
  Q 296.49 714.34 296.93 716.25
  Q 297.30 717.80 297.33 719.40
  Q 297.39 723.05 297.40 723.10
  Q 301.50 772.68 316.04 820.24
  Q 348.00 924.77 422.20 1004.80
  Q 431.26 1014.57 446.94 1029.06
  Z"
/>
<path fill="none" stroke-width="1.00" stroke="#d9d9d9" vector-effect="non-scaling-stroke" d="
  M 1135.49 312.55
  A 0.38 0.37 -32.8 0 1 1135.63 311.94
  Q 1136.58 311.58 1137.42 310.75
  Q 1138.48 309.71 1138.51 309.68
  Q 1173.29 279.11 1208.06 249.03
  A 0.65 0.65 46.7 0 1 1208.94 249.06
  Q 1218.44 258.56 1227.46 267.54
  Q 1228.81 268.88 1229.97 270.40
  Q 1231.36 272.22 1232.37 273.31
  Q 1239.86 281.43 1242.69 289.81
  Q 1246.81 302.05 1238.70 311.93
  Q 1232.08 319.98 1221.84 322.19
  Q 1215.56 323.54 1209.46 320.97
  A 0.43 0.43 -71.8 0 0 1208.87 321.27
  Q 1207.63 326.38 1205.15 330.65
  Q 1201.39 337.13 1201.36 337.20
  Q 1193.82 352.18 1186.12 366.96
  A 0.48 0.47 38.6 0 1 1185.34 367.04
  L 1168.83 347.87
  A 0.74 0.73 38.5 0 1 1168.73 347.05
  Q 1178.22 328.32 1180.19 324.94
  Q 1181.76 322.22 1182.78 319.94
  Q 1184.41 316.28 1184.67 314.65
  Q 1185.40 310.22 1181.04 306.53
  A 1.03 1.02 -45.2 0 0 1179.72 306.54
  L 1152.93 329.45
  A 0.56 0.55 -42.3 0 1 1152.17 329.42
  L 1135.49 312.55
  Z
  M 1217.59 293.51
  Q 1217.97 290.96 1216.94 289.31
  Q 1214.51 285.44 1211.11 281.40
  A 1.43 1.42 -41.2 0 0 1209.06 281.27
  L 1197.39 291.91
  A 0.91 0.91 -43.9 0 0 1197.36 293.23
  Q 1200.66 296.52 1203.96 299.25
  Q 1206.55 301.40 1208.65 301.68
  Q 1211.62 302.07 1214.15 300.19
  Q 1215.08 299.51 1215.97 297.99
  Q 1216.71 296.73 1217.52 295.51
  Q 1217.87 294.98 1217.72 294.45
  Q 1217.54 293.82 1217.59 293.51
  Z"
/>
<path fill="none" stroke-width="1.00" stroke="#d9d9d9" vector-effect="non-scaling-stroke" d="
  M 304.10 282.92
  Q 302.12 281.31 300.19 279.64
  A 0.51 0.51 0.0 0 1 300.13 278.92
  L 315.16 261.21
  A 0.81 0.80 40.3 0 1 316.30 261.12
  L 390.15 322.93
  A 0.69 0.68 -48.7 0 1 390.21 323.92
  Q 383.72 331.00 377.48 338.47
  Q 377.34 338.63 375.49 340.53
  Q 374.43 341.62 373.83 342.88
  A 0.81 0.80 -71.5 0 1 372.94 343.33
  L 311.81 330.31
  Q 310.26 329.99 311.48 330.99
  L 353.55 365.49
  A 0.62 0.62 -56.3 0 1 353.70 366.26
  Q 351.89 369.73 349.41 372.74
  Q 345.73 377.19 345.64 377.30
  Q 343.01 380.72 340.39 383.94
  A 1.09 1.08 39.5 0 1 338.85 384.08
  L 266.65 323.47
  Q 265.00 322.08 266.39 320.44
  Q 273.59 311.86 280.02 304.65
  Q 280.11 304.55 280.79 303.67
  Q 282.31 301.71 284.68 302.43
  Q 286.24 302.91 286.37 302.93
  Q 313.71 308.70 341.02 314.75
  Q 343.95 315.40 341.62 313.51
  Q 322.89 298.24 304.10 282.92
  Z"
/>
<path fill="none" stroke-width="1.00" stroke="#d9d9d9" vector-effect="non-scaling-stroke" d="
  M 1222.19 427.06
  Q 1218.08 423.72 1214.88 419.59
  Q 1212.16 416.08 1209.60 410.67
  Q 1204.84 400.61 1202.24 389.69
  A 0.89 0.89 -22.5 0 1 1202.65 388.71
  Q 1213.40 382.28 1224.11 377.39
  A 0.31 0.31 79.4 0 1 1224.54 377.69
  Q 1224.07 391.98 1231.69 403.56
  Q 1234.16 407.32 1238.97 408.14
  Q 1244.56 409.09 1246.00 403.75
  Q 1246.45 402.09 1245.03 394.79
  Q 1243.85 388.69 1243.17 382.51
  Q 1242.23 373.93 1245.48 366.40
  Q 1247.61 361.45 1251.91 357.65
  Q 1256.11 353.93 1261.21 351.65
  Q 1268.22 348.50 1275.30 349.16
  Q 1283.02 349.87 1289.19 354.56
  Q 1299.16 362.15 1304.25 375.00
  Q 1306.66 381.07 1307.73 384.43
  Q 1308.94 388.22 1308.98 388.42
  Q 1309.49 391.26 1306.75 392.50
  Q 1298.71 396.13 1290.41 400.26
  Q 1288.48 401.23 1289.06 399.14
  Q 1289.28 398.37 1288.81 396.49
  Q 1286.01 385.18 1283.19 380.06
  Q 1281.29 376.63 1277.41 375.92
  Q 1274.10 375.31 1271.61 375.91
  Q 1268.13 376.76 1267.50 381.00
  Q 1267.06 383.97 1267.81 388.03
  Q 1268.66 392.61 1269.57 397.17
  Q 1270.76 403.11 1270.70 406.39
  Q 1270.51 417.98 1262.97 425.35
  Q 1255.72 432.43 1245.29 434.01
  Q 1233.01 435.88 1222.19 427.06
  Z"
/>
<path fill="none" stroke-width="1.00" stroke="#d9d9d9" vector-effect="non-scaling-stroke" d="
  M 562.64 996.61
  Q 541.29 975.42 522.73 951.76
  Q 496.49 918.31 478.48 879.79
  Q 456.00 831.72 452.49 778.99
  Q 452.00 771.58 452.00 759.00
  Q 452.00 556.37 452.00 353.67
  A 0.67 0.67 0.0 0 1 452.67 353.00
  L 1083.69 353.06
  A 0.50 0.50 0.0 0 1 1084.19 353.56
  Q 1084.30 553.75 1084.25 753.93
  Q 1084.25 754.06 1084.42 767.56
  Q 1084.82 799.62 1077.67 830.79
  Q 1075.49 840.28 1072.26 850.04
  Q 1058.92 890.41 1035.09 925.83
  Q 1027.38 937.29 1018.88 948.17
  Q 984.72 991.87 941.92 1027.16
  Q 862.80 1092.41 769.49 1134.39
  A 1.76 1.74 -44.6 0 1 768.06 1134.39
  Q 698.46 1102.87 636.49 1058.80
  Q 597.01 1030.73 562.64 996.61
  Z
  M 1056.31 595.90
  Q 1056.64 491.89 1056.50 386.97
  Q 1056.50 386.88 1056.59 385.54
  Q 1056.76 383.04 1054.28 383.19
  Q 1053.32 383.25 1053.21 383.25
  Q 769.73 383.25 485.07 383.25
  A 0.82 0.82 0.0 0 0 484.25 384.07
  L 484.25 596.87
  A 0.88 0.88 0.0 0 0 485.13 597.75
  L 1054.46 597.75
  Q 1056.31 597.75 1056.31 595.90
  Z
  M 575.44 962.06
  Q 593.11 980.56 609.94 994.81
  Q 676.56 1051.22 756.24 1090.47
  A 0.31 0.31 13.1 0 0 756.69 1090.19
  L 756.75 935.21
  Q 756.75 934.17 756.26 933.24
  Q 754.43 929.81 751.97 928.08
  Q 749.99 926.69 745.83 926.54
  Q 735.52 926.16 725.24 927.17
  Q 711.83 928.49 698.43 929.90
  Q 680.57 931.77 662.60 931.58
  Q 661.92 931.58 659.60 932.01
  Q 658.35 932.25 656.50 932.25
  Q 646.97 932.25 637.44 932.25
  Q 635.22 932.25 628.10 931.64
  Q 623.65 931.26 618.70 931.57
  A 0.90 0.90 -1.5 0 1 617.75 930.67
  L 617.75 868.24
  A 0.69 0.68 0.0 0 0 617.06 867.56
  L 591.97 867.74
  A 0.96 0.96 0.0 0 1 591.01 866.78
  L 591.18 837.44
  A 0.52 0.52 -0.6 0 1 591.69 836.92
  L 616.94 836.76
  A 0.81 0.79 -0.0 0 0 617.75 835.97
  L 617.69 780.30
  A 1.45 1.39 -0.2 0 0 616.23 778.91
  L 591.68 779.08
  A 0.53 0.51 89.4 0 1 591.17 778.56
  L 591.02 749.84
  A 1.10 1.08 -0.3 0 1 592.12 748.75
  L 617.19 748.69
  A 0.51 0.50 -90.0 0 0 617.69 748.18
  L 617.81 691.81
  A 0.50 0.50 0.0 0 1 618.31 691.31
  Q 638.66 691.20 659.00 691.23
  Q 680.12 691.25 699.50 688.75
  Q 720.01 686.10 737.75 685.00
  Q 741.35 684.78 754.20 686.26
  Q 754.56 686.30 755.08 686.63
  Q 755.63 686.98 756.22 686.85
  A 0.69 0.59 84.9 0 0 756.69 686.19
  L 756.75 627.60
  A 0.85 0.85 0.0 0 0 755.90 626.75
  L 484.81 626.81
  A 0.50 0.50 0.0 0 0 484.31 627.31
  Q 484.21 695.16 484.24 763.01
  Q 484.25 775.37 484.89 782.98
  Q 487.79 817.27 500.00 848.75
  Q 514.90 887.17 540.28 921.18
  Q 554.25 939.88 575.44 962.06
  Z
  M 920.98 691.82
  Q 921.24 695.38 921.17 698.95
  Q 921.06 704.67 921.11 706.57
  Q 921.50 721.16 921.25 724.25
  Q 920.67 731.37 921.03 738.51
  Q 921.37 745.51 920.92 754.05
  A 0.91 0.91 -88.2 0 0 921.82 755.01
  L 945.50 755.06
  A 0.99 0.98 0.0 0 1 946.49 756.04
  L 946.32 785.32
  A 0.52 0.51 -0.6 0 1 945.81 785.83
  L 921.88 785.99
  A 0.71 0.70 0.4 0 0 921.18 786.67
  Q 920.63 814.81 921.30 843.19
  A 0.52 0.51 0.0 0 0 921.81 843.69
  L 945.75 843.98
  A 0.53 0.52 -89.4 0 1 946.26 844.51
  L 946.48 876.05
  A 1.14 1.13 -0.2 0 1 945.34 877.19
  L 921.62 877.18
  A 0.56 0.55 0.0 0 0 921.06 877.73
  L 921.00 935.15
  A 0.85 0.84 -90.0 0 1 920.16 936.00
  Q 898.34 936.10 876.25 935.87
  Q 875.47 935.86 866.63 935.51
  Q 862.99 935.36 857.00 935.25
  Q 849.85 935.12 816.17 931.25
  Q 814.59 931.07 811.81 931.09
  Q 809.62 931.11 807.46 930.83
  Q 802.95 930.25 800.99 930.26
  Q 797.75 930.27 794.50 930.32
  Q 788.01 930.42 784.85 935.71
  Q 784.45 936.37 783.79 936.96
  Q 783.15 937.52 782.66 938.20
  Q 782.00 939.09 782.00 940.49
  Q 782.00 1017.87 782.00 1095.42
  A 0.57 0.57 -13.4 0 0 782.83 1095.93
  Q 835.74 1069.05 884.15 1035.18
  Q 932.55 1001.31 973.18 958.43
  Q 1001.41 928.63 1022.30 893.31
  Q 1041.47 860.90 1050.33 824.51
  Q 1052.64 814.99 1054.13 804.88
  Q 1056.61 788.05 1056.25 775.50
  Q 1054.66 719.63 1053.02 663.76
  Q 1052.68 652.01 1052.71 640.25
  Q 1052.73 634.10 1051.92 627.30
  A 0.64 0.63 -3.6 0 0 1051.29 626.75
  L 778.81 626.75
  A 0.56 0.56 0.0 0 0 778.25 627.31
  L 778.25 686.22
  A 0.55 0.55 -1.0 0 0 778.82 686.77
  Q 783.21 686.64 787.28 686.25
  Q 793.10 685.68 795.74 685.63
  Q 813.68 685.30 832.75 688.00
  Q 845.46 689.80 861.32 690.69
  Q 861.75 690.71 863.64 691.07
  Q 864.66 691.26 866.00 691.25
  Q 880.38 691.15 920.44 691.31
  A 0.55 0.54 87.7 0 1 920.98 691.82
  Z
  M 669.67 912.74
  Q 684.01 912.61 696.25 911.25
  Q 713.59 909.32 723.08 908.45
  Q 724.47 908.32 727.44 908.35
  Q 729.63 908.37 731.80 908.09
  Q 736.31 907.50 738.26 907.50
  Q 742.95 907.50 747.64 907.50
  Q 749.47 907.50 751.31 907.91
  Q 753.19 908.33 754.94 908.69
  A 0.47 0.47 5.6 0 0 755.50 908.23
  L 755.50 710.92
  A 0.72 0.72 11.9 0 0 755.07 710.26
  Q 753.38 709.50 751.46 709.34
  Q 748.55 709.10 748.42 709.08
  Q 737.16 707.51 722.50 709.00
  Q 713.90 709.87 705.32 710.92
  Q 693.95 712.30 688.14 712.74
  Q 665.19 714.50 641.31 713.97
  A 0.80 0.80 0.4 0 0 640.50 714.77
  L 640.44 912.73
  A 0.52 0.52 0.0 0 0 640.96 913.25
  Q 653.00 913.25 665.00 913.25
  Q 666.40 913.25 667.37 913.08
  Q 669.20 912.75 669.67 912.74
  Z
  M 899.65 909.78
  Q 899.75 909.28 899.75 908.50
  Q 899.75 811.50 899.75 714.88
  A 0.88 0.88 0.0 0 0 898.87 714.00
  Q 883.50 714.00 868.75 714.00
  Q 863.92 714.00 846.51 712.25
  Q 841.14 711.71 832.02 710.53
  Q 824.78 709.59 817.52 708.80
  Q 800.70 706.95 783.72 710.13
  A 2.11 2.11 84.7 0 0 782.00 712.20
  L 782.00 909.44
  A 0.56 0.55 -10.9 0 0 782.76 909.95
  Q 791.09 906.70 799.47 906.27
  Q 802.67 906.11 816.38 907.14
  Q 825.83 907.86 833.75 908.75
  Q 866.91 912.48 899.20 911.70
  A 0.58 0.43 -3.8 0 0 899.77 911.21
  L 899.71 910.70
  Q 899.62 909.93 899.65 909.78
  Z
  M 755.81 712.81
  Q 755.70 809.15 755.90 905.50
  Q 755.90 909.02 755.91 905.25
  Q 756.14 809.03 755.81 712.81
  Q 755.81 712.31 755.81 712.81
  Z"
/>
<path fill="none" stroke-width="1.00" stroke="#d9d9d9" vector-effect="non-scaling-stroke" d="
  M 274.82 400.75
  Q 277.62 401.06 280.44 401.07
  Q 284.11 401.08 286.05 401.26
  Q 304.61 402.95 324.18 404.87
  A 0.51 0.50 16.7 0 1 324.58 405.61
  Q 319.10 415.57 313.68 425.39
  Q 313.65 425.45 313.03 426.77
  Q 311.83 429.34 308.90 428.75
  Q 307.23 428.40 307.06 428.38
  Q 295.77 426.98 284.51 425.42
  Q 280.28 424.83 276.00 425.05
  Q 272.78 425.22 270.31 428.06
  Q 268.35 430.32 268.30 432.69
  A 0.81 0.79 14.2 0 0 268.75 433.42
  L 300.42 449.99
  A 0.56 0.53 26.6 0 1 300.68 450.70
  L 292.00 469.32
  A 1.11 1.08 26.6 0 1 290.49 469.80
  L 206.87 425.34
  A 0.94 0.94 -62.6 0 1 206.48 424.10
  Q 213.12 410.80 220.00 397.50
  Q 223.82 390.12 227.63 385.14
  Q 240.80 367.95 260.25 377.75
  Q 273.60 384.47 274.29 400.19
  A 0.60 0.60 1.7 0 0 274.82 400.75
  Z
  M 233.75 415.97
  L 248.53 423.49
  A 0.46 0.46 -68.1 0 0 249.18 423.21
  Q 249.88 420.94 251.29 419.04
  Q 255.35 413.54 253.06 407.66
  Q 252.34 405.82 250.50 404.65
  Q 248.83 403.58 246.91 402.68
  Q 244.71 401.65 242.59 402.82
  Q 238.81 404.91 236.42 409.18
  Q 234.99 411.75 233.36 414.68
  A 0.94 0.94 -62.0 0 0 233.75 415.97
  Z"
/>
<path fill="none" stroke-width="1.00" stroke="#d9d9d9" vector-effect="non-scaling-stroke" d="
  M 988.56 527.06
  Q 978.97 538.36 969.16 544.39
  Q 942.15 561.01 913.94 575.52
  A 1.15 1.10 40.7 0 1 913.02 575.57
  Q 908.40 573.83 904.09 571.40
  Q 878.99 557.24 855.06 541.19
  Q 845.66 534.88 839.06 526.69
  Q 834.56 521.10 832.69 514.26
  Q 831.52 509.99 831.45 500.63
  Q 831.08 451.01 831.25 400.63
  A 0.89 0.88 -89.7 0 1 832.13 399.75
  Q 912.41 399.75 992.31 399.75
  Q 992.40 399.75 993.67 399.63
  Q 995.27 399.47 995.16 401.10
  Q 995.07 402.34 995.18 402.90
  Q 996.05 407.29 996.06 408.69
  Q 996.72 472.47 996.00 508.50
  Q 995.80 518.54 988.56 527.06
  Z
  M 909.86 434.83
  L 971.21 473.94
  Q 971.75 474.29 971.75 473.65
  L 971.69 421.81
  A 0.50 0.50 0.0 0 0 971.19 421.31
  L 853.50 421.25
  A 0.75 0.75 0.0 0 0 852.75 422.00
  L 852.81 473.70
  Q 852.81 474.64 853.58 474.09
  Q 877.99 456.46 902.69 438.94
  Q 906.94 435.92 909.00 434.79
  A 0.88 0.84 46.3 0 1 909.86 434.83
  Z
  M 959.59 494.15
  Q 935.41 477.59 910.91 461.52
  A 0.71 0.71 -46.2 0 0 910.10 461.54
  Q 882.86 481.27 855.94 501.44
  Q 854.31 502.66 854.12 504.22
  Q 854.07 504.59 854.30 507.29
  Q 854.57 510.62 856.36 513.34
  Q 857.21 514.63 859.50 517.30
  Q 861.25 519.34 863.19 520.81
  Q 869.59 525.68 877.94 530.81
  Q 895.33 541.51 912.26 551.32
  A 1.77 1.76 45.6 0 0 914.01 551.34
  Q 932.42 541.14 948.45 531.40
  Q 948.54 531.35 953.10 528.69
  Q 960.46 524.40 966.54 518.45
  Q 970.20 514.87 971.15 511.63
  Q 972.27 507.81 971.57 503.04
  A 2.09 2.08 12.7 0 0 970.64 501.58
  Q 965.16 497.98 959.59 494.15
  Z"
/>
<path fill="none" stroke-width="1.00" stroke="#d9d9d9" vector-effect="non-scaling-stroke" d="
  M 570.69 531.31
  Q 565.18 524.56 562.90 517.36
  Q 561.50 512.94 561.50 503.99
  Q 561.50 454.77 561.50 405.84
  A 1.09 1.09 0.2 0 1 562.59 404.75
  L 721.44 404.75
  A 0.56 0.56 -89.8 0 1 722.00 405.31
  Q 722.04 458.11 721.95 510.74
  Q 721.94 516.66 720.69 520.47
  Q 717.30 530.87 708.50 538.25
  Q 701.42 544.19 694.62 548.41
  Q 683.75 555.16 672.60 561.45
  Q 672.50 561.50 659.03 569.30
  Q 650.42 574.29 641.39 578.48
  A 1.11 1.10 44.0 0 1 640.48 578.49
  Q 635.97 576.54 631.80 573.99
  Q 625.02 569.86 624.96 569.82
  Q 605.20 558.46 586.34 545.65
  Q 577.46 539.61 570.69 531.31
  Z
  M 562.01 406.42
  A 0.12 0.12 0.0 0 0 561.89 406.30
  L 561.87 406.30
  A 0.12 0.12 0.0 0 0 561.75 406.42
  L 561.75 511.08
  A 0.12 0.12 0.0 0 0 561.87 511.20
  L 561.89 511.20
  A 0.12 0.12 0.0 0 0 562.01 511.08
  L 562.01 406.42
  Z
  M 700.51 427.16
  A 0.91 0.91 0.0 0 0 699.60 426.25
  L 586.42 426.25
  A 0.91 0.91 0.0 0 0 585.51 427.16
  L 585.51 455.08
  A 0.91 0.91 0.0 0 0 586.42 455.99
  L 699.60 455.99
  A 0.91 0.91 0.0 0 0 700.51 455.08
  L 700.51 427.16
  Z
  M 649.77 550.76
  Q 666.89 541.27 689.31 526.56
  Q 695.93 522.22 699.28 516.09
  Q 700.44 513.97 700.47 511.00
  Q 700.65 495.84 700.32 480.68
  A 0.51 0.50 -0.6 0 0 699.81 480.19
  L 586.38 480.06
  A 0.89 0.88 90.0 0 0 585.50 480.95
  Q 585.50 496.13 585.66 510.50
  Q 585.70 513.92 586.81 515.69
  Q 589.38 519.77 593.60 523.16
  Q 594.86 524.19 601.84 528.88
  Q 621.62 542.20 642.38 553.95
  A 1.40 1.30 52.0 0 0 643.31 554.10
  Q 645.32 553.70 647.00 552.58
  Q 649.69 550.80 649.77 550.76
  Z"
/>
<rect fill="none" stroke-width="1.00" stroke="#d9d9d9" vector-effect="non-scaling-stroke" x="561.75" y="406.30" width="0.26" height="104.90" rx="0.12"/>
<rect fill="none" stroke-width="1.00" stroke="#d9d9d9" vector-effect="non-scaling-stroke" x="-48.29" y="-12.29" transform="translate(1294.16,466.38) rotate(-22.0)" width="96.58" height="24.58" rx="0.44"/>
<path fill="none" stroke-width="1.00" stroke="#d9d9d9" vector-effect="non-scaling-stroke" d="
  M 256.31 501.69
  Q 264.67 510.29 266.58 521.42
  Q 266.61 521.58 266.68 523.59
  Q 266.71 524.34 266.96 525.06
  Q 267.26 525.95 267.28 526.49
  Q 267.51 533.06 266.10 539.39
  Q 264.69 545.71 262.50 551.73
  Q 256.44 568.45 239.94 575.44
  Q 231.49 579.02 221.88 578.67
  Q 213.61 578.38 204.08 575.81
  Q 194.57 573.24 186.11 567.87
  Q 165.69 554.93 167.25 530.75
  Q 167.60 525.30 169.25 519.29
  Q 170.98 512.98 172.90 508.27
  Q 179.95 491.01 197.06 485.06
  Q 205.62 482.07 215.35 482.57
  Q 224.74 483.05 233.71 486.50
  Q 246.24 491.31 256.31 501.69
  Z
  M 196.81 512.42
  Q 188.96 517.28 188.19 526.69
  Q 188.08 528.06 188.31 530.44
  Q 188.62 533.54 189.87 536.31
  Q 190.92 538.63 193.26 541.22
  Q 204.93 554.17 221.96 554.65
  Q 231.31 554.91 237.08 551.65
  Q 244.42 547.50 246.67 538.04
  Q 247.67 533.86 247.25 532.00
  Q 244.90 521.56 235.06 515.69
  Q 217.60 505.27 198.75 511.25
  Q 197.94 511.51 197.50 511.87
  Q 196.84 512.40 196.81 512.42
  Z"
/>
<path fill="none" stroke-width="1.00" stroke="#d9d9d9" vector-effect="non-scaling-stroke" d="
  M 1349.94 552.30
  Q 1348.24 552.29 1346.61 552.77
  Q 1343.93 553.54 1343.84 553.56
  Q 1310.56 560.99 1276.40 569.19
  A 0.89 0.87 -13.2 0 1 1275.34 568.55
  L 1270.24 547.21
  A 0.65 0.63 -13.3 0 1 1270.72 546.45
  L 1343.02 528.00
  A 0.67 0.66 76.6 0 0 1343.49 527.22
  L 1338.41 503.05
  A 0.50 0.50 78.1 0 1 1338.80 502.45
  L 1357.61 498.67
  A 0.72 0.70 77.7 0 1 1358.43 499.21
  L 1375.56 571.47
  A 0.51 0.50 -12.5 0 1 1375.17 572.07
  L 1356.18 575.96
  A 0.52 0.51 -12.0 0 1 1355.57 575.57
  L 1350.54 552.80
  A 0.64 0.61 83.5 0 0 1349.94 552.30
  Z"
/>
<path fill="none" stroke-width="1.00" stroke="#d9d9d9" vector-effect="non-scaling-stroke" d="
  M 1351.03 654.28
  Q 1350.22 654.79 1351.07 655.21
  L 1385.45 671.93
  A 1.55 1.54 -79.8 0 1 1386.31 673.18
  Q 1387.01 680.74 1387.02 688.84
  Q 1387.02 690.13 1387.62 693.58
  Q 1388.05 696.01 1387.58 698.48
  A 0.40 0.39 -71.3 0 1 1387.02 698.76
  Q 1357.77 684.23 1328.64 669.49
  Q 1326.53 668.42 1324.23 668.41
  Q 1319.48 668.39 1314.73 668.66
  Q 1310.40 668.91 1305.26 668.87
  Q 1297.93 668.81 1292.00 669.75
  Q 1287.70 670.43 1288.50 666.25
  Q 1288.90 664.14 1288.10 658.02
  Q 1287.44 652.96 1287.72 647.84
  Q 1287.74 647.37 1287.54 646.69
  Q 1287.18 645.49 1288.27 645.64
  Q 1288.85 645.72 1289.23 645.63
  Q 1292.04 644.95 1294.92 644.91
  Q 1297.69 644.87 1300.06 644.63
  Q 1302.64 644.36 1305.25 644.54
  Q 1306.59 644.63 1307.82 644.24
  Q 1309.40 643.75 1310.28 643.73
  Q 1316.37 643.63 1322.46 643.22
  Q 1324.55 643.07 1326.33 641.91
  Q 1353.92 623.95 1381.72 605.86
  A 0.47 0.47 -18.4 0 1 1382.44 606.22
  Q 1383.03 616.22 1383.23 625.33
  Q 1383.23 625.42 1383.17 627.66
  Q 1383.10 630.14 1383.98 632.46
  A 0.81 0.78 63.5 0 1 1383.68 633.41
  L 1351.03 654.28
  Z"
/>
<path fill="none" stroke-width="1.00" stroke="#d9d9d9" vector-effect="non-scaling-stroke" d="
  M 238.93 668.14
  Q 230.99 680.57 216.76 684.77
  Q 208.86 687.10 199.25 686.75
  Q 197.38 686.68 196.22 685.97
  Q 195.75 685.69 195.32 685.67
  Q 182.29 685.27 171.44 679.81
  Q 154.05 671.07 149.18 651.70
  Q 143.94 630.85 152.04 611.12
  Q 152.73 609.42 154.55 609.64
  Q 161.86 610.50 168.39 611.81
  Q 168.47 611.83 172.64 612.43
  Q 175.05 612.78 177.29 613.79
  A 0.40 0.40 30.2 0 1 177.45 614.39
  Q 168.64 625.96 170.19 639.31
  Q 171.02 646.51 175.69 652.20
  Q 179.92 657.36 186.56 660.17
  Q 194.92 663.72 204.49 662.65
  Q 222.31 660.66 227.65 643.67
  Q 228.94 639.54 228.80 635.32
  Q 228.70 632.54 227.96 627.03
  Q 227.07 620.35 224.04 614.26
  A 0.32 0.32 76.3 0 1 224.32 613.79
  L 244.93 613.53
  A 1.15 1.10 87.0 0 1 246.05 614.58
  Q 246.29 617.27 246.76 620.21
  Q 247.18 622.82 247.18 625.82
  Q 247.18 628.48 247.43 631.13
  Q 247.75 634.41 247.65 636.40
  Q 247.29 643.37 246.00 650.25
  Q 244.18 659.90 238.93 668.14
  Z"
/>
<path fill="none" stroke-width="1.00" stroke="#d9d9d9" vector-effect="non-scaling-stroke" d="
  M 755.81 712.81
  Q 756.14 809.03 755.91 905.25
  Q 755.90 909.02 755.90 905.50
  Q 755.70 809.15 755.81 712.81
  Q 755.81 712.31 755.81 712.81
  Z"
/>
<path fill="none" stroke-width="1.00" stroke="#d9d9d9" vector-effect="non-scaling-stroke" d="
  M 682.52 735.99
  Q 699.19 735.08 715.82 733.61
  Q 715.85 733.60 723.65 732.59
  Q 728.41 731.98 733.26 732.25
  A 0.78 0.78 1.5 0 1 734.00 733.03
  L 734.00 754.05
  A 1.07 1.06 4.6 0 1 732.76 755.10
  Q 730.24 754.68 727.53 755.14
  Q 722.60 755.98 722.42 756.00
  Q 694.65 758.61 666.73 759.00
  A 0.97 0.96 -0.3 0 1 665.75 758.04
  L 665.75 738.56
  Q 665.75 736.64 667.66 736.44
  Q 671.75 736.02 675.10 736.03
  Q 681.56 736.04 682.52 735.99
  Z"
/>
<path fill="none" stroke-width="1.00" stroke="#d9d9d9" vector-effect="non-scaling-stroke" d="
  M 868.81 736.16
  Q 869.66 736.17 871.85 736.37
  A 1.27 1.27 2.7 0 1 873.00 737.63
  L 873.00 758.34
  A 0.65 0.65 -0.9 0 1 872.37 758.99
  Q 865.87 759.13 860.01 758.67
  Q 851.77 758.02 843.51 758.22
  Q 842.66 758.24 841.50 758.11
  Q 840.50 758.00 839.50 757.99
  Q 830.18 757.90 822.00 756.75
  Q 812.16 755.37 805.31 754.73
  A 0.57 0.56 -89.4 0 1 804.80 754.20
  L 803.56 733.36
  A 1.01 0.97 87.5 0 1 804.50 732.29
  Q 809.00 732.14 812.72 732.63
  Q 817.24 733.22 817.31 733.23
  Q 843.00 735.69 868.81 736.16
  Z"
/>
<path fill="none" stroke-width="1.00" stroke="#d9d9d9" vector-effect="non-scaling-stroke" d="
  M 664.87 822.06
  A 0.33 0.33 1.8 0 1 664.56 821.73
  L 664.50 799.88
  A 0.55 0.54 -1.7 0 1 665.02 799.34
  Q 683.59 798.48 701.50 798.08
  Q 705.25 797.99 708.97 797.63
  Q 710.24 797.50 716.35 796.46
  Q 724.73 795.04 733.25 795.71
  A 0.65 0.63 -2.2 0 1 733.84 796.24
  Q 734.25 798.53 733.96 800.80
  Q 733.47 804.52 733.45 805.26
  Q 733.25 811.50 732.50 817.68
  A 0.57 0.55 -86.0 0 1 731.94 818.18
  Q 725.92 818.15 719.97 818.96
  Q 717.50 819.29 712.99 819.55
  Q 710.09 819.72 706.00 820.25
  Q 697.54 821.35 674.39 821.49
  Q 672.93 821.50 669.65 821.91
  Q 667.30 822.21 664.87 822.06
  Z"
/>
<path fill="none" stroke-width="1.00" stroke="#d9d9d9" vector-effect="non-scaling-stroke" d="
  M 813.32 795.62
  Q 822.06 796.30 830.79 797.13
  Q 839.89 798.00 848.27 798.00
  Q 860.38 798.00 872.50 798.00
  A 0.50 0.50 0.0 0 1 873.00 798.50
  L 873.00 820.21
  A 0.58 0.58 -0.5 0 1 872.43 820.79
  Q 856.13 821.16 840.30 820.88
  Q 833.53 820.75 824.40 819.66
  Q 816.47 818.71 808.50 818.08
  Q 807.83 818.03 806.57 818.35
  Q 804.75 818.81 804.75 816.75
  Q 804.75 806.75 804.75 796.54
  A 0.99 0.99 -1.2 0 1 805.70 795.55
  Q 810.04 795.36 813.32 795.62
  Z"
/>
<path fill="none" stroke-width="1.00" stroke="#d9d9d9" vector-effect="non-scaling-stroke" d="
  M 1263.74 853.25
  A 1.86 1.85 -72.8 0 1 1262.55 850.98
  L 1277.99 797.18
  A 0.51 0.50 -73.7 0 1 1278.62 796.83
  L 1295.96 801.80
  A 0.96 0.95 -74.1 0 1 1296.61 802.98
  L 1287.75 834.52
  A 0.98 0.97 19.1 0 0 1288.33 835.70
  L 1296.92 839.05
  A 0.90 0.88 -70.0 0 0 1298.09 838.49
  Q 1299.45 834.35 1300.76 830.76
  Q 1302.39 826.25 1304.33 823.46
  Q 1310.32 814.86 1319.75 812.25
  Q 1325.81 810.58 1333.22 811.47
  Q 1339.09 812.18 1344.78 814.92
  Q 1350.30 817.58 1355.19 821.29
  Q 1360.45 825.30 1361.77 826.74
  Q 1363.79 828.96 1364.82 831.84
  Q 1365.29 833.17 1366.38 837.51
  Q 1368.63 846.55 1366.30 855.23
  Q 1365.26 859.08 1360.97 868.68
  Q 1358.05 875.24 1354.39 881.61
  A 0.73 0.72 24.6 0 1 1353.52 881.93
  L 1332.78 874.67
  A 1.09 1.09 25.5 0 1 1332.21 873.07
  Q 1334.03 870.10 1336.67 867.43
  Q 1340.59 863.46 1342.44 859.69
  Q 1343.36 857.81 1343.51 855.43
  Q 1343.69 852.72 1343.88 851.11
  Q 1344.51 845.80 1341.77 841.70
  Q 1339.08 837.68 1334.36 836.74
  Q 1328.14 835.51 1323.50 841.00
  Q 1318.77 846.60 1316.63 853.83
  Q 1315.77 856.72 1315.79 861.67
  Q 1315.80 865.68 1315.48 869.69
  A 0.39 0.39 -78.4 0 1 1314.97 870.03
  L 1263.74 853.25
  Z"
/>
<path fill="none" stroke-width="1.00" stroke="#d9d9d9" vector-effect="non-scaling-stroke" d="
  M 231.87 833.06
  Q 232.15 835.07 233.44 839.81
  Q 236.35 850.53 239.35 861.62
  A 0.57 0.57 -15.3 0 1 238.95 862.32
  L 219.98 867.37
  A 0.50 0.50 75.1 0 1 219.37 867.02
  L 211.86 839.45
  A 1.40 1.38 74.7 0 0 210.15 838.46
  L 173.46 848.65
  A 0.74 0.73 -16.4 0 1 172.55 848.16
  Q 170.52 841.21 168.67 834.18
  Q 168.65 834.08 167.55 830.50
  Q 166.77 827.97 166.59 825.31
  A 0.63 0.63 -10.6 0 1 167.03 824.67
  Q 186.95 818.52 207.01 812.88
  Q 232.30 805.77 258.79 798.21
  A 0.76 0.76 74.6 0 1 259.73 798.75
  L 274.31 852.46
  A 0.53 0.51 -17.0 0 1 273.97 853.08
  L 255.24 859.23
  A 0.91 0.88 -16.8 0 1 254.08 858.63
  L 246.38 829.55
  A 0.80 0.79 -14.8 0 0 245.40 828.99
  L 232.29 832.44
  A 0.57 0.56 -11.6 0 0 231.87 833.06
  Z"
/>
<path fill="none" stroke-width="1.00" stroke="#d9d9d9" vector-effect="non-scaling-stroke" d="
  M 691.23 859.66
  Q 709.26 859.47 713.56 858.56
  Q 722.68 856.64 731.97 857.00
  A 0.80 0.77 1.5 0 1 732.74 857.78
  L 732.58 879.07
  A 0.53 0.52 -0.6 0 1 732.07 879.58
  Q 724.99 879.81 721.00 880.25
  Q 693.96 883.26 665.40 883.51
  A 0.88 0.87 -0.0 0 1 664.51 882.63
  L 664.55 862.00
  A 1.39 1.38 2.5 0 1 666.06 860.63
  Q 669.86 860.95 673.00 860.60
  Q 677.88 860.04 679.56 860.04
  Q 682.49 860.03 685.41 859.88
  Q 689.06 859.69 691.23 859.66
  Z"
/>
<path fill="none" stroke-width="1.00" stroke="#d9d9d9" vector-effect="non-scaling-stroke" d="
  M 812.21 879.81
  Q 809.47 879.77 806.74 879.54
  A 0.58 0.57 -89.5 0 1 806.22 879.00
  Q 805.80 872.84 805.55 866.67
  Q 805.55 866.58 805.60 863.83
  Q 805.65 861.34 804.75 858.99
  Q 803.98 857.00 806.11 857.00
  Q 810.20 857.00 813.94 857.00
  Q 816.10 857.00 819.00 857.53
  Q 821.52 857.99 824.07 858.16
  Q 831.23 858.63 831.42 858.65
  Q 836.76 859.21 838.75 859.25
  Q 856.22 859.60 873.68 859.56
  A 0.51 0.50 0.0 0 1 874.19 860.06
  L 874.25 881.37
  A 0.88 0.88 0.0 0 1 873.37 882.25
  Q 852.87 882.25 833.00 882.25
  Q 829.28 882.25 818.13 880.33
  Q 815.46 879.87 812.21 879.81
  Z"
/>
<path fill="none" stroke-width="1.00" stroke="#d9d9d9" vector-effect="non-scaling-stroke" d="
  M 294.41 964.91
  Q 284.80 974.53 272.23 979.70
  Q 264.97 982.68 257.32 983.51
  Q 249.51 984.36 242.17 982.50
  Q 224.31 977.96 215.00 960.84
  Q 213.13 957.41 211.34 953.93
  Q 209.32 950.02 208.44 946.70
  Q 203.16 926.87 213.66 910.95
  Q 218.77 903.19 227.67 896.84
  Q 241.88 886.70 259.00 885.00
  Q 270.32 883.87 280.47 888.77
  Q 289.05 892.91 295.81 901.31
  Q 305.42 913.25 308.01 929.09
  Q 310.18 942.38 303.23 953.71
  Q 299.48 959.84 294.41 964.91
  Z
  M 281.31 914.94
  Q 274.46 908.30 264.00 909.00
  Q 251.18 909.85 239.80 918.29
  Q 235.36 921.59 232.46 926.09
  Q 229.47 930.72 229.50 935.99
  Q 229.56 946.00 237.92 952.81
  Q 242.47 956.51 245.75 956.75
  Q 265.53 958.21 278.94 944.94
  Q 282.58 941.33 285.17 936.19
  Q 287.32 931.93 287.12 927.82
  Q 286.75 920.20 281.31 914.94
  Z"
/>
<path fill="none" stroke-width="1.00" stroke="#d9d9d9" vector-effect="non-scaling-stroke" d="
  M 1243.95 950.42
  Q 1242.07 948.95 1240.58 947.08
  Q 1238.54 944.51 1238.44 944.39
  Q 1231.51 936.09 1229.97 925.25
  Q 1228.87 917.56 1231.40 910.26
  Q 1235.98 897.02 1246.32 887.55
  Q 1248.15 885.88 1250.09 887.37
  L 1265.15 898.93
  A 1.13 1.11 -48.1 0 1 1265.23 900.63
  Q 1261.65 904.03 1258.12 908.34
  Q 1245.59 923.59 1260.26 936.51
  Q 1260.70 936.89 1260.69 936.32
  Q 1260.51 925.14 1267.66 916.44
  Q 1278.15 903.69 1294.72 907.16
  Q 1309.01 910.15 1318.85 920.91
  Q 1325.17 927.82 1325.83 936.76
  Q 1326.18 941.53 1323.99 946.95
  Q 1320.78 954.90 1315.69 960.69
  Q 1302.06 976.18 1281.72 970.34
  Q 1271.01 967.26 1258.94 960.81
  Q 1252.34 957.29 1247.75 953.43
  Q 1247.63 953.32 1243.95 950.42
  Z
  M 1283.25 947.72
  Q 1285.58 949.31 1288.06 950.66
  Q 1290.97 952.24 1293.26 952.69
  Q 1301.70 954.34 1304.13 945.23
  A 0.71 0.67 24.7 0 0 1303.83 944.49
  Q 1302.25 943.48 1300.81 941.69
  Q 1296.28 936.05 1289.48 933.94
  Q 1284.84 932.50 1281.85 933.59
  Q 1277.29 935.26 1278.31 942.14
  A 3.46 3.41 -70.3 0 0 1279.13 943.91
  Q 1281.42 946.47 1283.25 947.72
  Z"
/>
<path fill="none" stroke-width="1.00" stroke="#d9d9d9" vector-effect="non-scaling-stroke" d="
  M 1264.04 1052.18
  Q 1257.87 1060.29 1248.50 1064.50
  Q 1241.02 1067.86 1232.69 1066.06
  Q 1225.86 1064.59 1219.86 1059.60
  Q 1214.54 1055.18 1212.28 1049.65
  Q 1209.93 1043.92 1210.01 1036.94
  A 0.72 0.72 -13.9 0 0 1208.95 1036.30
  Q 1203.35 1039.34 1196.51 1037.94
  Q 1189.87 1036.57 1184.80 1032.60
  Q 1179.72 1028.61 1177.08 1022.79
  Q 1172.90 1013.61 1176.94 1003.19
  Q 1179.50 996.58 1184.12 990.42
  Q 1191.28 980.88 1202.09 976.88
  Q 1207.84 974.74 1212.74 975.41
  Q 1216.52 975.92 1219.92 977.70
  Q 1223.01 979.33 1225.62 982.40
  Q 1232.27 990.22 1234.26 1001.73
  A 0.46 0.46 -12.3 0 0 1234.84 1002.10
  Q 1240.00 1000.59 1244.88 1000.40
  Q 1249.95 1000.20 1254.70 1002.21
  Q 1266.65 1007.27 1272.81 1019.94
  Q 1274.64 1023.69 1274.56 1027.35
  Q 1274.51 1029.72 1273.22 1034.62
  Q 1271.94 1039.50 1269.48 1043.89
  Q 1267.13 1048.11 1264.04 1052.18
  Z
  M 1202.69 1015.68
  Q 1206.12 1016.23 1209.25 1014.65
  Q 1212.45 1013.02 1213.19 1012.37
  Q 1215.11 1010.68 1214.06 1007.19
  Q 1212.66 1002.52 1209.63 999.92
  Q 1207.72 998.28 1205.30 998.49
  Q 1202.65 998.71 1200.79 1000.42
  Q 1198.60 1002.43 1196.95 1005.79
  Q 1195.18 1009.41 1197.49 1012.58
  Q 1199.35 1015.14 1202.69 1015.68
  Z
  M 1232.94 1040.56
  Q 1238.19 1044.58 1244.24 1041.23
  Q 1251.77 1037.07 1248.72 1028.89
  Q 1247.03 1024.37 1242.75 1024.00
  Q 1235.93 1023.41 1230.13 1028.18
  A 1.17 1.11 73.2 0 0 1229.72 1029.00
  Q 1229.42 1034.03 1230.00 1036.00
  Q 1230.89 1038.99 1232.94 1040.56
  Z"
/>
<path fill="none" stroke-width="1.00" stroke="#d9d9d9" vector-effect="non-scaling-stroke" d="
  M 381.87 1047.39
  Q 364.69 1060.79 347.45 1074.09
  Q 334.78 1083.87 332.73 1084.98
  Q 327.14 1088.03 320.74 1089.02
  Q 314.38 1090.01 308.34 1088.45
  Q 297.99 1085.78 289.56 1077.19
  Q 280.06 1067.50 275.88 1054.58
  Q 274.00 1048.76 274.62 1042.93
  Q 275.17 1037.88 278.28 1032.12
  Q 283.20 1023.01 291.30 1016.36
  Q 295.41 1012.98 295.50 1012.91
  Q 315.07 996.01 334.82 979.31
  A 1.24 1.22 -40.3 0 1 336.56 979.44
  L 351.17 996.61
  A 0.74 0.73 -40.3 0 1 351.08 997.65
  Q 330.92 1014.32 312.56 1029.06
  Q 306.53 1033.91 302.29 1039.21
  Q 299.09 1043.20 298.56 1046.54
  Q 297.87 1050.86 300.15 1055.08
  Q 302.47 1059.39 306.21 1062.51
  Q 310.36 1065.98 315.56 1064.81
  Q 319.17 1064.00 322.65 1061.63
  Q 331.27 1055.76 339.42 1049.27
  Q 349.74 1041.03 349.81 1040.98
  Q 361.09 1032.19 372.26 1023.24
  A 1.03 0.99 -37.3 0 1 373.71 1023.41
  L 387.47 1042.34
  A 0.54 0.52 -37.4 0 1 387.36 1043.06
  Q 384.63 1045.24 381.87 1047.39
  Z"
/>
<path fill="none" stroke-width="1.00" stroke="#d9d9d9" vector-effect="non-scaling-stroke" d="
  M 1160.67 1094.07
  Q 1155.18 1088.44 1149.54 1082.40
  Q 1148.54 1081.32 1148.30 1082.77
  L 1146.02 1096.69
  A 0.57 0.55 -83.0 0 1 1145.44 1097.16
  Q 1141.59 1096.91 1137.83 1096.06
  Q 1135.72 1095.58 1131.58 1094.94
  Q 1128.41 1094.45 1125.40 1093.25
  A 0.77 0.74 10.8 0 1 1124.92 1092.57
  Q 1124.90 1090.17 1125.75 1084.00
  Q 1127.33 1072.49 1129.00 1061.00
  Q 1129.33 1058.72 1129.66 1057.26
  Q 1130.04 1055.58 1131.52 1054.09
  Q 1137.78 1047.76 1143.89 1041.85
  A 0.79 0.79 82.9 0 1 1145.01 1041.87
  L 1212.08 1110.32
  A 0.53 0.50 45.8 0 1 1212.09 1111.05
  L 1194.54 1127.46
  A 1.12 1.07 46.3 0 1 1193.00 1127.39
  Q 1176.65 1110.48 1160.67 1094.07
  Z"
/>
<path fill="none" stroke-width="1.00" stroke="#d9d9d9" vector-effect="non-scaling-stroke" d="
  M 403.52 1113.84
  Q 403.87 1112.22 402.82 1113.50
  L 368.52 1155.39
  A 1.18 1.17 -51.0 0 1 366.88 1155.57
  L 349.87 1142.08
  A 0.73 0.72 -51.5 0 1 349.76 1141.06
  L 410.01 1066.20
  A 0.95 0.95 39.8 0 1 411.36 1066.08
  Q 418.54 1072.25 425.04 1078.06
  Q 425.09 1078.11 427.92 1080.46
  Q 429.99 1082.18 431.68 1084.30
  A 0.92 0.89 -58.6 0 1 431.85 1085.05
  L 419.24 1143.10
  Q 418.77 1145.26 420.17 1143.55
  L 453.64 1102.72
  A 1.49 1.46 -50.2 0 1 455.73 1102.51
  L 473.07 1117.24
  A 0.52 0.50 -49.9 0 1 473.12 1117.95
  Q 443.65 1153.84 414.11 1189.67
  Q 414.07 1189.72 413.32 1190.75
  Q 411.81 1192.81 410.19 1191.19
  Q 408.91 1189.92 408.79 1189.82
  Q 399.77 1182.60 391.46 1175.72
  A 1.92 1.92 25.7 0 1 390.80 1173.84
  L 403.52 1113.84
  Z"
/>
<path fill="none" stroke-width="1.00" stroke="#d9d9d9" vector-effect="non-scaling-stroke" d="
  M 544.56 1231.03
  Q 530.63 1247.29 507.50 1244.00
  Q 501.72 1243.18 495.95 1241.21
  Q 492.31 1239.96 485.13 1236.45
  Q 471.56 1229.79 457.91 1223.48
  A 0.60 0.60 25.9 0 1 457.63 1222.67
  L 501.04 1137.20
  A 0.98 0.98 25.5 0 1 502.31 1136.75
  Q 508.85 1139.65 515.56 1142.94
  Q 515.71 1143.01 525.71 1147.60
  Q 542.51 1155.31 553.31 1169.19
  Q 559.03 1176.53 560.10 1187.24
  Q 561.18 1198.04 557.00 1209.50
  Q 554.68 1215.85 551.76 1220.87
  Q 548.56 1226.37 544.56 1231.03
  Z
  M 490.66 1215.80
  Q 495.71 1218.49 501.21 1219.75
  Q 505.74 1220.78 509.84 1220.43
  Q 514.64 1220.01 518.31 1218.06
  Q 524.25 1214.91 528.25 1209.14
  Q 532.16 1203.48 533.93 1197.39
  Q 537.24 1185.95 529.44 1175.56
  Q 528.69 1174.57 528.24 1173.91
  Q 527.59 1172.98 526.88 1172.45
  Q 521.95 1168.79 516.01 1166.31
  A 1.34 1.33 24.8 0 0 514.30 1166.93
  L 490.10 1214.04
  A 1.32 1.31 27.6 0 0 490.66 1215.80
  Z"
/>
<path fill="none" stroke-width="1.00" stroke="#d9d9d9" vector-effect="non-scaling-stroke" d="
  M 986.21 1181.63
  Q 981.33 1172.94 976.52 1163.76
  A 0.79 0.79 61.1 0 1 976.82 1162.71
  Q 988.69 1155.67 1000.69 1149.44
  Q 1010.67 1144.25 1017.69 1142.07
  Q 1045.99 1133.29 1064.69 1154.81
  Q 1071.58 1162.75 1076.04 1173.34
  Q 1086.82 1198.95 1068.69 1218.94
  Q 1063.26 1224.92 1055.94 1229.69
  Q 1045.75 1236.32 1023.26 1248.20
  A 0.52 0.50 -28.6 0 1 1022.57 1248.01
  Q 1009.01 1223.69 995.89 1199.14
  Q 992.56 1192.92 986.21 1181.63
  Z
  M 1044.86 1172.84
  Q 1043.66 1171.50 1041.81 1170.19
  Q 1031.37 1162.75 1019.05 1164.47
  Q 1014.95 1165.04 1011.52 1167.24
  Q 1009.63 1168.45 1007.97 1169.14
  A 1.11 1.10 -26.0 0 0 1007.43 1170.69
  L 1032.85 1216.56
  A 1.75 1.74 -24.9 0 0 1035.00 1217.34
  Q 1046.22 1213.11 1050.65 1203.23
  Q 1053.63 1196.57 1052.90 1189.44
  Q 1052.14 1182.05 1047.35 1175.97
  Q 1045.09 1173.09 1044.86 1172.84
  Z"
/>
<path fill="none" stroke-width="1.00" stroke="#d9d9d9" vector-effect="non-scaling-stroke" d="
  M 1111.81 1167.02
  L 1125.42 1186.64
  A 0.40 0.39 -34.6 0 1 1125.31 1187.20
  L 1104.74 1200.16
  A 0.53 0.52 56.8 0 1 1104.02 1200.00
  L 1091.46 1181.17
  A 1.03 1.02 -35.0 0 1 1091.71 1179.78
  L 1109.61 1166.69
  A 1.57 1.53 -35.7 0 1 1111.81 1167.02
  Z"
/>
<path fill="none" stroke-width="1.00" stroke="#d9d9d9" vector-effect="non-scaling-stroke" d="
  M 613.92 1245.05
  L 610.03 1261.11
  A 0.92 0.89 14.8 0 0 610.69 1262.19
  L 641.47 1270.84
  A 1.80 1.80 -74.7 0 1 642.72 1273.04
  L 638.08 1290.60
  A 0.86 0.86 15.0 0 1 637.02 1291.21
  L 580.93 1275.45
  A 0.53 0.52 14.9 0 1 580.56 1274.82
  L 604.11 1183.01
  A 1.23 1.22 -75.2 0 1 605.61 1182.13
  L 662.55 1197.64
  A 0.61 0.61 15.0 0 1 662.98 1198.38
  L 658.19 1216.47
  A 1.49 1.46 15.1 0 1 656.37 1217.49
  L 623.95 1208.67
  A 0.85 0.84 -74.9 0 0 622.92 1209.27
  L 619.54 1221.61
  A 1.68 1.64 -74.3 0 0 620.66 1223.65
  L 650.54 1232.36
  A 0.70 0.69 -72.8 0 1 651.00 1233.24
  Q 648.48 1241.18 645.75 1249.04
  Q 645.71 1249.15 645.36 1250.47
  Q 644.71 1252.89 642.29 1252.08
  Q 640.79 1251.57 640.67 1251.54
  Q 627.56 1248.27 614.54 1244.70
  A 0.50 0.49 14.7 0 0 613.92 1245.05
  Z"
/>
<path fill="none" stroke-width="1.00" stroke="#d9d9d9" vector-effect="non-scaling-stroke" d="
  M 934.04 1282.26
  Q 927.34 1283.94 920.52 1285.05
  Q 920.40 1285.07 918.09 1285.78
  Q 916.04 1286.41 914.81 1284.44
  Q 909.54 1275.99 903.97 1267.72
  A 0.76 0.73 -23.0 0 0 903.19 1267.42
  L 873.68 1273.83
  A 0.73 0.70 -2.6 0 0 873.12 1274.42
  L 870.54 1294.43
  A 1.19 1.15 88.1 0 1 869.64 1295.43
  L 846.05 1300.44
  A 0.73 0.72 88.4 0 1 845.19 1299.61
  L 861.00 1198.50
  A 0.90 0.89 89.6 0 1 861.73 1197.75
  L 884.48 1194.01
  A 1.35 1.31 68.3 0 1 885.79 1194.60
  L 942.26 1280.11
  A 0.46 0.46 66.2 0 1 941.99 1280.81
  Q 939.87 1281.36 938.02 1281.59
  Q 935.37 1281.92 934.04 1282.26
  Z
  M 878.23 1226.80
  Q 877.77 1227.45 878.05 1228.29
  Q 878.23 1228.84 878.19 1229.25
  L 875.90 1250.56
  A 0.48 0.48 -4.3 0 0 876.50 1251.07
  L 890.85 1247.42
  A 0.67 0.64 -23.3 0 0 891.26 1246.44
  L 878.84 1226.85
  A 0.38 0.36 47.7 0 0 878.23 1226.80
  Z"
/>
<path fill="none" stroke-width="1.00" stroke="#d9d9d9" vector-effect="non-scaling-stroke" d="
  M 717.32 1203.95
  Q 719.74 1204.04 722.13 1204.37
  Q 724.86 1204.74 726.90 1204.86
  Q 744.16 1205.88 757.06 1213.44
  Q 770.59 1221.36 775.00 1235.25
  Q 777.44 1242.94 777.12 1251.62
  Q 776.81 1260.10 774.71 1267.76
  Q 772.26 1276.72 766.69 1284.44
  Q 763.80 1288.44 759.73 1291.24
  Q 751.18 1297.11 741.00 1299.25
  Q 732.02 1301.14 720.62 1300.87
  Q 719.80 1300.85 705.87 1300.21
  Q 698.94 1299.89 691.13 1299.36
  A 1.18 1.18 3.5 0 1 690.03 1298.12
  L 695.26 1203.90
  A 0.70 0.70 -30.8 0 1 695.99 1203.23
  Q 707.04 1203.58 717.32 1203.95
  Z
  M 745.35 1270.09
  Q 749.20 1264.34 749.75 1256.50
  Q 750.21 1249.95 748.41 1244.28
  Q 746.54 1238.39 742.28 1233.99
  Q 736.87 1228.41 728.94 1226.68
  Q 725.01 1225.83 724.09 1225.68
  Q 721.77 1225.32 719.11 1225.56
  A 0.73 0.71 2.6 0 0 718.46 1226.14
  Q 717.09 1233.31 717.58 1239.49
  Q 717.67 1240.65 717.38 1241.72
  Q 717.02 1243.05 717.04 1243.85
  Q 717.20 1248.43 716.79 1252.98
  Q 716.23 1259.32 716.17 1262.06
  Q 715.98 1270.85 715.55 1279.77
  A 0.96 0.96 -0.3 0 0 716.56 1280.77
  Q 720.71 1280.56 724.68 1280.51
  Q 730.04 1280.44 732.72 1279.63
  Q 740.57 1277.24 745.35 1270.09
  Z"
/>
<path fill="none" stroke-width="1.00" stroke="#d9d9d9" vector-effect="non-scaling-stroke" d="
  M 961.83 1271.23
  A 0.55 0.54 -18.4 0 1 961.13 1270.89
  L 953.54 1247.86
  A 0.65 0.65 71.3 0 1 953.94 1247.04
  L 974.70 1239.61
  A 1.29 1.25 -20.4 0 1 976.33 1240.33
  L 984.86 1262.30
  A 1.18 1.13 -19.8 0 1 984.12 1263.80
  L 961.83 1271.23
  Z"
/>
</svg>
