<?xml version="1.0" encoding="UTF-8" standalone="no"?>
<!DOCTYPE svg PUBLIC "-//W3C//DTD SVG 1.1//EN" "http://www.w3.org/Graphics/SVG/1.1/DTD/svg11.dtd">
<svg xmlns="http://www.w3.org/2000/svg" version="1.1" viewBox="45 0 190 190" height="108px">
<path fill="none" stroke-width="1.00" stroke="#d9d9d9" vector-effect="non-scaling-stroke" d="
  M 161.30 99.18
  Q 161.21 103.82 161.24 109.21
  Q 161.25 109.32 161.15 110.78
  Q 160.97 113.50 163.65 113.93
  Q 164.43 114.06 164.79 114.26
  Q 166.25 115.06 164.34 115.61
  Q 163.82 115.75 163.15 115.69
  Q 157.59 115.17 152.00 115.29
  Q 147.81 115.39 150.74 113.98
  Q 151.14 113.79 151.82 113.71
  Q 153.58 113.51 154.55 112.28
  Q 155.24 111.40 155.28 109.54
  Q 155.67 89.67 155.51 69.80
  Q 155.51 69.70 155.62 67.71
  Q 155.85 63.65 151.80 62.43
  Q 149.94 61.88 151.73 61.20
  L 159.52 58.24
  A 1.13 1.09 80.0 0 1 161.00 59.32
  L 161.00 94.69
  Q 161.00 96.82 162.96 95.99
  Q 169.46 93.26 175.47 87.88
  A 1.38 1.38 -49.0 0 0 175.32 85.70
  Q 174.19 84.93 173.19 84.04
  Q 172.61 83.52 173.18 83.16
  Q 173.43 83.00 173.86 83.00
  Q 180.68 83.00 187.50 83.02
  Q 188.92 83.02 188.34 83.94
  Q 188.13 84.28 187.63 84.50
  Q 177.28 89.02 168.14 95.51
  A 0.92 0.91 48.8 0 0 168.05 96.93
  Q 175.86 104.16 183.81 111.19
  Q 185.71 112.87 188.58 113.86
  Q 189.34 114.12 189.67 114.47
  Q 190.52 115.37 188.88 115.67
  Q 188.37 115.76 187.61 115.69
  Q 181.10 115.10 174.58 115.69
  Q 173.93 115.75 173.44 115.60
  Q 171.56 115.03 173.24 114.22
  Q 173.64 114.03 174.29 113.95
  Q 178.38 113.45 175.06 110.42
  Q 168.80 104.70 162.53 98.66
  Q 161.33 97.50 161.30 99.18
  Z
  M 182.70 112.10
  Q 180.57 110.08 178.41 108.12
  Q 177.91 107.66 177.52 107.51
  Q 176.56 107.12 176.36 107.94
  A 1.30 0.27 64.2 0 0 176.59 108.85
  L 177.90 112.01
  A 0.96 0.57 -41.5 0 1 177.63 112.84
  Q 176.88 113.67 178.25 114.00
  Q 179.73 114.36 183.94 113.76
  A 0.43 0.38 -15.6 0 0 184.29 113.21
  Q 184.06 112.73 183.56 112.55
  Q 182.93 112.31 182.70 112.10
  Z"
/>
<path fill="none" stroke-width="1.00" stroke="#d9d9d9" vector-effect="non-scaling-stroke" d="
  M 67.08 114.97
  Q 61.35 113.15 55.69 114.98
  Q 52.90 115.98 49.94 115.63
  A 1.07 0.76 -4.2 0 1 49.15 115.15
  Q 48.80 114.42 49.88 113.98
  Q 51.90 113.14 54.01 112.50
  Q 55.74 111.96 55.75 110.19
  L 55.99 67.14
  A 1.31 1.29 5.4 0 0 54.92 65.87
  Q 51.99 65.34 49.53 65.22
  Q 48.62 65.17 48.17 64.88
  Q 47.21 64.27 48.17 63.38
  A 1.42 1.09 18.0 0 1 49.07 63.06
  Q 60.04 62.89 71.00 62.44
  Q 78.88 62.11 86.07 64.53
  Q 94.01 67.21 98.53 72.53
  Q 103.60 78.50 104.75 87.25
  Q 105.49 92.87 104.12 97.70
  Q 102.80 102.41 99.04 106.50
  Q 90.85 115.41 77.25 115.25
  Q 68.93 115.15 67.08 114.97
  Z
  M 88.56 71.69
  Q 78.25 62.91 64.98 65.46
  A 2.13 2.12 -5.4 0 0 63.25 67.54
  Q 63.25 86.50 63.36 104.50
  Q 63.39 109.72 67.81 111.94
  Q 72.38 114.23 77.77 113.11
  Q 83.68 111.87 88.49 108.26
  Q 94.62 103.65 96.34 96.84
  Q 97.99 90.33 96.31 83.68
  Q 94.58 76.81 88.56 71.69
  Z"
/>
<path fill="none" stroke-width="1.00" stroke="#d9d9d9" vector-effect="non-scaling-stroke" d="
  M 88.56 71.69
  Q 94.58 76.81 96.31 83.68
  Q 97.99 90.33 96.34 96.84
  Q 94.62 103.65 88.49 108.26
  Q 83.68 111.87 77.77 113.11
  Q 72.38 114.23 67.81 111.94
  Q 63.39 109.72 63.36 104.50
  Q 63.25 86.50 63.25 67.54
  A 2.13 2.12 -5.4 0 1 64.98 65.46
  Q 78.25 62.91 88.56 71.69
  Z"
/>
<path fill="none" stroke-width="1.00" stroke="#d9d9d9" vector-effect="non-scaling-stroke" d="
  M 195.75 96.06
  Q 195.00 102.67 196.81 106.44
  Q 199.60 112.21 206.94 112.81
  Q 212.15 113.24 215.15 110.36
  Q 215.64 109.89 215.93 109.72
  Q 217.11 109.05 216.81 110.48
  Q 216.71 110.92 216.39 111.32
  Q 212.70 115.89 206.74 116.71
  Q 200.62 117.55 196.20 114.49
  Q 192.24 111.75 190.62 106.22
  Q 188.47 98.91 191.51 91.25
  Q 193.45 86.37 197.50 83.81
  Q 201.49 81.28 206.25 81.48
  Q 212.82 81.76 216.63 88.09
  Q 218.41 91.05 218.25 94.52
  A 0.78 0.76 0.8 0 1 217.48 95.25
  L 196.32 95.55
  A 0.59 0.58 2.8 0 0 195.75 96.06
  Z
  M 210.59 84.65
  Q 207.66 82.77 204.26 83.77
  Q 198.00 85.62 196.58 91.67
  A 0.86 0.82 -83.7 0 0 197.39 92.72
  L 209.87 92.51
  Q 212.21 92.47 212.75 90.01
  Q 213.51 86.53 210.59 84.65
  Z
  M 213.29 92.48
  Q 211.27 94.11 216.31 93.59
  A 1.10 1.10 76.5 0 0 217.22 92.10
  Q 213.83 83.24 213.69 91.68
  A 1.07 0.99 -20.8 0 1 213.29 92.48
  Z"
/>
<path fill="none" stroke-width="1.00" stroke="#d9d9d9" vector-effect="non-scaling-stroke" d="
  M 135.54 112.50
  Q 136.91 112.67 136.87 113.93
  A 0.78 0.58 -82.5 0 0 137.27 114.64
  Q 138.88 115.19 141.26 113.73
  A 0.41 0.41 -37.7 0 0 141.34 113.09
  Q 139.46 111.15 140.00 108.50
  Q 140.40 106.55 139.63 98.51
  Q 139.43 96.33 137.47 97.05
  A 0.86 0.80 84.2 0 0 136.94 97.75
  Q 136.64 100.53 136.67 103.33
  Q 136.70 105.65 136.08 107.56
  Q 135.41 109.63 134.75 111.71
  Q 128.92 116.11 125.00 116.75
  Q 117.74 117.94 114.54 113.23
  Q 112.74 110.57 112.57 104.38
  Q 112.33 96.01 112.80 87.07
  A 1.96 1.96 -81.3 0 0 111.33 85.07
  Q 109.39 84.57 108.02 83.92
  Q 106.08 82.98 108.21 83.02
  L 117.57 83.16
  A 0.56 0.51 88.8 0 1 118.08 83.70
  Q 118.52 99.65 118.25 106.50
  Q 118.11 109.98 120.30 111.62
  Q 121.85 112.79 125.06 112.96
  Q 128.82 113.15 131.69 111.94
  Q 135.51 110.32 135.46 105.50
  Q 135.37 96.50 135.75 87.39
  A 1.70 1.70 7.3 0 0 134.41 85.66
  Q 131.64 85.06 129.73 84.18
  Q 127.19 83.00 129.99 83.00
  L 140.41 83.00
  A 1.09 1.08 -0.0 0 1 141.50 84.08
  Q 141.57 95.62 141.27 107.46
  Q 141.27 107.55 141.16 109.03
  Q 140.82 113.67 146.00 112.74
  Q 147.84 112.41 147.77 113.69
  A 0.69 0.63 -3.6 0 1 147.20 114.28
  L 136.30 116.12
  A 0.56 0.56 78.0 0 1 135.67 115.71
  Q 135.27 114.14 135.54 112.50
  Z
  M 116.94 114.31
  Q 121.37 117.12 126.30 115.07
  Q 127.19 114.70 126.23 114.60
  Q 116.55 113.60 117.08 105.83
  Q 117.44 100.72 117.44 100.62
  Q 117.27 92.72 117.43 84.81
  A 0.54 0.49 -90.0 0 0 116.93 84.26
  L 113.43 84.36
  A 0.44 0.40 79.5 0 0 113.08 84.93
  Q 113.24 85.46 113.44 85.99
  Q 113.75 86.81 113.74 87.58
  Q 113.61 97.28 113.93 106.97
  Q 114.01 109.49 114.53 110.95
  Q 115.39 113.33 116.94 114.31
  Z"
/>
<path fill="none" stroke-width="1.00" stroke="#d9d9d9" vector-effect="non-scaling-stroke" d="
  M 210.59 84.65
  Q 213.51 86.53 212.75 90.01
  Q 212.21 92.47 209.87 92.51
  L 197.39 92.72
  A 0.86 0.82 -83.7 0 1 196.58 91.67
  Q 198.00 85.62 204.26 83.77
  Q 207.66 82.77 210.59 84.65
  Z"
/>
<path fill="none" stroke-width="1.00" stroke="#d9d9d9" vector-effect="non-scaling-stroke" d="
  M 116.94 114.31
  Q 115.39 113.33 114.53 110.95
  Q 114.01 109.49 113.93 106.97
  Q 113.61 97.28 113.74 87.58
  Q 113.75 86.81 113.44 85.99
  Q 113.24 85.46 113.08 84.93
  A 0.44 0.40 79.5 0 1 113.43 84.36
  L 116.93 84.26
  A 0.54 0.49 -90.0 0 1 117.43 84.81
  Q 117.27 92.72 117.44 100.62
  Q 117.44 100.72 117.08 105.83
  Q 116.55 113.60 126.23 114.60
  Q 127.19 114.70 126.30 115.07
  Q 121.37 117.12 116.94 114.31
  Z"
/>
<path fill="none" stroke-width="1.00" stroke="#d9d9d9" vector-effect="non-scaling-stroke" d="
  M 213.69 91.68
  Q 213.83 83.24 217.22 92.10
  A 1.10 1.10 76.5 0 1 216.31 93.59
  Q 211.27 94.11 213.29 92.48
  A 1.07 0.99 -20.8 0 0 213.69 91.68
  Z"
/>
<path fill="none" stroke-width="1.00" stroke="#d9d9d9" vector-effect="non-scaling-stroke" d="
  M 135.54 112.50
  Q 135.25 112.00 134.75 111.71
  Q 135.41 109.63 136.08 107.56
  Q 136.70 105.65 136.67 103.33
  Q 136.64 100.53 136.94 97.75
  A 0.86 0.80 84.2 0 1 137.47 97.05
  Q 139.43 96.33 139.63 98.51
  Q 140.40 106.55 140.00 108.50
  Q 139.46 111.15 141.34 113.09
  A 0.41 0.41 -37.7 0 1 141.26 113.73
  Q 138.88 115.19 137.27 114.64
  A 0.78 0.58 -82.5 0 1 136.87 113.93
  Q 136.91 112.67 135.54 112.50
  Z"
/>
<path fill="none" stroke-width="1.00" stroke="#d9d9d9" vector-effect="non-scaling-stroke" d="
  M 183.56 112.55
  Q 184.06 112.73 184.29 113.21
  A 0.43 0.38 -15.6 0 1 183.94 113.76
  Q 179.73 114.36 178.25 114.00
  Q 176.88 113.67 177.63 112.84
  A 0.96 0.57 -41.5 0 0 177.90 112.01
  L 176.59 108.85
  A 1.30 0.27 64.2 0 1 176.36 107.94
  Q 176.56 107.12 177.52 107.51
  Q 177.91 107.66 178.41 108.12
  Q 180.57 110.08 182.70 112.10
  Q 182.93 112.31 183.56 112.55
  Z"
/>
<path fill="none" stroke-width="1.00" stroke="#d9d9d9" vector-effect="non-scaling-stroke" d="
  M 67.08 114.97
  Q 61.36 115.67 55.69 114.98
  Q 61.35 113.15 67.08 114.97
  Z"
/>
<path fill="none" stroke-width="1.00" stroke="#d9d9d9" vector-effect="non-scaling-stroke" d="
  M 56.90 130.48
  Q 59.59 130.67 59.25 127.25
  Q 59.15 126.27 59.29 123.06
  A 0.98 0.64 84.7 0 1 59.71 122.27
  Q 60.07 122.12 60.34 122.48
  Q 60.50 122.69 60.50 123.07
  Q 60.51 125.28 60.61 127.50
  Q 60.74 130.32 58.73 131.29
  Q 56.96 132.15 55.31 131.21
  Q 53.49 130.17 53.75 127.46
  Q 53.86 126.35 53.82 125.23
  Q 53.68 121.66 54.63 122.67
  A 1.39 1.10 -71.9 0 1 54.96 123.57
  L 54.97 128.37
  Q 54.98 130.34 56.90 130.48
  Z"
/>
<path fill="none" stroke-width="1.00" stroke="#d9d9d9" vector-effect="non-scaling-stroke" d="
  M 78.22 127.70
  Q 78.29 125.85 78.26 123.15
  Q 78.25 122.65 78.46 122.42
  Q 78.71 122.13 79.04 122.27
  A 0.87 0.67 -80.5 0 1 79.46 123.06
  L 79.27 131.49
  Q 79.25 132.55 78.57 131.70
  Q 76.30 128.87 74.58 125.68
  Q 74.22 125.01 73.86 125.16
  A 0.85 0.50 78.8 0 0 73.57 125.99
  Q 73.87 128.36 73.74 130.75
  Q 73.68 131.93 73.00 131.69
  A 0.82 0.67 -82.2 0 1 72.55 130.95
  L 72.51 124.01
  Q 72.48 120.18 74.40 123.43
  L 77.07 127.96
  Q 78.15 129.78 78.22 127.70
  Z"
/>
<rect fill="none" stroke-width="1.00" stroke="#d9d9d9" vector-effect="non-scaling-stroke" x="-0.85" y="-4.74" transform="translate(92.09,127.02) rotate(-0.2)" width="1.70" height="9.48" rx="0.77"/>
<path fill="none" stroke-width="1.00" stroke="#d9d9d9" vector-effect="non-scaling-stroke" d="
  M 108.27 129.24
  Q 109.53 126.43 110.23 123.43
  Q 110.32 123.05 110.56 122.80
  Q 111.95 121.37 111.28 123.64
  Q 110.22 127.22 108.99 130.77
  Q 108.12 133.30 107.29 130.86
  L 104.61 122.99
  A 0.54 0.45 76.1 0 1 104.95 122.30
  Q 105.42 122.24 105.66 123.03
  Q 106.63 126.18 107.87 129.23
  Q 108.06 129.70 108.27 129.24
  Z"
/>
<path fill="none" stroke-width="1.00" stroke="#d9d9d9" vector-effect="non-scaling-stroke" d="
  M 162.07 130.45
  Q 165.79 130.48 163.59 128.10
  A 1.52 1.09 -10.6 0 0 162.75 127.71
  Q 160.15 127.37 159.59 124.99
  A 1.45 1.40 -38.9 0 1 159.71 124.04
  Q 161.10 121.33 164.25 122.74
  Q 165.90 123.47 164.79 124.01
  A 1.05 0.77 43.3 0 1 163.90 123.90
  Q 162.69 123.16 161.38 123.72
  A 0.86 0.77 -11.3 0 0 160.85 124.43
  Q 160.79 125.86 163.33 126.40
  Q 165.09 126.78 165.56 128.53
  Q 166.09 130.49 163.90 131.33
  Q 161.57 132.22 159.64 130.82
  A 0.50 0.46 40.1 0 1 159.55 130.10
  Q 160.22 129.40 161.18 130.11
  A 1.69 1.06 52.9 0 0 162.07 130.45
  Z"
/>
<rect fill="none" stroke-width="1.00" stroke="#d9d9d9" vector-effect="non-scaling-stroke" x="-0.70" y="-4.69" transform="translate(178.05,127.00) rotate(0.7)" width="1.40" height="9.38" rx="0.63"/>
<path fill="none" stroke-width="1.00" stroke="#d9d9d9" vector-effect="non-scaling-stroke" d="
  M 211.63 126.29
  Q 212.91 124.67 213.90 122.86
  Q 214.35 122.03 214.83 122.33
  A 0.55 0.44 -55.7 0 1 214.89 123.07
  Q 212.81 125.83 212.11 129.17
  Q 212.02 129.60 212.03 130.34
  Q 212.06 132.01 211.13 131.33
  A 1.08 0.84 -75.4 0 1 210.77 130.50
  Q 210.85 126.68 208.35 123.76
  Q 208.03 123.39 207.92 123.03
  Q 207.53 121.68 208.84 122.56
  Q 209.17 122.79 209.39 123.19
  Q 210.21 124.73 211.07 126.25
  A 0.34 0.34 49.4 0 0 211.63 126.29
  Z"
/>
<path fill="none" stroke-width="1.00" stroke="#d9d9d9" vector-effect="non-scaling-stroke" d="
  M 125.04 130.33
  Q 126.65 130.76 128.27 130.38
  A 1.25 0.89 -27.4 0 1 129.19 130.51
  Q 129.97 131.08 128.96 131.56
  A 1.64 1.08 28.5 0 1 128.02 131.64
  Q 126.13 131.24 124.40 131.64
  A 1.04 0.97 84.3 0 1 123.22 130.60
  L 123.29 123.25
  A 0.67 0.56 85.2 0 1 123.73 122.63
  Q 126.29 122.07 128.78 122.84
  Q 129.29 123.00 128.82 123.25
  Q 127.20 124.14 125.24 123.84
  A 0.62 0.57 13.0 0 0 124.57 124.22
  Q 123.90 126.25 126.18 126.11
  A 0.84 0.68 -12.1 0 1 126.94 126.50
  Q 127.52 127.75 125.47 127.15
  A 0.62 0.55 20.2 0 0 124.76 127.43
  Q 124.25 128.48 124.45 129.70
  A 0.81 0.79 2.4 0 0 125.04 130.33
  Z"
/>
<path fill="none" stroke-width="1.00" stroke="#d9d9d9" vector-effect="non-scaling-stroke" d="
  M 142.29 128.55
  Q 142.25 129.68 142.20 130.80
  Q 142.19 131.27 141.97 131.50
  Q 141.73 131.76 141.44 131.68
  A 0.76 0.51 -84.9 0 1 141.06 130.99
  L 140.94 123.18
  A 0.57 0.55 86.6 0 1 141.42 122.62
  Q 142.92 122.43 144.43 122.47
  Q 146.13 122.51 147.17 123.42
  Q 149.43 125.40 146.57 127.45
  A 1.07 1.07 -32.0 0 0 146.25 128.83
  Q 148.09 132.23 146.97 131.83
  A 2.75 2.75 0.7 0 1 145.27 130.09
  Q 144.49 127.69 142.80 127.94
  A 0.65 0.61 86.8 0 0 142.29 128.55
  Z
  M 145.81 123.94
  Q 144.51 123.03 142.78 123.63
  A 0.95 0.93 88.5 0 0 142.17 124.29
  Q 141.45 127.20 144.31 126.91
  Q 145.35 126.80 146.07 126.26
  Q 147.54 125.15 145.81 123.94
  Z"
/>
<path fill="none" stroke-width="1.00" stroke="#d9d9d9" vector-effect="non-scaling-stroke" d="
  M 194.05 124.31
  Q 193.96 127.40 193.99 130.50
  Q 194.00 132.39 193.06 131.38
  A 1.41 1.11 -71.1 0 1 192.75 130.50
  Q 192.75 128.29 192.75 126.08
  Q 192.75 126.01 192.85 124.92
  Q 193.00 123.37 191.25 123.65
  A 1.48 0.97 -23.5 0 1 190.32 123.49
  Q 189.23 122.76 191.01 122.65
  Q 193.50 122.50 195.99 122.68
  Q 197.67 122.80 196.68 123.49
  A 1.82 0.91 11.4 0 1 195.75 123.74
  L 194.56 123.77
  A 0.55 0.53 89.5 0 0 194.05 124.31
  Z"
/>
<path fill="none" stroke-width="1.00" stroke="#d9d9d9" vector-effect="non-scaling-stroke" d="
  M 145.81 123.94
  Q 147.54 125.15 146.07 126.26
  Q 145.35 126.80 144.31 126.91
  Q 141.45 127.20 142.17 124.29
  A 0.95 0.93 88.5 0 1 142.78 123.63
  Q 144.51 123.03 145.81 123.94
  Z"
/>
</svg>
