<?xml version="1.0" encoding="UTF-8" standalone="no"?>
<svg width="14px" height="14px" viewBox="0 0 14 14" version="1.1" xmlns="http://www.w3.org/2000/svg" xmlns:xlink="http://www.w3.org/1999/xlink">
    <!-- Generator: Sketch 43.2 (39069) - http://www.bohemiancoding.com/sketch -->
    <title>Instagram</title>
    <desc>Created with Sketch.</desc>
    <defs></defs>
    <g id="Page-1" stroke="none" stroke-width="1" fill="none" fill-rule="evenodd">
        <g id="Desktop-HD" transform="translate(-649.000000, -959.000000)" fill-rule="nonzero" fill="#D9D9D9">
            <g id="Media" transform="translate(649.000000, 927.000000)">
                <path d="M9.14681273,38.8575625 C9.14681273,37.5985625 8.11944767,36.5715625 6.86000013,36.5715625 C5.6005526,36.5715625 4.57318754,37.5985625 4.57318754,38.8575625 C4.57318754,40.1165625 5.6005526,41.1435625 6.86000013,41.1435625 C8.11944767,41.1435625 9.14681273,40.1165625 9.14681273,38.8575625 Z M10.3792507,38.8575625 C10.3792507,40.8035625 8.80769223,42.3755625 6.86000013,42.3755625 C4.91230804,42.3755625 3.3407496,40.8045625 3.3407496,38.8575625 C3.3407496,36.9105625 4.91230804,35.3395625 6.86000013,35.3395625 C8.80769223,35.3395625 10.3792507,36.9105625 10.3792507,38.8575625 Z M11.3435933,35.1965625 C11.3435933,35.6515625 10.9774632,36.0175625 10.5223015,36.0175625 C10.0671398,36.0175625 9.70100966,35.6515625 9.70100966,35.1965625 C9.70100966,34.7415625 10.0671398,34.3755625 10.5223015,34.3755625 C10.9774632,34.3755625 11.3435933,34.7415625 11.3435933,35.1965625 Z M6.86000013,33.2325625 C5.85964467,33.2325625 3.7158829,33.1525625 2.81356227,33.5095625 C2.50045101,33.6345625 2.26836854,33.7865625 2.02728288,34.0275625 C1.78619721,34.2685625 1.63414318,34.5005625 1.50909874,34.8135625 C1.15197184,35.7155625 1.23200028,37.8585625 1.23200028,38.8585625 C1.23200028,39.8585625 1.15197184,42.0015625 1.50909874,42.9035625 C1.63414318,43.2165625 1.78619721,43.4485625 2.02728288,43.6895625 C2.26836854,43.9305625 2.50045101,44.0825625 2.81356227,44.2075625 C3.7158829,44.5645625 5.85964467,44.4845625 6.86000013,44.4845625 C7.8603556,44.4845625 10.0041174,44.5645625 10.906438,44.2075625 C11.2195493,44.0825625 11.4516317,43.9305625 11.6927174,43.6895625 C11.9338031,43.4485625 12.0858571,43.2165625 12.2109015,42.9035625 C12.5680284,42.0015625 12.488,39.8585625 12.488,38.8585625 C12.488,37.8585625 12.5680284,35.7155625 12.2109015,34.8135625 C12.0858571,34.5005625 11.9338031,34.2685625 11.6927174,34.0275625 C11.4516317,33.7865625 11.2195493,33.6345625 10.906438,33.5095625 C10.0041174,33.1525625 7.8603556,33.2325625 6.86000013,33.2325625 L6.86000013,33.2325625 Z M13.7194376,38.8575625 C13.7194376,39.8035625 13.7284408,40.7415625 13.6744216,41.6875625 C13.6204024,42.7855625 13.3703135,43.7585625 12.5670281,44.5625625 C11.7637426,45.3665625 10.7893964,45.6165625 9.6910061,45.6695625 C8.74466983,45.7235625 7.8063364,45.7145625 6.86000013,45.7145625 C5.91366386,45.7145625 4.97533043,45.7235625 4.02899416,45.6695625 C2.93060386,45.6155625 1.95725799,45.3655625 1.1529722,44.5625625 C0.348686402,43.7595625 0.0985975357,42.7855625 0.0455786959,41.6875625 C-0.00844049925,40.7415625 0.00056269995,39.8035625 0.00056269995,38.8575625 C0.00056269995,37.9115625 -0.00844049925,36.9735625 0.0455786959,36.0275625 C0.0995978911,34.9295625 0.349686758,33.9565625 1.1529722,33.1525625 C1.95625764,32.3485625 2.93060386,32.0985625 4.02899416,32.0455625 C4.97533043,31.9915625 5.91366386,32.0005625 6.86000013,32.0005625 C7.8063364,32.0005625 8.74466983,31.9915625 9.6910061,32.0455625 C10.7893964,32.0995625 11.7627423,32.3495625 12.5670281,33.1525625 C13.3713139,33.9555625 13.6214027,34.9295625 13.6744216,36.0275625 C13.7284408,36.9735625 13.7194376,37.9115625 13.7194376,38.8575625 Z" id="Instagram"></path>
            </g>
        </g>
    </g>
</svg>