<?xml version="1.0" encoding="UTF-8" standalone="no"?>
<!DOCTYPE svg PUBLIC "-//W3C//DTD SVG 1.1//EN" "http://www.w3.org/Graphics/SVG/1.1/DTD/svg11.dtd">
<svg xmlns="http://www.w3.org/2000/svg" version="1.1" viewBox="200 0 1200 1067" height="108px">
<path fill="none" stroke-width="1.00" stroke="#d9d9d9" vector-effect="non-scaling-stroke" d="
  M 551.94 792.81
  Q 522.93 760.27 502.63 730.10
  Q 470.24 681.97 450.25 627.50
  Q 427.14 564.52 424.96 495.00
  Q 424.75 488.46 424.75 475.00
  Q 424.75 291.25 424.75 107.31
  A 0.56 0.56 0.0 0 1 425.31 106.75
  L 1174.73 106.75
  A 0.52 0.52 -90.0 0 1 1175.25 107.27
  Q 1175.76 251.39 1175.28 395.76
  Q 1175.26 404.40 1175.34 415.75
  Q 1175.50 439.76 1175.32 463.77
  Q 1175.32 463.94 1175.33 480.73
  Q 1175.40 584.41 1128.31 677.31
  Q 1118.34 696.98 1108.31 713.10
  Q 1067.35 778.88 1010.44 831.45
  Q 947.36 889.73 872.09 931.11
  Q 851.93 942.18 829.25 951.75
  Q 818.55 956.26 808.37 959.28
  Q 805.24 960.20 801.87 960.24
  Q 799.66 960.27 797.45 960.26
  Q 795.23 960.26 793.13 959.64
  Q 778.35 955.33 763.44 948.56
  Q 750.52 942.70 741.62 938.09
  Q 663.42 897.57 597.19 838.06
  Q 572.51 815.89 551.94 792.81
  Z
  M 593.44 815.06
  Q 653.59 871.82 722.62 911.68
  Q 743.27 923.60 764.87 933.71
  Q 780.40 940.97 796.80 945.99
  Q 800.13 947.01 803.46 946.01
  Q 815.23 942.45 826.51 937.53
  Q 848.43 927.99 869.29 916.32
  Q 942.91 875.13 1004.38 817.37
  Q 1032.55 790.91 1056.99 760.98
  Q 1086.16 725.26 1108.43 684.88
  Q 1157.55 595.78 1160.79 493.74
  Q 1161.25 479.32 1161.25 450.50
  Q 1161.25 286.37 1161.25 121.71
  A 0.65 0.65 0.0 0 0 1160.60 121.06
  L 439.82 121.31
  A 0.51 0.50 -0.0 0 0 439.31 121.81
  Q 439.21 216.53 439.25 311.24
  Q 439.25 320.03 439.15 331.25
  Q 438.83 369.00 439.15 406.75
  Q 439.24 417.16 439.18 426.75
  Q 438.79 487.47 439.50 501.75
  Q 442.52 562.88 461.81 617.44
  Q 478.24 663.90 502.81 703.94
  Q 540.17 764.80 593.44 815.06
  Z"
/>
<path fill="none" stroke-width="1.00" stroke="#d9d9d9" vector-effect="non-scaling-stroke" d="
  M 593.44 815.06
  Q 540.17 764.80 502.81 703.94
  Q 478.24 663.90 461.81 617.44
  Q 442.52 562.88 439.50 501.75
  Q 438.79 487.47 439.18 426.75
  Q 439.24 417.16 439.15 406.75
  Q 438.83 369.00 439.15 331.25
  Q 439.25 320.03 439.25 311.24
  Q 439.21 216.53 439.31 121.81
  A 0.51 0.50 -0.0 0 1 439.82 121.31
  L 1160.60 121.06
  A 0.65 0.65 -0.0 0 1 1161.25 121.71
  Q 1161.25 286.37 1161.25 450.50
  Q 1161.25 479.32 1160.79 493.74
  Q 1157.55 595.78 1108.43 684.88
  Q 1086.16 725.26 1056.99 760.98
  Q 1032.55 790.91 1004.38 817.37
  Q 942.91 875.13 869.29 916.32
  Q 848.43 927.99 826.51 937.53
  Q 815.23 942.45 803.46 946.01
  Q 800.13 947.01 796.80 945.99
  Q 780.40 940.97 764.87 933.71
  Q 743.27 923.60 722.62 911.68
  Q 653.59 871.82 593.44 815.06
  Z
  M 1151.00 131.52
  A 0.26 0.26 0.0 0 0 1150.74 131.26
  L 449.52 131.26
  A 0.26 0.26 0.0 0 0 449.26 131.52
  L 449.26 337.74
  A 0.26 0.26 0.0 0 0 449.52 338.00
  L 1150.74 338.00
  A 0.26 0.26 0.0 0 0 1151.00 337.74
  L 1151.00 131.52
  Z
  M 800.44 357.81
  L 1110.37 656.72
  A 0.59 0.59 -55.0 0 0 1111.32 656.55
  Q 1151.08 573.05 1151.03 480.25
  Q 1151.00 414.50 1151.00 348.56
  A 0.56 0.56 90.0 0 0 1150.44 348.00
  L 450.12 348.00
  A 0.87 0.87 0.0 0 0 449.25 348.87
  Q 449.25 407.71 449.25 466.01
  Q 449.25 485.69 449.25 485.99
  Q 450.33 575.31 488.97 656.65
  A 0.40 0.40 55.4 0 0 489.61 656.77
  L 799.81 357.81
  A 0.46 0.45 -44.5 0 1 800.44 357.81
  Z
  M 861.79 491.64
  A 61.68 61.68 0.0 0 0 800.11 429.96
  A 61.68 61.68 0.0 0 0 738.43 491.64
  A 61.68 61.68 0.0 0 0 800.11 553.32
  A 61.68 61.68 0.0 0 0 861.79 491.64
  Z
  M 693.84 645.01
  A 61.70 61.70 0.0 0 0 632.14 583.31
  A 61.70 61.70 0.0 0 0 570.44 645.01
  A 61.70 61.70 0.0 0 0 632.14 706.71
  A 61.70 61.70 0.0 0 0 693.84 645.01
  Z
  M 1029.78 645.01
  A 61.70 61.70 0.0 0 0 968.08 583.31
  A 61.70 61.70 0.0 0 0 906.38 645.01
  A 61.70 61.70 0.0 0 0 968.08 706.71
  A 61.70 61.70 0.0 0 0 1029.78 645.01
  Z
  M 747.33 652.83
  Q 674.70 729.95 601.48 807.68
  A 0.86 0.86 0.0 0 0 601.52 808.90
  Q 667.43 871.25 747.32 913.77
  Q 772.15 926.99 798.96 935.99
  A 3.73 3.71 -44.4 0 0 801.25 936.01
  Q 812.74 932.40 824.30 927.30
  Q 846.14 917.66 866.95 905.96
  Q 938.98 865.48 998.88 808.60
  A 0.51 0.50 -43.4 0 0 998.91 807.89
  L 800.79 597.64
  A 0.89 0.88 45.2 0 0 799.51 597.63
  Q 773.52 625.02 747.33 652.83
  Z"
/>
<path fill="none" stroke-width="1.00" stroke="#d9d9d9" vector-effect="non-scaling-stroke" d="
  M 1151.00 337.74
  A 0.26 0.26 0.0 0 1 1150.74 338.00
  L 449.52 338.00
  A 0.26 0.26 0.0 0 1 449.26 337.74
  L 449.26 131.52
  A 0.26 0.26 0.0 0 1 449.52 131.26
  L 1150.74 131.26
  A 0.26 0.26 0.0 0 1 1151.00 131.52
  L 1151.00 337.74
  Z
  M 472.99 258.06
  Q 473.00 259.96 471.54 261.11
  Q 469.94 262.36 468.50 263.69
  Q 466.90 265.15 466.23 266.86
  Q 463.21 274.49 470.53 279.45
  Q 473.13 281.21 472.85 284.26
  Q 472.73 285.62 472.73 285.74
  Q 472.59 291.50 472.99 297.18
  A 0.35 0.35 87.3 0 0 473.34 297.50
  L 632.75 297.50
  A 0.50 0.50 0.0 0 0 633.25 297.00
  L 633.25 283.25
  A 3.36 3.33 67.3 0 1 634.19 280.92
  Q 635.50 279.57 637.14 278.19
  Q 639.00 276.62 639.70 275.22
  Q 642.31 270.04 639.07 265.26
  Q 638.40 264.28 636.48 262.68
  Q 635.07 261.50 633.83 260.12
  A 1.30 1.25 24.5 0 1 633.49 259.26
  L 633.26 216.29
  Q 633.25 213.98 635.07 212.44
  Q 635.99 211.66 637.36 210.48
  Q 638.71 209.32 639.36 208.26
  Q 641.99 203.97 639.99 199.43
  Q 639.28 197.81 637.69 196.28
  Q 636.24 194.90 634.65 193.75
  Q 633.25 192.74 633.25 191.01
  L 633.25 176.69
  A 0.70 0.70 -0.4 0 0 632.54 175.99
  Q 626.37 176.11 620.49 175.94
  Q 613.41 175.73 606.89 173.02
  Q 604.98 172.22 597.06 167.44
  Q 584.81 160.03 570.14 165.31
  Q 563.89 167.56 557.67 169.88
  Q 552.92 171.66 549.06 170.19
  Q 543.33 168.01 537.63 165.77
  Q 521.65 159.48 507.31 168.56
  Q 502.46 171.63 498.30 173.38
  Q 494.35 175.03 488.45 175.51
  Q 481.45 176.08 473.71 175.98
  A 0.95 0.95 0.3 0 0 472.75 176.93
  L 472.75 191.48
  A 2.15 2.14 -20.9 0 1 472.03 193.08
  Q 470.20 194.70 468.35 196.59
  Q 464.10 200.91 465.76 206.06
  Q 466.38 207.99 468.67 210.25
  Q 470.52 212.08 472.34 213.95
  A 1.26 1.24 -67.0 0 1 472.68 214.81
  L 472.99 258.06
  Z
  M 694.63 182.17
  Q 694.25 181.50 693.44 180.06
  Q 691.70 176.99 689.09 179.35
  Q 683.26 184.59 678.79 190.92
  Q 675.53 195.52 670.77 204.06
  Q 660.66 222.22 656.50 241.75
  Q 655.59 246.02 656.09 251.05
  Q 656.45 254.56 657.73 256.70
  Q 659.28 259.30 662.00 260.99
  Q 665.15 262.96 665.31 265.99
  Q 665.42 268.02 663.33 270.91
  Q 661.09 273.99 658.84 277.05
  Q 656.36 280.44 655.94 283.14
  Q 654.73 290.87 662.55 294.89
  Q 664.09 295.68 665.62 296.47
  A 1.09 1.06 -84.2 0 1 666.18 297.18
  Q 668.36 306.01 675.83 309.12
  Q 679.83 310.78 686.35 310.59
  Q 692.22 310.43 697.00 309.00
  Q 716.97 303.04 732.51 287.26
  Q 738.65 281.02 740.92 270.56
  A 1.60 1.59 84.9 0 1 741.85 269.44
  Q 743.70 268.66 745.76 268.05
  Q 747.72 267.46 749.81 267.27
  Q 759.34 266.37 768.57 269.15
  Q 780.41 272.72 791.35 278.47
  Q 808.49 287.48 825.80 296.15
  Q 836.86 301.69 848.43 306.08
  Q 856.32 309.07 864.52 310.82
  Q 873.62 312.76 881.05 313.26
  Q 904.41 314.85 923.69 301.44
  Q 937.18 292.05 942.10 276.87
  Q 944.88 268.32 944.46 257.89
  Q 944.08 248.21 941.26 238.79
  Q 937.21 225.24 936.50 219.00
  Q 935.48 210.00 937.83 201.27
  Q 939.54 194.96 942.20 187.76
  Q 943.26 184.90 940.25 184.41
  Q 933.13 183.24 925.31 185.47
  Q 913.53 188.82 908.60 200.01
  Q 904.34 209.66 904.52 221.48
  A 1.10 1.10 84.0 0 1 903.64 222.57
  Q 893.84 224.54 887.29 230.79
  Q 879.87 237.86 880.00 248.25
  Q 880.09 256.61 883.50 265.00
  Q 884.93 268.52 887.20 267.04
  Q 888.01 266.51 889.32 264.52
  Q 892.61 259.52 897.28 255.91
  Q 900.84 253.17 903.84 252.77
  Q 907.98 252.22 911.31 255.19
  Q 916.27 259.61 915.55 267.00
  Q 914.91 273.52 909.69 276.94
  Q 903.51 280.98 895.76 280.57
  Q 885.88 280.05 877.75 275.08
  Q 875.23 273.54 868.95 268.69
  Q 864.67 265.38 860.60 261.73
  A 2.33 2.33 29.4 0 1 859.92 259.29
  Q 864.32 244.97 852.13 238.28
  A 1.42 1.41 -67.3 0 1 851.46 236.62
  Q 852.55 233.09 852.52 229.53
  Q 852.48 225.77 850.54 223.46
  Q 848.43 220.96 844.81 219.77
  A 1.75 1.75 15.2 0 1 843.64 217.73
  Q 844.96 211.83 842.01 207.88
  Q 840.10 205.33 836.69 204.19
  Q 833.52 203.12 830.00 203.50
  A 0.92 0.92 88.4 0 1 828.98 202.53
  Q 829.60 191.35 821.08 186.88
  Q 818.08 185.31 814.18 184.91
  Q 810.64 184.55 806.91 185.04
  A 1.01 1.01 85.4 0 1 805.77 184.07
  Q 805.63 179.18 803.02 176.10
  Q 800.56 173.21 796.16 172.22
  Q 790.79 171.02 784.87 173.53
  A 1.29 1.28 67.9 0 1 783.17 172.81
  Q 780.26 165.30 773.15 163.68
  Q 768.52 162.62 763.01 164.59
  Q 758.06 166.37 753.90 169.74
  A 1.21 1.20 47.1 0 1 752.31 169.68
  Q 749.30 166.82 745.71 165.13
  Q 741.83 163.31 738.05 163.47
  Q 730.96 163.77 726.04 170.21
  A 1.03 1.02 -54.1 0 1 724.66 170.44
  Q 719.92 167.27 714.94 167.03
  Q 710.17 166.80 705.56 169.74
  Q 698.93 173.98 696.24 182.02
  Q 695.61 183.91 694.63 182.17
  Z
  M 965.02 194.17
  Q 963.63 195.19 962.13 196.69
  Q 960.60 198.21 960.01 199.80
  Q 958.26 204.60 961.63 208.91
  Q 963.44 211.21 965.83 212.95
  A 2.91 2.81 -72.6 0 1 967.00 215.30
  L 966.76 259.03
  A 2.14 2.04 69.5 0 1 966.10 260.57
  Q 964.64 261.92 963.35 263.02
  Q 961.57 264.54 960.87 265.67
  Q 958.45 269.58 959.94 273.95
  Q 960.57 275.78 962.33 277.48
  Q 963.79 278.89 965.57 280.35
  Q 967.00 281.54 967.00 283.39
  L 967.00 296.98
  A 0.52 0.52 0.0 0 0 967.52 297.50
  L 1127.00 297.50
  A 0.50 0.50 0.0 0 0 1127.50 297.00
  L 1127.50 282.72
  A 2.90 2.87 -19.4 0 1 1128.60 280.46
  Q 1130.22 279.17 1131.59 277.89
  Q 1133.23 276.36 1133.95 274.76
  Q 1135.92 270.38 1133.68 266.18
  Q 1132.95 264.80 1131.00 263.09
  Q 1129.43 261.72 1127.92 260.28
  A 1.16 1.15 -68.6 0 1 1127.56 259.44
  L 1127.50 215.87
  Q 1127.49 213.44 1129.49 212.03
  Q 1135.52 207.79 1134.71 201.62
  Q 1134.41 199.36 1132.82 197.36
  Q 1131.20 195.32 1129.28 194.13
  Q 1127.25 192.88 1127.23 190.36
  L 1127.09 176.43
  A 0.51 0.48 -1.7 0 0 1126.56 175.96
  Q 1113.27 176.42 1106.75 175.00
  Q 1100.24 173.58 1095.56 170.19
  Q 1084.14 161.91 1071.06 163.71
  Q 1067.75 164.16 1060.78 166.67
  Q 1055.73 168.49 1050.61 170.15
  Q 1048.36 170.88 1046.80 170.83
  Q 1044.82 170.76 1042.93 170.09
  Q 1036.97 167.97 1031.08 165.66
  Q 1018.66 160.79 1006.97 165.67
  Q 1004.84 166.56 1000.34 169.28
  Q 995.30 172.33 993.75 173.00
  Q 989.08 175.02 984.00 175.46
  Q 976.01 176.15 967.65 175.99
  A 0.96 0.93 89.7 0 0 966.71 176.97
  L 966.99 190.34
  Q 967.04 192.70 965.02 194.17
  Z"
/>
<path fill="none" stroke-width="1.00" stroke="#d9d9d9" vector-effect="non-scaling-stroke" d="
  M 472.99 258.06
  L 472.68 214.81
  A 1.26 1.24 -67.0 0 0 472.34 213.95
  Q 470.52 212.08 468.67 210.25
  Q 466.38 207.99 465.76 206.06
  Q 464.10 200.91 468.35 196.59
  Q 470.20 194.70 472.03 193.08
  A 2.15 2.14 -20.9 0 0 472.75 191.48
  L 472.75 176.93
  A 0.95 0.95 0.3 0 1 473.71 175.98
  Q 481.45 176.08 488.45 175.51
  Q 494.35 175.03 498.30 173.38
  Q 502.46 171.63 507.31 168.56
  Q 521.65 159.48 537.63 165.77
  Q 543.33 168.01 549.06 170.19
  Q 552.92 171.66 557.67 169.88
  Q 563.89 167.56 570.14 165.31
  Q 584.81 160.03 597.06 167.44
  Q 604.98 172.22 606.89 173.02
  Q 613.41 175.73 620.49 175.94
  Q 626.37 176.11 632.54 175.99
  A 0.70 0.70 -0.4 0 1 633.25 176.69
  L 633.25 191.01
  Q 633.25 192.74 634.65 193.75
  Q 636.24 194.90 637.69 196.28
  Q 639.28 197.81 639.99 199.43
  Q 641.99 203.97 639.36 208.26
  Q 638.71 209.32 637.36 210.48
  Q 635.99 211.66 635.07 212.44
  Q 633.25 213.98 633.26 216.29
  L 633.49 259.26
  A 1.30 1.25 24.5 0 0 633.83 260.12
  Q 635.07 261.50 636.48 262.68
  Q 638.40 264.28 639.07 265.26
  Q 642.31 270.04 639.70 275.22
  Q 639.00 276.62 637.14 278.19
  Q 635.50 279.57 634.19 280.92
  A 3.36 3.33 67.3 0 0 633.25 283.25
  L 633.25 297.00
  A 0.50 0.50 0.0 0 1 632.75 297.50
  L 473.34 297.50
  A 0.35 0.35 87.3 0 1 472.99 297.18
  Q 472.59 291.50 472.73 285.74
  Q 472.73 285.62 472.85 284.26
  Q 473.13 281.21 470.53 279.45
  Q 463.21 274.49 466.23 266.86
  Q 466.90 265.15 468.50 263.69
  Q 469.94 262.36 471.54 261.11
  Q 473.00 259.96 472.99 258.06
  Z
  M 494.27 217.44
  Q 494.23 244.56 494.31 271.68
  A 0.49 0.49 -1.1 0 0 494.82 272.17
  Q 503.21 271.85 511.60 271.63
  Q 518.05 271.46 521.84 270.76
  Q 526.93 269.83 531.84 268.14
  Q 540.40 265.20 550.09 263.06
  A 0.51 0.51 84.5 0 0 550.50 262.56
  L 550.50 176.56
  A 0.77 0.77 9.6 0 0 549.98 175.83
  Q 540.85 172.70 532.19 169.56
  Q 523.26 166.33 513.65 171.23
  Q 508.44 173.89 503.37 176.82
  Q 499.25 179.20 494.90 180.00
  A 0.81 0.79 84.8 0 0 494.25 180.79
  Q 494.30 199.72 494.27 217.44
  Z
  M 555.98 263.09
  Q 568.44 266.04 579.85 269.72
  Q 582.20 270.47 584.36 270.84
  Q 588.08 271.47 589.00 271.50
  Q 600.22 271.82 611.45 272.17
  A 0.49 0.47 -88.9 0 0 611.94 271.68
  L 612.00 181.03
  A 0.93 0.92 7.3 0 0 611.30 180.14
  Q 604.87 178.50 599.81 175.16
  Q 594.40 171.57 589.50 169.75
  Q 583.52 167.53 576.75 169.01
  Q 570.53 170.37 564.64 172.82
  Q 560.64 174.48 556.24 175.83
  A 0.69 0.69 -8.6 0 0 555.75 176.49
  L 555.75 262.79
  A 0.31 0.31 -82.8 0 0 555.98 263.09
  Z
  M 634.37 274.82
  Q 637.60 272.33 636.25 268.75
  Q 635.29 266.21 631.75 264.46
  Q 631.22 264.09 630.96 263.50
  L 629.04 260.25
  Q 628.55 239.95 628.74 219.64
  Q 628.74 219.52 628.62 216.88
  Q 628.38 211.09 633.25 208.00
  Q 636.61 205.87 636.16 202.57
  Q 635.95 201.05 634.40 199.53
  Q 632.84 198.00 631.69 197.06
  Q 630.00 195.68 629.26 193.87
  Q 628.75 192.65 628.75 190.04
  Q 628.75 186.01 628.75 181.92
  A 0.65 0.65 0.9 0 0 628.12 181.27
  L 617.77 181.00
  A 0.50 0.50 1.1 0 0 617.25 181.50
  L 617.25 279.72
  A 1.10 1.09 0.0 0 1 616.15 280.81
  L 562.57 280.81
  A 0.72 0.71 -80.1 0 0 561.90 281.29
  Q 560.66 284.68 557.82 286.33
  Q 554.90 288.02 551.47 287.39
  Q 546.70 286.51 544.25 281.21
  A 0.79 0.79 -12.2 0 0 543.53 280.75
  L 489.49 280.75
  A 0.43 0.42 -0.0 0 1 489.06 280.33
  L 489.00 181.36
  A 0.47 0.46 -1.2 0 0 488.51 180.90
  L 478.17 181.25
  A 0.70 0.68 -1.3 0 0 477.50 181.93
  Q 477.50 185.37 477.69 188.49
  Q 478.10 195.12 472.75 198.78
  Q 468.37 201.79 470.66 205.64
  Q 471.17 206.51 473.38 208.30
  Q 474.91 209.55 476.03 211.15
  Q 477.25 212.89 477.30 215.69
  Q 477.64 233.43 477.53 251.17
  Q 477.48 258.80 477.38 259.30
  Q 476.50 263.48 472.31 266.31
  Q 469.07 268.50 470.01 271.78
  Q 470.48 273.40 472.68 275.23
  Q 475.32 277.42 475.94 278.31
  Q 477.76 280.97 477.56 284.25
  Q 477.33 288.14 477.70 292.00
  A 0.54 0.53 86.5 0 0 478.24 292.49
  Q 515.95 292.03 553.66 292.41
  Q 560.00 292.47 570.33 292.30
  Q 578.66 292.15 587.00 292.27
  Q 597.58 292.42 607.00 292.29
  Q 617.39 292.14 628.09 292.32
  A 0.65 0.65 0.4 0 0 628.75 291.67
  Q 628.75 288.75 628.53 285.52
  Q 628.03 278.26 634.37 274.82
  Z"
/>
<path fill="none" stroke-width="1.00" stroke="#d9d9d9" vector-effect="non-scaling-stroke" d="
  M 694.63 182.17
  Q 695.61 183.91 696.24 182.02
  Q 698.93 173.98 705.56 169.74
  Q 710.17 166.80 714.94 167.03
  Q 719.92 167.27 724.66 170.44
  A 1.03 1.02 -54.1 0 0 726.04 170.21
  Q 730.96 163.77 738.05 163.47
  Q 741.83 163.31 745.71 165.13
  Q 749.30 166.82 752.31 169.68
  A 1.21 1.20 47.1 0 0 753.90 169.74
  Q 758.06 166.37 763.01 164.59
  Q 768.52 162.62 773.15 163.68
  Q 780.26 165.30 783.17 172.81
  A 1.29 1.28 67.9 0 0 784.87 173.53
  Q 790.79 171.02 796.16 172.22
  Q 800.56 173.21 803.02 176.10
  Q 805.63 179.18 805.77 184.07
  A 1.01 1.01 85.4 0 0 806.91 185.04
  Q 810.64 184.55 814.18 184.91
  Q 818.08 185.31 821.08 186.88
  Q 829.60 191.35 828.98 202.53
  A 0.92 0.92 88.4 0 0 830.00 203.50
  Q 833.52 203.12 836.69 204.19
  Q 840.10 205.33 842.01 207.88
  Q 844.96 211.83 843.64 217.73
  A 1.75 1.75 15.2 0 0 844.81 219.77
  Q 848.43 220.96 850.54 223.46
  Q 852.48 225.77 852.52 229.53
  Q 852.55 233.09 851.46 236.62
  A 1.42 1.41 -67.3 0 0 852.13 238.28
  Q 864.32 244.97 859.92 259.29
  A 2.33 2.33 29.4 0 0 860.60 261.73
  Q 864.67 265.38 868.95 268.69
  Q 875.23 273.54 877.75 275.08
  Q 885.88 280.05 895.76 280.57
  Q 903.51 280.98 909.69 276.94
  Q 914.91 273.52 915.55 267.00
  Q 916.27 259.61 911.31 255.19
  Q 907.98 252.22 903.84 252.77
  Q 900.84 253.17 897.28 255.91
  Q 892.61 259.52 889.32 264.52
  Q 888.01 266.51 887.20 267.04
  Q 884.93 268.52 883.50 265.00
  Q 880.09 256.61 880.00 248.25
  Q 879.87 237.86 887.29 230.79
  Q 893.84 224.54 903.64 222.57
  A 1.10 1.10 84.0 0 0 904.52 221.48
  Q 904.34 209.66 908.60 200.01
  Q 913.53 188.82 925.31 185.47
  Q 933.13 183.24 940.25 184.41
  Q 943.26 184.90 942.20 187.76
  Q 939.54 194.96 937.83 201.27
  Q 935.48 210.00 936.50 219.00
  Q 937.21 225.24 941.26 238.79
  Q 944.08 248.21 944.46 257.89
  Q 944.88 268.32 942.10 276.87
  Q 937.18 292.05 923.69 301.44
  Q 904.41 314.85 881.05 313.26
  Q 873.62 312.76 864.52 310.82
  Q 856.32 309.07 848.43 306.08
  Q 836.86 301.69 825.80 296.15
  Q 808.49 287.48 791.35 278.47
  Q 780.41 272.72 768.57 269.15
  Q 759.34 266.37 749.81 267.27
  Q 747.72 267.46 745.76 268.05
  Q 743.70 268.66 741.85 269.44
  A 1.60 1.59 84.9 0 0 740.92 270.56
  Q 738.65 281.02 732.51 287.26
  Q 716.97 303.04 697.00 309.00
  Q 692.22 310.43 686.35 310.59
  Q 679.83 310.78 675.83 309.12
  Q 668.36 306.01 666.18 297.18
  A 1.09 1.06 -84.2 0 0 665.62 296.47
  Q 664.09 295.68 662.55 294.89
  Q 654.73 290.87 655.94 283.14
  Q 656.36 280.44 658.84 277.05
  Q 661.09 273.99 663.33 270.91
  Q 665.42 268.02 665.31 265.99
  Q 665.15 262.96 662.00 260.99
  Q 659.28 259.30 657.73 256.70
  Q 656.45 254.56 656.09 251.05
  Q 655.59 246.02 656.50 241.75
  Q 660.66 222.22 670.77 204.06
  Q 675.53 195.52 678.79 190.92
  Q 683.26 184.59 689.09 179.35
  Q 691.70 176.99 693.44 180.06
  Q 694.25 181.50 694.63 182.17
  Z
  M 781.98 179.60
  A 3.06 3.05 -88.5 0 1 780.06 177.57
  Q 776.84 166.46 767.64 167.81
  Q 764.46 168.28 760.65 170.47
  Q 757.32 172.39 754.50 174.90
  Q 752.64 176.55 751.01 174.67
  Q 748.51 171.77 745.44 169.92
  Q 741.87 167.77 738.61 167.74
  Q 734.01 167.71 730.70 171.68
  Q 729.02 173.68 727.68 175.95
  A 1.49 1.48 34.9 0 1 725.45 176.34
  Q 710.85 164.41 701.56 180.56
  Q 700.17 182.98 699.16 186.67
  Q 698.67 188.43 699.19 189.81
  Q 699.78 191.36 700.91 192.63
  A 0.68 0.66 -33.4 0 0 701.70 192.78
  Q 732.01 178.17 764.94 183.56
  Q 778.31 185.75 790.11 192.54
  Q 797.34 196.71 805.98 204.62
  Q 815.48 213.31 823.77 223.22
  Q 838.72 241.10 855.43 257.06
  Q 855.99 257.59 856.15 256.84
  Q 858.66 244.99 847.87 241.37
  Q 845.89 240.71 846.49 238.70
  Q 847.61 234.95 848.17 230.24
  Q 848.67 226.08 844.91 224.64
  Q 842.03 223.54 839.87 222.92
  Q 837.85 222.34 838.48 220.34
  Q 839.46 217.24 839.47 214.69
  Q 839.51 208.44 833.24 207.82
  Q 830.20 207.52 827.23 208.15
  Q 823.57 208.92 824.24 205.25
  Q 824.67 202.84 824.64 200.41
  Q 824.61 197.72 823.77 195.70
  Q 821.81 190.98 816.75 189.75
  Q 811.15 188.38 804.26 190.03
  Q 801.35 190.73 800.88 188.57
  Q 800.73 187.91 801.19 185.60
  Q 802.03 181.30 799.38 178.66
  Q 797.23 176.52 793.45 176.27
  Q 788.58 175.96 784.24 178.76
  Q 782.60 179.82 781.98 179.60
  Z
  M 693.81 242.19
  Q 691.87 241.26 693.31 239.31
  Q 694.96 237.08 697.19 235.44
  Q 699.38 233.82 702.33 229.61
  Q 705.06 225.72 705.49 222.79
  Q 706.01 219.18 704.75 215.00
  Q 699.84 198.72 690.70 184.80
  A 0.55 0.54 -40.2 0 0 689.85 184.73
  Q 684.47 190.59 680.34 197.00
  Q 676.86 202.39 672.71 210.47
  Q 666.02 223.50 662.25 237.75
  Q 661.59 240.23 660.75 246.75
  Q 660.26 250.54 661.46 253.51
  Q 662.03 254.92 663.75 256.40
  Q 665.19 257.63 666.59 258.91
  Q 672.75 264.59 668.32 271.86
  Q 665.48 276.51 662.94 279.19
  Q 658.71 283.63 661.27 287.79
  Q 662.59 289.94 665.52 291.29
  Q 668.24 292.54 671.00 292.75
  Q 691.66 294.30 707.36 279.31
  A 2.93 2.92 -67.4 0 1 709.34 278.49
  Q 711.83 278.43 711.52 280.68
  Q 711.36 281.78 710.27 282.88
  Q 695.24 297.99 671.91 297.73
  A 0.52 0.51 76.7 0 0 671.45 298.49
  Q 675.13 305.61 682.50 305.90
  Q 690.27 306.21 697.62 303.72
  Q 715.59 297.64 728.91 284.16
  Q 734.11 278.90 736.04 271.59
  A 0.93 0.93 11.6 0 0 735.27 270.43
  Q 731.10 269.81 726.65 268.81
  Q 724.69 268.36 723.96 267.25
  Q 722.69 265.32 725.06 263.56
  Q 734.20 256.80 743.35 250.05
  A 0.53 0.53 54.7 0 0 743.47 249.33
  Q 735.58 237.65 733.06 234.69
  Q 728.96 229.87 722.75 228.48
  Q 716.24 227.03 710.81 230.81
  Q 708.17 232.66 697.07 241.79
  Q 695.57 243.03 693.81 242.19
  Z
  M 833.37 262.75
  Q 835.50 267.16 835.21 272.82
  Q 835.09 275.08 837.30 275.56
  Q 849.95 278.33 848.26 291.44
  A 1.02 0.99 80.2 0 1 847.75 292.19
  Q 844.11 294.20 844.35 289.76
  Q 844.74 282.30 838.61 280.50
  Q 837.25 280.10 835.90 279.64
  Q 831.46 278.13 831.21 274.68
  Q 830.99 271.80 830.63 268.94
  Q 830.18 265.42 829.19 263.76
  Q 827.54 260.97 824.44 260.56
  Q 820.61 260.06 816.99 261.25
  Q 813.44 262.42 813.75 258.70
  Q 814.09 254.79 812.94 251.02
  Q 811.03 244.75 804.49 243.82
  Q 799.16 243.05 797.00 243.75
  Q 792.64 245.16 792.75 240.75
  Q 792.88 235.48 789.60 231.77
  Q 786.58 228.37 782.50 227.73
  Q 778.27 227.07 773.94 229.69
  Q 766.29 234.31 758.69 229.97
  Q 758.66 229.95 755.52 227.79
  Q 744.83 220.44 737.82 232.01
  A 0.80 0.78 -46.4 0 0 737.83 232.85
  Q 742.75 240.53 749.29 248.62
  Q 750.78 250.45 748.92 251.81
  L 731.80 264.32
  Q 731.04 264.88 731.93 265.02
  L 737.27 265.88
  A 2.76 2.08 -44.8 0 0 738.65 265.69
  Q 747.80 261.89 756.83 262.30
  Q 763.22 262.59 774.48 266.15
  Q 784.79 269.41 794.42 274.49
  Q 799.78 277.32 802.44 278.81
  Q 823.07 290.38 844.87 299.56
  Q 860.85 306.30 876.81 308.19
  Q 884.98 309.15 893.60 308.16
  Q 900.85 307.33 907.26 304.86
  Q 914.08 302.22 919.81 298.31
  Q 938.47 285.58 939.83 263.93
  Q 940.25 257.16 938.44 247.67
  Q 936.90 239.62 934.45 231.77
  Q 927.81 210.45 936.64 189.66
  A 0.65 0.65 12.5 0 0 936.06 188.75
  Q 919.32 188.29 912.85 201.47
  Q 910.68 205.90 909.75 212.45
  Q 908.94 218.14 909.19 223.95
  Q 909.30 226.54 906.72 226.80
  Q 901.03 227.38 895.96 230.07
  Q 890.58 232.91 887.74 237.29
  Q 883.81 243.33 884.72 251.25
  Q 885.21 255.46 886.44 259.32
  Q 886.72 260.20 887.26 259.44
  Q 890.57 254.75 895.03 251.67
  Q 899.85 248.34 905.13 248.32
  Q 912.55 248.28 916.64 254.07
  Q 920.05 258.89 920.23 265.37
  Q 920.46 273.50 914.37 279.08
  Q 911.61 281.61 907.72 283.28
  Q 903.79 284.96 900.00 285.25
  Q 890.97 285.95 882.61 282.71
  Q 876.80 280.46 867.95 273.75
  Q 856.24 264.87 845.89 254.35
  Q 831.05 239.27 817.35 223.14
  Q 806.01 209.80 794.94 201.31
  Q 781.06 190.69 762.31 187.94
  Q 731.54 183.43 703.80 197.07
  A 0.82 0.81 63.7 0 0 703.43 198.17
  Q 708.72 208.68 710.50 220.00
  Q 710.82 222.03 710.18 224.95
  Q 710.07 225.43 710.53 225.26
  Q 723.27 220.44 733.85 228.68
  A 0.49 0.49 37.4 0 0 734.55 228.59
  Q 737.48 224.69 739.56 223.31
  Q 748.46 217.43 757.14 223.58
  Q 760.11 225.69 762.06 226.69
  Q 765.19 228.29 768.68 227.06
  Q 771.33 226.13 773.85 224.88
  Q 780.22 221.72 786.73 224.63
  Q 795.88 228.71 797.01 238.69
  A 0.56 0.55 86.0 0 0 797.57 239.18
  Q 804.45 239.02 806.75 239.75
  Q 817.89 243.28 818.26 255.45
  A 0.91 0.91 -5.7 0 0 819.33 256.32
  Q 823.99 255.52 827.75 257.16
  Q 831.44 258.76 833.37 262.75
  Z"
/>
<path fill="none" stroke-width="1.00" stroke="#d9d9d9" vector-effect="non-scaling-stroke" d="
  M 965.02 194.17
  Q 967.04 192.70 966.99 190.34
  L 966.71 176.97
  A 0.96 0.93 89.7 0 1 967.65 175.99
  Q 976.01 176.15 984.00 175.46
  Q 989.08 175.02 993.75 173.00
  Q 995.30 172.33 1000.34 169.28
  Q 1004.84 166.56 1006.97 165.67
  Q 1018.66 160.79 1031.08 165.66
  Q 1036.97 167.97 1042.93 170.09
  Q 1044.82 170.76 1046.80 170.83
  Q 1048.36 170.88 1050.61 170.15
  Q 1055.73 168.49 1060.78 166.67
  Q 1067.75 164.16 1071.06 163.71
  Q 1084.14 161.91 1095.56 170.19
  Q 1100.24 173.58 1106.75 175.00
  Q 1113.27 176.42 1126.56 175.96
  A 0.51 0.48 -1.7 0 1 1127.09 176.43
  L 1127.23 190.36
  Q 1127.25 192.88 1129.28 194.13
  Q 1131.20 195.32 1132.82 197.36
  Q 1134.41 199.36 1134.71 201.62
  Q 1135.52 207.79 1129.49 212.03
  Q 1127.49 213.44 1127.50 215.87
  L 1127.56 259.44
  A 1.16 1.15 -68.6 0 0 1127.92 260.28
  Q 1129.43 261.72 1131.00 263.09
  Q 1132.95 264.80 1133.68 266.18
  Q 1135.92 270.38 1133.95 274.76
  Q 1133.23 276.36 1131.59 277.89
  Q 1130.22 279.17 1128.60 280.46
  A 2.90 2.87 -19.4 0 0 1127.50 282.72
  L 1127.50 297.00
  A 0.50 0.50 0.0 0 1 1127.00 297.50
  L 967.52 297.50
  A 0.52 0.52 0.0 0 1 967.00 296.98
  L 967.00 283.39
  Q 967.00 281.54 965.57 280.35
  Q 963.79 278.89 962.33 277.48
  Q 960.57 275.78 959.94 273.95
  Q 958.45 269.58 960.87 265.67
  Q 961.57 264.54 963.35 263.02
  Q 964.64 261.92 966.10 260.57
  A 2.14 2.04 69.5 0 0 966.76 259.03
  L 967.00 215.30
  A 2.91 2.81 -72.6 0 0 965.83 212.95
  Q 963.44 211.21 961.63 208.91
  Q 958.26 204.60 960.01 199.80
  Q 960.60 198.21 962.13 196.69
  Q 963.63 195.19 965.02 194.17
  Z
  M 1044.29 175.82
  Q 1037.86 174.03 1032.12 171.72
  Q 1026.68 169.53 1022.94 168.81
  Q 1015.08 167.30 1007.65 171.22
  Q 1002.32 174.03 997.07 176.98
  Q 993.08 179.23 988.95 179.99
  A 0.86 0.85 -5.3 0 0 988.25 180.83
  L 988.31 271.68
  A 0.49 0.49 -1.1 0 0 988.82 272.17
  Q 996.67 271.82 1004.53 271.63
  Q 1012.51 271.44 1017.87 270.28
  Q 1024.45 268.85 1030.83 266.61
  Q 1037.15 264.39 1044.24 263.17
  A 0.62 0.62 85.0 0 0 1044.75 262.56
  L 1044.75 176.43
  A 0.63 0.63 -82.1 0 0 1044.29 175.82
  Z
  M 1051.17 263.39
  Q 1060.39 265.31 1069.25 268.50
  Q 1078.65 271.88 1090.43 271.85
  Q 1095.96 271.83 1098.07 271.92
  Q 1101.88 272.07 1105.69 272.17
  A 0.48 0.47 1.2 0 0 1106.19 271.70
  L 1106.25 181.07
  A 0.98 0.98 6.8 0 0 1105.50 180.12
  Q 1099.25 178.63 1094.29 175.44
  Q 1090.92 173.28 1087.35 171.47
  Q 1083.27 169.40 1079.86 168.86
  Q 1072.28 167.65 1064.69 170.69
  Q 1059.61 172.71 1050.28 175.90
  A 0.70 0.69 80.7 0 0 1049.81 176.56
  L 1049.81 262.68
  A 0.56 0.56 -86.6 0 0 1050.30 263.24
  Q 1050.74 263.30 1051.17 263.39
  Z
  M 968.19 208.81
  Q 969.64 209.89 970.67 211.98
  Q 971.44 213.52 971.45 215.80
  Q 971.54 236.56 971.50 257.32
  Q 971.50 260.06 970.85 261.58
  Q 969.91 263.79 968.06 265.06
  Q 959.78 270.77 967.99 276.52
  Q 972.09 279.39 971.71 284.52
  Q 971.50 287.37 971.50 291.39
  A 0.93 0.92 0.0 0 0 972.43 292.31
  Q 1028.94 292.31 1084.17 292.25
  Q 1086.36 292.25 1093.33 292.44
  Q 1097.92 292.57 1102.51 292.42
  Q 1112.22 292.11 1122.01 292.44
  A 0.72 0.72 0.8 0 0 1122.75 291.72
  Q 1122.75 288.12 1122.75 284.75
  Q 1122.75 281.29 1123.75 279.46
  Q 1125.05 277.06 1127.56 275.31
  Q 1131.70 272.42 1129.82 268.57
  Q 1129.27 267.44 1126.91 265.72
  Q 1123.65 263.34 1122.92 259.50
  Q 1122.75 258.63 1122.75 252.48
  Q 1122.75 235.17 1122.75 217.85
  Q 1122.75 214.23 1123.64 212.30
  Q 1124.88 209.61 1127.35 207.80
  Q 1129.22 206.43 1129.66 205.67
  Q 1130.55 204.16 1130.28 202.42
  Q 1130.03 200.87 1128.27 199.24
  Q 1126.84 197.91 1125.37 196.62
  Q 1122.95 194.50 1122.86 191.25
  Q 1122.75 187.25 1122.75 182.28
  A 1.03 1.01 1.2 0 0 1121.76 181.27
  L 1111.76 180.92
  A 0.50 0.49 0.6 0 0 1111.25 181.41
  L 1111.25 280.09
  A 0.66 0.66 0.1 0 1 1110.59 280.75
  L 1057.11 280.75
  A 1.37 1.37 -77.4 0 0 1055.87 281.54
  Q 1053.56 286.51 1049.00 287.37
  Q 1045.55 288.03 1042.69 286.41
  Q 1039.88 284.82 1038.25 281.24
  A 0.85 0.85 77.4 0 0 1037.48 280.75
  L 983.82 280.75
  A 0.57 0.57 -0.0 0 1 983.25 280.18
  L 983.06 181.48
  A 0.50 0.50 -1.1 0 0 982.54 180.98
  L 972.14 181.26
  A 0.66 0.65 -0.9 0 0 971.50 181.91
  Q 971.50 186.12 971.68 189.99
  Q 971.84 193.49 969.47 195.98
  Q 967.53 198.03 965.49 199.99
  Q 962.94 202.44 964.74 205.59
  Q 965.38 206.73 968.19 208.81
  Z"
/>
<path fill="none" stroke-width="1.00" stroke="#d9d9d9" vector-effect="non-scaling-stroke" d="
  M 781.98 179.60
  Q 782.60 179.82 784.24 178.76
  Q 788.58 175.96 793.45 176.27
  Q 797.23 176.52 799.38 178.66
  Q 802.03 181.30 801.19 185.60
  Q 800.73 187.91 800.88 188.57
  Q 801.35 190.73 804.26 190.03
  Q 811.15 188.38 816.75 189.75
  Q 821.81 190.98 823.77 195.70
  Q 824.61 197.72 824.64 200.41
  Q 824.67 202.84 824.24 205.25
  Q 823.57 208.92 827.23 208.15
  Q 830.20 207.52 833.24 207.82
  Q 839.51 208.44 839.47 214.69
  Q 839.46 217.24 838.48 220.34
  Q 837.85 222.34 839.87 222.92
  Q 842.03 223.54 844.91 224.64
  Q 848.67 226.08 848.17 230.24
  Q 847.61 234.95 846.49 238.70
  Q 845.89 240.71 847.87 241.37
  Q 858.66 244.99 856.15 256.84
  Q 855.99 257.59 855.43 257.06
  Q 838.72 241.10 823.77 223.22
  Q 815.48 213.31 805.98 204.62
  Q 797.34 196.71 790.11 192.54
  Q 778.31 185.75 764.94 183.56
  Q 732.01 178.17 701.70 192.78
  A 0.68 0.66 -33.4 0 1 700.91 192.63
  Q 699.78 191.36 699.19 189.81
  Q 698.67 188.43 699.16 186.67
  Q 700.17 182.98 701.56 180.56
  Q 710.85 164.41 725.45 176.34
  A 1.49 1.48 34.9 0 0 727.68 175.95
  Q 729.02 173.68 730.70 171.68
  Q 734.01 167.71 738.61 167.74
  Q 741.87 167.77 745.44 169.92
  Q 748.51 171.77 751.01 174.67
  Q 752.64 176.55 754.50 174.90
  Q 757.32 172.39 760.65 170.47
  Q 764.46 168.28 767.64 167.81
  Q 776.84 166.46 780.06 177.57
  A 3.06 3.05 -88.5 0 0 781.98 179.60
  Z"
/>
<path fill="none" stroke-width="1.00" stroke="#d9d9d9" vector-effect="non-scaling-stroke" d="
  M 494.27 217.44
  Q 494.30 199.72 494.25 180.79
  A 0.81 0.79 84.8 0 1 494.90 180.00
  Q 499.25 179.20 503.37 176.82
  Q 508.44 173.89 513.65 171.23
  Q 523.26 166.33 532.19 169.56
  Q 540.85 172.70 549.98 175.83
  A 0.77 0.77 9.6 0 1 550.50 176.56
  L 550.50 262.56
  A 0.51 0.51 84.5 0 1 550.09 263.06
  Q 540.40 265.20 531.84 268.14
  Q 526.93 269.83 521.84 270.76
  Q 518.05 271.46 511.60 271.63
  Q 503.21 271.85 494.82 272.17
  A 0.49 0.49 -1.1 0 1 494.31 271.68
  Q 494.23 244.56 494.27 217.44
  Z"
/>
<path fill="none" stroke-width="1.00" stroke="#d9d9d9" vector-effect="non-scaling-stroke" d="
  M 555.98 263.09
  A 0.31 0.31 -82.8 0 1 555.75 262.79
  L 555.75 176.49
  A 0.69 0.69 -8.6 0 1 556.24 175.83
  Q 560.64 174.48 564.64 172.82
  Q 570.53 170.37 576.75 169.01
  Q 583.52 167.53 589.50 169.75
  Q 594.40 171.57 599.81 175.16
  Q 604.87 178.50 611.30 180.14
  A 0.93 0.92 7.3 0 1 612.00 181.03
  L 611.94 271.68
  A 0.49 0.47 -88.9 0 1 611.45 272.17
  Q 600.22 271.82 589.00 271.50
  Q 588.08 271.47 584.36 270.84
  Q 582.20 270.47 579.85 269.72
  Q 568.44 266.04 555.98 263.09
  Z"
/>
<path fill="none" stroke-width="1.00" stroke="#d9d9d9" vector-effect="non-scaling-stroke" d="
  M 1044.29 175.82
  A 0.63 0.63 -82.1 0 1 1044.75 176.43
  L 1044.75 262.56
  A 0.62 0.62 85.0 0 1 1044.24 263.17
  Q 1037.15 264.39 1030.83 266.61
  Q 1024.45 268.85 1017.87 270.28
  Q 1012.51 271.44 1004.53 271.63
  Q 996.67 271.82 988.82 272.17
  A 0.49 0.49 -1.1 0 1 988.31 271.68
  L 988.25 180.83
  A 0.86 0.85 -5.3 0 1 988.95 179.99
  Q 993.08 179.23 997.07 176.98
  Q 1002.32 174.03 1007.65 171.22
  Q 1015.08 167.30 1022.94 168.81
  Q 1026.68 169.53 1032.12 171.72
  Q 1037.86 174.03 1044.29 175.82
  Z"
/>
<path fill="none" stroke-width="1.00" stroke="#d9d9d9" vector-effect="non-scaling-stroke" d="
  M 1051.17 263.39
  Q 1050.74 263.30 1050.30 263.24
  A 0.56 0.56 -86.6 0 1 1049.81 262.68
  L 1049.81 176.56
  A 0.70 0.69 80.7 0 1 1050.28 175.90
  Q 1059.61 172.71 1064.69 170.69
  Q 1072.28 167.65 1079.86 168.86
  Q 1083.27 169.40 1087.35 171.47
  Q 1090.92 173.28 1094.29 175.44
  Q 1099.25 178.63 1105.50 180.12
  A 0.98 0.98 6.8 0 1 1106.25 181.07
  L 1106.19 271.70
  A 0.48 0.47 1.2 0 1 1105.69 272.17
  Q 1101.88 272.07 1098.07 271.92
  Q 1095.96 271.83 1090.43 271.85
  Q 1078.65 271.88 1069.25 268.50
  Q 1060.39 265.31 1051.17 263.39
  Z"
/>
<path fill="none" stroke-width="1.00" stroke="#d9d9d9" vector-effect="non-scaling-stroke" d="
  M 629.04 260.25
  Q 628.80 261.54 629.59 262.46
  Q 629.91 262.84 630.03 263.29
  Q 630.31 264.27 630.96 263.50
  Q 631.22 264.09 631.75 264.46
  Q 631.78 265.54 633.25 266.50
  Q 638.29 269.79 634.37 274.82
  Q 628.03 278.26 628.53 285.52
  Q 628.75 288.75 628.75 291.67
  A 0.65 0.65 0.4 0 1 628.09 292.32
  Q 617.39 292.14 607.00 292.29
  Q 597.58 292.42 587.00 292.27
  Q 578.66 292.15 570.33 292.30
  Q 560.00 292.47 553.66 292.41
  Q 515.95 292.03 478.24 292.49
  A 0.54 0.53 86.5 0 1 477.70 292.00
  Q 477.33 288.14 477.56 284.25
  Q 477.76 280.97 475.94 278.31
  Q 475.32 277.42 472.68 275.23
  Q 470.48 273.40 470.01 271.78
  Q 469.07 268.50 472.31 266.31
  Q 476.50 263.48 477.38 259.30
  Q 477.48 258.80 477.53 251.17
  Q 477.64 233.43 477.30 215.69
  Q 477.25 212.89 476.03 211.15
  Q 474.91 209.55 473.38 208.30
  Q 471.17 206.51 470.66 205.64
  Q 468.37 201.79 472.75 198.78
  Q 478.10 195.12 477.69 188.49
  Q 477.50 185.37 477.50 181.93
  A 0.70 0.68 -1.3 0 1 478.17 181.25
  L 488.51 180.90
  A 0.47 0.46 -1.2 0 1 489.00 181.36
  L 489.06 280.33
  A 0.43 0.42 0.0 0 0 489.49 280.75
  L 543.53 280.75
  A 0.79 0.79 -12.2 0 1 544.25 281.21
  Q 546.70 286.51 551.47 287.39
  Q 554.90 288.02 557.82 286.33
  Q 560.66 284.68 561.90 281.29
  A 0.72 0.71 -80.1 0 1 562.57 280.81
  L 616.15 280.81
  A 1.10 1.09 -0.0 0 0 617.25 279.72
  L 617.25 181.50
  A 0.50 0.50 1.1 0 1 617.77 181.00
  L 628.12 181.27
  A 0.65 0.65 0.9 0 1 628.75 181.92
  Q 628.75 186.01 628.75 190.04
  Q 628.75 192.65 629.26 193.87
  Q 630.00 195.68 631.69 197.06
  Q 632.84 198.00 634.40 199.53
  Q 635.95 201.05 636.16 202.57
  Q 636.61 205.87 633.25 208.00
  Q 628.38 211.09 628.62 216.88
  Q 628.74 219.52 628.74 219.64
  Q 628.55 239.95 629.04 260.25
  Z"
/>
<path fill="none" stroke-width="1.00" stroke="#d9d9d9" vector-effect="non-scaling-stroke" d="
  M 968.19 208.81
  Q 965.38 206.73 964.74 205.59
  Q 962.94 202.44 965.49 199.99
  Q 967.53 198.03 969.47 195.98
  Q 971.84 193.49 971.68 189.99
  Q 971.50 186.12 971.50 181.91
  A 0.66 0.65 -0.9 0 1 972.14 181.26
  L 982.54 180.98
  A 0.50 0.50 -1.1 0 1 983.06 181.48
  L 983.25 280.18
  A 0.57 0.57 0.0 0 0 983.82 280.75
  L 1037.48 280.75
  A 0.85 0.85 77.4 0 1 1038.25 281.24
  Q 1039.88 284.82 1042.69 286.41
  Q 1045.55 288.03 1049.00 287.37
  Q 1053.56 286.51 1055.87 281.54
  A 1.37 1.37 -77.4 0 1 1057.11 280.75
  L 1110.59 280.75
  A 0.66 0.66 0.0 0 0 1111.25 280.09
  L 1111.25 181.41
  A 0.50 0.49 0.6 0 1 1111.76 180.92
  L 1121.76 181.27
  A 1.03 1.01 1.2 0 1 1122.75 182.28
  Q 1122.75 187.25 1122.86 191.25
  Q 1122.95 194.50 1125.37 196.62
  Q 1126.84 197.91 1128.27 199.24
  Q 1130.03 200.87 1130.28 202.42
  Q 1130.55 204.16 1129.66 205.67
  Q 1129.22 206.43 1127.35 207.80
  Q 1124.88 209.61 1123.64 212.30
  Q 1122.75 214.23 1122.75 217.85
  Q 1122.75 235.17 1122.75 252.48
  Q 1122.75 258.63 1122.92 259.50
  Q 1123.65 263.34 1126.91 265.72
  Q 1129.27 267.44 1129.82 268.57
  Q 1131.70 272.42 1127.56 275.31
  Q 1125.05 277.06 1123.75 279.46
  Q 1122.75 281.29 1122.75 284.75
  Q 1122.75 288.12 1122.75 291.72
  A 0.72 0.72 0.8 0 1 1122.01 292.44
  Q 1112.22 292.11 1102.51 292.42
  Q 1097.92 292.57 1093.33 292.44
  Q 1086.36 292.25 1084.17 292.25
  Q 1028.94 292.31 972.43 292.31
  A 0.93 0.92 -0.0 0 1 971.50 291.39
  Q 971.50 287.37 971.71 284.52
  Q 972.09 279.39 967.99 276.52
  Q 959.78 270.77 968.06 265.06
  Q 969.91 263.79 970.85 261.58
  Q 971.50 260.06 971.50 257.32
  Q 971.54 236.56 971.45 215.80
  Q 971.44 213.52 970.67 211.98
  Q 969.64 209.89 968.19 208.81
  Z"
/>
<path fill="none" stroke-width="1.00" stroke="#d9d9d9" vector-effect="non-scaling-stroke" d="
  M 693.81 242.19
  Q 695.57 243.03 697.07 241.79
  Q 708.17 232.66 710.81 230.81
  Q 716.24 227.03 722.75 228.48
  Q 728.96 229.87 733.06 234.69
  Q 735.58 237.65 743.47 249.33
  A 0.53 0.53 54.7 0 1 743.35 250.05
  Q 734.20 256.80 725.06 263.56
  Q 722.69 265.32 723.96 267.25
  Q 724.69 268.36 726.65 268.81
  Q 731.10 269.81 735.27 270.43
  A 0.93 0.93 11.6 0 1 736.04 271.59
  Q 734.11 278.90 728.91 284.16
  Q 715.59 297.64 697.62 303.72
  Q 690.27 306.21 682.50 305.90
  Q 675.13 305.61 671.45 298.49
  A 0.52 0.51 76.7 0 1 671.91 297.73
  Q 695.24 297.99 710.27 282.88
  Q 711.36 281.78 711.52 280.68
  Q 711.83 278.43 709.34 278.49
  A 2.93 2.92 -67.4 0 0 707.36 279.31
  Q 691.66 294.30 671.00 292.75
  Q 668.24 292.54 665.52 291.29
  Q 662.59 289.94 661.27 287.79
  Q 658.71 283.63 662.94 279.19
  Q 665.48 276.51 668.32 271.86
  Q 672.75 264.59 666.59 258.91
  Q 665.19 257.63 663.75 256.40
  Q 662.03 254.92 661.46 253.51
  Q 660.26 250.54 660.75 246.75
  Q 661.59 240.23 662.25 237.75
  Q 666.02 223.50 672.71 210.47
  Q 676.86 202.39 680.34 197.00
  Q 684.47 190.59 689.85 184.73
  A 0.55 0.54 -40.2 0 1 690.70 184.80
  Q 699.84 198.72 704.75 215.00
  Q 706.01 219.18 705.49 222.79
  Q 705.06 225.72 702.33 229.61
  Q 699.38 233.82 697.19 235.44
  Q 694.96 237.08 693.31 239.31
  Q 691.87 241.26 693.81 242.19
  Z
  M 682.25 270.82
  Q 683.59 271.57 684.85 271.72
  Q 685.90 271.83 687.44 271.19
  Q 693.07 268.87 697.66 264.85
  Q 699.49 263.25 699.69 261.78
  Q 699.97 259.73 698.06 257.94
  Q 693.45 253.61 687.76 254.35
  Q 685.02 254.71 683.65 255.97
  Q 681.82 257.66 682.35 260.73
  Q 683.11 265.13 681.60 268.99
  A 1.49 1.48 25.7 0 0 682.25 270.82
  Z"
/>
<path fill="none" stroke-width="1.00" stroke="#d9d9d9" vector-effect="non-scaling-stroke" d="
  M 827.75 257.16
  Q 823.99 255.52 819.33 256.32
  A 0.91 0.91 -5.7 0 1 818.26 255.45
  Q 817.89 243.28 806.75 239.75
  Q 804.45 239.02 797.57 239.18
  A 0.56 0.55 86.0 0 1 797.01 238.69
  Q 795.88 228.71 786.73 224.63
  Q 780.22 221.72 773.85 224.88
  Q 771.33 226.13 768.68 227.06
  Q 765.19 228.29 762.06 226.69
  Q 760.11 225.69 757.14 223.58
  Q 748.46 217.43 739.56 223.31
  Q 737.48 224.69 734.55 228.59
  A 0.49 0.49 37.4 0 1 733.85 228.68
  Q 723.27 220.44 710.53 225.26
  Q 710.07 225.43 710.18 224.95
  Q 710.82 222.03 710.50 220.00
  Q 708.72 208.68 703.43 198.17
  A 0.82 0.81 63.7 0 1 703.80 197.07
  Q 731.54 183.43 762.31 187.94
  Q 781.06 190.69 794.94 201.31
  Q 806.01 209.80 817.35 223.14
  Q 831.05 239.27 845.89 254.35
  Q 856.24 264.87 867.95 273.75
  Q 876.80 280.46 882.61 282.71
  Q 890.97 285.95 900.00 285.25
  Q 903.79 284.96 907.72 283.28
  Q 911.61 281.61 914.37 279.08
  Q 920.46 273.50 920.23 265.37
  Q 920.05 258.89 916.64 254.07
  Q 912.55 248.28 905.13 248.32
  Q 899.85 248.34 895.03 251.67
  Q 890.57 254.75 887.26 259.44
  Q 886.72 260.20 886.44 259.32
  Q 885.21 255.46 884.72 251.25
  Q 883.81 243.33 887.74 237.29
  Q 890.58 232.91 895.96 230.07
  Q 901.03 227.38 906.72 226.80
  Q 909.30 226.54 909.19 223.95
  Q 908.94 218.14 909.75 212.45
  Q 910.68 205.90 912.85 201.47
  Q 919.32 188.29 936.06 188.75
  A 0.65 0.65 12.5 0 1 936.64 189.66
  Q 927.81 210.45 934.45 231.77
  Q 936.90 239.62 938.44 247.67
  Q 940.25 257.16 939.83 263.93
  Q 938.47 285.58 919.81 298.31
  Q 914.08 302.22 907.26 304.86
  Q 900.85 307.33 893.60 308.16
  Q 884.98 309.15 876.81 308.19
  Q 860.85 306.30 844.87 299.56
  Q 823.07 290.38 802.44 278.81
  Q 799.78 277.32 794.42 274.49
  Q 784.79 269.41 774.48 266.15
  Q 763.22 262.59 756.83 262.30
  Q 747.80 261.89 738.65 265.69
  A 2.76 2.08 -44.8 0 1 737.27 265.88
  L 731.93 265.02
  Q 731.04 264.88 731.80 264.32
  L 748.92 251.81
  Q 750.78 250.45 749.29 248.62
  Q 742.75 240.53 737.83 232.85
  A 0.80 0.78 -46.4 0 1 737.82 232.01
  Q 744.83 220.44 755.52 227.79
  Q 758.66 229.95 758.69 229.97
  Q 766.29 234.31 773.94 229.69
  Q 778.27 227.07 782.50 227.73
  Q 786.58 228.37 789.60 231.77
  Q 792.88 235.48 792.75 240.75
  Q 792.64 245.16 797.00 243.75
  Q 799.16 243.05 804.49 243.82
  Q 811.03 244.75 812.94 251.02
  Q 814.09 254.79 813.75 258.70
  Q 813.44 262.42 816.99 261.25
  Q 820.61 260.06 824.44 260.56
  Q 827.54 260.97 829.19 263.76
  Q 830.18 265.42 830.63 268.94
  Q 830.99 271.80 831.21 274.68
  Q 831.46 278.13 835.90 279.64
  Q 837.25 280.10 838.61 280.50
  Q 844.74 282.30 844.35 289.76
  Q 844.11 294.20 847.75 292.19
  A 1.02 0.99 80.2 0 0 848.26 291.44
  Q 849.95 278.33 837.30 275.56
  Q 835.09 275.08 835.21 272.82
  Q 835.50 267.16 833.37 262.75
  Q 831.44 258.76 827.75 257.16
  Z"
/>
<path fill="none" stroke-width="1.00" stroke="#d9d9d9" vector-effect="non-scaling-stroke" d="
  M 682.25 270.82
  A 1.49 1.48 25.7 0 1 681.60 268.99
  Q 683.11 265.13 682.35 260.73
  Q 681.82 257.66 683.65 255.97
  Q 685.02 254.71 687.76 254.35
  Q 693.45 253.61 698.06 257.94
  Q 699.97 259.73 699.69 261.78
  Q 699.49 263.25 697.66 264.85
  Q 693.07 268.87 687.44 271.19
  Q 685.90 271.83 684.85 271.72
  Q 683.59 271.57 682.25 270.82
  Z"
/>
<path fill="none" stroke-width="1.00" stroke="#d9d9d9" vector-effect="non-scaling-stroke" d="
  M 629.04 260.25
  L 630.96 263.50
  Q 630.31 264.27 630.03 263.29
  Q 629.91 262.84 629.59 262.46
  Q 628.80 261.54 629.04 260.25
  Z"
/>
<path fill="none" stroke-width="1.00" stroke="#d9d9d9" vector-effect="non-scaling-stroke" d="
  M 631.75 264.46
  Q 635.29 266.21 636.25 268.75
  Q 637.60 272.33 634.37 274.82
  Q 638.29 269.79 633.25 266.50
  Q 631.78 265.54 631.75 264.46
  Z"
/>
<path fill="none" stroke-width="1.00" stroke="#d9d9d9" vector-effect="non-scaling-stroke" d="
  M 800.44 357.81
  A 0.46 0.45 -44.5 0 0 799.81 357.81
  L 489.61 656.77
  A 0.40 0.40 55.4 0 1 488.97 656.65
  Q 450.33 575.31 449.25 485.99
  Q 449.25 485.69 449.25 466.01
  Q 449.25 407.71 449.25 348.87
  A 0.87 0.87 0.0 0 1 450.12 348.00
  L 1150.44 348.00
  A 0.56 0.56 -89.8 0 1 1151.00 348.56
  Q 1151.00 414.50 1151.03 480.25
  Q 1151.08 573.05 1111.32 656.55
  A 0.59 0.59 -55.0 0 1 1110.37 656.72
  L 800.44 357.81
  Z"
/>
<circle fill="none" stroke-width="1.00" stroke="#d9d9d9" vector-effect="non-scaling-stroke" cx="800.11" cy="491.64" r="61.68"/>
<circle fill="none" stroke-width="1.00" stroke="#d9d9d9" vector-effect="non-scaling-stroke" cx="632.14" cy="645.01" r="61.70"/>
<circle fill="none" stroke-width="1.00" stroke="#d9d9d9" vector-effect="non-scaling-stroke" cx="968.08" cy="645.01" r="61.70"/>
<path fill="none" stroke-width="1.00" stroke="#d9d9d9" vector-effect="non-scaling-stroke" d="
  M 747.33 652.83
  Q 773.52 625.02 799.51 597.63
  A 0.89 0.88 45.2 0 1 800.79 597.64
  L 998.91 807.89
  A 0.51 0.50 -43.4 0 1 998.88 808.60
  Q 938.98 865.48 866.95 905.96
  Q 846.14 917.66 824.30 927.30
  Q 812.74 932.40 801.25 936.01
  A 3.73 3.71 -44.4 0 1 798.96 935.99
  Q 772.15 926.99 747.32 913.77
  Q 667.43 871.25 601.52 808.90
  A 0.86 0.86 -3.4 0 1 601.48 807.68
  Q 674.70 729.95 747.33 652.83
  Z"
/>
</svg>
