<?xml version="1.0" encoding="UTF-8" standalone="no"?>
<!DOCTYPE svg PUBLIC "-//W3C//DTD SVG 1.1//EN" "http://www.w3.org/Graphics/SVG/1.1/DTD/svg11.dtd">
<svg xmlns="http://www.w3.org/2000/svg" version="1.1" viewBox="0 0 1166 1121" height="108px">
<path fill="none" stroke-width="1.00" stroke="#d9d9d9" vector-effect="non-scaling-stroke" d="
  M 966.21 482.00
  Q 591.23 482.00 216.25 482.15
  Q 202.66 482.15 200.25 481.75
  Q 198.77 481.50 198.71 482.50
  Q 193.13 453.33 191.75 445.25
  Q 171.12 324.18 181.63 200.16
  A 0.82 0.81 -79.2 0 1 182.67 199.45
  Q 264.96 223.50 349.42 208.39
  Q 359.39 206.61 369.00 204.27
  Q 444.54 185.96 505.42 137.16
  Q 551.38 100.33 581.60 50.83
  A 1.17 1.16 44.4 0 1 583.58 50.81
  Q 633.08 129.33 713.94 172.82
  Q 722.77 177.57 731.83 181.74
  Q 788.60 207.90 850.75 213.00
  Q 915.93 218.35 979.38 200.42
  Q 979.47 200.39 980.97 199.87
  Q 982.13 199.47 983.23 199.49
  A 0.73 0.72 88.7 0 1 983.93 200.16
  Q 995.71 342.86 966.21 482.00
  Z
  M 434.22 403.82
  Q 438.14 405.41 442.19 406.63
  Q 445.84 407.73 450.41 408.50
  Q 468.59 411.57 483.25 410.50
  Q 501.47 409.17 519.29 405.19
  Q 525.37 403.84 531.49 402.70
  Q 544.53 400.29 557.73 401.44
  Q 569.94 402.51 579.56 409.61
  Q 580.25 410.12 580.25 409.27
  L 580.19 241.55
  A 1.62 1.60 -62.5 0 0 579.91 240.64
  Q 577.74 237.43 574.49 235.26
  Q 566.00 229.60 555.75 229.06
  Q 542.20 228.36 528.94 231.19
  Q 519.82 233.13 499.25 236.75
  Q 490.09 238.36 479.42 238.46
  Q 467.99 238.57 459.59 237.75
  Q 446.66 236.47 433.99 231.98
  A 0.32 0.32 9.7 0 0 433.56 232.28
  L 433.50 402.76
  A 1.15 1.14 11.1 0 0 434.22 403.82
  Z
  M 620.94 401.06
  Q 625.12 401.36 631.29 402.27
  Q 635.50 402.88 641.54 404.13
  Q 659.06 407.77 668.56 409.19
  Q 686.04 411.79 706.26 409.86
  Q 717.79 408.75 729.94 404.44
  Q 732.51 403.52 732.34 401.13
  Q 732.25 399.90 732.25 399.86
  Q 732.30 316.08 732.19 232.30
  A 0.35 0.34 -10.1 0 0 731.72 231.98
  Q 717.18 237.13 701.75 237.99
  Q 683.48 239.00 671.50 237.50
  Q 662.34 236.35 636.00 231.01
  Q 622.87 228.35 609.50 229.00
  Q 595.69 229.68 586.51 239.36
  A 3.66 3.65 -23.3 0 0 585.50 241.88
  L 585.50 408.94
  Q 585.50 409.89 586.27 409.34
  Q 595.19 402.99 606.02 401.63
  Q 614.39 400.59 620.94 401.06
  Z
  M 562.71 424.81
  L 562.72 434.10
  A 1.36 1.31 -80.6 0 0 563.59 435.37
  Q 582.51 442.20 601.65 435.37
  A 1.68 1.67 -10.7 0 0 602.77 433.74
  L 602.49 424.83
  A 0.61 0.61 -88.7 0 1 603.14 424.20
  Q 626.02 425.91 648.24 428.12
  Q 681.72 431.46 715.25 428.73
  Q 731.14 427.44 746.94 425.26
  A 0.58 0.57 -4.0 0 0 747.44 424.69
  L 747.50 255.00
  A 0.77 0.76 -78.2 0 0 747.05 254.30
  Q 743.65 252.81 739.99 252.13
  Q 739.87 252.11 738.57 251.69
  Q 737.05 251.20 737.55 253.77
  Q 737.76 254.80 737.75 255.86
  Q 737.63 295.12 737.41 333.75
  Q 737.36 342.76 737.53 351.76
  Q 737.70 360.83 737.57 369.74
  Q 737.33 385.62 737.75 401.50
  Q 737.80 403.36 737.34 406.01
  A 1.08 1.08 80.2 0 1 736.82 406.75
  Q 731.08 410.03 725.25 411.50
  Q 698.55 418.22 670.68 414.65
  Q 657.82 413.00 645.16 410.17
  Q 633.82 407.64 622.26 406.44
  Q 610.95 405.26 601.25 407.75
  Q 592.57 409.98 586.03 417.06
  A 1.78 1.45 -70.5 0 1 585.21 417.56
  Q 583.42 417.99 581.64 417.76
  Q 580.01 417.55 578.29 415.88
  Q 568.66 406.53 554.75 406.21
  Q 539.81 405.87 525.20 409.03
  Q 515.28 411.17 505.31 413.03
  Q 487.85 416.28 470.22 415.66
  Q 458.35 415.24 450.32 413.79
  Q 439.60 411.85 429.31 407.21
  A 1.81 1.78 12.3 0 1 428.25 405.58
  L 428.25 252.96
  A 1.19 1.14 83.0 0 0 426.82 251.80
  L 418.45 253.95
  A 0.98 0.93 83.5 0 0 417.75 254.88
  Q 417.57 338.63 418.01 420.75
  Q 418.02 422.63 417.73 424.66
  A 0.51 0.50 -81.6 0 0 418.16 425.24
  Q 443.02 428.62 468.01 429.58
  Q 492.56 430.52 517.01 428.06
  Q 539.57 425.79 562.20 424.34
  A 0.48 0.47 -1.7 0 1 562.71 424.81
  Z
  M 412.2841 281.2129
  A 0.32 0.32 0.0 0 0 411.9647 280.8923
  L 397.8447 280.8677
  A 0.32 0.32 0.0 0 0 397.5241 281.1871
  L 397.4759 308.8071
  A 0.32 0.32 0.0 0 0 397.7953 309.1277
  L 411.9153 309.1523
  A 0.32 0.32 0.0 0 0 412.2359 308.8329
  L 412.2841 281.2129
  Z
  M 767.7741 281.1829
  A 0.28 0.28 0.0 0 0 767.4945 280.9024
  L 753.3146 280.8776
  A 0.28 0.28 0.0 0 0 753.0341 281.1572
  L 752.9859 308.7371
  A 0.28 0.28 0.0 0 0 753.2655 309.0176
  L 767.4454 309.0424
  A 0.28 0.28 0.0 0 0 767.7259 308.7628
  L 767.7741 281.1829
  Z
  M 412.3473 364.8459
  A 0.56 0.56 0.0 0 0 411.7892 364.2840
  L 398.1093 364.2362
  A 0.56 0.56 0.0 0 0 397.5474 364.7943
  L 397.4527 391.9141
  A 0.56 0.56 0.0 0 0 398.0108 392.4760
  L 411.6907 392.5238
  A 0.56 0.56 0.0 0 0 412.2526 391.9657
  L 412.3473 364.8459
  Z
  M 767.76 364.86
  A 0.61 0.61 0.0 0 0 767.15 364.25
  L 753.61 364.25
  A 0.61 0.61 0.0 0 0 753.00 364.86
  L 753.00 391.86
  A 0.61 0.61 0.0 0 0 753.61 392.47
  L 767.15 392.47
  A 0.61 0.61 0.0 0 0 767.76 391.86
  L 767.76 364.86
  Z"
/>
<path fill="none" stroke-width="1.00" stroke="#d9d9d9" vector-effect="non-scaling-stroke" d="
  M 434.22 403.82
  A 1.15 1.14 11.1 0 1 433.50 402.76
  L 433.56 232.28
  A 0.32 0.32 9.7 0 1 433.99 231.98
  Q 446.66 236.47 459.59 237.75
  Q 467.99 238.57 479.42 238.46
  Q 490.09 238.36 499.25 236.75
  Q 519.82 233.13 528.94 231.19
  Q 542.20 228.36 555.75 229.06
  Q 566.00 229.60 574.49 235.26
  Q 577.74 237.43 579.91 240.64
  A 1.62 1.60 -62.5 0 1 580.19 241.55
  L 580.25 409.27
  Q 580.25 410.12 579.56 409.61
  Q 569.94 402.51 557.73 401.44
  Q 544.53 400.29 531.49 402.70
  Q 525.37 403.84 519.29 405.19
  Q 501.47 409.17 483.25 410.50
  Q 468.59 411.57 450.41 408.50
  Q 445.84 407.73 442.19 406.63
  Q 438.14 405.41 434.22 403.82
  Z
  M 494.32 287.45
  A 1.36 1.35 -2.4 0 1 493.33 288.52
  Q 489.77 289.44 489.60 290.30
  A 0.61 0.38 3.2 0 0 490.24 290.75
  L 518.55 290.75
  A 0.86 0.86 -88.2 0 0 519.41 289.94
  Q 519.66 286.03 519.31 283.39
  Q 519.24 282.92 519.00 282.69
  Q 518.64 282.35 518.17 282.47
  Q 517.77 282.56 517.43 283.15
  Q 516.10 285.42 514.26 287.37
  Q 513.09 288.61 511.40 288.84
  Q 506.25 289.55 503.08 288.86
  Q 500.80 288.36 500.75 286.27
  L 500.55 277.47
  A 0.94 0.89 -2.7 0 1 501.43 276.56
  Q 507.51 276.13 508.65 281.01
  A 1.61 1.04 -86.8 0 0 509.12 281.84
  Q 510.33 282.79 510.30 280.50
  Q 510.25 275.37 510.19 270.25
  Q 510.18 269.49 509.75 269.58
  A 1.21 0.58 -72.9 0 0 509.11 270.27
  Q 506.84 275.27 501.18 274.86
  A 0.58 0.52 3.3 0 1 500.64 274.32
  L 500.83 265.25
  A 1.13 1.03 -0.4 0 1 501.91 264.25
  Q 504.58 264.15 507.20 264.31
  Q 510.09 264.48 511.61 265.41
  Q 513.59 266.62 514.81 268.94
  Q 515.25 269.76 516.20 269.91
  A 0.46 0.45 2.7 0 0 516.73 269.44
  L 516.41 263.18
  A 0.61 0.53 -0.9 0 0 515.82 262.68
  Q 504.29 262.46 492.77 262.44
  Q 492.65 262.44 491.62 262.34
  Q 490.53 262.23 490.20 262.95
  A 0.67 0.57 29.7 0 0 490.48 263.72
  Q 491.86 264.60 492.90 264.55
  A 1.77 1.77 -4.2 0 1 494.77 266.16
  Q 495.88 278.54 494.32 287.45
  Z
  M 464.73 264.69
  Q 465.80 264.48 467.39 264.09
  Q 467.82 263.98 468.03 263.73
  Q 468.34 263.36 468.23 262.95
  A 0.77 0.56 -5.5 0 0 467.50 262.52
  L 453.06 262.81
  A 0.47 0.40 -6.5 0 0 452.60 263.31
  Q 452.68 263.63 452.91 263.87
  Q 453.15 264.13 453.83 264.28
  Q 456.64 264.91 457.93 267.56
  Q 463.47 278.86 468.26 290.51
  Q 469.35 293.18 470.56 290.56
  Q 475.67 279.54 480.75 268.50
  Q 482.33 265.08 485.70 264.15
  Q 486.12 264.04 486.38 263.87
  Q 487.69 262.99 485.99 262.95
  Q 480.62 262.80 475.26 262.53
  A 0.83 0.52 7.1 0 0 474.47 262.90
  Q 474.19 263.90 477.60 265.37
  A 1.51 1.51 -69.2 0 1 478.43 267.22
  Q 475.77 275.40 471.72 283.49
  Q 471.41 284.11 471.15 283.48
  L 463.88 266.19
  A 1.13 1.09 -16.5 0 1 464.73 264.69
  Z
  M 536.19 265.05
  Q 536.30 275.28 536.23 285.50
  Q 536.21 289.05 532.56 289.06
  Q 530.68 289.07 530.74 290.45
  A 0.55 0.49 -2.2 0 0 531.31 290.92
  Q 538.15 290.63 545.00 290.78
  Q 548.73 290.86 546.30 289.33
  Q 545.87 289.05 545.10 288.96
  Q 543.66 288.79 542.61 287.85
  A 1.30 1.11 -75.0 0 1 542.21 287.01
  Q 541.36 276.04 542.03 265.07
  A 0.60 0.58 88.9 0 1 542.55 264.51
  Q 549.63 263.82 552.11 270.42
  Q 552.42 271.25 553.08 271.48
  A 0.52 0.44 -75.2 0 0 553.67 271.07
  Q 554.45 267.20 553.78 263.30
  A 0.61 0.60 85.3 0 0 553.20 262.80
  Q 540.74 262.48 528.29 262.73
  Q 528.18 262.73 526.22 262.59
  Q 523.71 262.42 523.88 264.90
  Q 523.99 266.47 523.99 266.62
  Q 523.99 268.44 524.25 270.27
  Q 524.47 271.79 525.48 270.64
  Q 526.39 269.60 527.17 268.39
  Q 530.14 263.76 535.68 264.49
  A 0.58 0.56 3.4 0 1 536.19 265.05
  Z
  M 532.44 321.06
  Q 534.00 322.22 542.69 325.36
  Q 544.21 325.91 544.84 326.77
  Q 545.72 327.94 545.73 329.37
  Q 545.75 331.12 544.11 332.48
  Q 540.39 335.58 535.96 333.50
  Q 533.98 332.58 532.54 330.41
  Q 531.35 328.63 530.19 326.31
  Q 529.80 325.53 529.18 325.75
  A 0.86 0.70 83.5 0 0 528.70 326.50
  L 528.45 334.32
  Q 528.39 336.08 529.86 335.03
  Q 531.68 333.73 533.58 334.62
  Q 534.92 335.25 534.95 335.26
  Q 540.75 337.28 545.57 334.57
  Q 548.57 332.88 549.65 329.79
  Q 550.98 326.01 548.71 322.97
  Q 547.20 320.95 542.92 319.29
  Q 539.66 318.02 536.39 316.79
  Q 534.40 316.03 533.59 315.05
  Q 532.20 313.37 532.98 311.49
  Q 533.77 309.59 536.17 308.79
  Q 540.10 307.46 543.12 310.39
  Q 543.87 311.12 544.75 312.68
  Q 545.44 313.93 546.18 315.15
  Q 546.48 315.64 546.83 315.82
  Q 547.74 316.27 547.61 314.76
  Q 547.33 311.25 547.75 307.75
  Q 548.09 304.95 545.94 307.19
  Q 544.77 308.40 543.47 307.70
  Q 542.72 307.30 542.61 307.25
  Q 538.03 305.49 534.07 307.10
  Q 530.04 308.74 528.90 312.75
  Q 527.57 317.45 532.44 321.06
  Z
  M 502.31 321.19
  Q 508.00 319.93 509.75 325.26
  Q 510.98 328.99 511.38 325.09
  Q 511.71 321.82 511.53 316.89
  Q 511.51 316.49 511.58 315.62
  Q 511.72 313.99 510.68 314.49
  A 1.45 0.89 -82.0 0 0 510.08 315.22
  Q 508.31 319.69 502.57 319.19
  A 0.58 0.55 3.3 0 1 502.04 318.63
  L 502.15 309.68
  A 0.64 0.61 -5.3 0 1 502.67 309.09
  Q 507.58 308.11 511.06 309.19
  Q 513.88 310.06 515.46 312.54
  Q 516.26 313.79 517.47 314.48
  Q 518.36 314.99 518.25 314.02
  L 517.54 307.80
  A 0.62 0.55 -2.0 0 0 516.94 307.30
  L 492.30 306.82
  A 1.23 0.91 16.1 0 0 491.44 307.14
  Q 490.94 307.71 491.53 308.20
  Q 491.84 308.46 492.56 308.51
  Q 494.64 308.65 495.89 310.17
  A 1.36 1.31 -65.4 0 1 496.20 311.06
  L 495.95 331.71
  Q 495.93 333.81 493.80 333.47
  Q 492.08 333.20 490.91 334.34
  Q 489.92 335.31 491.30 335.31
  L 519.55 335.30
  A 0.92 0.91 -85.1 0 0 520.45 334.53
  Q 521.08 330.87 520.53 327.68
  Q 520.11 325.25 518.94 327.43
  Q 517.66 329.82 515.74 331.59
  Q 513.85 333.33 511.12 333.65
  Q 507.32 334.09 503.55 333.08
  A 1.12 1.08 -3.9 0 1 502.85 332.49
  Q 501.00 328.43 501.72 323.90
  Q 501.88 322.87 501.84 321.81
  A 0.61 0.60 82.6 0 1 502.31 321.19
  Z
  M 467.99 309.56
  Q 468.97 318.48 468.35 327.44
  Q 468.34 327.50 468.40 330.07
  Q 468.47 333.68 464.25 333.75
  Q 462.30 333.78 463.19 335.10
  A 0.94 0.82 -17.3 0 0 464.00 335.46
  Q 470.28 334.98 476.55 335.45
  Q 477.41 335.51 477.94 335.45
  Q 480.46 335.19 478.42 333.77
  A 1.67 1.12 -19.7 0 0 477.50 333.54
  Q 475.92 333.59 474.84 332.60
  A 1.35 1.10 -75.3 0 1 474.46 331.76
  Q 473.58 320.74 474.16 309.69
  A 0.61 0.59 88.4 0 1 474.68 309.12
  Q 481.58 308.31 483.95 314.77
  Q 484.39 315.98 485.45 315.99
  A 0.65 0.57 -84.6 0 0 486.02 315.45
  Q 486.61 311.62 486.02 307.80
  A 0.60 0.58 -4.5 0 0 485.43 307.31
  L 457.44 307.19
  A 0.70 0.67 8.5 0 0 456.78 307.66
  Q 455.79 310.84 456.73 315.05
  Q 457.07 316.56 457.71 315.14
  Q 460.54 308.80 467.43 309.04
  A 0.58 0.57 87.7 0 1 467.99 309.56
  Z
  M 480.05 362.94
  L 480.01 354.40
  A 0.91 0.89 -0.3 0 1 480.92 353.50
  Q 484.12 353.50 487.00 353.48
  Q 490.90 353.46 494.41 358.22
  Q 495.78 360.08 496.32 357.83
  Q 496.85 355.67 495.61 352.27
  A 0.71 0.71 -9.9 0 0 494.94 351.80
  L 470.50 351.50
  A 1.04 0.72 11.2 0 0 469.67 351.86
  Q 469.00 352.94 472.61 353.68
  A 1.89 1.88 3.5 0 1 474.10 355.36
  Q 474.95 365.60 474.02 376.08
  Q 473.85 377.93 471.99 377.98
  Q 469.58 378.04 469.24 379.32
  A 0.46 0.39 6.3 0 0 469.70 379.81
  L 497.69 379.94
  A 0.60 0.59 4.5 0 0 498.28 379.44
  Q 498.63 377.32 498.75 373.50
  Q 498.82 371.20 497.38 371.73
  A 1.45 0.94 -78.1 0 0 496.72 372.39
  Q 492.82 380.36 482.25 377.61
  A 2.71 2.70 -89.3 0 1 480.29 375.60
  Q 479.61 372.69 479.91 368.98
  Q 479.94 368.60 479.88 367.04
  Q 479.82 365.19 481.42 365.43
  Q 483.34 365.72 483.62 365.74
  Q 486.66 365.95 487.53 368.94
  Q 487.79 369.80 487.95 370.15
  Q 489.48 373.38 489.51 369.00
  Q 489.55 364.16 489.47 360.71
  Q 489.39 357.46 487.85 360.32
  Q 485.42 364.81 480.55 363.57
  A 0.65 0.65 6.8 0 1 480.05 362.94
  Z
  M 532.44 371.61
  Q 532.41 372.17 532.01 371.76
  Q 523.72 363.15 515.72 354.30
  Q 513.25 351.56 509.50 351.52
  Q 507.12 351.50 504.75 351.50
  Q 503.00 351.50 504.19 352.56
  Q 505.29 353.55 506.66 354.20
  Q 509.31 355.46 509.88 357.96
  Q 509.90 358.02 510.18 362.54
  Q 510.60 369.26 509.77 375.84
  A 2.19 2.19 -2.6 0 1 508.06 377.71
  Q 505.94 378.16 504.92 379.20
  Q 504.32 379.81 505.17 379.81
  L 517.50 379.77
  A 0.61 0.46 -1.9 0 0 518.11 379.28
  Q 518.08 378.75 517.18 378.60
  Q 515.20 378.29 513.87 377.10
  Q 512.77 376.10 512.62 374.00
  Q 512.15 367.30 511.98 360.00
  Q 511.95 358.53 512.98 359.59
  L 532.78 380.03
  Q 534.55 381.85 534.51 379.30
  Q 534.35 368.89 534.68 358.94
  Q 534.76 356.44 535.63 355.28
  Q 536.81 353.71 539.06 353.06
  Q 540.85 352.55 539.68 351.75
  A 1.62 1.12 -22.0 0 0 538.75 351.54
  Q 533.88 351.91 529.00 351.56
  Q 524.49 351.23 527.34 353.22
  A 1.65 1.16 -19.8 0 0 528.25 353.47
  Q 530.11 353.45 531.35 354.69
  A 1.68 1.29 -77.6 0 1 531.76 355.56
  Q 532.98 363.57 532.44 371.61
  Z"
/>
<path fill="none" stroke-width="1.00" stroke="#d9d9d9" vector-effect="non-scaling-stroke" d="
  M 620.94 401.06
  Q 614.39 400.59 606.02 401.63
  Q 595.19 402.99 586.27 409.34
  Q 585.50 409.89 585.50 408.94
  L 585.50 241.88
  A 3.66 3.65 -23.3 0 1 586.51 239.36
  Q 595.69 229.68 609.50 229.00
  Q 622.87 228.35 636.00 231.01
  Q 662.34 236.35 671.50 237.50
  Q 683.48 239.00 701.75 237.99
  Q 717.18 237.13 731.72 231.98
  A 0.35 0.34 -10.1 0 1 732.19 232.30
  Q 732.30 316.08 732.25 399.86
  Q 732.25 399.90 732.34 401.13
  Q 732.51 403.52 729.94 404.44
  Q 717.79 408.75 706.26 409.86
  Q 686.04 411.79 668.56 409.19
  Q 659.06 407.77 641.54 404.13
  Q 635.50 402.88 631.29 402.27
  Q 625.12 401.36 620.94 401.06
  Z
  M 679.26 276.68
  A 14.80 14.80 0.0 0 0 664.46 261.88
  A 14.80 14.80 0.0 0 0 649.66 276.68
  A 14.80 14.80 0.0 0 0 664.46 291.48
  A 14.80 14.80 0.0 0 0 679.26 276.68
  Z
  M 616.28 270.61
  Q 616.33 269.65 617.00 270.35
  Q 626.69 280.56 636.00 290.25
  Q 639.46 293.85 638.75 288.00
  Q 637.94 281.29 639.02 268.00
  Q 639.25 265.25 641.74 264.58
  Q 642.65 264.33 643.07 264.08
  Q 645.98 262.34 641.75 262.39
  Q 636.53 262.45 631.30 262.55
  A 0.74 0.53 1.4 0 0 630.61 263.02
  Q 630.55 263.49 631.18 263.83
  Q 632.47 264.50 633.95 264.56
  Q 635.81 264.64 636.03 266.48
  Q 636.95 274.14 636.26 282.67
  Q 636.22 283.18 635.88 282.79
  Q 627.07 272.56 617.61 263.35
  A 1.78 1.68 71.5 0 0 616.75 262.89
  Q 612.78 262.06 608.75 262.67
  A 0.51 0.43 -12.3 0 0 608.31 263.24
  Q 608.50 263.83 609.19 264.06
  Q 613.08 265.37 613.99 268.70
  Q 614.26 269.67 614.30 274.81
  Q 614.35 280.79 614.00 286.75
  Q 613.90 288.45 610.25 289.25
  Q 608.69 289.59 609.17 290.37
  A 1.08 0.70 -8.9 0 0 610.00 290.74
  L 621.44 290.91
  A 0.43 0.39 -5.6 0 0 621.88 290.43
  Q 621.53 288.99 619.20 288.73
  Q 617.27 288.51 617.01 286.58
  Q 615.89 278.32 616.28 270.61
  Z
  M 707.21 264.92
  Q 708.99 265.88 708.33 267.80
  Q 705.40 276.32 701.74 283.30
  Q 701.50 283.75 701.28 283.31
  Q 697.63 275.99 694.72 268.34
  Q 694.70 268.28 694.22 267.17
  Q 692.89 264.08 696.50 264.25
  Q 698.27 264.33 698.09 263.29
  A 0.69 0.57 -3.4 0 0 697.44 262.81
  L 683.81 262.58
  A 1.18 0.80 13.3 0 0 682.95 262.91
  Q 682.57 263.39 682.91 263.83
  Q 683.14 264.13 683.85 264.29
  Q 686.78 264.91 687.94 267.31
  Q 693.51 278.90 698.41 290.52
  Q 699.42 292.95 700.56 290.58
  Q 705.67 279.86 710.56 269.06
  Q 712.27 265.30 715.42 264.32
  Q 716.04 264.14 716.38 263.88
  Q 718.14 262.53 715.25 262.75
  Q 712.62 262.95 705.74 262.67
  Q 703.32 262.57 704.64 263.83
  Q 704.99 264.16 705.60 264.33
  Q 706.69 264.64 707.21 264.92
  Z
  M 646.31 325.25
  Q 650.93 324.66 655.65 325.20
  A 1.54 1.52 79.1 0 1 656.83 326.01
  Q 658.70 329.60 658.70 332.69
  A 0.76 0.74 79.1 0 1 658.24 333.39
  Q 657.01 333.91 655.67 334.04
  Q 655.24 334.08 655.02 334.29
  Q 654.66 334.64 654.79 335.02
  A 0.88 0.62 -6.5 0 0 655.57 335.45
  L 668.94 335.45
  A 0.71 0.54 2.6 0 0 669.63 334.97
  Q 669.76 334.00 667.41 333.41
  A 2.91 2.80 -4.4 0 1 665.47 331.81
  L 654.81 307.76
  Q 653.92 305.76 652.32 307.22
  Q 650.79 308.60 649.48 311.78
  Q 645.43 321.64 640.73 331.10
  A 3.89 3.88 -88.8 0 1 638.84 332.92
  Q 636.07 334.17 636.24 335.08
  A 0.76 0.49 -5.5 0 0 637.00 335.47
  Q 642.13 335.22 647.25 335.57
  Q 648.58 335.66 648.26 334.65
  A 0.99 0.91 87.7 0 0 647.60 333.99
  L 644.69 333.23
  A 1.02 0.86 14.8 0 1 643.92 332.14
  L 645.64 325.78
  A 0.82 0.69 1.9 0 1 646.31 325.25
  Z
  M 617.44 309.81
  Q 617.54 318.89 617.50 327.97
  Q 617.50 328.06 617.57 329.53
  Q 617.75 333.70 613.51 333.76
  A 1.64 1.12 17.8 0 0 612.60 334.03
  Q 611.08 335.18 612.89 335.44
  Q 613.34 335.51 614.11 335.46
  Q 621.02 335.04 627.93 335.41
  A 0.52 0.47 2.3 0 0 628.48 334.95
  Q 628.49 333.46 627.00 333.50
  Q 623.08 333.60 623.03 330.00
  Q 622.89 319.78 623.29 309.55
  A 0.57 0.57 -1.8 0 1 623.80 309.01
  Q 630.45 308.45 633.05 314.31
  Q 633.39 315.08 633.75 315.46
  Q 635.23 317.06 635.24 314.25
  Q 635.25 311.12 635.25 307.69
  A 0.51 0.51 0.0 0 0 634.74 307.18
  L 606.97 307.25
  A 1.38 1.36 2.3 0 0 605.60 308.50
  Q 604.79 318.50 607.72 314.01
  Q 609.25 311.67 609.63 311.28
  Q 612.53 308.34 616.95 309.21
  A 0.61 0.60 -84.9 0 1 617.44 309.81
  Z
  M 704.97 312.04
  L 704.73 332.09
  A 1.62 1.55 -1.8 0 1 703.22 333.63
  Q 700.09 333.85 700.35 334.99
  A 0.77 0.58 -5.0 0 0 701.07 335.44
  L 714.50 335.50
  A 1.18 0.87 14.0 0 0 715.35 335.15
  Q 715.82 334.55 715.21 334.19
  Q 714.95 334.04 714.24 333.97
  Q 710.81 333.65 710.69 329.56
  Q 710.36 318.96 710.46 315.08
  Q 710.46 314.95 710.39 312.93
  Q 710.26 309.45 713.75 308.82
  Q 714.38 308.71 714.72 308.56
  Q 716.55 307.74 714.25 307.25
  Q 710.87 306.53 704.29 307.72
  A 0.99 0.95 6.8 0 0 703.58 308.25
  L 695.04 325.77
  Q 694.51 326.85 694.01 325.77
  L 685.65 307.76
  A 0.81 0.78 76.7 0 0 684.94 307.30
  L 673.57 307.30
  A 0.57 0.42 -3.3 0 0 672.98 307.79
  Q 673.14 308.81 676.47 309.26
  A 1.77 1.76 2.2 0 1 677.99 310.89
  Q 678.64 320.72 677.92 330.70
  Q 677.78 332.59 675.94 333.06
  Q 674.99 333.31 673.75 333.80
  Q 673.19 334.02 672.94 334.44
  Q 672.25 335.58 673.99 335.42
  Q 679.13 334.97 684.26 335.40
  Q 687.55 335.67 685.91 334.40
  Q 685.55 334.12 684.85 333.94
  Q 683.11 333.51 681.95 332.29
  Q 681.02 331.31 680.88 329.39
  Q 680.26 320.33 680.31 311.25
  A 0.49 0.37 -86.6 0 1 680.74 310.75
  Q 680.99 310.80 681.15 311.08
  Q 683.84 316.11 686.11 321.34
  Q 689.01 328.00 692.69 334.26
  Q 692.94 334.70 693.16 334.24
  L 703.82 311.80
  Q 705.00 309.31 704.97 312.04
  Z
  M 654.58 372.33
  Q 651.52 364.35 647.81 355.94
  Q 646.85 353.77 650.74 353.33
  A 2.37 2.35 -73.9 0 0 652.32 352.45
  Q 652.75 351.89 651.50 351.87
  Q 644.88 351.75 638.25 351.74
  Q 634.92 351.74 637.04 353.12
  Q 637.41 353.36 638.17 353.52
  Q 639.95 353.90 641.06 355.69
  Q 643.06 358.89 643.76 360.50
  Q 648.07 370.38 652.57 380.20
  Q 653.33 381.86 654.11 380.21
  Q 659.74 368.34 665.31 356.31
  Q 666.44 353.87 669.75 353.32
  A 1.11 0.82 3.7 0 0 670.52 352.83
  Q 671.08 351.71 669.25 351.72
  Q 664.82 351.75 660.38 351.75
  Q 660.12 351.75 659.13 351.67
  Q 657.30 351.53 658.19 352.85
  A 1.24 0.97 -8.9 0 0 659.00 353.30
  Q 663.71 353.92 661.94 358.03
  Q 661.30 359.52 661.26 359.64
  Q 658.86 366.01 655.65 372.38
  Q 655.05 373.57 654.58 372.33
  Z
  M 681.57 355.10
  L 693.03 378.61
  Q 693.68 379.95 694.30 378.58
  L 705.00 355.25
  Q 705.71 353.71 705.69 355.31
  L 705.43 376.34
  A 1.57 1.56 -8.9 0 1 704.35 377.81
  Q 698.71 379.66 702.49 379.85
  Q 709.08 380.19 715.68 379.96
  A 0.61 0.53 -0.2 0 0 716.27 379.45
  Q 716.31 378.60 715.44 378.56
  Q 713.36 378.48 712.30 377.34
  Q 711.54 376.53 711.34 374.44
  Q 710.47 364.97 711.45 355.49
  A 1.32 1.15 75.2 0 1 711.86 354.66
  Q 712.98 353.67 714.46 353.34
  Q 715.11 353.20 715.47 352.96
  Q 716.90 351.97 715.37 351.65
  Q 714.93 351.56 714.25 351.61
  Q 710.81 351.88 706.54 351.71
  Q 704.73 351.64 704.01 353.16
  L 695.67 370.74
  Q 695.22 371.69 694.80 370.76
  L 686.57 352.59
  A 1.35 1.34 -11.6 0 0 685.38 351.81
  L 674.32 351.58
  A 0.85 0.67 9.6 0 0 673.57 351.99
  Q 673.25 352.72 673.83 353.22
  A 1.49 0.84 -13.6 0 0 674.75 353.48
  Q 678.99 353.43 678.91 357.27
  Q 678.86 360.14 678.86 360.23
  Q 679.40 368.37 678.26 376.45
  A 0.91 0.85 -8.5 0 1 677.73 377.12
  L 674.27 378.61
  A 0.91 0.77 -12.0 0 0 673.73 379.31
  Q 673.68 380.44 675.11 380.06
  Q 675.97 379.83 676.56 379.86
  Q 680.78 380.10 685.00 380.04
  Q 687.94 379.99 686.15 378.84
  Q 685.81 378.62 685.16 378.44
  Q 682.94 377.82 681.92 376.04
  Q 681.27 374.90 681.20 372.33
  Q 680.96 363.66 680.81 354.98
  A 0.23 0.18 87.2 0 1 680.97 354.76
  L 681.13 354.74
  A 0.59 0.33 68.7 0 1 681.57 355.10
  Z
  M 616.49 354.05
  Q 617.68 365.44 616.37 376.81
  A 0.92 0.86 82.3 0 1 615.86 377.53
  Q 614.67 378.07 613.34 378.21
  Q 612.68 378.28 612.27 378.57
  Q 610.34 379.96 613.49 379.83
  Q 619.62 379.58 625.75 379.68
  Q 629.57 379.75 626.98 378.48
  Q 626.59 378.28 625.96 378.22
  Q 622.50 377.89 622.50 374.00
  Q 622.50 364.25 622.50 354.14
  A 0.65 0.65 -1.9 0 1 623.11 353.49
  Q 630.23 353.07 632.74 359.50
  Q 634.22 363.31 634.49 359.23
  Q 634.71 355.65 634.26 352.31
  A 0.58 0.57 86.0 0 0 633.69 351.81
  L 605.63 351.75
  A 0.60 0.59 3.9 0 0 605.04 352.26
  Q 604.69 354.66 604.72 356.64
  Q 604.73 357.34 604.68 358.36
  Q 604.54 361.18 606.18 359.70
  Q 606.59 359.33 607.00 358.53
  Q 609.73 353.20 615.94 353.53
  A 0.58 0.58 88.3 0 1 616.49 354.05
  Z"
/>
<path fill="none" stroke-width="1.00" stroke="#d9d9d9" vector-effect="non-scaling-stroke" d="
  M 562.20 424.34
  Q 539.57 425.79 517.01 428.06
  Q 492.56 430.52 468.01 429.58
  Q 443.02 428.62 418.16 425.24
  A 0.51 0.50 -81.6 0 1 417.73 424.66
  Q 418.02 422.63 418.01 420.75
  Q 417.57 338.63 417.75 254.88
  A 0.98 0.93 83.5 0 1 418.45 253.95
  L 426.82 251.80
  A 1.19 1.14 83.0 0 1 428.25 252.96
  L 428.25 405.58
  A 1.81 1.78 12.3 0 0 429.31 407.21
  Q 439.60 411.85 450.32 413.79
  Q 458.35 415.24 470.22 415.66
  Q 487.85 416.28 505.31 413.03
  Q 515.28 411.17 525.20 409.03
  Q 539.81 405.87 554.75 406.21
  Q 568.66 406.53 578.29 415.88
  Q 580.01 417.55 581.64 417.76
  Q 583.42 417.99 585.21 417.56
  A 1.78 1.45 -70.5 0 0 586.03 417.06
  Q 592.57 409.98 601.25 407.75
  Q 610.95 405.26 622.26 406.44
  Q 633.82 407.64 645.16 410.17
  Q 657.82 413.00 670.68 414.65
  Q 698.55 418.22 725.25 411.50
  Q 731.08 410.03 736.82 406.75
  A 1.08 1.08 80.2 0 0 737.34 406.01
  Q 737.80 403.36 737.75 401.50
  Q 737.33 385.62 737.57 369.74
  Q 737.70 360.83 737.53 351.76
  Q 737.36 342.76 737.41 333.75
  Q 737.63 295.12 737.75 255.86
  Q 737.76 254.80 737.55 253.77
  Q 737.05 251.20 738.57 251.69
  Q 739.87 252.11 739.99 252.13
  Q 743.65 252.81 747.05 254.30
  A 0.77 0.76 -78.2 0 1 747.50 255.00
  L 747.44 424.69
  A 0.58 0.57 -4.0 0 1 746.94 425.26
  Q 731.14 427.44 715.25 428.73
  Q 681.72 431.46 648.24 428.12
  Q 626.02 425.91 603.14 424.20
  A 0.61 0.61 -88.7 0 0 602.49 424.83
  L 602.77 433.74
  A 1.68 1.67 -10.7 0 1 601.65 435.37
  Q 582.51 442.20 563.59 435.37
  A 1.36 1.31 -80.6 0 1 562.72 434.10
  L 562.71 424.81
  A 0.48 0.47 -1.7 0 0 562.20 424.34
  Z"
/>
<path fill="none" stroke-width="1.00" stroke="#d9d9d9" vector-effect="non-scaling-stroke" d="
  M 679.26 276.68
  A 14.80 14.80 0.0 0 1 664.46 291.48
  A 14.80 14.80 0.0 0 1 649.66 276.68
  A 14.80 14.80 0.0 0 1 664.46 261.88
  A 14.80 14.80 0.0 0 1 679.26 276.68
  Z
  M 664.5519 289.8497
  A 13.17 8.43 89.6 0 0 672.8898 276.6211
  A 13.17 8.43 89.6 0 0 664.3681 263.5103
  A 13.17 8.43 89.6 0 0 656.0302 276.7389
  A 13.17 8.43 89.6 0 0 664.5519 289.8497
  Z"
/>
<path fill="none" stroke-width="1.00" stroke="#d9d9d9" vector-effect="non-scaling-stroke" d="
  M 494.32 287.45
  Q 495.88 278.54 494.77 266.16
  A 1.77 1.77 -4.2 0 0 492.90 264.55
  Q 491.86 264.60 490.48 263.72
  A 0.67 0.57 29.7 0 1 490.20 262.95
  Q 490.53 262.23 491.62 262.34
  Q 492.65 262.44 492.77 262.44
  Q 504.29 262.46 515.82 262.68
  A 0.61 0.53 -0.9 0 1 516.41 263.18
  L 516.73 269.44
  A 0.46 0.45 2.7 0 1 516.20 269.91
  Q 515.25 269.76 514.81 268.94
  Q 513.59 266.62 511.61 265.41
  Q 510.09 264.48 507.20 264.31
  Q 504.58 264.15 501.91 264.25
  A 1.13 1.03 -0.4 0 0 500.83 265.25
  L 500.64 274.32
  A 0.58 0.52 3.3 0 0 501.18 274.86
  Q 506.84 275.27 509.11 270.27
  A 1.21 0.58 -72.9 0 1 509.75 269.58
  Q 510.18 269.49 510.19 270.25
  Q 510.25 275.37 510.30 280.50
  Q 510.33 282.79 509.12 281.84
  A 1.61 1.04 -86.8 0 1 508.65 281.01
  Q 507.51 276.13 501.43 276.56
  A 0.94 0.89 -2.7 0 0 500.55 277.47
  L 500.75 286.27
  Q 500.80 288.36 503.08 288.86
  Q 506.25 289.55 511.40 288.84
  Q 513.09 288.61 514.26 287.37
  Q 516.10 285.42 517.43 283.15
  Q 517.77 282.56 518.17 282.47
  Q 518.64 282.35 519.00 282.69
  Q 519.24 282.92 519.31 283.39
  Q 519.66 286.03 519.41 289.94
  A 0.86 0.86 -88.2 0 1 518.55 290.75
  L 490.24 290.75
  A 0.61 0.38 3.2 0 1 489.60 290.30
  Q 489.77 289.44 493.33 288.52
  A 1.36 1.35 -2.4 0 0 494.32 287.45
  Z"
/>
<path fill="none" stroke-width="1.00" stroke="#d9d9d9" vector-effect="non-scaling-stroke" d="
  M 464.73 264.69
  A 1.13 1.09 -16.5 0 0 463.88 266.19
  L 471.15 283.48
  Q 471.41 284.11 471.72 283.49
  Q 475.77 275.40 478.43 267.22
  A 1.51 1.51 -69.2 0 0 477.60 265.37
  Q 474.19 263.90 474.47 262.90
  A 0.83 0.52 7.1 0 1 475.26 262.53
  Q 480.62 262.80 485.99 262.95
  Q 487.69 262.99 486.38 263.87
  Q 486.12 264.04 485.70 264.15
  Q 482.33 265.08 480.75 268.50
  Q 475.67 279.54 470.56 290.56
  Q 469.35 293.18 468.26 290.51
  Q 463.47 278.86 457.93 267.56
  Q 456.64 264.91 453.83 264.28
  Q 453.15 264.13 452.91 263.87
  Q 452.68 263.63 452.60 263.31
  A 0.47 0.40 -6.5 0 1 453.06 262.81
  L 467.50 262.52
  A 0.77 0.56 -5.5 0 1 468.23 262.95
  Q 468.34 263.36 468.03 263.73
  Q 467.82 263.98 467.39 264.09
  Q 465.80 264.48 464.73 264.69
  Z"
/>
<path fill="none" stroke-width="1.00" stroke="#d9d9d9" vector-effect="non-scaling-stroke" d="
  M 535.68 264.49
  Q 530.14 263.76 527.17 268.39
  Q 526.39 269.60 525.48 270.64
  Q 524.47 271.79 524.25 270.27
  Q 523.99 268.44 523.99 266.62
  Q 523.99 266.47 523.88 264.90
  Q 523.71 262.42 526.22 262.59
  Q 528.18 262.73 528.29 262.73
  Q 540.74 262.48 553.20 262.80
  A 0.61 0.60 85.3 0 1 553.78 263.30
  Q 554.45 267.20 553.67 271.07
  A 0.52 0.44 -75.2 0 1 553.08 271.48
  Q 552.42 271.25 552.11 270.42
  Q 549.63 263.82 542.55 264.51
  A 0.60 0.58 88.9 0 0 542.03 265.07
  Q 541.36 276.04 542.21 287.01
  A 1.30 1.11 -75.0 0 0 542.61 287.85
  Q 543.66 288.79 545.10 288.96
  Q 545.87 289.05 546.30 289.33
  Q 548.73 290.86 545.00 290.78
  Q 538.15 290.63 531.31 290.92
  A 0.55 0.49 -2.2 0 1 530.74 290.45
  Q 530.68 289.07 532.56 289.06
  Q 536.21 289.05 536.23 285.50
  Q 536.30 275.28 536.19 265.05
  A 0.58 0.56 3.4 0 0 535.68 264.49
  Z"
/>
<path fill="none" stroke-width="1.00" stroke="#d9d9d9" vector-effect="non-scaling-stroke" d="
  M 616.28 270.61
  Q 615.89 278.32 617.01 286.58
  Q 617.27 288.51 619.20 288.73
  Q 621.53 288.99 621.88 290.43
  A 0.43 0.39 -5.6 0 1 621.44 290.91
  L 610.00 290.74
  A 1.08 0.70 -8.9 0 1 609.17 290.37
  Q 608.69 289.59 610.25 289.25
  Q 613.90 288.45 614.00 286.75
  Q 614.35 280.79 614.30 274.81
  Q 614.26 269.67 613.99 268.70
  Q 613.08 265.37 609.19 264.06
  Q 608.50 263.83 608.31 263.24
  A 0.51 0.43 -12.3 0 1 608.75 262.67
  Q 612.78 262.06 616.75 262.89
  A 1.78 1.68 71.5 0 1 617.61 263.35
  Q 627.07 272.56 635.88 282.79
  Q 636.22 283.18 636.26 282.67
  Q 636.95 274.14 636.03 266.48
  Q 635.81 264.64 633.95 264.56
  Q 632.47 264.50 631.18 263.83
  Q 630.55 263.49 630.61 263.02
  A 0.74 0.53 1.4 0 1 631.30 262.55
  Q 636.53 262.45 641.75 262.39
  Q 645.98 262.34 643.07 264.08
  Q 642.65 264.33 641.74 264.58
  Q 639.25 265.25 639.02 268.00
  Q 637.94 281.29 638.75 288.00
  Q 639.46 293.85 636.00 290.25
  Q 626.69 280.56 617.00 270.35
  Q 616.33 269.65 616.28 270.61
  Z"
/>
<path fill="none" stroke-width="1.00" stroke="#d9d9d9" vector-effect="non-scaling-stroke" d="
  M 707.21 264.92
  Q 706.69 264.64 705.60 264.33
  Q 704.99 264.16 704.64 263.83
  Q 703.32 262.57 705.74 262.67
  Q 712.62 262.95 715.25 262.75
  Q 718.14 262.53 716.38 263.88
  Q 716.04 264.14 715.42 264.32
  Q 712.27 265.30 710.56 269.06
  Q 705.67 279.86 700.56 290.58
  Q 699.42 292.95 698.41 290.52
  Q 693.51 278.90 687.94 267.31
  Q 686.78 264.91 683.85 264.29
  Q 683.14 264.13 682.91 263.83
  Q 682.57 263.39 682.95 262.91
  A 1.18 0.80 13.3 0 1 683.81 262.58
  L 697.44 262.81
  A 0.69 0.57 -3.4 0 1 698.09 263.29
  Q 698.27 264.33 696.50 264.25
  Q 692.89 264.08 694.22 267.17
  Q 694.70 268.28 694.72 268.34
  Q 697.63 275.99 701.28 283.31
  Q 701.50 283.75 701.74 283.30
  Q 705.40 276.32 708.33 267.80
  Q 708.99 265.88 707.21 264.92
  Z"
/>
<ellipse fill="none" stroke-width="1.00" stroke="#d9d9d9" vector-effect="non-scaling-stroke" cx="0.00" cy="0.00" transform="translate(664.46,276.68) rotate(89.6)" rx="13.17" ry="8.43"/>
<rect fill="none" stroke-width="1.00" stroke="#d9d9d9" vector-effect="non-scaling-stroke" x="-7.38" y="-14.13" transform="translate(404.88,295.01) rotate(0.1)" width="14.76" height="28.26" rx="0.32"/>
<rect fill="none" stroke-width="1.00" stroke="#d9d9d9" vector-effect="non-scaling-stroke" x="-7.37" y="-14.07" transform="translate(760.38,294.96) rotate(0.1)" width="14.74" height="28.14" rx="0.28"/>
<path fill="none" stroke-width="1.00" stroke="#d9d9d9" vector-effect="non-scaling-stroke" d="
  M 645.64 325.78
  L 643.92 332.14
  A 1.02 0.86 14.8 0 0 644.69 333.23
  L 647.60 333.99
  A 0.99 0.91 87.7 0 1 648.26 334.65
  Q 648.58 335.66 647.25 335.57
  Q 642.13 335.22 637.00 335.47
  A 0.76 0.49 -5.5 0 1 636.24 335.08
  Q 636.07 334.17 638.84 332.92
  A 3.89 3.88 -88.8 0 0 640.73 331.10
  Q 645.43 321.64 649.48 311.78
  Q 650.79 308.60 652.32 307.22
  Q 653.92 305.76 654.81 307.76
  L 665.47 331.81
  A 2.91 2.80 -4.4 0 0 667.41 333.41
  Q 669.76 334.00 669.63 334.97
  A 0.71 0.54 2.6 0 1 668.94 335.45
  L 655.57 335.45
  A 0.88 0.62 -6.5 0 1 654.79 335.02
  Q 654.66 334.64 655.02 334.29
  Q 655.24 334.08 655.67 334.04
  Q 657.01 333.91 658.24 333.39
  A 0.76 0.74 79.1 0 0 658.70 332.69
  Q 658.70 329.60 656.83 326.01
  A 1.54 1.52 79.1 0 0 655.65 325.20
  Q 650.93 324.66 646.31 325.25
  A 0.82 0.69 1.9 0 0 645.64 325.78
  Z
  M 655.00 323.14
  A 0.38 0.37 -9.9 0 0 655.36 322.64
  L 652.06 314.18
  Q 651.51 312.76 650.90 314.09
  L 647.34 321.97
  A 0.80 0.73 11.5 0 0 648.09 323.00
  L 655.00 323.14
  Z"
/>
<path fill="none" stroke-width="1.00" stroke="#d9d9d9" vector-effect="non-scaling-stroke" d="
  M 532.44 321.06
  Q 527.57 317.45 528.90 312.75
  Q 530.04 308.74 534.07 307.10
  Q 538.03 305.49 542.61 307.25
  Q 542.72 307.30 543.47 307.70
  Q 544.77 308.40 545.94 307.19
  Q 548.09 304.95 547.75 307.75
  Q 547.33 311.25 547.61 314.76
  Q 547.74 316.27 546.83 315.82
  Q 546.48 315.64 546.18 315.15
  Q 545.44 313.93 544.75 312.68
  Q 543.87 311.12 543.12 310.39
  Q 540.10 307.46 536.17 308.79
  Q 533.77 309.59 532.98 311.49
  Q 532.20 313.37 533.59 315.05
  Q 534.40 316.03 536.39 316.79
  Q 539.66 318.02 542.92 319.29
  Q 547.20 320.95 548.71 322.97
  Q 550.98 326.01 549.65 329.79
  Q 548.57 332.88 545.57 334.57
  Q 540.75 337.28 534.95 335.26
  Q 534.92 335.25 533.58 334.62
  Q 531.68 333.73 529.86 335.03
  Q 528.39 336.08 528.45 334.32
  L 528.70 326.50
  A 0.86 0.70 83.5 0 1 529.18 325.75
  Q 529.80 325.53 530.19 326.31
  Q 531.35 328.63 532.54 330.41
  Q 533.98 332.58 535.96 333.50
  Q 540.39 335.58 544.11 332.48
  Q 545.75 331.12 545.73 329.37
  Q 545.72 327.94 544.84 326.77
  Q 544.21 325.91 542.69 325.36
  Q 534.00 322.22 532.44 321.06
  Z"
/>
<path fill="none" stroke-width="1.00" stroke="#d9d9d9" vector-effect="non-scaling-stroke" d="
  M 501.84 321.81
  Q 501.88 322.87 501.72 323.90
  Q 501.00 328.43 502.85 332.49
  A 1.12 1.08 -3.9 0 0 503.55 333.08
  Q 507.32 334.09 511.12 333.65
  Q 513.85 333.33 515.74 331.59
  Q 517.66 329.82 518.94 327.43
  Q 520.11 325.25 520.53 327.68
  Q 521.08 330.87 520.45 334.53
  A 0.92 0.91 -85.1 0 1 519.55 335.30
  L 491.30 335.31
  Q 489.92 335.31 490.91 334.34
  Q 492.08 333.20 493.80 333.47
  Q 495.93 333.81 495.95 331.71
  L 496.20 311.06
  A 1.36 1.31 -65.4 0 0 495.89 310.17
  Q 494.64 308.65 492.56 308.51
  Q 491.84 308.46 491.53 308.20
  Q 490.94 307.71 491.44 307.14
  A 1.23 0.91 16.1 0 1 492.30 306.82
  L 516.94 307.30
  A 0.62 0.55 -2.0 0 1 517.54 307.80
  L 518.25 314.02
  Q 518.36 314.99 517.47 314.48
  Q 516.26 313.79 515.46 312.54
  Q 513.88 310.06 511.06 309.19
  Q 507.58 308.11 502.67 309.09
  A 0.64 0.61 -5.3 0 0 502.15 309.68
  L 502.04 318.63
  A 0.58 0.55 3.3 0 0 502.57 319.19
  Q 508.31 319.69 510.08 315.22
  A 1.45 0.89 -82.0 0 1 510.68 314.49
  Q 511.72 313.99 511.58 315.62
  Q 511.51 316.49 511.53 316.89
  Q 511.71 321.82 511.38 325.09
  Q 510.98 328.99 509.75 325.26
  Q 508.00 319.93 502.31 321.19
  A 0.61 0.60 82.6 0 0 501.84 321.81
  Z"
/>
<path fill="none" stroke-width="1.00" stroke="#d9d9d9" vector-effect="non-scaling-stroke" d="
  M 467.43 309.04
  Q 460.54 308.80 457.71 315.14
  Q 457.07 316.56 456.73 315.05
  Q 455.79 310.84 456.78 307.66
  A 0.70 0.67 8.5 0 1 457.44 307.19
  L 485.43 307.31
  A 0.60 0.58 -4.5 0 1 486.02 307.80
  Q 486.61 311.62 486.02 315.45
  A 0.65 0.57 -84.6 0 1 485.45 315.99
  Q 484.39 315.98 483.95 314.77
  Q 481.58 308.31 474.68 309.12
  A 0.61 0.59 88.4 0 0 474.16 309.69
  Q 473.58 320.74 474.46 331.76
  A 1.35 1.10 -75.3 0 0 474.84 332.60
  Q 475.92 333.59 477.50 333.54
  A 1.67 1.12 -19.7 0 1 478.42 333.77
  Q 480.46 335.19 477.94 335.45
  Q 477.41 335.51 476.55 335.45
  Q 470.28 334.98 464.00 335.46
  A 0.94 0.82 -17.3 0 1 463.19 335.10
  Q 462.30 333.78 464.25 333.75
  Q 468.47 333.68 468.40 330.07
  Q 468.34 327.50 468.35 327.44
  Q 468.97 318.48 467.99 309.56
  A 0.58 0.57 87.7 0 0 467.43 309.04
  Z"
/>
<path fill="none" stroke-width="1.00" stroke="#d9d9d9" vector-effect="non-scaling-stroke" d="
  M 616.95 309.21
  Q 612.53 308.34 609.63 311.28
  Q 609.25 311.67 607.72 314.01
  Q 604.79 318.50 605.60 308.50
  A 1.38 1.36 2.3 0 1 606.97 307.25
  L 634.74 307.18
  A 0.51 0.51 0.0 0 1 635.25 307.69
  Q 635.25 311.12 635.24 314.25
  Q 635.23 317.06 633.75 315.46
  Q 633.39 315.08 633.05 314.31
  Q 630.45 308.45 623.80 309.01
  A 0.57 0.57 -1.8 0 0 623.29 309.55
  Q 622.89 319.78 623.03 330.00
  Q 623.08 333.60 627.00 333.50
  Q 628.49 333.46 628.48 334.95
  A 0.52 0.47 2.3 0 1 627.93 335.41
  Q 621.02 335.04 614.11 335.46
  Q 613.34 335.51 612.89 335.44
  Q 611.08 335.18 612.60 334.03
  A 1.64 1.12 17.8 0 1 613.51 333.76
  Q 617.75 333.70 617.57 329.53
  Q 617.50 328.06 617.50 327.97
  Q 617.54 318.89 617.44 309.81
  A 0.61 0.60 -84.9 0 0 616.95 309.21
  Z"
/>
<path fill="none" stroke-width="1.00" stroke="#d9d9d9" vector-effect="non-scaling-stroke" d="
  M 704.97 312.04
  Q 705.00 309.31 703.82 311.80
  L 693.16 334.24
  Q 692.94 334.70 692.69 334.26
  Q 689.01 328.00 686.11 321.34
  Q 683.84 316.11 681.15 311.08
  Q 680.99 310.80 680.74 310.75
  A 0.49 0.37 -86.6 0 0 680.31 311.25
  Q 680.26 320.33 680.88 329.39
  Q 681.02 331.31 681.95 332.29
  Q 683.11 333.51 684.85 333.94
  Q 685.55 334.12 685.91 334.40
  Q 687.55 335.67 684.26 335.40
  Q 679.13 334.97 673.99 335.42
  Q 672.25 335.58 672.94 334.44
  Q 673.19 334.02 673.75 333.80
  Q 674.99 333.31 675.94 333.06
  Q 677.78 332.59 677.92 330.70
  Q 678.64 320.72 677.99 310.89
  A 1.77 1.76 2.2 0 0 676.47 309.26
  Q 673.14 308.81 672.98 307.79
  A 0.57 0.42 -3.3 0 1 673.57 307.30
  L 684.94 307.30
  A 0.81 0.78 76.7 0 1 685.65 307.76
  L 694.01 325.77
  Q 694.51 326.85 695.04 325.77
  L 703.58 308.25
  A 0.99 0.95 6.8 0 1 704.29 307.72
  Q 710.87 306.53 714.25 307.25
  Q 716.55 307.74 714.72 308.56
  Q 714.38 308.71 713.75 308.82
  Q 710.26 309.45 710.39 312.93
  Q 710.46 314.95 710.46 315.08
  Q 710.36 318.96 710.69 329.56
  Q 710.81 333.65 714.24 333.97
  Q 714.95 334.04 715.21 334.19
  Q 715.82 334.55 715.35 335.15
  A 1.18 0.87 14.0 0 1 714.50 335.50
  L 701.07 335.44
  A 0.77 0.58 -5.0 0 1 700.35 334.99
  Q 700.09 333.85 703.22 333.63
  A 1.62 1.55 -1.8 0 0 704.73 332.09
  L 704.97 312.04
  Z"
/>
<path fill="none" stroke-width="1.00" stroke="#d9d9d9" vector-effect="non-scaling-stroke" d="
  M 655.00 323.14
  L 648.09 323.00
  A 0.80 0.73 11.5 0 1 647.34 321.97
  L 650.90 314.09
  Q 651.51 312.76 652.06 314.18
  L 655.36 322.64
  A 0.38 0.37 -9.9 0 1 655.00 323.14
  Z"
/>
<path fill="none" stroke-width="1.00" stroke="#d9d9d9" vector-effect="non-scaling-stroke" d="
  M 480.55 363.57
  Q 485.42 364.81 487.85 360.32
  Q 489.39 357.46 489.47 360.71
  Q 489.55 364.16 489.51 369.00
  Q 489.48 373.38 487.95 370.15
  Q 487.79 369.80 487.53 368.94
  Q 486.66 365.95 483.62 365.74
  Q 483.34 365.72 481.42 365.43
  Q 479.82 365.19 479.88 367.04
  Q 479.94 368.60 479.91 368.98
  Q 479.61 372.69 480.29 375.60
  A 2.71 2.70 -89.3 0 0 482.25 377.61
  Q 492.82 380.36 496.72 372.39
  A 1.45 0.94 -78.1 0 1 497.38 371.73
  Q 498.82 371.20 498.75 373.50
  Q 498.63 377.32 498.28 379.44
  A 0.60 0.59 4.5 0 1 497.69 379.94
  L 469.70 379.81
  A 0.46 0.39 6.3 0 1 469.24 379.32
  Q 469.58 378.04 471.99 377.98
  Q 473.85 377.93 474.02 376.08
  Q 474.95 365.60 474.10 355.36
  A 1.89 1.88 3.5 0 0 472.61 353.68
  Q 469.00 352.94 469.67 351.86
  A 1.04 0.72 11.2 0 1 470.50 351.50
  L 494.94 351.80
  A 0.71 0.71 -9.9 0 1 495.61 352.27
  Q 496.85 355.67 496.32 357.83
  Q 495.78 360.08 494.41 358.22
  Q 490.90 353.46 487.00 353.48
  Q 484.12 353.50 480.92 353.50
  A 0.91 0.89 -0.3 0 0 480.01 354.40
  L 480.05 362.94
  A 0.65 0.65 6.8 0 0 480.55 363.57
  Z"
/>
<path fill="none" stroke-width="1.00" stroke="#d9d9d9" vector-effect="non-scaling-stroke" d="
  M 532.44 371.61
  Q 532.98 363.57 531.76 355.56
  A 1.68 1.29 -77.6 0 0 531.35 354.69
  Q 530.11 353.45 528.25 353.47
  A 1.65 1.16 -19.8 0 1 527.34 353.22
  Q 524.49 351.23 529.00 351.56
  Q 533.88 351.91 538.75 351.54
  A 1.62 1.12 -22.0 0 1 539.68 351.75
  Q 540.85 352.55 539.06 353.06
  Q 536.81 353.71 535.63 355.28
  Q 534.76 356.44 534.68 358.94
  Q 534.35 368.89 534.51 379.30
  Q 534.55 381.85 532.78 380.03
  L 512.98 359.59
  Q 511.95 358.53 511.98 360.00
  Q 512.15 367.30 512.62 374.00
  Q 512.77 376.10 513.87 377.10
  Q 515.20 378.29 517.18 378.60
  Q 518.08 378.75 518.11 379.28
  A 0.61 0.46 -1.9 0 1 517.50 379.77
  L 505.17 379.81
  Q 504.32 379.81 504.92 379.20
  Q 505.94 378.16 508.06 377.71
  A 2.19 2.19 -2.6 0 0 509.77 375.84
  Q 510.60 369.26 510.18 362.54
  Q 509.90 358.02 509.88 357.96
  Q 509.31 355.46 506.66 354.20
  Q 505.29 353.55 504.19 352.56
  Q 503.00 351.50 504.75 351.50
  Q 507.12 351.50 509.50 351.52
  Q 513.25 351.56 515.72 354.30
  Q 523.72 363.15 532.01 371.76
  Q 532.41 372.17 532.44 371.61
  Z"
/>
<path fill="none" stroke-width="1.00" stroke="#d9d9d9" vector-effect="non-scaling-stroke" d="
  M 654.58 372.33
  Q 655.05 373.57 655.65 372.38
  Q 658.86 366.01 661.26 359.64
  Q 661.30 359.52 661.94 358.03
  Q 663.71 353.92 659.00 353.30
  A 1.24 0.97 -8.9 0 1 658.19 352.85
  Q 657.30 351.53 659.13 351.67
  Q 660.12 351.75 660.38 351.75
  Q 664.82 351.75 669.25 351.72
  Q 671.08 351.71 670.52 352.83
  A 1.11 0.82 3.7 0 1 669.75 353.32
  Q 666.44 353.87 665.31 356.31
  Q 659.74 368.34 654.11 380.21
  Q 653.33 381.86 652.57 380.20
  Q 648.07 370.38 643.76 360.50
  Q 643.06 358.89 641.06 355.69
  Q 639.95 353.90 638.17 353.52
  Q 637.41 353.36 637.04 353.12
  Q 634.92 351.74 638.25 351.74
  Q 644.88 351.75 651.50 351.87
  Q 652.75 351.89 652.32 352.45
  A 2.37 2.35 -73.9 0 1 650.74 353.33
  Q 646.85 353.77 647.81 355.94
  Q 651.52 364.35 654.58 372.33
  Z"
/>
<path fill="none" stroke-width="1.00" stroke="#d9d9d9" vector-effect="non-scaling-stroke" d="
  M 681.13 354.74
  L 680.97 354.76
  A 0.23 0.18 87.2 0 0 680.81 354.98
  Q 680.96 363.66 681.20 372.33
  Q 681.27 374.90 681.92 376.04
  Q 682.94 377.82 685.16 378.44
  Q 685.81 378.62 686.15 378.84
  Q 687.94 379.99 685.00 380.04
  Q 680.78 380.10 676.56 379.86
  Q 675.97 379.83 675.11 380.06
  Q 673.68 380.44 673.73 379.31
  A 0.91 0.77 -12.0 0 1 674.27 378.61
  L 677.73 377.12
  A 0.91 0.85 -8.5 0 0 678.26 376.45
  Q 679.40 368.37 678.86 360.23
  Q 678.86 360.14 678.91 357.27
  Q 678.99 353.43 674.75 353.48
  A 1.49 0.84 -13.6 0 1 673.83 353.22
  Q 673.25 352.72 673.57 351.99
  A 0.85 0.67 9.6 0 1 674.32 351.58
  L 685.38 351.81
  A 1.35 1.34 -11.6 0 1 686.57 352.59
  L 694.80 370.76
  Q 695.22 371.69 695.67 370.74
  L 704.01 353.16
  Q 704.73 351.64 706.54 351.71
  Q 710.81 351.88 714.25 351.61
  Q 714.93 351.56 715.37 351.65
  Q 716.90 351.97 715.47 352.96
  Q 715.11 353.20 714.46 353.34
  Q 712.98 353.67 711.86 354.66
  A 1.32 1.15 75.2 0 0 711.45 355.49
  Q 710.47 364.97 711.34 374.44
  Q 711.54 376.53 712.30 377.34
  Q 713.36 378.48 715.44 378.56
  Q 716.31 378.60 716.27 379.45
  A 0.61 0.53 -0.2 0 1 715.68 379.96
  Q 709.08 380.19 702.49 379.85
  Q 698.71 379.66 704.35 377.81
  A 1.57 1.56 -8.9 0 0 705.43 376.34
  L 705.69 355.31
  Q 705.71 353.71 705.00 355.25
  L 694.30 378.58
  Q 693.68 379.95 693.03 378.61
  L 681.57 355.10
  A 0.59 0.33 68.7 0 0 681.13 354.74
  Z"
/>
<path fill="none" stroke-width="1.00" stroke="#d9d9d9" vector-effect="non-scaling-stroke" d="
  M 615.94 353.53
  Q 609.73 353.20 607.00 358.53
  Q 606.59 359.33 606.18 359.70
  Q 604.54 361.18 604.68 358.36
  Q 604.73 357.34 604.72 356.64
  Q 604.69 354.66 605.04 352.26
  A 0.60 0.59 3.9 0 1 605.63 351.75
  L 633.69 351.81
  A 0.58 0.57 86.0 0 1 634.26 352.31
  Q 634.71 355.65 634.49 359.23
  Q 634.22 363.31 632.74 359.50
  Q 630.23 353.07 623.11 353.49
  A 0.65 0.65 -1.9 0 0 622.50 354.14
  Q 622.50 364.25 622.50 374.00
  Q 622.50 377.89 625.96 378.22
  Q 626.59 378.28 626.98 378.48
  Q 629.57 379.75 625.75 379.68
  Q 619.62 379.58 613.49 379.83
  Q 610.34 379.96 612.27 378.57
  Q 612.68 378.28 613.34 378.21
  Q 614.67 378.07 615.86 377.53
  A 0.92 0.86 82.3 0 0 616.37 376.81
  Q 617.68 365.44 616.49 354.05
  A 0.58 0.58 88.3 0 0 615.94 353.53
  Z"
/>
<rect fill="none" stroke-width="1.00" stroke="#d9d9d9" vector-effect="non-scaling-stroke" x="-7.40" y="-14.12" transform="translate(404.90,378.38) rotate(0.2)" width="14.80" height="28.24" rx="0.56"/>
<rect fill="none" stroke-width="1.00" stroke="#d9d9d9" vector-effect="non-scaling-stroke" x="753.00" y="364.25" width="14.76" height="28.22" rx="0.61"/>
<path fill="none" stroke-width="1.00" stroke="#d9d9d9" vector-effect="non-scaling-stroke" d="
  M 966.21 482.00
  Q 935.04 630.30 860.71 762.25
  L 582.61 496.59
  A 0.52 0.52 -45.4 0 0 581.89 496.60
  Q 453.28 619.38 324.69 742.19
  Q 308.20 757.93 304.50 761.29
  Q 230.55 629.95 198.71 482.50
  Q 198.77 481.50 200.25 481.75
  Q 202.66 482.15 216.25 482.15
  Q 591.23 482.00 966.21 482.00
  Z"
/>
<path fill="none" stroke-width="1.00" stroke="#d9d9d9" vector-effect="non-scaling-stroke" d="
  M 860.71 762.25
  Q 821.76 831.40 772.04 893.25
  Q 772.00 892.51 771.46 892.14
  Q 770.80 891.69 770.74 891.63
  Q 676.81 801.00 582.82 710.20
  A 0.64 0.64 90.0 0 0 581.92 710.20
  Q 502.86 786.61 423.69 863.19
  Q 398.30 887.74 393.21 892.50
  Q 389.44 888.17 382.44 879.06
  Q 338.55 821.94 304.50 761.29
  Q 308.20 757.93 324.69 742.19
  Q 453.28 619.38 581.89 496.60
  A 0.52 0.52 -45.4 0 1 582.61 496.59
  L 860.71 762.25
  Z"
/>
<path fill="none" stroke-width="1.00" stroke="#d9d9d9" vector-effect="non-scaling-stroke" d="
  M 772.04 893.25
  Q 689.21 996.43 582.90 1075.20
  A 0.67 0.67 -90.0 0 1 582.10 1075.20
  Q 475.88 996.03 393.21 892.50
  Q 398.30 887.74 423.69 863.19
  Q 502.86 786.61 581.92 710.20
  A 0.64 0.64 -0.0 0 1 582.82 710.20
  Q 676.81 801.00 770.74 891.63
  Q 770.80 891.69 771.46 892.14
  Q 772.00 892.51 772.04 893.25
  Z"
/>
</svg>
