<?xml version="1.0" encoding="UTF-8" standalone="no"?>
<svg width="15px" height="15px" viewBox="0 0 15 15" version="1.1" xmlns="http://www.w3.org/2000/svg" xmlns:xlink="http://www.w3.org/1999/xlink">
    <!-- Generator: Sketch 43.2 (39069) - http://www.bohemiancoding.com/sketch -->
    <title>Spotify</title>
    <desc>Created with Sketch.</desc>
    <defs></defs>
    <g id="Page-1" stroke="none" stroke-width="1" fill="none" fill-rule="evenodd">
        <g id="Desktop-HD" transform="translate(-502.000000, -959.000000)" fill-rule="nonzero" fill="#D9D9D9">
            <g id="Playlist" transform="translate(502.000000, 927.000000)">
                <path d="M7.49995522,32 C3.35793226,32 0,35.3578427 0,39.4998657 C0,43.6420677 3.35793226,46.9996418 7.49995522,46.9996418 C11.642426,46.9996418 15,43.6420677 15,39.4998657 C15,35.3581114 11.642426,32.0003582 7.49986566,32.0003582 L7.49995522,32 L7.49995522,32 Z M10.9393863,42.8169589 C10.8050476,43.0372745 10.516667,43.1071307 10.2963514,42.9718963 C8.53543857,41.8962905 6.31866951,41.6526895 3.70801913,42.2491537 C3.45644737,42.3064715 3.20568163,42.1488474 3.14836375,41.8971861 C3.09077719,41.6455247 3.24777445,41.394759 3.49997313,41.3374411 C6.35691128,40.6844651 8.80751939,40.9657705 10.7844489,42.1739239 C11.0047645,42.3091583 11.0746207,42.5966433 10.9393863,42.8169589 L10.9393863,42.8169589 Z M11.857368,40.7745616 C11.6881012,41.0499561 11.3280732,41.1368285 11.0531265,40.9675617 C9.03714915,39.728152 5.96410468,39.3692884 3.57959125,40.0931057 C3.27034337,40.186516 2.94372101,40.0122338 2.84986297,39.7035233 C2.75672142,39.3942754 2.93109316,39.0682799 3.23980369,38.9742428 C5.96356732,38.1477906 9.34971072,38.5481202 11.6648158,39.9707679 C11.9397625,40.1400347 12.0266349,40.5000627 11.857368,40.7746512 L11.857368,40.7745616 Z M11.9361801,38.6480682 C9.51897759,37.2123448 5.53090688,37.0803346 3.22305612,37.780777 C2.85246019,37.8931738 2.46054918,37.6839635 2.34824195,37.3133676 C2.23593473,36.9425926 2.44496588,36.5509502 2.81583048,36.4382848 C5.46508087,35.6340432 9.86915402,35.7894284 12.6521163,37.4415268 C12.9861721,37.6393631 13.0954343,38.0698741 12.8975085,38.4027656 C12.7004782,38.7361049 12.268803,38.845994 11.9365384,38.6480682 L11.9361801,38.6480682 Z" id="Spotify"></path>
            </g>
        </g>
    </g>
</svg>