<?xml version="1.0" encoding="UTF-8" standalone="no"?>
<svg width="14px" height="12px" viewBox="0 0 14 12" version="1.1" xmlns="http://www.w3.org/2000/svg" xmlns:xlink="http://www.w3.org/1999/xlink">
    <!-- Generator: Sketch 43.2 (39069) - http://www.bohemiancoding.com/sketch -->
    <title>Twitter</title>
    <desc>Created with Sketch.</desc>
    <defs></defs>
    <g id="Page-1" stroke="none" stroke-width="1" fill="none" fill-rule="evenodd">
        <g id="Desktop-HD" transform="translate(-680.000000, -960.000000)" fill-rule="nonzero" fill="#D9D9D9">
            <g id="Media" transform="translate(649.000000, 927.000000)">
                <path d="M45.071,34.357 C44.678,34.928 44.187,35.437 43.625,35.848 C43.634,35.973 43.634,36.098 43.634,36.223 C43.634,40.036 40.732,44.428 35.429,44.428 C33.795,44.428 32.277,43.955 31,43.133 C31.232,43.16 31.455,43.169 31.696,43.169 C33.044,43.169 34.285,42.714 35.276,41.937 C34.008,41.91 32.946,41.08 32.58,39.937 C32.759,39.964 32.937,39.982 33.125,39.982 C33.384,39.982 33.643,39.946 33.884,39.884 C32.563,39.616 31.571,38.455 31.571,37.054 L31.571,37.018 C31.955,37.232 32.401,37.366 32.875,37.384 C32.098,36.866 31.589,35.982 31.589,34.982 C31.589,34.446 31.732,33.955 31.982,33.527 C33.402,35.277 35.536,36.42 37.928,36.545 C37.883,36.331 37.857,36.107 37.857,35.884 C37.857,34.295 39.143,33 40.741,33 C41.571,33 42.321,33.348 42.848,33.911 C43.5,33.786 44.125,33.545 44.678,33.215 C44.464,33.885 44.008,34.447 43.41,34.804 C43.99,34.741 44.553,34.581 45.071,34.358 L45.071,34.357 Z" id="Twitter"></path>
            </g>
        </g>
    </g>
</svg>