<?xml version="1.0" encoding="UTF-8" standalone="no"?>
<!DOCTYPE svg PUBLIC "-//W3C//DTD SVG 1.1//EN" "http://www.w3.org/Graphics/SVG/1.1/DTD/svg11.dtd">
<svg xmlns="http://www.w3.org/2000/svg" version="1.1" viewBox="0 0 632 671" height="108px">
<path fill="none" stroke-width="1.00" stroke="#d9d9d9" vector-effect="non-scaling-stroke" d="
  M 223.81 232.60
  L 223.75 321.74
  A 0.51 0.51 0.0 0 0 224.26 322.25
  L 259.73 322.25
  A 0.71 0.70 -0.0 0 1 260.44 322.95
  L 260.50 412.13
  A 0.87 0.87 0.0 0 1 259.63 413.00
  L 91.45 412.94
  A 0.71 0.70 90.0 0 1 90.75 412.23
  L 90.75 322.91
  A 0.66 0.66 -89.8 0 1 91.41 322.25
  L 124.44 322.25
  A 0.56 0.56 0.0 0 0 125.00 321.69
  L 125.00 182.31
  A 0.56 0.56 0.0 0 0 124.44 181.75
  L 91.41 181.75
  A 0.66 0.66 0.0 0 1 90.75 181.09
  L 90.75 91.77
  A 0.71 0.70 -90.0 0 1 91.45 91.06
  L 223.49 91.00
  A 1.07 1.06 71.8 0 1 224.35 91.44
  L 315.38 217.53
  A 0.37 0.37 90.0 0 0 315.98 217.53
  L 407.27 91.46
  A 0.98 0.97 17.7 0 1 408.06 91.06
  L 540.13 91.00
  A 0.87 0.87 0.0 0 1 541.00 91.87
  L 540.94 181.05
  A 0.71 0.70 -0.0 0 1 540.23 181.75
  L 507.06 181.75
  A 0.56 0.56 0.0 0 0 506.50 182.31
  L 506.50 321.69
  A 0.56 0.56 0.0 0 0 507.06 322.25
  L 540.44 322.25
  A 0.56 0.56 -89.8 0 1 541.00 322.81
  L 541.00 412.13
  A 0.87 0.87 0.0 0 1 540.13 413.00
  L 371.94 413.00
  A 0.69 0.69 0.0 0 1 371.25 412.31
  L 371.25 323.06
  A 0.81 0.81 0.0 0 1 372.06 322.25
  L 407.25 322.25
  A 0.50 0.50 0.0 0 0 407.75 321.75
  L 407.75 232.67
  Q 407.75 231.47 407.04 232.44
  L 315.51 356.84
  A 0.32 0.31 -44.6 0 1 315.00 356.84
  L 224.46 232.39
  Q 223.81 231.50 223.81 232.60
  Z"
/>
<path fill="none" stroke-width="1.00" stroke="#d9d9d9" vector-effect="non-scaling-stroke" d="
  M 339.44 464.81
  Q 336.91 462.33 333.05 462.20
  Q 330.52 462.12 328.67 463.02
  Q 326.05 464.30 326.04 467.09
  Q 326.02 469.89 328.64 471.98
  Q 331.26 474.07 334.75 474.75
  Q 335.66 474.93 338.58 476.22
  Q 340.91 477.25 342.14 478.21
  Q 346.44 481.55 346.69 487.06
  Q 346.85 490.66 344.98 493.78
  Q 343.33 496.54 340.12 498.28
  Q 332.64 502.34 324.21 498.25
  Q 321.60 496.99 319.06 494.99
  A 1.45 1.36 -73.8 0 1 318.54 493.97
  L 318.10 487.32
  A 0.74 0.63 79.8 0 1 318.51 486.61
  Q 319.37 486.29 320.23 486.60
  A 1.16 0.89 86.9 0 1 320.83 487.30
  Q 323.67 496.53 332.75 496.22
  Q 335.89 496.11 337.82 494.66
  Q 340.66 492.55 339.61 488.97
  Q 338.97 486.81 336.96 485.22
  Q 334.98 483.66 332.75 483.00
  Q 328.89 481.87 325.74 480.17
  Q 322.02 478.17 320.51 475.06
  Q 318.59 471.14 319.77 466.91
  Q 320.82 463.18 324.28 460.76
  Q 331.62 455.63 340.76 460.42
  Q 341.91 461.02 342.93 459.60
  Q 343.82 458.37 343.99 459.88
  L 345.13 470.45
  A 1.01 0.79 71.7 0 1 344.83 471.29
  Q 344.26 471.76 343.54 471.60
  A 1.00 0.79 83.5 0 1 342.91 470.96
  Q 341.52 466.86 339.44 464.81
  Z"
/>
<path fill="none" stroke-width="1.00" stroke="#d9d9d9" vector-effect="non-scaling-stroke" d="
  M 471.01 491.15
  Q 467.06 485.04 468.00 476.75
  Q 469.07 467.32 475.81 462.40
  Q 480.61 458.89 486.95 458.51
  Q 493.34 458.14 498.94 461.31
  Q 505.54 465.05 507.70 473.22
  Q 510.02 482.00 506.58 489.32
  Q 503.49 495.88 496.68 498.90
  Q 489.45 502.11 481.92 499.47
  Q 474.77 496.96 471.01 491.15
  Z
  M 488.5873 496.4879
  A 17.02 11.33 89.1 0 0 499.6486 479.2920
  A 17.02 11.33 89.1 0 0 488.0527 462.4521
  A 17.02 11.33 89.1 0 0 476.9914 479.6480
  A 17.02 11.33 89.1 0 0 488.5873 496.4879
  Z"
/>
<path fill="none" stroke-width="1.00" stroke="#d9d9d9" vector-effect="non-scaling-stroke" d="
  M 91.68 461.58
  Q 89.35 461.22 90.52 459.46
  A 0.98 0.87 14.6 0 1 91.31 459.06
  Q 98.78 458.96 106.25 459.00
  Q 106.30 459.00 107.25 458.95
  Q 109.21 458.85 108.44 460.74
  A 1.51 1.51 -79.1 0 1 107.04 461.69
  Q 103.42 461.69 103.37 465.25
  Q 103.25 473.63 103.25 482.00
  Q 103.25 486.26 104.21 489.26
  Q 105.78 494.13 109.94 495.36
  Q 113.60 496.44 117.47 494.81
  Q 122.78 492.58 123.55 485.76
  Q 124.44 477.92 124.32 470.04
  Q 124.24 465.07 124.22 464.97
  Q 123.59 461.69 119.50 461.51
  A 1.01 0.87 -12.7 0 1 118.72 461.09
  Q 117.51 459.11 120.00 459.00
  Q 122.48 458.89 133.19 459.05
  A 0.80 0.76 -10.1 0 1 133.90 459.52
  Q 134.66 461.39 132.91 461.53
  Q 131.54 461.63 131.16 461.84
  Q 129.37 462.79 129.25 465.25
  Q 128.51 480.50 128.50 483.25
  Q 128.48 488.50 126.06 492.68
  Q 123.72 496.70 119.05 498.71
  Q 111.29 502.04 103.35 498.50
  Q 99.76 496.89 97.75 494.20
  Q 95.38 491.01 95.25 487.25
  Q 94.88 476.28 94.86 465.31
  Q 94.85 462.07 91.68 461.58
  Z"
/>
<path fill="none" stroke-width="1.00" stroke="#d9d9d9" vector-effect="non-scaling-stroke" d="
  M 146.80 470.31
  Q 146.55 481.43 146.94 492.54
  Q 147.01 494.66 148.06 495.58
  Q 149.39 496.76 151.50 496.69
  Q 154.00 496.60 153.15 498.72
  A 0.77 0.76 10.7 0 1 152.44 499.20
  L 137.56 499.20
  A 0.76 0.73 -10.1 0 1 136.86 498.73
  Q 136.07 496.70 138.50 496.75
  Q 141.62 496.82 141.75 494.50
  Q 142.61 479.67 142.44 464.81
  A 1.48 1.28 -68.2 0 0 142.13 463.91
  Q 140.65 462.12 138.25 461.73
  Q 136.10 461.37 136.84 459.52
  A 0.79 0.75 10.5 0 1 137.56 459.05
  L 148.44 459.05
  A 1.00 0.96 71.1 0 1 149.23 459.46
  Q 158.76 472.51 169.17 484.86
  Q 169.50 485.25 169.52 484.75
  Q 169.88 476.48 169.78 468.20
  Q 169.74 464.47 169.45 463.84
  Q 168.50 461.77 164.77 461.64
  A 1.91 1.90 -12.5 0 1 163.14 460.61
  Q 162.23 458.85 165.00 458.88
  Q 171.72 458.95 178.43 459.05
  A 0.85 0.71 -8.6 0 1 179.17 459.50
  Q 179.51 460.33 179.04 461.11
  A 1.01 0.71 10.5 0 1 178.24 461.48
  Q 176.40 461.48 175.41 462.74
  Q 174.77 463.57 174.69 465.43
  Q 174.03 482.18 173.94 498.93
  A 0.76 0.68 81.4 0 1 173.48 499.63
  Q 171.60 500.33 170.31 498.69
  Q 159.03 484.20 147.14 470.20
  Q 146.81 469.81 146.80 470.31
  Z"
/>
<path fill="none" stroke-width="1.00" stroke="#d9d9d9" vector-effect="non-scaling-stroke" d="
  M 183.59 461.20
  Q 182.48 459.88 183.75 459.26
  Q 184.28 459.00 185.29 459.00
  Q 192.36 458.96 199.44 459.05
  A 0.79 0.74 -9.3 0 1 200.15 459.52
  Q 200.90 461.45 198.18 461.83
  Q 196.35 462.09 195.83 463.86
  Q 195.29 465.72 195.33 468.50
  Q 195.50 480.63 195.55 492.75
  Q 195.57 496.85 199.44 496.83
  A 0.80 0.64 -8.3 0 1 200.15 497.25
  Q 200.43 497.98 200.16 498.73
  A 0.78 0.71 9.0 0 1 199.44 499.20
  L 184.06 499.20
  A 0.82 0.72 -10.2 0 1 183.33 498.76
  Q 182.90 497.78 183.61 497.06
  A 1.60 0.86 7.2 0 1 184.50 496.72
  Q 188.29 496.34 188.08 492.55
  Q 188.00 491.03 188.00 490.94
  Q 188.00 478.34 187.97 465.75
  Q 187.96 462.00 184.44 461.60
  A 1.41 1.01 -10.4 0 1 183.59 461.20
  Z"
/>
<path fill="none" stroke-width="1.00" stroke="#d9d9d9" vector-effect="non-scaling-stroke" d="
  M 226.06 488.39
  L 235.06 464.60
  Q 235.83 462.54 233.64 462.08
  L 230.42 461.41
  A 0.94 0.77 -0.3 0 1 229.74 460.86
  Q 229.49 460.05 229.97 459.42
  A 1.12 0.86 13.6 0 1 230.81 459.05
  L 243.19 459.05
  A 0.78 0.71 -9.0 0 1 243.91 459.52
  Q 244.22 460.33 243.82 461.14
  A 1.22 0.84 -0.6 0 1 243.07 461.67
  Q 240.08 462.40 238.81 465.31
  Q 231.65 481.81 224.84 498.45
  Q 224.33 499.69 223.52 499.99
  Q 222.58 500.33 221.78 499.62
  Q 221.33 499.21 220.97 498.22
  Q 215.11 481.94 209.00 465.75
  Q 207.74 462.40 204.56 461.55
  A 1.10 0.87 0.4 0 1 203.86 460.99
  Q 202.98 458.85 205.50 458.87
  Q 213.84 458.95 222.18 459.06
  A 0.78 0.70 -9.1 0 1 222.89 459.52
  Q 223.63 461.42 221.25 461.50
  Q 216.07 461.66 217.96 466.49
  Q 218.78 468.59 218.81 468.68
  Q 222.09 478.51 225.46 488.37
  Q 225.75 489.22 226.06 488.39
  Z"
/>
<path fill="none" stroke-width="1.00" stroke="#d9d9d9" vector-effect="non-scaling-stroke" d="
  M 257.55 481.05
  Q 257.45 486.28 257.39 491.50
  Q 257.36 494.55 260.33 495.09
  Q 266.98 496.29 270.25 495.00
  Q 272.86 493.97 274.31 490.31
  Q 275.49 487.33 276.47 489.50
  Q 276.76 490.15 276.66 491.05
  Q 276.25 494.77 276.00 498.51
  A 0.79 0.79 -88.1 0 1 275.21 499.25
  L 246.25 499.25
  A 1.05 0.85 -13.5 0 1 245.43 498.86
  Q 244.85 497.99 245.44 497.13
  A 1.08 0.77 11.1 0 1 246.25 496.76
  Q 249.89 496.69 250.00 492.50
  Q 250.46 474.78 249.83 464.67
  Q 249.74 463.17 249.10 462.54
  Q 248.23 461.68 246.73 461.75
  A 1.50 1.48 -9.8 0 1 245.24 460.71
  Q 244.66 458.83 246.54 458.95
  Q 247.38 459.00 247.46 459.00
  Q 260.24 459.00 273.40 459.00
  A 0.58 0.54 -1.0 0 1 273.98 459.52
  L 274.22 467.69
  A 1.23 1.10 69.6 0 1 273.88 468.56
  Q 273.17 469.24 272.40 468.56
  A 1.62 0.95 -85.2 0 1 271.99 467.70
  Q 271.25 463.61 267.50 463.25
  Q 263.51 462.87 258.59 463.03
  A 1.08 1.05 -1.1 0 0 257.54 464.09
  L 257.66 476.06
  A 0.62 0.58 4.6 0 0 258.19 476.64
  Q 262.18 477.19 265.25 476.25
  Q 267.53 475.55 267.73 473.00
  A 1.17 0.77 82.8 0 1 268.13 472.19
  Q 268.78 471.78 269.49 472.07
  A 0.82 0.72 -80.7 0 1 269.95 472.81
  L 269.95 484.44
  A 1.00 0.83 76.7 0 1 269.55 485.24
  Q 268.01 486.19 267.53 482.65
  A 2.09 1.89 86.9 0 0 265.70 480.84
  L 258.06 480.53
  A 0.53 0.49 -88.4 0 0 257.55 481.05
  Z"
/>
<path fill="none" stroke-width="1.00" stroke="#d9d9d9" vector-effect="non-scaling-stroke" d="
  M 292.54 482.07
  Q 292.39 486.19 292.75 492.75
  Q 292.97 496.79 296.68 496.82
  A 0.81 0.68 -8.4 0 1 297.39 497.26
  Q 298.13 499.23 295.50 499.25
  Q 288.41 499.29 281.32 499.20
  A 0.82 0.75 -9.9 0 1 280.60 498.74
  Q 279.75 496.68 282.19 496.69
  Q 285.25 496.69 285.25 493.75
  Q 285.25 480.51 285.25 467.27
  Q 285.25 467.21 285.32 465.73
  Q 285.52 461.80 281.50 461.52
  A 1.20 0.83 -9.3 0 1 280.68 461.13
  Q 280.07 460.25 280.72 459.42
  A 1.16 0.88 14.1 0 1 281.57 459.06
  Q 296.42 459.02 301.00 459.25
  Q 309.57 459.68 311.31 466.55
  Q 312.36 470.73 310.59 474.29
  Q 308.81 477.88 304.60 480.09
  A 0.61 0.61 -29.4 0 0 304.36 480.94
  Q 308.22 487.32 312.00 494.00
  Q 313.95 497.45 317.27 498.38
  A 1.66 0.92 1.7 0 1 318.10 498.87
  Q 318.77 499.76 317.25 500.00
  Q 307.86 501.49 303.31 494.19
  Q 302.31 492.58 297.94 483.56
  Q 296.61 480.82 293.05 481.46
  A 0.65 0.62 86.2 0 0 292.54 482.07
  Z
  M 293.29 477.60
  Q 296.70 478.24 299.18 477.29
  Q 301.62 476.35 303.25 473.56
  Q 305.81 469.14 301.95 465.47
  Q 300.29 463.90 298.07 463.31
  Q 295.81 462.71 293.51 462.97
  A 1.14 1.13 86.9 0 0 292.50 464.10
  L 292.50 476.65
  A 0.97 0.97 5.4 0 0 293.29 477.60
  Z"
/>
<path fill="none" stroke-width="1.00" stroke="#d9d9d9" vector-effect="non-scaling-stroke" d="
  M 349.31 461.23
  Q 348.53 460.39 349.23 459.44
  A 1.08 0.91 15.1 0 1 350.06 459.05
  L 364.94 459.05
  A 0.79 0.73 -9.7 0 1 365.66 459.52
  Q 366.01 460.45 365.49 461.28
  A 0.93 0.75 14.5 0 1 364.70 461.64
  Q 362.77 461.52 362.00 462.75
  Q 361.03 464.30 361.15 466.84
  Q 361.25 469.08 361.25 469.18
  Q 361.25 481.22 361.30 493.25
  Q 361.32 496.52 364.25 496.75
  Q 366.35 496.91 365.65 498.73
  A 0.77 0.75 10.7 0 1 364.94 499.20
  L 349.82 499.20
  A 0.79 0.73 -9.7 0 1 349.10 498.73
  Q 348.40 496.90 350.69 496.69
  Q 354.06 496.37 353.99 492.50
  Q 353.75 479.13 353.71 465.75
  Q 353.70 462.00 350.19 461.60
  A 1.59 0.92 -7.3 0 1 349.31 461.23
  Z"
/>
<path fill="none" stroke-width="1.00" stroke="#d9d9d9" vector-effect="non-scaling-stroke" d="
  M 383.68 463.53
  Q 376.80 463.17 375.50 463.75
  Q 372.09 465.27 371.78 469.01
  Q 371.70 470.02 371.32 470.34
  Q 370.79 470.81 369.99 470.43
  A 0.82 0.72 -78.3 0 1 369.56 469.68
  L 369.80 459.52
  A 0.55 0.53 0.5 0 1 370.35 459.00
  L 405.39 459.00
  A 0.88 0.85 -1.0 0 1 406.27 459.82
  L 406.68 469.43
  A 1.11 0.93 72.9 0 1 406.32 470.29
  Q 405.50 470.92 404.63 470.32
  A 1.07 0.81 -76.3 0 1 404.27 469.49
  Q 404.38 464.85 400.44 463.81
  Q 397.58 463.06 392.43 463.63
  A 0.57 0.56 87.7 0 0 391.93 464.18
  Q 391.63 477.17 391.73 490.17
  Q 391.76 494.30 391.76 494.31
  Q 392.25 496.99 395.50 497.23
  A 1.24 0.81 -8.4 0 1 396.35 497.62
  Q 396.80 498.23 396.29 498.84
  A 1.16 0.88 14.4 0 1 395.45 499.19
  Q 388.70 499.29 381.95 499.25
  Q 381.88 499.25 381.04 499.29
  Q 379.23 499.39 379.85 497.77
  A 0.83 0.71 7.6 0 1 380.57 497.31
  Q 384.24 497.16 384.25 493.00
  Q 384.30 478.53 384.19 464.06
  A 0.54 0.53 1.7 0 0 383.68 463.53
  Z"
/>
<path fill="none" stroke-width="1.00" stroke="#d9d9d9" vector-effect="non-scaling-stroke" d="
  M 438.41 462.06
  L 435.81 461.46
  A 1.06 0.57 4.3 0 1 435.08 460.99
  Q 434.78 460.25 435.08 459.50
  A 0.82 0.70 9.4 0 1 435.81 459.06
  Q 442.01 458.96 448.20 459.00
  Q 448.26 459.00 449.30 458.94
  Q 451.43 458.82 450.63 460.97
  A 0.90 0.79 3.7 0 1 449.94 461.50
  Q 446.25 462.03 444.21 465.22
  Q 439.93 471.90 435.89 478.73
  Q 434.80 480.57 434.73 482.68
  Q 434.43 491.41 435.00 494.00
  Q 435.74 497.35 439.76 496.83
  A 0.87 0.68 -17.3 0 1 440.56 497.13
  Q 441.06 497.88 440.68 498.75
  A 0.82 0.72 10.2 0 1 439.95 499.19
  Q 431.22 499.30 422.50 499.39
  Q 419.77 499.41 420.99 497.18
  A 0.84 0.75 14.6 0 1 421.75 496.79
  Q 427.20 497.07 426.89 491.95
  Q 426.75 489.65 426.75 489.53
  Q 426.75 486.80 426.75 483.20
  A 2.65 2.61 -61.8 0 0 426.33 481.77
  Q 420.65 472.87 415.19 464.56
  Q 413.39 461.83 410.50 461.53
  A 1.27 0.85 -7.6 0 1 409.68 461.13
  Q 409.07 460.25 409.72 459.42
  A 1.15 0.92 15.5 0 1 410.56 459.06
  L 429.70 459.05
  A 0.79 0.72 -9.7 0 1 430.42 459.51
  Q 430.72 460.25 430.42 461.00
  A 0.99 0.62 1.0 0 1 429.69 461.44
  L 425.89 462.01
  Q 423.73 462.34 424.75 464.45
  Q 427.76 470.68 431.95 476.35
  A 0.36 0.35 -46.7 0 0 432.53 476.33
  Q 436.40 470.56 439.20 464.17
  A 1.60 1.33 -70.8 0 0 438.41 462.06
  Z"
/>
<path fill="none" stroke-width="1.00" stroke="#d9d9d9" vector-effect="non-scaling-stroke" d="
  M 522.55 481.31
  Q 522.46 487.16 522.50 493.00
  Q 522.52 495.72 524.38 496.63
  Q 524.51 496.69 526.31 496.93
  Q 527.84 497.14 527.13 498.98
  A 0.74 0.71 9.5 0 1 526.44 499.45
  L 511.06 499.45
  A 0.80 0.76 -11.3 0 1 510.34 499.00
  Q 509.51 497.14 511.75 497.00
  Q 514.91 496.80 515.00 494.50
  Q 515.55 480.68 515.09 466.85
  Q 515.08 466.81 515.10 465.52
  Q 515.15 462.29 512.09 462.02
  Q 510.87 461.91 510.52 461.58
  Q 509.91 461.01 510.33 460.02
  A 0.81 0.74 10.3 0 1 511.06 459.56
  L 539.09 459.50
  A 0.80 0.77 -1.9 0 1 539.89 460.22
  L 540.44 468.69
  A 0.70 0.70 -11.8 0 1 539.98 469.39
  Q 538.28 469.98 538.00 467.75
  Q 537.70 465.32 535.62 464.19
  Q 534.38 463.50 531.75 463.35
  Q 528.02 463.13 523.55 463.29
  A 1.06 1.03 -1.4 0 0 522.53 464.33
  L 522.66 476.31
  A 0.60 0.57 4.0 0 0 523.18 476.88
  Q 527.47 477.42 531.69 476.54
  A 1.50 1.29 11.0 0 0 532.53 476.06
  Q 533.60 474.77 533.78 473.06
  A 0.85 0.72 84.5 0 1 534.26 472.37
  Q 536.19 471.63 536.06 473.70
  Q 536.00 474.71 536.00 474.80
  Q 536.00 479.52 536.00 484.25
  Q 535.99 486.57 534.17 485.52
  A 1.09 0.90 -82.0 0 1 533.70 484.76
  Q 533.22 481.50 530.00 481.00
  Q 527.08 480.55 523.07 480.78
  A 0.55 0.54 -1.2 0 0 522.55 481.31
  Z"
/>
<ellipse fill="none" stroke-width="1.00" stroke="#d9d9d9" vector-effect="non-scaling-stroke" cx="0.00" cy="0.00" transform="translate(488.32,479.47) rotate(89.1)" rx="17.02" ry="11.33"/>
<path fill="none" stroke-width="1.00" stroke="#d9d9d9" vector-effect="non-scaling-stroke" d="
  M 293.29 477.60
  A 0.97 0.97 5.4 0 1 292.50 476.65
  L 292.50 464.10
  A 1.14 1.13 86.9 0 1 293.51 462.97
  Q 295.81 462.71 298.07 463.31
  Q 300.29 463.90 301.95 465.47
  Q 305.81 469.14 303.25 473.56
  Q 301.62 476.35 299.18 477.29
  Q 296.70 478.24 293.29 477.60
  Z"
/>
<path fill="none" stroke-width="1.00" stroke="#d9d9d9" vector-effect="non-scaling-stroke" d="
  M 491.81 534.85
  Q 491.70 551.66 491.71 569.00
  Q 491.71 573.61 496.00 574.75
  Q 497.02 575.02 500.94 575.50
  A 0.86 0.75 -3.8 0 1 501.62 576.02
  Q 502.03 577.25 501.62 578.48
  A 0.73 0.66 8.2 0 1 500.94 578.94
  L 450.94 579.00
  A 0.69 0.66 0.0 0 1 450.25 578.34
  L 450.28 576.07
  A 0.56 0.53 -1.7 0 1 450.81 575.54
  Q 454.27 575.33 455.44 574.69
  Q 458.41 573.04 457.33 569.86
  Q 456.89 568.56 456.87 568.50
  Q 456.07 565.63 455.27 562.82
  A 1.12 1.12 82.2 0 0 454.19 562.00
  L 434.57 562.06
  A 0.78 0.65 7.6 0 0 433.86 562.51
  L 431.44 570.04
  Q 430.56 572.75 433.35 574.29
  Q 435.67 575.57 438.75 575.52
  A 0.69 0.63 -8.4 0 1 439.41 575.97
  Q 440.50 579.39 437.34 579.16
  Q 435.20 579.00 435.14 579.00
  Q 425.35 579.04 415.56 578.94
  A 0.93 0.82 -13.1 0 1 414.78 578.52
  Q 414.09 577.35 414.60 576.02
  A 0.82 0.74 8.7 0 1 415.31 575.55
  Q 420.74 575.32 423.34 571.52
  Q 423.92 570.67 426.45 563.87
  Q 433.90 543.87 441.03 523.76
  Q 441.33 522.92 440.73 521.62
  A 0.46 0.45 -19.7 0 1 441.04 520.99
  Q 447.14 519.45 452.10 515.97
  A 0.48 0.47 -26.0 0 1 452.83 516.22
  Q 460.58 540.99 468.76 565.12
  Q 470.78 571.07 471.64 572.20
  Q 474.18 575.53 479.50 575.25
  Q 484.18 575.01 484.39 570.49
  Q 485.39 548.42 485.44 526.31
  A 1.21 1.14 -69.1 0 0 485.09 525.46
  Q 482.69 523.09 479.46 522.18
  Q 479.34 522.15 478.03 522.07
  Q 476.32 521.97 477.02 518.76
  A 0.65 0.64 -83.9 0 1 477.65 518.25
  L 494.44 518.31
  A 1.00 0.98 71.1 0 1 495.23 518.71
  Q 510.10 538.81 526.36 557.81
  Q 526.69 558.19 526.69 557.69
  Q 526.80 543.10 526.92 528.50
  Q 526.98 521.43 520.00 522.00
  Q 516.35 522.30 516.95 519.04
  A 0.62 0.62 5.7 0 1 517.56 518.54
  L 540.18 518.30
  A 0.75 0.72 -10.5 0 1 540.89 518.77
  Q 541.38 520.09 540.75 521.32
  A 0.81 0.71 13.4 0 1 540.01 521.71
  Q 536.14 521.49 534.31 524.81
  Q 533.61 526.08 533.62 530.89
  Q 533.64 536.39 533.62 536.98
  Q 533.18 557.99 532.76 579.00
  A 0.68 0.65 83.9 0 1 532.27 579.64
  Q 530.77 580.02 529.30 579.60
  A 1.80 1.42 72.5 0 1 528.49 579.05
  L 492.50 534.61
  Q 491.81 533.76 491.81 534.85
  Z
  M 444.78 531.78
  L 436.72 554.71
  A 0.37 0.36 -80.3 0 0 437.06 555.20
  L 452.44 555.20
  A 0.38 0.37 80.5 0 0 452.79 554.70
  L 445.14 531.78
  Q 444.97 531.26 444.78 531.78
  Z"
/>
<path fill="none" stroke-width="1.00" stroke="#d9d9d9" vector-effect="non-scaling-stroke" d="
  M 252.13 523.66
  L 255.77 520.84
  Q 256.19 520.51 256.19 521.06
  Q 256.24 528.84 256.49 536.61
  Q 256.49 536.71 256.56 537.38
  Q 256.78 539.31 254.17 539.23
  A 0.93 0.93 79.6 0 1 253.32 538.64
  Q 250.82 532.42 246.26 528.17
  Q 241.59 523.82 235.58 523.21
  Q 228.05 522.44 222.68 527.44
  Q 218.48 531.36 216.35 538.40
  Q 212.18 552.20 220.06 564.69
  Q 223.29 569.80 229.08 571.83
  Q 234.44 573.71 240.04 572.65
  Q 248.31 571.08 253.19 563.10
  A 0.53 0.49 -56.4 0 1 253.91 562.92
  L 257.07 565.13
  A 0.62 0.56 -57.2 0 1 257.20 565.92
  Q 248.07 581.37 229.75 580.49
  Q 220.24 580.03 213.27 574.83
  Q 206.68 569.91 203.57 561.43
  Q 199.42 550.10 203.44 537.44
  Q 206.09 529.09 212.15 523.90
  Q 217.86 519.02 226.14 517.41
  Q 239.59 514.80 251.35 523.69
  A 0.68 0.61 -44.2 0 0 252.13 523.66
  Z"
/>
<path fill="none" stroke-width="1.00" stroke="#d9d9d9" vector-effect="non-scaling-stroke" d="
  M 408.86 522.90
  Q 409.62 521.61 411.02 520.59
  Q 411.45 520.29 411.46 520.82
  L 411.93 538.18
  A 1.22 0.98 71.8 0 1 411.60 539.06
  Q 410.71 539.88 409.61 539.32
  A 1.50 1.01 84.6 0 1 409.01 538.59
  Q 407.52 534.82 404.56 530.69
  Q 401.53 526.44 397.22 524.42
  Q 393.15 522.53 388.06 523.07
  Q 377.01 524.25 373.00 535.50
  Q 367.90 549.79 373.83 563.68
  Q 376.61 570.18 382.49 573.02
  Q 386.81 575.11 391.25 574.51
  Q 396.37 573.81 399.44 569.69
  Q 401.31 567.17 400.85 563.37
  Q 400.44 559.97 400.35 559.61
  Q 399.86 557.47 397.83 556.44
  Q 397.09 556.06 395.60 555.89
  Q 394.44 555.76 393.30 555.54
  A 0.64 0.58 6.4 0 1 392.78 554.95
  L 392.78 552.52
  A 0.54 0.52 -0.0 0 1 393.32 552.00
  Q 403.94 552.00 414.39 552.00
  Q 416.45 552.00 416.59 552.06
  Q 417.58 552.54 417.04 554.95
  A 0.96 0.96 5.9 0 1 416.13 555.69
  Q 414.38 555.73 413.31 556.82
  Q 412.54 557.62 412.26 559.42
  Q 411.37 565.29 411.83 572.25
  A 1.71 1.71 72.5 0 1 411.01 573.83
  Q 402.41 579.13 393.07 580.21
  Q 383.11 581.35 374.77 577.79
  Q 362.64 572.61 358.75 558.50
  Q 355.36 546.18 360.17 534.80
  Q 362.98 528.15 367.89 523.86
  Q 373.24 519.20 380.20 517.59
  Q 386.98 516.02 394.30 517.55
  Q 401.37 519.03 407.57 523.19
  A 0.91 0.91 32.3 0 0 408.86 522.90
  Z"
/>
<path fill="none" stroke-width="1.00" stroke="#d9d9d9" vector-effect="non-scaling-stroke" d="
  M 150.47 535.01
  L 130.27 578.85
  A 1.25 1.00 -82.2 0 1 129.59 579.50
  Q 128.06 579.99 125.19 579.47
  A 1.91 1.88 83.5 0 1 123.78 578.33
  L 105.81 534.67
  Q 105.27 533.37 105.24 534.78
  Q 104.95 549.65 104.78 564.75
  Q 104.72 570.75 104.82 571.23
  Q 105.67 575.41 111.00 575.50
  A 0.91 0.79 -11.3 0 1 111.76 575.93
  Q 112.38 577.15 111.89 578.47
  A 0.74 0.71 9.5 0 1 111.20 578.94
  L 91.57 578.95
  A 0.72 0.68 -8.2 0 1 90.89 578.47
  Q 90.49 577.23 90.84 575.97
  A 0.67 0.59 8.7 0 1 91.51 575.54
  Q 94.94 575.72 96.64 573.50
  Q 97.72 572.09 97.87 568.72
  Q 98.38 557.56 99.25 527.75
  Q 99.43 521.43 93.49 521.72
  A 0.82 0.73 -12.8 0 1 92.75 521.31
  Q 92.15 520.08 92.57 518.73
  A 0.72 0.68 8.2 0 1 93.25 518.25
  L 111.12 518.25
  A 1.01 1.01 78.6 0 1 112.05 518.87
  L 130.25 562.97
  Q 130.63 563.88 131.03 562.98
  L 150.97 518.98
  A 1.21 1.20 12.1 0 1 152.09 518.26
  L 168.94 518.31
  A 0.71 0.62 -6.2 0 1 169.61 518.78
  Q 169.88 519.80 169.52 521.69
  A 0.65 0.65 4.5 0 1 168.91 522.21
  Q 163.99 522.41 162.96 525.60
  Q 162.75 526.27 162.75 531.43
  Q 162.75 548.97 162.75 566.50
  Q 162.75 568.61 163.25 571.75
  Q 163.60 573.94 165.88 574.84
  Q 165.93 574.86 168.30 575.22
  Q 170.63 575.58 169.62 578.47
  A 0.73 0.71 9.7 0 1 168.94 578.94
  Q 158.05 579.04 147.16 579.00
  Q 147.08 579.00 145.36 579.10
  Q 142.03 579.28 143.53 575.96
  A 0.82 0.75 11.0 0 1 144.26 575.51
  Q 149.73 575.57 150.64 571.29
  Q 150.75 570.81 150.76 564.69
  Q 150.79 549.87 150.69 535.06
  Q 150.69 534.55 150.47 535.01
  Z"
/>
<path fill="none" stroke-width="1.00" stroke="#d9d9d9" vector-effect="non-scaling-stroke" d="
  M 180.32 522.97
  Q 178.96 522.04 176.58 522.01
  A 0.90 0.89 -5.4 0 1 175.73 521.31
  Q 175.16 518.69 176.34 518.26
  Q 176.37 518.25 178.67 518.25
  Q 188.99 518.25 199.77 518.25
  A 0.76 0.76 83.8 0 1 200.51 518.85
  Q 201.21 522.20 199.00 522.15
  Q 196.04 522.07 194.76 524.05
  Q 194.02 525.21 193.94 528.11
  Q 193.44 547.27 193.92 566.42
  Q 194.05 571.29 194.27 572.05
  Q 195.26 575.45 199.75 575.50
  A 0.85 0.84 83.5 0 1 200.57 576.16
  Q 201.24 579.24 199.20 579.07
  Q 198.36 579.00 198.29 579.00
  Q 188.31 579.00 178.32 579.00
  Q 178.21 579.00 177.20 579.09
  Q 174.92 579.29 175.66 576.05
  A 0.71 0.70 -84.6 0 1 176.32 575.50
  Q 182.90 575.17 182.91 568.50
  Q 182.93 547.75 182.50 526.99
  Q 182.45 524.42 180.32 522.97
  Z"
/>
<path fill="none" stroke-width="1.00" stroke="#d9d9d9" vector-effect="non-scaling-stroke" d="
  M 261.96 521.36
  Q 261.42 520.09 261.83 518.73
  A 0.69 0.67 7.8 0 1 262.49 518.25
  Q 273.71 518.25 284.93 518.25
  Q 285.04 518.25 286.05 518.16
  Q 288.33 517.96 287.59 521.20
  A 1.04 1.03 6.5 0 1 286.56 522.01
  Q 283.32 521.97 281.60 523.53
  Q 280.28 524.72 280.05 527.90
  Q 279.52 535.08 279.79 543.08
  A 0.90 0.90 0.7 0 0 280.65 543.96
  Q 294.09 544.75 306.94 543.97
  A 0.60 0.59 -88.8 0 0 307.49 543.43
  Q 308.35 535.12 307.30 526.86
  Q 306.95 524.10 305.52 523.26
  Q 304.00 522.37 301.19 522.06
  A 2.84 2.83 -11.3 0 1 299.02 520.62
  Q 298.78 520.17 299.32 518.72
  A 0.71 0.71 9.9 0 1 299.99 518.25
  L 324.77 518.25
  A 0.80 0.79 84.8 0 1 325.55 518.91
  Q 326.13 522.12 324.10 522.11
  Q 323.08 522.11 323.03 522.12
  Q 319.19 522.61 319.00 526.00
  Q 318.21 540.13 318.96 566.64
  Q 318.96 566.67 318.88 569.36
  Q 318.72 575.09 324.75 575.48
  A 0.96 0.82 -10.0 0 1 325.51 575.93
  Q 326.13 577.15 325.64 578.47
  A 0.76 0.71 9.3 0 1 324.94 578.94
  L 300.11 579.00
  A 0.80 0.79 83.6 0 1 299.34 578.38
  Q 298.53 574.87 301.76 575.08
  Q 304.33 575.25 305.96 573.85
  Q 307.23 572.76 307.43 570.20
  Q 308.16 561.08 307.59 551.93
  A 0.59 0.58 1.2 0 0 307.06 551.39
  Q 293.75 550.08 280.44 551.39
  A 0.59 0.59 -1.2 0 0 279.91 551.94
  Q 279.50 560.31 280.00 570.25
  Q 280.14 573.07 282.31 574.44
  Q 283.49 575.18 287.00 575.46
  A 0.80 0.71 -4.6 0 1 287.67 575.97
  Q 288.08 577.31 287.49 578.57
  A 0.85 0.76 11.6 0 1 286.75 579.00
  L 262.63 579.00
  A 0.70 0.69 81.5 0 1 261.97 578.50
  Q 261.01 575.21 263.50 575.23
  Q 268.15 575.26 268.31 570.74
  Q 269.12 549.00 268.43 527.25
  Q 268.26 521.73 262.69 521.79
  A 0.81 0.71 -10.8 0 1 261.96 521.36
  Z"
/>
<path fill="none" stroke-width="1.00" stroke="#d9d9d9" vector-effect="non-scaling-stroke" d="
  M 330.71 521.36
  Q 330.17 520.09 330.58 518.73
  A 0.71 0.67 7.6 0 1 331.25 518.25
  L 354.92 518.25
  A 0.80 0.80 82.4 0 1 355.69 518.84
  Q 356.61 522.25 354.49 522.18
  Q 349.01 522.00 348.86 527.50
  Q 348.28 548.58 349.16 569.65
  Q 349.27 572.39 350.25 573.58
  Q 351.69 575.34 354.44 575.36
  Q 356.65 575.38 355.77 578.59
  A 0.55 0.55 -82.4 0 1 355.24 579.00
  L 331.30 579.00
  A 0.61 0.60 82.4 0 1 330.72 578.55
  Q 329.84 575.31 332.25 575.17
  Q 337.96 574.84 337.96 569.00
  Q 337.94 548.88 337.55 528.75
  Q 337.49 525.47 336.37 524.02
  Q 334.71 521.88 331.44 521.81
  A 0.84 0.74 -9.6 0 1 330.71 521.36
  Z"
/>
<path fill="none" stroke-width="1.00" stroke="#d9d9d9" vector-effect="non-scaling-stroke" d="
  M 444.78 531.78
  Q 444.97 531.26 445.14 531.78
  L 452.79 554.70
  A 0.38 0.37 80.5 0 1 452.44 555.20
  L 437.06 555.20
  A 0.37 0.36 -80.3 0 1 436.72 554.71
  L 444.78 531.78
  Z"
/>
</svg>
