<?xml version="1.0" encoding="UTF-8" standalone="no"?>
<!DOCTYPE svg PUBLIC "-//W3C//DTD SVG 1.1//EN" "http://www.w3.org/Graphics/SVG/1.1/DTD/svg11.dtd">
<svg xmlns="http://www.w3.org/2000/svg" version="1.1" viewBox="63 0 230 159" height="108px">
<path fill="none" stroke-width="1.00" stroke="#d9d9d9" vector-effect="non-scaling-stroke" d="
  M 155.86 44.37
  Q 158.18 46.21 159.71 48.69
  Q 160.21 49.50 159.26 49.50
  L 128.89 49.50
  Q 127.97 49.50 128.48 48.74
  Q 131.85 43.75 137.11 41.68
  Q 147.37 37.63 155.86 44.37
  Z"
/>
<path fill="none" stroke-width="1.00" stroke="#d9d9d9" vector-effect="non-scaling-stroke" d="
  M 136.81 50.93
  Q 139.02 51.07 141.20 50.66
  Q 141.79 50.55 141.55 51.03
  Q 141.35 51.41 140.91 51.64
  Q 137.82 53.22 135.22 55.09
  Q 133.81 56.11 132.38 56.11
  L 126.43 56.13
  A 0.57 0.57 89.5 0 1 125.86 55.57
  L 125.82 51.30
  A 0.56 0.52 -1.1 0 1 126.37 50.77
  Q 131.91 50.61 136.81 50.93
  Z"
/>
<path fill="none" stroke-width="1.00" stroke="#d9d9d9" vector-effect="non-scaling-stroke" d="
  M 153.69 50.92
  Q 157.81 50.88 161.94 50.82
  A 0.53 0.52 87.7 0 1 162.47 51.32
  Q 162.52 52.12 162.51 52.93
  Q 162.51 53.06 162.62 54.54
  Q 162.77 56.49 160.86 56.42
  Q 159.10 56.35 158.65 56.39
  Q 154.97 56.67 152.03 54.49
  Q 149.77 52.81 147.98 51.81
  Q 146.41 50.93 148.20 50.79
  Q 149.70 50.68 150.95 50.77
  Q 153.20 50.93 153.69 50.92
  Z"
/>
<path fill="none" stroke-width="1.00" stroke="#d9d9d9" vector-effect="non-scaling-stroke" d="
  M 151.19 55.27
  Q 152.70 56.24 150.88 56.24
  L 137.04 56.23
  Q 135.31 56.23 136.80 55.32
  L 143.08 51.48
  A 2.09 1.85 -42.9 0 1 145.19 51.43
  L 151.19 55.27
  Z"
/>
<rect fill="none" stroke-width="1.00" stroke="#d9d9d9" vector-effect="non-scaling-stroke" x="-1.45" y="-7.56" transform="translate(152.72,64.95) rotate(0.1)" width="2.90" height="15.12" rx="0.91"/>
<path fill="none" stroke-width="1.00" stroke="#d9d9d9" vector-effect="non-scaling-stroke" d="
  M 161.55 59.65
  L 162.01 60.06
  A 1.20 0.63 31.4 0 1 162.46 60.81
  L 162.34 71.82
  A 0.64 0.60 -5.8 0 1 161.82 72.42
  Q 160.05 72.74 158.30 72.32
  A 0.73 0.66 -87.0 0 1 157.79 71.69
  Q 157.66 70.22 156.82 71.11
  A 1.58 0.85 81.9 0 0 156.50 71.99
  Q 156.42 72.91 155.67 72.29
  A 1.18 0.89 -74.4 0 1 155.34 71.44
  L 155.47 58.46
  A 1.09 1.05 -0.0 0 1 156.55 57.42
  L 161.56 57.38
  A 0.85 0.54 -6.1 0 1 162.30 57.75
  Q 162.56 58.50 161.69 59.03
  A 0.43 0.35 -38.0 0 0 161.55 59.65
  Z
  M 162.23 63.64
  Q 162.32 63.19 161.74 63.19
  A 0.91 0.78 -74.8 0 0 161.00 63.69
  Q 160.45 64.79 161.65 64.26
  A 1.04 0.73 -11.9 0 0 162.23 63.64
  Z
  M 160.50 68.11
  Q 160.64 67.59 160.24 67.38
  A 0.70 0.58 -56.9 0 0 159.44 67.63
  Q 158.45 68.94 159.83 68.68
  A 0.87 0.75 0.2 0 0 160.50 68.11
  Z"
/>
<path fill="none" stroke-width="1.00" stroke="#d9d9d9" vector-effect="non-scaling-stroke" d="
  M 126.82 59.12
  L 126.01 58.17
  Q 125.59 57.68 126.24 57.67
  L 132.07 57.62
  A 0.59 0.50 88.4 0 1 132.58 58.19
  Q 132.75 64.41 132.92 70.62
  Q 132.94 71.09 132.84 71.48
  Q 132.27 73.62 131.68 71.43
  A 0.74 0.58 80.3 0 0 131.07 70.87
  Q 130.30 70.90 130.37 71.94
  A 0.50 0.44 88.2 0 1 129.93 72.47
  L 126.31 72.47
  A 0.55 0.51 89.4 0 1 125.80 71.93
  Q 125.71 67.56 125.74 63.18
  Q 125.74 63.10 125.63 61.82
  Q 125.49 60.32 126.74 59.64
  A 0.35 0.34 54.9 0 0 126.82 59.12
  Z
  M 127.29 63.64
  Q 126.55 62.58 126.36 63.70
  A 0.79 0.64 -74.4 0 0 126.70 64.49
  Q 127.00 64.64 127.25 64.46
  A 0.65 0.51 54.3 0 0 127.29 63.64
  Z
  M 127.78 67.94
  Q 127.64 68.23 127.84 68.46
  A 0.79 0.59 -30.8 0 0 128.71 68.55
  Q 130.05 67.92 128.52 67.63
  A 0.72 0.58 16.0 0 0 127.78 67.94
  Z"
/>
<rect fill="none" stroke-width="1.00" stroke="#d9d9d9" vector-effect="non-scaling-stroke" x="-1.49" y="-7.50" transform="translate(135.50,64.99) rotate(0.1)" width="2.98" height="15.00" rx="0.88"/>
<rect fill="none" stroke-width="1.00" stroke="#d9d9d9" vector-effect="non-scaling-stroke" x="-1.48" y="-7.48" transform="translate(139.73,64.98) rotate(-0.2)" width="2.96" height="14.96" rx="0.81"/>
<rect fill="none" stroke-width="1.00" stroke="#d9d9d9" vector-effect="non-scaling-stroke" x="-1.50" y="-7.45" transform="translate(144.08,65.01) rotate(0.3)" width="3.00" height="14.90" rx="0.69"/>
<rect fill="none" stroke-width="1.00" stroke="#d9d9d9" vector-effect="non-scaling-stroke" x="-1.63" y="-7.46" transform="translate(148.49,65.00) rotate(0.6)" width="3.26" height="14.92" rx="1.00"/>
<path fill="none" stroke-width="1.00" stroke="#d9d9d9" vector-effect="non-scaling-stroke" d="
  M 127.25 64.46
  Q 127.00 64.64 126.70 64.49
  A 0.79 0.64 -74.4 0 1 126.36 63.70
  Q 126.55 62.58 127.29 63.64
  A 0.65 0.51 54.3 0 1 127.25 64.46
  Z"
/>
<path fill="none" stroke-width="1.00" stroke="#d9d9d9" vector-effect="non-scaling-stroke" d="
  M 161.65 64.26
  Q 160.45 64.79 161.00 63.69
  A 0.91 0.78 -74.8 0 1 161.74 63.19
  Q 162.32 63.19 162.23 63.64
  A 1.04 0.73 -11.9 0 1 161.65 64.26
  Z"
/>
<path fill="none" stroke-width="1.00" stroke="#d9d9d9" vector-effect="non-scaling-stroke" d="
  M 159.83 68.68
  Q 158.45 68.94 159.44 67.63
  A 0.70 0.58 -56.9 0 1 160.24 67.38
  Q 160.64 67.59 160.50 68.11
  A 0.87 0.75 0.2 0 1 159.83 68.68
  Z"
/>
<path fill="none" stroke-width="1.00" stroke="#d9d9d9" vector-effect="non-scaling-stroke" d="
  M 128.52 67.63
  Q 130.05 67.92 128.71 68.55
  A 0.79 0.59 -30.8 0 1 127.84 68.46
  Q 127.64 68.23 127.78 67.94
  A 0.72 0.58 16.0 0 1 128.52 67.63
  Z"
/>
<path fill="none" stroke-width="1.00" stroke="#d9d9d9" vector-effect="non-scaling-stroke" d="
  M 132.6947 77.1664
  A 0.49 0.49 0.0 0 1 132.1996 77.6512
  L 126.2200 77.5886
  A 0.49 0.49 0.0 0 1 125.7351 77.0935
  L 125.7653 74.2136
  A 0.49 0.49 0.0 0 1 126.2604 73.7288
  L 132.2400 73.7914
  A 0.49 0.49 0.0 0 1 132.7249 74.2865
  L 132.6947 77.1664
  Z
  M 128.08 75.66
  Q 128.34 75.95 129.48 75.65
  Q 131.36 75.17 128.57 75.18
  Q 127.68 75.19 128.08 75.66
  Z"
/>
<path fill="none" stroke-width="1.00" stroke="#d9d9d9" vector-effect="non-scaling-stroke" d="
  M 135.02 75.27
  Q 135.20 76.01 135.55 75.33
  Q 136.47 73.53 137.96 73.70
  Q 139.62 73.89 139.72 73.88
  Q 145.51 73.54 151.31 73.91
  A 0.72 0.69 83.4 0 1 151.94 74.43
  Q 152.56 76.73 153.38 74.78
  A 0.69 0.49 -68.5 0 1 154.06 74.34
  Q 154.47 74.48 154.23 75.06
  A 1.40 1.26 49.2 0 0 154.21 75.96
  Q 154.46 76.71 154.02 77.32
  A 1.13 0.74 10.2 0 1 153.19 77.67
  L 145.55 77.75
  A 0.76 0.70 -5.7 0 1 144.82 77.20
  Q 144.16 74.37 143.50 77.02
  A 0.69 0.66 6.7 0 1 142.85 77.51
  L 134.64 77.68
  A 0.55 0.54 1.8 0 1 134.07 77.09
  Q 134.52 73.09 135.02 75.27
  Z
  M 140.00 76.65
  Q 140.27 76.47 140.24 76.16
  A 0.67 0.54 -2.8 0 0 139.57 75.68
  Q 138.01 75.70 139.17 76.55
  A 0.82 0.62 44.0 0 0 140.00 76.65
  Z
  M 148.62 75.47
  Q 148.16 75.34 148.04 75.76
  A 0.92 0.68 31.7 0 0 148.37 76.59
  Q 149.42 77.48 149.18 76.17
  A 0.96 0.77 -89.8 0 0 148.62 75.47
  Z"
/>
<rect fill="none" stroke-width="1.00" stroke="#d9d9d9" vector-effect="non-scaling-stroke" x="-3.43" y="-1.88" transform="translate(159.04,75.78) rotate(0.9)" width="6.86" height="3.76" rx="0.45"/>
<path fill="none" stroke-width="1.00" stroke="#d9d9d9" vector-effect="non-scaling-stroke" d="
  M 128.57 75.18
  Q 131.36 75.17 129.48 75.65
  Q 128.34 75.95 128.08 75.66
  Q 127.68 75.19 128.57 75.18
  Z"
/>
<path fill="none" stroke-width="1.00" stroke="#d9d9d9" vector-effect="non-scaling-stroke" d="
  M 139.17 76.55
  Q 138.01 75.70 139.57 75.68
  A 0.67 0.54 -2.8 0 1 140.24 76.16
  Q 140.27 76.47 140.00 76.65
  A 0.82 0.62 44.0 0 1 139.17 76.55
  Z"
/>
<path fill="none" stroke-width="1.00" stroke="#d9d9d9" vector-effect="non-scaling-stroke" d="
  M 149.18 76.17
  Q 149.42 77.48 148.37 76.59
  A 0.92 0.68 31.7 0 1 148.04 75.76
  Q 148.16 75.34 148.62 75.47
  A 0.96 0.77 -89.8 0 1 149.18 76.17
  Z"
/>
<path fill="none" stroke-width="1.00" stroke="#d9d9d9" vector-effect="non-scaling-stroke" d="
  M 99.30 79.39
  Q 99.99 79.44 99.70 79.88
  A 0.87 0.58 9.3 0 1 99.04 80.18
  Q 96.67 80.26 96.90 82.61
  Q 97.02 83.83 97.02 83.90
  Q 97.26 92.46 96.75 94.25
  Q 95.14 99.93 88.75 99.75
  Q 82.51 99.58 81.91 93.73
  Q 81.34 88.13 81.53 81.28
  A 1.03 1.02 -0.5 0 0 80.45 80.22
  Q 78.52 80.33 79.22 79.43
  A 1.15 0.74 11.5 0 1 80.05 79.11
  L 86.19 79.10
  A 0.95 0.56 -6.3 0 1 86.99 79.46
  Q 87.31 80.17 85.42 80.29
  A 1.24 1.23 -1.7 0 0 84.25 81.52
  Q 84.25 86.87 84.26 92.50
  Q 84.27 99.57 91.19 98.44
  Q 94.34 97.92 95.25 94.50
  Q 96.12 91.21 95.29 81.49
  A 1.41 0.90 -80.6 0 0 94.92 80.63
  Q 94.41 80.18 93.68 80.20
  Q 93.13 80.22 92.85 80.08
  Q 91.83 79.59 93.52 79.44
  Q 96.41 79.18 99.30 79.39
  Z"
/>
<path fill="none" stroke-width="1.00" stroke="#d9d9d9" vector-effect="non-scaling-stroke" d="
  M 166.56 96.09
  Q 168.43 97.44 170.31 96.01
  A 1.32 1.32 76.3 0 0 170.80 95.20
  Q 171.30 92.48 168.50 91.75
  Q 165.89 91.07 164.75 89.22
  Q 163.59 87.36 164.77 85.27
  Q 166.63 81.98 171.21 83.63
  A 0.87 0.84 -85.0 0 1 171.76 84.31
  L 172.11 86.45
  A 1.06 0.69 71.8 0 1 171.88 87.32
  Q 171.34 87.79 170.83 86.61
  Q 169.32 83.08 166.45 85.25
  A 1.01 0.98 -19.7 0 0 166.05 86.06
  Q 166.09 88.48 168.50 89.00
  Q 172.04 89.77 172.68 92.56
  Q 173.28 95.15 171.28 96.95
  Q 168.98 99.02 165.44 97.23
  A 1.28 1.25 -39.3 0 0 164.52 97.15
  Q 162.41 97.77 160.01 97.47
  A 1.74 1.73 81.4 0 1 158.64 96.45
  Q 157.27 93.30 155.10 91.75
  A 0.69 0.68 -65.0 0 0 154.04 92.14
  Q 153.06 95.87 155.28 96.84
  Q 155.76 97.04 155.36 97.33
  Q 154.33 98.07 152.98 97.67
  Q 152.44 97.51 152.01 97.57
  Q 148.32 98.04 150.60 96.29
  A 1.20 1.09 -17.7 0 0 151.05 95.51
  Q 151.39 91.91 151.28 88.30
  Q 151.28 88.21 151.42 86.71
  Q 151.58 85.01 149.69 84.31
  Q 148.47 83.86 149.69 83.69
  Q 153.23 83.18 156.73 83.65
  Q 159.17 83.97 160.34 85.30
  Q 162.33 87.55 159.56 90.13
  Q 159.30 90.37 158.44 90.81
  Q 157.29 91.39 158.52 92.29
  Q 158.94 92.59 159.17 93.01
  Q 160.58 95.60 163.37 96.71
  A 0.60 0.59 11.0 0 0 164.19 96.16
  Q 164.19 90.20 165.86 95.08
  Q 166.10 95.76 166.56 96.09
  Z
  M 157.03 85.24
  Q 155.68 84.43 154.27 84.88
  A 0.76 0.68 82.6 0 0 153.80 85.57
  L 153.68 89.87
  A 0.59 0.58 5.1 0 0 154.18 90.46
  Q 156.40 90.76 157.61 89.37
  Q 159.78 86.88 157.03 85.24
  Z"
/>
<path fill="none" stroke-width="1.00" stroke="#d9d9d9" vector-effect="non-scaling-stroke" d="
  M 99.60 101.05
  Q 99.74 104.09 97.53 106.28
  Q 94.67 109.14 93.38 106.18
  Q 92.40 103.91 93.85 101.91
  Q 96.48 98.26 99.27 99.91
  A 0.54 0.48 -55.6 0 0 99.93 99.75
  Q 100.29 99.26 100.94 99.19
  A 1.57 0.74 4.6 0 0 101.81 98.86
  Q 103.35 97.43 101.05 97.68
  Q 100.35 97.75 99.95 97.69
  Q 97.97 97.38 100.30 96.08
  A 0.88 0.87 75.6 0 0 100.75 95.31
  L 100.75 86.02
  A 1.32 1.32 8.2 0 0 99.80 84.75
  Q 98.75 84.43 98.81 83.97
  A 0.78 0.43 1.7 0 1 99.56 83.59
  L 102.44 83.59
  A 1.11 0.89 -15.5 0 1 103.25 83.94
  L 110.45 92.90
  Q 111.47 94.17 111.42 92.56
  L 111.22 86.20
  A 1.12 1.12 -72.1 0 0 110.79 85.36
  Q 108.11 83.28 110.75 83.50
  Q 112.05 83.61 112.73 83.57
  Q 113.58 83.52 113.77 83.60
  Q 114.59 83.92 113.21 85.10
  A 1.40 1.28 72.0 0 0 112.75 86.11
  L 112.47 96.94
  A 0.45 0.44 -83.0 0 1 111.94 97.37
  Q 110.62 97.09 109.90 95.77
  A 0.64 0.63 69.4 0 0 109.21 95.45
  Q 107.85 95.74 106.85 94.86
  A 0.87 0.63 49.8 0 0 106.03 94.66
  Q 104.40 95.41 104.15 98.49
  A 0.66 0.63 -87.9 0 0 104.78 99.20
  L 111.70 99.11
  A 1.37 0.79 -13.1 0 1 112.59 99.38
  Q 113.43 100.22 110.89 100.26
  A 0.92 0.89 -8.8 0 0 110.02 101.41
  L 114.07 114.49
  Q 114.50 115.87 115.00 114.51
  L 119.78 101.37
  A 0.64 0.61 23.9 0 0 119.46 100.61
  Q 117.12 99.42 119.19 99.06
  Q 122.85 98.42 124.00 99.00
  Q 126.07 100.03 123.21 100.43
  A 2.27 2.26 -83.0 0 0 121.42 101.83
  L 114.40 119.10
  Q 113.75 120.70 113.19 119.07
  L 107.16 101.48
  A 1.69 1.25 -89.1 0 0 106.60 100.70
  Q 105.05 99.63 103.75 100.45
  Q 102.93 100.97 102.50 102.56
  Q 101.39 106.67 99.43 110.47
  Q 98.25 112.77 95.81 112.72
  A 0.90 0.89 -13.8 0 1 95.04 112.26
  Q 94.15 110.69 97.24 111.63
  A 0.64 0.60 18.1 0 0 98.02 111.27
  L 101.56 101.05
  A 0.57 0.55 -69.8 0 0 101.25 100.33
  Q 100.64 100.10 100.01 100.34
  A 0.74 0.63 79.8 0 0 99.60 101.05
  Z
  M 103.32 96.08
  L 105.41 94.11
  A 1.44 0.84 12.9 0 1 106.31 93.83
  Q 108.97 93.85 107.21 92.25
  Q 106.60 91.69 106.28 91.27
  Q 104.52 89.00 102.59 86.87
  Q 102.25 86.49 102.18 87.00
  Q 101.60 91.64 102.35 95.81
  Q 102.53 96.83 103.32 96.08
  Z
  M 98.40 100.47
  Q 96.59 99.90 94.45 103.97
  A 2.41 2.41 -50.8 0 0 94.72 106.63
  Q 95.10 107.09 96.34 105.84
  Q 97.93 104.23 98.81 101.23
  A 0.62 0.61 16.8 0 0 98.40 100.47
  Z"
/>
<path fill="none" stroke-width="1.00" stroke="#d9d9d9" vector-effect="non-scaling-stroke" d="
  M 120.30 96.07
  Q 123.03 96.83 120.98 97.59
  A 1.91 1.31 31.5 0 1 120.02 97.64
  Q 118.38 97.30 116.73 97.64
  A 1.56 1.14 -30.1 0 1 115.79 97.54
  Q 114.31 96.80 116.58 96.49
  A 1.07 1.05 -4.4 0 0 117.50 95.44
  L 117.45 85.56
  A 0.62 0.60 4.7 0 0 116.94 84.98
  Q 113.57 84.37 115.91 83.66
  Q 116.43 83.50 117.10 83.59
  Q 118.34 83.76 119.57 83.71
  Q 123.54 83.55 120.39 84.99
  A 0.80 0.75 -12.7 0 0 119.92 85.69
  L 119.81 95.43
  A 0.67 0.65 8.7 0 0 120.30 96.07
  Z"
/>
<path fill="none" stroke-width="1.00" stroke="#d9d9d9" vector-effect="non-scaling-stroke" d="
  M 129.37 93.40
  Q 129.86 94.99 130.43 93.45
  L 133.31 85.71
  A 0.57 0.52 25.4 0 0 133.04 85.05
  Q 132.43 84.71 132.32 84.07
  A 0.48 0.44 -4.1 0 1 132.80 83.56
  Q 138.57 83.51 144.33 83.50
  Q 144.40 83.50 145.66 83.39
  Q 148.20 83.17 148.26 86.63
  Q 148.29 88.50 147.30 86.92
  Q 145.43 83.95 141.91 84.80
  A 0.74 0.61 -8.3 0 0 141.35 85.42
  L 141.35 89.07
  A 0.71 0.65 6.5 0 0 141.91 89.72
  Q 143.35 90.03 145.00 88.37
  Q 145.55 87.81 145.64 88.59
  Q 146.29 94.11 144.00 91.45
  A 1.35 0.67 58.8 0 0 143.20 90.94
  L 141.93 90.87
  A 0.54 0.52 0.0 0 0 141.36 91.42
  L 141.56 95.58
  A 0.89 0.67 11.2 0 0 142.16 96.25
  Q 145.08 97.31 147.56 94.81
  Q 150.57 91.78 148.61 96.59
  A 2.07 1.94 10.8 0 1 146.70 97.80
  L 137.81 97.67
  A 1.30 0.60 -7.5 0 1 136.92 97.39
  Q 136.67 97.10 136.89 96.81
  A 1.17 0.53 4.5 0 1 137.73 96.51
  Q 139.24 96.44 139.06 94.91
  Q 138.92 93.78 138.92 93.70
  Q 138.80 89.63 138.70 85.57
  A 0.76 0.70 -81.8 0 0 138.23 84.88
  Q 135.58 83.94 134.56 86.31
  Q 132.20 91.82 129.84 97.24
  Q 129.15 98.83 128.57 97.20
  L 124.86 86.84
  Q 124.52 85.90 123.85 85.16
  Q 122.67 83.86 123.50 83.50
  Q 124.66 83.00 127.75 83.50
  Q 129.72 83.82 127.38 85.09
  A 0.72 0.69 67.3 0 0 127.06 85.93
  L 129.37 93.40
  Z"
/>
<path fill="none" stroke-width="1.00" stroke="#d9d9d9" vector-effect="non-scaling-stroke" d="
  M 178.30 85.57
  L 178.26 94.95
  A 1.01 0.97 18.0 0 0 178.69 95.76
  Q 180.17 96.79 180.04 97.33
  Q 179.93 97.79 178.79 97.64
  Q 176.67 97.35 174.55 97.62
  A 1.12 0.73 -17.7 0 1 173.68 97.38
  Q 173.11 96.74 174.92 96.43
  A 1.01 1.01 -5.1 0 0 175.75 95.44
  L 175.75 86.19
  A 1.35 1.34 5.5 0 0 174.65 84.87
  Q 173.25 84.61 173.34 84.00
  A 0.75 0.51 2.4 0 1 174.06 83.55
  L 179.00 83.49
  A 0.79 0.63 -6.8 0 1 179.72 83.94
  Q 179.95 84.72 178.81 84.98
  A 0.66 0.59 -7.3 0 0 178.30 85.57
  Z"
/>
<path fill="none" stroke-width="1.00" stroke="#d9d9d9" vector-effect="non-scaling-stroke" d="
  M 203.25 96.19
  Q 206.16 97.94 202.17 97.57
  Q 201.67 97.52 200.83 97.65
  Q 199.74 97.81 198.76 97.41
  Q 198.30 97.22 198.74 96.93
  Q 201.70 94.99 200.06 91.19
  Q 199.54 89.97 196.47 85.70
  Q 196.14 85.25 195.75 85.08
  Q 194.68 84.63 194.95 86.10
  Q 195.44 88.78 194.11 86.46
  Q 193.13 84.75 189.97 84.75
  A 0.72 0.72 0.0 0 0 189.25 85.47
  L 189.25 95.51
  A 0.81 0.81 6.2 0 0 189.89 96.30
  Q 192.83 96.94 190.46 97.63
  Q 190.05 97.75 189.52 97.66
  Q 187.63 97.34 185.73 97.66
  A 1.09 0.91 -25.2 0 1 184.86 97.43
  Q 183.83 96.46 185.85 96.44
  A 0.91 0.91 -0.3 0 0 186.75 95.53
  L 186.75 85.50
  A 0.66 0.64 -83.3 0 0 186.26 84.86
  Q 183.45 84.15 181.94 86.69
  Q 181.28 87.80 180.81 87.25
  A 1.12 0.63 -65.1 0 1 180.74 86.34
  L 181.45 84.05
  A 0.66 0.63 -81.3 0 1 182.06 83.58
  L 199.19 83.58
  A 0.77 0.47 -2.2 0 1 199.93 83.99
  Q 199.99 84.38 199.39 84.71
  A 0.68 0.67 -31.4 0 0 199.15 85.68
  L 201.74 89.65
  A 0.64 0.57 -46.1 0 0 202.74 89.57
  L 205.18 85.95
  A 0.68 0.54 -50.8 0 0 205.19 85.21
  Q 203.41 83.20 205.66 83.62
  Q 206.24 83.72 206.85 83.66
  Q 207.68 83.57 208.50 83.67
  Q 209.01 83.73 208.63 84.09
  Q 205.96 86.57 203.86 89.55
  Q 202.87 90.97 202.76 92.59
  Q 202.66 94.01 202.77 95.44
  A 1.03 0.94 14.8 0 0 203.25 96.19
  Z"
/>
<path fill="none" stroke-width="1.00" stroke="#d9d9d9" vector-effect="non-scaling-stroke" d="
  M 157.03 85.24
  Q 159.78 86.88 157.61 89.37
  Q 156.40 90.76 154.18 90.46
  A 0.59 0.58 5.1 0 1 153.68 89.87
  L 153.80 85.57
  A 0.76 0.68 82.6 0 1 154.27 84.88
  Q 155.68 84.43 157.03 85.24
  Z"
/>
<path fill="none" stroke-width="1.00" stroke="#d9d9d9" vector-effect="non-scaling-stroke" d="
  M 103.32 96.08
  Q 102.53 96.83 102.35 95.81
  Q 101.60 91.64 102.18 87.00
  Q 102.25 86.49 102.59 86.87
  Q 104.52 89.00 106.28 91.27
  Q 106.60 91.69 107.21 92.25
  Q 108.97 93.85 106.31 93.83
  A 1.44 0.84 12.9 0 0 105.41 94.11
  L 103.32 96.08
  Z"
/>
<path fill="none" stroke-width="1.00" stroke="#d9d9d9" vector-effect="non-scaling-stroke" d="
  M 98.40 100.47
  A 0.62 0.61 16.8 0 1 98.81 101.23
  Q 97.93 104.23 96.34 105.84
  Q 95.10 107.09 94.72 106.63
  A 2.41 2.41 -50.8 0 1 94.45 103.97
  Q 96.59 99.90 98.40 100.47
  Z"
/>
<path fill="none" stroke-width="1.00" stroke="#d9d9d9" vector-effect="non-scaling-stroke" d="
  M 147.06 113.69
  Q 149.89 116.72 152.85 113.80
  A 1.41 1.18 -25.5 0 0 153.24 112.95
  Q 153.33 111.20 151.57 110.97
  A 0.70 0.33 9.1 0 1 150.89 110.50
  Q 151.05 109.99 153.47 110.06
  Q 154.47 110.09 155.46 109.93
  Q 158.46 109.43 155.81 111.54
  A 0.99 0.99 65.7 0 0 155.45 112.50
  Q 155.85 114.63 154.56 115.41
  Q 154.01 115.74 152.02 116.12
  Q 146.83 117.11 144.22 113.49
  Q 142.11 110.55 142.78 107.17
  Q 143.53 103.38 147.94 101.93
  Q 150.02 101.24 152.01 101.79
  Q 154.45 102.46 154.53 102.50
  Q 155.79 103.13 155.65 105.38
  Q 155.54 107.24 154.45 105.73
  Q 151.74 101.96 148.76 103.10
  Q 146.37 104.01 145.46 106.98
  Q 144.30 110.72 147.06 113.69
  Z"
/>
<path fill="none" stroke-width="1.00" stroke="#d9d9d9" vector-effect="non-scaling-stroke" d="
  M 186.05 114.59
  Q 188.14 115.12 188.89 113.14
  Q 189.28 112.08 189.31 112.02
  Q 192.11 105.94 193.00 103.50
  Q 193.60 101.85 195.18 101.61
  A 0.64 0.58 75.0 0 1 195.84 102.04
  L 199.44 112.31
  Q 199.74 113.17 201.75 114.75
  Q 203.58 116.19 200.75 116.19
  Q 198.72 116.19 196.74 115.84
  A 0.33 0.31 -68.2 0 1 196.54 115.34
  Q 197.96 113.16 196.31 110.90
  A 1.09 0.58 -8.5 0 0 195.50 110.61
  L 192.23 110.60
  A 1.16 0.56 8.4 0 0 191.41 110.86
  Q 190.19 112.22 190.17 114.06
  A 0.74 0.61 11.1 0 0 190.67 114.67
  Q 191.25 114.87 191.45 115.33
  A 0.43 0.36 -12.4 0 1 191.05 115.85
  Q 186.68 116.12 182.29 116.01
  Q 181.69 116.00 181.24 115.82
  Q 179.55 115.13 182.18 114.75
  A 0.65 0.63 -1.3 0 0 182.74 114.19
  Q 183.12 110.17 183.02 106.13
  Q 183.02 106.06 183.09 104.87
  Q 183.18 103.21 181.57 102.98
  A 1.00 0.64 0.0 0 1 180.82 102.50
  Q 180.52 101.67 182.25 102.00
  Q 183.55 102.25 185.46 101.87
  Q 186.11 101.74 186.55 101.83
  Q 188.12 102.18 185.77 103.40
  A 0.90 0.79 -16.3 0 0 185.29 104.15
  L 185.51 113.94
  A 0.73 0.67 7.4 0 0 186.05 114.59
  Z
  M 193.69 104.93
  L 192.15 108.76
  A 0.47 0.38 -78.0 0 0 192.48 109.40
  L 195.30 109.26
  A 0.59 0.48 79.0 0 0 195.70 108.52
  L 194.69 105.09
  Q 194.24 103.57 193.69 104.93
  Z"
/>
<path fill="none" stroke-width="1.00" stroke="#d9d9d9" vector-effect="non-scaling-stroke" d="
  M 134.81 114.48
  Q 135.73 114.63 135.97 115.33
  A 0.42 0.37 -9.4 0 1 135.56 115.83
  L 123.75 116.00
  A 0.99 0.56 -6.9 0 1 122.91 115.65
  Q 122.61 115.02 124.51 114.44
  A 0.69 0.69 -8.6 0 0 125.00 113.78
  L 125.00 103.91
  A 0.71 0.71 -85.2 0 0 124.41 103.21
  Q 121.38 102.66 124.00 102.00
  Q 126.84 101.29 128.25 101.75
  Q 130.37 102.45 127.90 103.28
  A 0.72 0.71 79.9 0 0 127.43 103.97
  L 127.48 113.52
  A 1.40 1.35 -82.5 0 0 128.46 114.84
  Q 131.96 115.85 131.98 112.50
  Q 132.00 108.62 132.00 104.33
  A 1.28 1.28 -78.6 0 0 131.22 103.15
  Q 129.62 102.46 130.82 101.91
  Q 131.19 101.74 131.72 101.83
  Q 134.05 102.22 135.75 102.00
  Q 138.13 101.69 139.81 102.71
  Q 141.61 103.81 141.47 105.93
  Q 141.31 108.17 138.96 109.30
  A 0.47 0.45 -28.1 0 0 138.75 109.94
  Q 140.53 113.01 143.34 115.19
  A 0.34 0.32 49.7 0 1 143.31 115.75
  Q 141.82 116.49 140.49 115.83
  Q 139.72 115.45 138.86 113.88
  Q 137.65 111.67 135.67 110.05
  Q 134.32 108.94 134.31 110.63
  L 134.28 113.94
  A 0.63 0.52 6.2 0 0 134.81 114.48
  Z
  M 138.55 104.02
  Q 136.76 102.81 135.17 103.07
  A 0.65 0.63 -4.4 0 0 134.63 103.68
  L 134.52 108.44
  A 0.59 0.54 2.7 0 0 135.07 108.99
  Q 139.29 109.35 139.25 105.32
  A 1.58 1.55 17.2 0 0 138.55 104.02
  Z"
/>
<path fill="none" stroke-width="1.00" stroke="#d9d9d9" vector-effect="non-scaling-stroke" d="
  M 162.08 114.66
  Q 163.86 115.67 162.48 115.80
  Q 159.90 116.02 157.31 115.95
  A 0.68 0.39 3.4 0 1 156.62 115.50
  Q 156.70 115.06 158.02 114.84
  A 0.89 0.88 -5.1 0 0 158.75 113.97
  Q 158.75 109.35 158.75 105.78
  Q 158.75 105.71 158.84 104.71
  Q 158.97 103.18 157.49 103.02
  A 1.32 0.69 -3.7 0 1 156.65 102.65
  Q 156.14 101.97 157.75 102.06
  Q 159.65 102.15 161.51 101.84
  Q 162.07 101.75 162.48 101.87
  Q 164.19 102.37 161.79 103.24
  A 0.83 0.82 -10.3 0 0 161.25 104.01
  L 161.25 113.24
  A 1.64 1.63 14.8 0 0 162.08 114.66
  Z"
/>
<path fill="none" stroke-width="1.00" stroke="#d9d9d9" vector-effect="non-scaling-stroke" d="
  M 167.52 105.31
  Q 167.36 107.61 167.45 109.91
  Q 167.45 110.03 167.34 112.07
  Q 167.23 114.13 168.78 115.39
  Q 169.17 115.71 168.71 115.82
  Q 166.68 116.34 164.64 115.78
  A 0.30 0.29 -72.6 0 1 164.44 115.38
  L 164.50 115.22
  A 0.35 0.34 -87.8 0 1 164.71 115.02
  Q 165.83 114.68 166.00 113.00
  Q 166.39 109.14 166.24 105.00
  A 2.15 2.14 -74.1 0 0 165.30 103.30
  Q 163.22 101.91 167.79 102.09
  A 1.71 1.52 69.2 0 1 168.96 102.70
  L 176.16 111.37
  Q 176.57 111.87 176.57 111.25
  L 176.54 103.98
  A 0.95 0.76 12.4 0 0 175.93 103.23
  Q 173.30 102.26 175.69 101.81
  Q 177.88 101.40 178.94 101.81
  Q 180.04 102.24 178.93 102.79
  A 1.56 1.55 77.3 0 0 178.06 104.17
  L 177.95 114.39
  Q 177.92 117.15 176.14 115.03
  L 167.88 105.19
  Q 167.56 104.81 167.52 105.31
  Z"
/>
<path fill="none" stroke-width="1.00" stroke="#d9d9d9" vector-effect="non-scaling-stroke" d="
  M 138.55 104.02
  A 1.58 1.55 17.2 0 1 139.25 105.32
  Q 139.29 109.35 135.07 108.99
  A 0.59 0.54 2.7 0 1 134.52 108.44
  L 134.63 103.68
  A 0.65 0.63 -4.4 0 1 135.17 103.07
  Q 136.76 102.81 138.55 104.02
  Z"
/>
<path fill="none" stroke-width="1.00" stroke="#d9d9d9" vector-effect="non-scaling-stroke" d="
  M 193.69 104.93
  Q 194.24 103.57 194.69 105.09
  L 195.70 108.52
  A 0.59 0.48 79.0 0 1 195.30 109.26
  L 192.48 109.40
  A 0.47 0.38 -78.0 0 1 192.15 108.76
  L 193.69 104.93
  Z"
/>
</svg>
