<?xml version="1.0" encoding="UTF-8" standalone="no"?>
<!DOCTYPE svg PUBLIC "-//W3C//DTD SVG 1.1//EN" "http://www.w3.org/Graphics/SVG/1.1/DTD/svg11.dtd">
<svg xmlns="http://www.w3.org/2000/svg" version="1.1" viewBox="0 0 1930 1085">
<path fill="none" stroke-width="1.00" stroke="#d9d9d9" vector-effect="non-scaling-stroke" d="
  M 158.19 346.32
  Q 161.78 357.46 166.96 368.00
  Q 164.70 369.03 164.50 371.75
  Q 164.35 373.77 162.83 375.62
  A 1.70 1.44 -26.7 0 0 162.46 376.49
  Q 162.03 381.45 160.44 383.69
  Q 159.45 385.07 159.23 386.30
  Q 158.83 388.47 158.81 388.52
  Q 157.59 391.99 156.14 395.38
  Q 155.83 396.13 154.93 397.28
  Q 154.21 398.21 153.82 399.31
  Q 152.80 402.20 152.68 402.43
  Q 150.43 407.12 149.40 412.22
  Q 148.98 414.26 147.79 416.49
  Q 146.93 418.12 145.78 420.68
  A 0.47 0.46 -44.2 0 0 145.77 421.06
  Q 146.28 422.22 146.29 423.48
  Q 146.30 424.50 145.48 425.67
  Q 144.42 427.20 143.49 428.82
  A 1.62 1.31 61.5 0 0 143.32 429.74
  Q 143.55 431.87 142.56 433.31
  Q 141.86 434.34 141.76 435.25
  Q 141.69 435.86 141.52 436.19
  Q 137.14 444.62 136.25 450.25
  Q 135.51 454.91 132.71 457.25
  Q 120.25 430.02 110.44 411.06
  Q 92.49 376.39 60.09 354.65
  Q 57.85 353.15 55.82 351.39
  A 1.46 1.26 18.6 0 1 55.34 350.58
  Q 54.99 348.67 55.43 346.79
  A 0.65 0.63 6.8 0 1 56.06 346.31
  L 158.19 346.32
  Z"
/>
<path fill="none" stroke-width="1.00" stroke="#d9d9d9" vector-effect="non-scaling-stroke" d="
  M 158.19 346.32
  L 268.93 346.31
  A 0.71 0.67 -8.4 0 1 269.60 346.78
  Q 270.89 350.94 266.69 352.94
  Q 262.56 354.90 256.70 359.89
  Q 251.17 364.59 248.21 368.50
  Q 238.84 380.83 240.75 397.00
  Q 241.78 405.75 245.31 415.69
  Q 249.13 426.44 259.96 449.00
  Q 259.31 448.44 258.63 448.76
  A 0.51 0.48 -29.6 0 1 258.02 448.61
  Q 257.64 448.06 257.43 448.61
  A 0.82 0.67 -79.8 0 1 256.85 449.11
  Q 252.83 449.56 250.12 452.38
  Q 249.13 453.41 248.15 453.75
  Q 246.99 454.16 245.79 454.45
  A 1.69 1.11 -67.2 0 0 245.01 454.97
  Q 244.27 455.83 243.28 455.64
  Q 241.60 455.32 241.53 455.33
  Q 240.07 455.50 239.07 456.61
  A 1.82 1.10 81.3 0 0 238.70 457.50
  Q 238.37 460.18 236.30 459.40
  Q 234.08 458.56 233.96 458.54
  Q 231.24 458.15 229.81 460.06
  Q 228.13 462.32 225.25 461.75
  Q 221.72 461.05 220.81 462.31
  Q 217.37 467.08 211.65 469.24
  L 166.96 368.00
  Q 161.78 357.46 158.19 346.32
  Z"
/>
<path fill="none" stroke-width="1.00" stroke="#d9d9d9" vector-effect="non-scaling-stroke" d="
  M 610.50 346.46
  L 508.40 346.50
  A 0.93 0.87 -77.8 0 0 507.58 347.07
  L 503.54 356.75
  Q 503.46 355.68 502.50 356.00
  Q 499.87 356.89 498.98 359.09
  A 1.81 1.53 88.0 0 1 498.39 359.84
  Q 495.99 361.43 494.17 363.67
  Q 492.81 365.35 490.59 366.05
  A 1.86 1.84 3.2 0 0 489.44 367.07
  Q 488.23 369.77 486.40 370.51
  Q 484.74 371.18 484.69 371.21
  Q 480.66 373.59 477.58 377.12
  A 1.83 1.53 7.8 0 1 476.77 377.63
  Q 475.23 378.09 474.22 379.23
  Q 473.06 380.54 472.49 380.98
  Q 471.50 381.75 470.60 382.64
  A 1.75 1.33 10.6 0 1 469.76 383.06
  Q 468.23 383.37 467.69 384.92
  A 1.19 1.18 84.1 0 1 467.19 385.54
  Q 462.53 388.32 460.56 391.62
  A 1.10 1.07 9.7 0 1 459.82 392.13
  L 458.24 392.39
  A 1.40 1.10 -71.6 0 0 457.45 392.91
  Q 454.45 396.89 450.07 399.21
  Q 448.97 399.80 448.27 400.72
  Q 447.55 401.67 446.81 402.61
  A 1.50 1.15 68.5 0 0 446.55 403.51
  Q 446.61 405.32 445.00 405.75
  Q 441.10 406.80 438.94 410.19
  Q 437.34 412.70 436.50 412.75
  Q 434.11 412.89 432.94 414.75
  A 1.43 1.42 -82.8 0 1 432.20 415.33
  Q 430.64 415.85 430.00 417.00
  Q 428.77 419.22 426.55 419.32
  A 1.52 1.02 14.5 0 0 425.67 419.63
  Q 424.95 420.28 424.59 421.21
  A 1.82 1.12 -86.5 0 1 424.04 421.99
  Q 422.32 423.21 420.57 423.29
  A 1.64 1.63 -78.0 0 0 419.17 424.21
  Q 417.93 426.75 416.71 425.25
  Q 423.44 410.04 425.00 397.75
  Q 427.44 378.59 414.56 365.19
  Q 407.12 357.44 396.87 351.56
  A 1.45 1.21 8.8 0 1 396.25 350.86
  Q 395.53 348.88 396.25 346.90
  A 0.78 0.72 8.7 0 1 396.95 346.43
  Q 454.24 345.91 468.00 346.25
  Q 478.79 346.51 486.04 346.40
  Q 496.39 346.24 496.46 346.24
  Q 553.48 346.11 610.50 346.46
  Z"
/>
<path fill="none" stroke-width="1.00" stroke="#d9d9d9" vector-effect="non-scaling-stroke" d="
  M 610.50 346.46
  Q 611.90 350.40 608.25 352.75
  Q 599.94 358.09 587.83 368.85
  Q 569.61 385.03 557.89 406.41
  Q 552.37 416.47 547.29 426.75
  Q 546.76 425.88 546.47 426.23
  A 0.73 0.03 -84.1 0 0 546.37 426.92
  Q 546.34 427.17 546.06 427.26
  A 0.53 0.46 -14.3 0 0 545.69 427.80
  Q 545.84 428.75 544.86 428.30
  A 0.83 0.82 23.2 0 0 543.76 428.73
  Q 543.24 429.97 541.96 429.88
  Q 540.58 429.79 540.54 429.79
  Q 536.44 430.03 532.39 430.74
  Q 531.48 430.90 529.62 430.75
  Q 527.84 430.60 526.81 431.56
  Q 524.99 433.29 521.18 433.51
  Q 520.50 433.55 519.86 433.79
  Q 511.48 436.98 502.76 438.82
  Q 501.94 438.99 500.49 439.66
  Q 499.35 440.19 498.11 440.32
  Q 495.28 440.62 494.62 440.89
  Q 491.62 442.06 488.88 444.30
  Q 487.52 445.41 485.78 445.25
  Q 480.05 444.73 475.19 447.50
  A 1.55 1.01 -44.6 0 1 474.25 447.69
  L 471.97 447.16
  A 1.74 1.16 31.3 0 0 471.04 447.20
  Q 468.54 448.24 465.80 448.10
  A 1.15 0.91 -62.0 0 0 465.01 448.45
  Q 464.29 449.20 463.29 448.75
  L 503.54 356.75
  L 507.58 347.07
  A 0.93 0.87 -77.8 0 1 508.40 346.50
  L 610.50 346.46
  Z"
/>
<path fill="none" stroke-width="1.00" stroke="#d9d9d9" vector-effect="non-scaling-stroke" d="
  M 503.54 356.75
  L 463.29 448.75
  L 404.29 582.26
  L 402.27 586.49
  Q 395.23 590.13 390.44 596.28
  Q 389.28 597.78 387.75 598.90
  Q 386.10 600.10 384.80 601.35
  Q 384.32 601.80 383.74 602.09
  Q 380.45 603.75 379.78 605.63
  A 3.37 2.03 -16.5 0 1 378.41 607.13
  L 371.09 611.62
  Q 370.61 611.91 370.19 612.01
  Q 369.21 612.22 368.65 613.00
  Q 367.48 614.63 367.45 614.66
  Q 365.27 616.82 363.23 619.13
  Q 362.30 620.18 359.45 622.49
  Q 357.30 624.24 355.92 626.74
  A 1.13 1.04 6.5 0 1 355.19 627.27
  Q 352.89 627.78 352.82 630.16
  A 0.89 0.89 -83.4 0 1 351.76 631.00
  Q 350.18 630.70 348.95 631.73
  Q 346.43 633.84 343.69 635.66
  Q 341.90 636.86 340.60 638.20
  Q 339.26 639.58 337.80 641.08
  A 3.94 3.87 14.7 0 1 335.95 642.14
  Q 333.05 642.85 333.25 645.50
  Q 333.33 646.62 332.79 646.75
  L 332.96 604.75
  L 416.71 425.25
  Q 417.93 426.75 419.17 424.21
  A 1.64 1.63 -78.0 0 1 420.57 423.29
  Q 422.32 423.21 424.04 421.99
  A 1.82 1.12 -86.5 0 0 424.59 421.21
  Q 424.95 420.28 425.67 419.63
  A 1.52 1.02 14.5 0 1 426.55 419.32
  Q 428.77 419.22 430.00 417.00
  Q 430.64 415.85 432.20 415.33
  A 1.43 1.42 -82.8 0 0 432.94 414.75
  Q 434.11 412.89 436.50 412.75
  Q 437.34 412.70 438.94 410.19
  Q 441.10 406.80 445.00 405.75
  Q 446.61 405.32 446.55 403.51
  A 1.50 1.15 68.5 0 1 446.81 402.61
  Q 447.55 401.67 448.27 400.72
  Q 448.97 399.80 450.07 399.21
  Q 454.45 396.89 457.45 392.91
  A 1.40 1.10 -71.6 0 1 458.24 392.39
  L 459.82 392.13
  A 1.10 1.07 9.7 0 0 460.56 391.62
  Q 462.53 388.32 467.19 385.54
  A 1.19 1.18 84.1 0 0 467.69 384.92
  Q 468.23 383.37 469.76 383.06
  A 1.75 1.33 10.6 0 0 470.60 382.64
  Q 471.50 381.75 472.49 380.98
  Q 473.06 380.54 474.22 379.23
  Q 475.23 378.09 476.77 377.63
  A 1.83 1.53 7.8 0 0 477.58 377.12
  Q 480.66 373.59 484.69 371.21
  Q 484.74 371.18 486.40 370.51
  Q 488.23 369.77 489.44 367.07
  A 1.86 1.84 3.2 0 1 490.59 366.05
  Q 492.81 365.35 494.17 363.67
  Q 495.99 361.43 498.39 359.84
  A 1.81 1.53 88.0 0 0 498.98 359.09
  Q 499.87 356.89 502.50 356.00
  Q 503.46 355.68 503.54 356.75
  Z"
/>
<path fill="none" stroke-width="1.00" stroke="#d9d9d9" vector-effect="non-scaling-stroke" d="
  M 166.96 368.00
  L 211.65 469.24
  L 216.96 481.25
  Q 214.49 480.48 214.75 482.75
  Q 215.10 485.83 214.38 487.66
  Q 213.87 488.95 213.85 489.01
  Q 211.78 495.71 210.06 498.81
  Q 209.14 500.49 210.15 501.65
  A 1.13 0.78 37.4 0 1 210.42 502.49
  Q 210.18 503.61 209.39 504.41
  Q 208.34 505.47 208.06 505.99
  Q 205.39 510.96 205.25 512.50
  Q 204.72 518.39 202.13 523.62
  Q 202.11 523.65 200.42 526.01
  Q 199.20 527.71 199.75 530.00
  Q 200.13 531.58 198.25 533.25
  Q 196.92 534.43 196.72 536.04
  Q 196.36 538.84 196.34 538.92
  Q 195.15 542.71 193.16 546.17
  Q 191.92 548.34 192.75 550.74
  Q 193.46 552.81 191.46 553.68
  Q 189.63 554.47 188.98 556.18
  Q 188.83 556.57 188.76 557.84
  Q 188.71 558.92 188.21 559.48
  A 3.02 3.00 -26.4 0 0 187.46 561.69
  Q 187.74 565.65 184.74 566.40
  A 0.57 0.51 73.2 0 1 184.11 566.01
  Q 183.60 564.46 182.29 563.50
  L 132.71 457.25
  Q 135.51 454.91 136.25 450.25
  Q 137.14 444.62 141.52 436.19
  Q 141.69 435.86 141.76 435.25
  Q 141.86 434.34 142.56 433.31
  Q 143.55 431.87 143.32 429.74
  A 1.62 1.31 61.5 0 1 143.49 428.82
  Q 144.42 427.20 145.48 425.67
  Q 146.30 424.50 146.29 423.48
  Q 146.28 422.22 145.77 421.06
  A 0.47 0.46 -44.2 0 1 145.78 420.68
  Q 146.93 418.12 147.79 416.49
  Q 148.98 414.26 149.40 412.22
  Q 150.43 407.12 152.68 402.43
  Q 152.80 402.20 153.82 399.31
  Q 154.21 398.21 154.93 397.28
  Q 155.83 396.13 156.14 395.38
  Q 157.59 391.99 158.81 388.52
  Q 158.83 388.47 159.23 386.30
  Q 159.45 385.07 160.44 383.69
  Q 162.03 381.45 162.46 376.49
  A 1.70 1.44 -26.7 0 1 162.83 375.62
  Q 164.35 373.77 164.50 371.75
  Q 164.70 369.03 166.96 368.00
  Z"
/>
<path fill="none" stroke-width="1.00" stroke="#d9d9d9" vector-effect="non-scaling-stroke" d="
  M 547.29 426.75
  L 481.50 567.29
  Q 481.29 566.04 480.29 565.92
  Q 479.24 565.80 479.11 565.76
  Q 476.15 564.94 473.35 565.83
  Q 469.82 566.95 468.98 567.12
  Q 466.17 567.68 463.51 568.76
  Q 460.42 570.01 458.15 570.46
  Q 454.21 571.25 450.34 572.31
  Q 449.52 572.53 447.09 572.78
  Q 445.43 572.96 443.89 573.70
  A 1.56 1.52 36.5 0 1 442.94 573.83
  Q 439.72 573.27 437.14 575.19
  A 1.48 1.34 24.6 0 1 436.25 575.47
  Q 434.45 575.46 433.11 576.65
  A 1.40 1.17 -61.7 0 1 432.26 576.99
  Q 427.49 576.97 423.26 579.32
  Q 421.59 580.24 418.67 579.46
  A 1.50 1.49 -51.7 0 0 417.58 579.59
  Q 411.03 583.14 404.29 582.26
  L 463.29 448.75
  Q 464.29 449.20 465.01 448.45
  A 1.15 0.91 -62.0 0 1 465.80 448.10
  Q 468.54 448.24 471.04 447.20
  A 1.74 1.16 31.3 0 1 471.97 447.16
  L 474.25 447.69
  A 1.55 1.01 -44.6 0 0 475.19 447.50
  Q 480.05 444.73 485.78 445.25
  Q 487.52 445.41 488.88 444.30
  Q 491.62 442.06 494.62 440.89
  Q 495.28 440.62 498.11 440.32
  Q 499.35 440.19 500.49 439.66
  Q 501.94 438.99 502.76 438.82
  Q 511.48 436.98 519.86 433.79
  Q 520.50 433.55 521.18 433.51
  Q 524.99 433.29 526.81 431.56
  Q 527.84 430.60 529.62 430.75
  Q 531.48 430.90 532.39 430.74
  Q 536.44 430.03 540.54 429.79
  Q 540.58 429.79 541.96 429.88
  Q 543.24 429.97 543.76 428.73
  A 0.83 0.82 23.2 0 1 544.86 428.30
  Q 545.84 428.75 545.69 427.80
  A 0.53 0.46 -14.3 0 1 546.06 427.26
  Q 546.34 427.17 546.37 426.92
  A 0.73 0.03 -84.1 0 1 546.47 426.23
  Q 546.76 425.88 547.29 426.75
  Z"
/>
<path fill="none" stroke-width="1.00" stroke="#d9d9d9" vector-effect="non-scaling-stroke" d="
  M 712.53 519.55
  Q 713.37 521.44 714.20 519.55
  Q 729.02 486.20 743.95 453.19
  Q 745.27 450.26 746.00 447.14
  Q 747.55 440.47 741.75 437.00
  Q 735.75 433.42 729.03 431.54
  Q 728.02 431.26 727.49 430.77
  Q 726.19 429.58 727.98 428.96
  Q 728.59 428.75 729.55 428.75
  Q 750.03 428.75 770.50 428.75
  A 1.58 1.20 -19.5 0 1 771.41 429.04
  Q 772.95 430.25 770.94 431.44
  Q 768.01 433.16 765.99 434.62
  Q 763.69 436.27 762.03 438.87
  Q 759.38 443.04 756.50 449.25
  Q 735.88 493.77 715.38 538.16
  A 1.45 1.44 -77.5 0 1 714.07 539.00
  L 697.92 539.00
  A 1.78 1.77 77.4 0 1 696.31 537.97
  Q 675.70 493.52 655.44 449.56
  Q 652.50 443.19 649.94 439.06
  Q 647.13 434.54 640.81 432.06
  Q 639.61 431.59 639.03 430.99
  Q 636.94 428.89 641.25 428.87
  Q 664.75 428.75 689.07 428.75
  A 0.82 0.82 82.0 0 1 689.86 429.35
  Q 690.41 431.30 688.25 431.76
  Q 681.87 433.12 678.94 436.94
  Q 677.41 438.92 678.40 442.57
  Q 679.22 445.60 680.53 448.45
  Q 696.95 484.20 712.53 519.55
  Z"
/>
<path fill="none" stroke-width="1.00" stroke="#d9d9d9" vector-effect="non-scaling-stroke" d="
  M 797.09 431.14
  Q 795.18 430.02 797.00 429.07
  Q 797.63 428.75 798.58 428.75
  Q 815.91 428.75 833.04 428.75
  A 2.27 2.26 77.5 0 1 835.09 430.06
  Q 856.00 475.25 876.39 519.77
  Q 879.74 527.07 882.56 530.94
  Q 884.38 533.42 888.24 535.92
  Q 889.28 536.59 889.69 537.17
  Q 891.01 539.04 887.75 539.04
  Q 865.37 539.00 843.00 539.04
  Q 840.49 539.04 841.54 537.23
  A 1.58 1.20 -1.7 0 1 842.28 536.63
  Q 848.29 534.34 849.69 533.44
  Q 851.82 532.07 852.82 529.92
  Q 853.69 528.04 852.99 525.53
  Q 852.39 523.37 851.31 520.94
  Q 846.39 509.74 844.15 505.01
  A 0.80 0.80 76.9 0 0 843.43 504.56
  L 792.57 504.80
  A 0.88 0.86 13.5 0 0 791.82 505.25
  Q 787.06 514.01 785.19 520.44
  Q 783.30 526.95 789.30 530.71
  Q 795.09 534.34 802.86 536.28
  A 1.85 1.84 3.8 0 1 804.25 537.87
  Q 804.40 539.27 802.77 539.13
  Q 801.28 539.00 801.23 539.00
  Q 780.77 539.04 760.31 538.94
  A 0.64 0.58 -4.2 0 1 759.69 538.45
  Q 759.43 536.76 761.50 535.50
  Q 767.74 531.70 771.33 525.33
  Q 774.41 519.86 777.03 514.16
  Q 792.32 480.86 807.50 447.50
  Q 809.04 444.12 808.69 440.86
  Q 808.36 437.86 805.69 435.61
  Q 802.68 433.08 798.83 431.83
  Q 797.59 431.43 797.09 431.14
  Z
  M 817.38 448.01
  L 796.47 494.43
  A 0.54 0.54 -77.9 0 0 796.96 495.19
  L 838.67 495.25
  A 0.76 0.76 77.9 0 0 839.36 494.18
  L 818.46 448.01
  Q 817.92 446.82 817.38 448.01
  Z"
/>
<path fill="none" stroke-width="1.00" stroke="#d9d9d9" vector-effect="non-scaling-stroke" d="
  M 921.81 452.15
  Q 921.80 477.57 921.95 503.60
  Q 922.03 517.88 923.10 521.29
  Q 926.10 530.80 937.17 534.48
  Q 942.30 536.19 943.25 536.75
  Q 944.95 537.77 943.66 538.64
  Q 943.14 539.00 942.24 539.00
  Q 920.97 539.00 899.70 539.00
  Q 898.80 539.00 898.32 538.82
  Q 897.03 538.34 898.03 537.14
  Q 899.03 535.96 900.40 535.27
  Q 907.86 531.51 910.25 524.00
  Q 911.54 519.95 911.53 513.00
  Q 911.50 481.75 911.50 450.50
  Q 911.50 448.06 910.87 444.27
  Q 909.09 433.68 898.71 431.67
  Q 897.60 431.45 896.96 430.92
  Q 895.01 429.30 897.81 428.86
  Q 898.48 428.75 899.69 428.75
  Q 915.74 428.75 932.65 428.75
  A 3.26 3.25 69.0 0 1 935.07 429.83
  L 1004.97 507.84
  Q 1005.99 508.97 1006.00 507.45
  Q 1006.16 482.40 1005.84 457.91
  Q 1005.72 448.84 1004.61 445.71
  Q 1002.38 439.45 995.94 436.06
  Q 991.45 433.70 985.59 431.55
  Q 984.60 431.19 984.14 430.60
  Q 982.86 428.93 986.00 428.91
  Q 1006.87 428.75 1027.75 428.69
  Q 1031.27 428.68 1029.64 430.88
  Q 1029.13 431.56 1027.97 432.17
  Q 1016.63 438.11 1016.50 451.00
  Q 1016.07 493.75 1016.26 537.83
  A 1.17 1.17 0.0 0 1 1015.09 539.00
  L 1002.76 539.00
  A 3.28 3.25 -20.8 0 1 1000.33 537.92
  L 923.05 451.68
  Q 921.81 450.29 921.81 452.15
  Z"
/>
<path fill="none" stroke-width="1.00" stroke="#d9d9d9" vector-effect="non-scaling-stroke" d="
  M 1046.28 430.77
  Q 1045.50 429.92 1046.40 429.15
  Q 1046.87 428.75 1047.71 428.75
  Q 1072.48 428.65 1097.25 428.89
  Q 1113.96 429.05 1117.25 429.37
  Q 1137.53 431.31 1154.19 443.06
  Q 1163.08 449.34 1169.69 459.56
  Q 1175.30 468.24 1176.39 478.73
  Q 1177.42 488.73 1174.24 498.39
  Q 1170.48 509.78 1161.53 518.54
  Q 1154.89 525.04 1146.68 529.41
  Q 1128.71 538.99 1108.25 538.99
  Q 1077.62 539.00 1047.00 539.00
  A 1.05 0.88 -14.7 0 1 1046.19 538.62
  Q 1045.19 537.22 1046.94 536.69
  Q 1052.48 534.98 1054.19 533.94
  Q 1060.60 530.00 1060.94 522.26
  Q 1061.08 519.13 1061.09 516.00
  Q 1061.25 484.50 1061.25 453.00
  Q 1061.25 450.14 1060.87 445.24
  Q 1060.21 436.58 1052.44 433.06
  Q 1051.08 432.44 1047.76 431.53
  Q 1046.72 431.25 1046.28 430.77
  Z
  M 1089.69 529.25
  Q 1099.59 529.20 1109.50 529.19
  Q 1114.94 529.18 1121.00 527.75
  Q 1137.88 523.77 1145.48 508.52
  Q 1149.43 500.60 1150.25 490.25
  Q 1150.97 481.13 1149.67 472.90
  Q 1148.22 463.72 1144.04 456.73
  Q 1133.95 439.86 1111.99 438.91
  Q 1099.25 438.35 1085.49 438.51
  A 1.01 1.00 89.7 0 0 1084.50 439.52
  L 1084.44 528.81
  A 0.49 0.48 89.4 0 0 1084.93 529.30
  Q 1087.31 529.26 1089.69 529.25
  Z"
/>
<path fill="none" stroke-width="1.00" stroke="#d9d9d9" vector-effect="non-scaling-stroke" d="
  M 1226.06 488.07
  L 1226.00 528.59
  A 0.70 0.70 0.8 0 0 1226.68 529.29
  Q 1244.03 529.77 1260.77 529.25
  Q 1269.55 528.98 1273.99 527.24
  Q 1281.44 524.31 1286.61 517.60
  Q 1293.12 509.17 1298.17 499.79
  Q 1298.63 498.93 1299.14 498.48
  Q 1301.03 496.80 1300.76 500.23
  Q 1299.33 518.88 1297.42 538.35
  A 0.66 0.65 -87.1 0 1 1296.77 538.94
  Q 1243.97 539.05 1191.00 538.96
  Q 1189.98 538.95 1188.98 539.15
  A 1.15 0.92 -26.5 0 1 1188.10 538.96
  Q 1186.80 537.86 1188.44 536.69
  Q 1189.16 536.17 1193.50 535.00
  Q 1197.60 533.90 1199.90 530.23
  Q 1201.52 527.66 1202.09 522.96
  Q 1202.75 517.49 1202.75 510.00
  Q 1202.75 483.88 1202.91 457.75
  Q 1202.95 450.37 1201.85 443.08
  Q 1200.90 436.86 1195.36 433.95
  Q 1192.54 432.48 1188.46 431.17
  A 1.21 1.21 -57.6 0 1 1188.01 429.14
  Q 1188.66 428.53 1189.93 428.63
  Q 1191.52 428.75 1191.58 428.75
  Q 1243.16 428.75 1294.90 428.75
  A 1.14 1.13 87.2 0 1 1296.03 429.78
  Q 1297.63 447.00 1299.13 464.51
  Q 1299.44 468.10 1297.49 466.56
  Q 1296.90 466.09 1296.38 465.14
  Q 1291.14 455.54 1283.94 447.31
  Q 1279.51 442.24 1273.51 440.11
  Q 1269.74 438.77 1261.33 438.63
  Q 1243.84 438.32 1226.46 438.56
  A 0.47 0.47 -0.6 0 0 1226.00 439.03
  L 1225.94 477.05
  A 0.51 0.50 90.0 0 0 1226.44 477.56
  Q 1244.57 477.39 1248.25 477.50
  Q 1255.39 477.71 1259.44 472.69
  Q 1263.54 467.61 1268.43 458.85
  Q 1269.06 457.72 1269.63 457.16
  Q 1271.79 455.02 1271.79 459.25
  Q 1271.75 482.41 1271.75 505.58
  Q 1271.75 506.77 1271.52 507.40
  Q 1270.95 508.99 1269.63 507.79
  Q 1269.16 507.37 1268.67 506.47
  Q 1263.93 497.88 1259.19 492.06
  Q 1255.89 488.02 1251.00 487.28
  Q 1250.73 487.24 1241.99 487.18
  Q 1234.27 487.14 1226.56 487.54
  A 0.53 0.52 88.9 0 0 1226.06 488.07
  Z"
/>
<path fill="none" stroke-width="1.00" stroke="#d9d9d9" vector-effect="non-scaling-stroke" d="
  M 1405.47 482.72
  Q 1416.70 484.40 1424.44 495.06
  Q 1427.24 498.92 1429.93 505.06
  Q 1434.76 516.09 1439.46 527.16
  Q 1441.85 532.78 1447.35 535.35
  Q 1449.03 536.14 1449.98 537.20
  Q 1451.50 538.89 1449.22 538.96
  Q 1439.91 539.24 1431.37 538.80
  Q 1425.14 538.47 1422.31 537.24
  Q 1417.76 535.24 1415.31 530.69
  Q 1413.17 526.71 1410.61 519.42
  Q 1407.47 510.52 1404.17 501.69
  Q 1401.63 494.90 1397.81 491.19
  Q 1396.02 489.44 1392.92 488.31
  Q 1390.75 487.51 1387.45 487.34
  Q 1374.46 486.67 1360.14 487.32
  A 0.92 0.91 89.0 0 0 1359.27 488.23
  Q 1359.08 505.50 1359.50 521.25
  Q 1359.62 525.90 1361.94 529.53
  Q 1363.75 532.36 1367.66 534.13
  Q 1371.09 535.68 1374.77 536.63
  A 1.71 1.32 -7.3 0 1 1375.59 537.11
  Q 1376.74 538.44 1375.21 538.87
  Q 1374.73 539.00 1373.77 539.00
  Q 1348.26 539.00 1322.75 539.00
  Q 1319.95 539.00 1321.03 537.22
  A 1.46 1.12 1.8 0 1 1321.79 536.67
  Q 1325.35 535.55 1328.72 533.94
  Q 1331.45 532.65 1333.19 530.19
  Q 1335.59 526.80 1335.71 520.25
  Q 1336.15 496.13 1335.75 450.25
  Q 1335.71 445.37 1335.24 442.71
  Q 1334.26 437.14 1329.42 434.35
  Q 1326.15 432.47 1322.51 431.51
  Q 1321.45 431.24 1320.99 430.83
  Q 1319.99 429.95 1321.12 429.13
  Q 1321.63 428.75 1322.49 428.75
  Q 1355.25 428.60 1388.00 428.87
  Q 1400.71 428.98 1416.25 433.00
  Q 1428.89 436.27 1434.94 445.81
  Q 1439.11 452.39 1437.64 460.01
  Q 1436.56 465.61 1432.55 470.00
  Q 1428.65 474.26 1423.11 476.67
  Q 1414.65 480.35 1405.48 481.50
  Q 1401.05 482.06 1405.47 482.72
  Z
  M 1406.28 443.98
  Q 1403.00 441.69 1399.26 440.46
  Q 1396.51 439.55 1391.62 439.18
  Q 1376.44 438.05 1360.09 438.54
  A 0.87 0.87 -1.0 0 0 1359.25 439.41
  L 1359.25 476.85
  A 0.59 0.59 89.9 0 0 1359.84 477.44
  Q 1371.16 477.39 1382.75 477.34
  Q 1387.29 477.32 1394.31 476.31
  Q 1398.92 475.65 1402.68 473.99
  Q 1406.82 472.16 1409.36 468.79
  Q 1414.41 462.08 1412.29 452.89
  Q 1410.98 447.26 1406.28 443.98
  Z"
/>
<path fill="none" stroke-width="1.00" stroke="#d9d9d9" vector-effect="non-scaling-stroke" d="
  M 1537.45 480.61
  Q 1538.02 480.97 1538.75 481.00
  Q 1555.96 481.72 1568.44 491.56
  Q 1571.64 494.09 1573.93 498.16
  Q 1576.04 501.92 1576.52 506.19
  Q 1577.87 518.25 1568.31 526.56
  Q 1565.31 529.17 1561.60 531.18
  Q 1558.55 532.83 1554.09 534.22
  Q 1538.73 539.03 1522.50 539.02
  Q 1491.13 539.00 1459.75 539.04
  Q 1457.61 539.04 1458.35 537.26
  A 1.13 0.95 0.1 0 1 1459.04 536.68
  Q 1462.54 535.67 1465.82 534.07
  Q 1467.65 533.18 1468.99 531.73
  Q 1470.14 530.49 1470.95 528.38
  Q 1472.79 523.54 1472.78 518.25
  Q 1472.75 486.63 1472.99 455.00
  Q 1473.05 447.07 1471.75 442.00
  Q 1470.15 435.76 1464.44 433.31
  Q 1462.18 432.34 1458.41 431.20
  A 1.32 1.11 -2.9 0 1 1457.67 430.64
  Q 1456.62 428.80 1459.00 428.75
  Q 1466.83 428.57 1483.18 428.78
  Q 1489.29 428.86 1503.19 428.71
  Q 1515.22 428.57 1527.26 429.12
  Q 1540.89 429.74 1553.67 434.47
  Q 1559.83 436.75 1563.94 440.06
  Q 1566.94 442.48 1568.91 446.02
  Q 1570.76 449.34 1571.18 453.27
  Q 1572.38 464.49 1562.79 471.53
  Q 1557.68 475.29 1551.55 477.04
  Q 1544.64 479.02 1537.55 480.23
  Q 1536.99 480.33 1537.45 480.61
  Z
  M 1540.31 444.44
  Q 1532.56 438.91 1522.50 438.67
  Q 1509.50 438.37 1496.61 438.50
  A 0.69 0.68 -0.4 0 0 1495.93 439.18
  L 1496.00 476.23
  A 0.52 0.51 90.0 0 0 1496.51 476.75
  Q 1506.50 476.75 1516.00 476.86
  Q 1522.78 476.94 1529.28 475.50
  Q 1537.19 473.74 1541.19 469.99
  Q 1548.11 463.51 1545.38 452.17
  Q 1544.18 447.20 1540.31 444.44
  Z
  M 1501.44 529.24
  Q 1513.72 529.39 1526.00 529.01
  Q 1533.23 528.79 1539.52 525.89
  Q 1545.69 523.04 1548.26 518.17
  Q 1551.00 512.98 1550.50 506.00
  Q 1549.98 498.79 1545.98 494.30
  Q 1542.91 490.86 1536.57 488.70
  Q 1531.05 486.82 1525.56 486.69
  Q 1511.66 486.36 1496.77 486.51
  A 0.77 0.75 -0.8 0 0 1496.01 487.27
  L 1496.18 528.81
  A 0.48 0.48 -1.1 0 0 1496.68 529.29
  Q 1499.06 529.21 1501.44 529.24
  Z"
/>
<path fill="none" stroke-width="1.00" stroke="#d9d9d9" vector-effect="non-scaling-stroke" d="
  M 1597.49 433.78
  Q 1594.42 432.17 1590.98 431.36
  A 1.67 1.23 -6.1 0 1 1590.16 430.88
  Q 1589.03 429.54 1590.49 428.96
  Q 1591.03 428.75 1592.04 428.75
  Q 1617.02 428.75 1642.00 428.76
  Q 1643.68 428.76 1643.51 429.95
  A 2.20 2.19 -0.7 0 1 1641.71 431.79
  Q 1632.38 433.41 1629.50 441.00
  Q 1628.14 444.58 1628.16 452.50
  Q 1628.25 483.12 1628.18 513.75
  Q 1628.16 521.88 1629.25 526.00
  Q 1630.89 532.21 1636.86 534.57
  Q 1639.43 535.58 1642.03 536.50
  Q 1642.94 536.82 1643.30 537.26
  Q 1643.96 538.07 1643.06 538.69
  Q 1642.62 539.00 1641.87 539.00
  Q 1616.31 539.00 1590.75 539.00
  A 1.00 0.79 -12.3 0 1 1589.95 538.61
  Q 1589.46 537.84 1589.97 537.15
  Q 1590.27 536.74 1591.07 536.50
  Q 1593.86 535.66 1596.56 534.56
  Q 1602.54 532.11 1604.00 525.75
  Q 1605.09 520.99 1605.04 513.63
  Q 1605.01 508.95 1605.01 508.87
  Q 1605.20 472.13 1604.75 446.75
  Q 1604.67 442.23 1602.43 438.37
  Q 1600.76 435.49 1597.49 433.78
  Z"
/>
<path fill="none" stroke-width="1.00" stroke="#d9d9d9" vector-effect="non-scaling-stroke" d="
  M 1709.51 529.41
  Q 1718.61 529.29 1727.71 529.12
  Q 1735.15 528.97 1739.09 527.53
  Q 1747.24 524.53 1753.19 516.94
  Q 1760.38 507.76 1766.05 496.32
  A 2.51 2.50 8.5 0 1 1767.88 494.97
  Q 1769.15 494.76 1768.91 496.33
  Q 1768.77 497.25 1768.77 497.30
  Q 1766.96 516.33 1765.09 535.35
  Q 1765.08 535.39 1765.07 537.17
  Q 1765.05 539.37 1762.90 539.17
  Q 1761.16 539.00 1761.07 539.00
  Q 1711.51 539.00 1661.94 539.00
  Q 1661.83 539.00 1660.57 539.08
  Q 1658.86 539.19 1659.20 538.00
  Q 1659.68 536.36 1661.35 536.03
  Q 1670.61 534.19 1673.25 526.75
  Q 1674.66 522.78 1674.56 515.73
  Q 1674.50 511.88 1674.50 511.78
  Q 1674.50 481.27 1674.55 450.75
  Q 1674.55 446.50 1673.49 442.48
  Q 1672.28 437.87 1669.45 435.47
  Q 1666.33 432.83 1661.60 431.81
  A 3.94 3.92 -14.7 0 1 1659.50 430.59
  Q 1658.49 429.48 1659.84 428.95
  Q 1660.34 428.75 1661.19 428.75
  Q 1687.10 428.75 1713.01 428.75
  A 1.33 1.01 -17.0 0 1 1713.88 429.07
  Q 1714.72 429.91 1714.03 430.76
  Q 1713.67 431.21 1712.78 431.44
  Q 1708.25 432.61 1706.75 433.25
  Q 1698.10 436.95 1698.00 446.25
  Q 1697.57 486.87 1697.75 528.48
  A 0.92 0.92 -2.3 0 0 1698.74 529.39
  Q 1701.27 529.20 1704.13 529.29
  Q 1708.10 529.42 1709.51 529.41
  Z"
/>
<path fill="none" stroke-width="1.00" stroke="#d9d9d9" vector-effect="non-scaling-stroke" d="
  M 1816.18 438.54
  Q 1812.62 438.38 1809.05 438.53
  Q 1803.37 438.76 1801.94 438.92
  Q 1792.06 439.99 1785.36 447.86
  Q 1777.92 456.59 1772.11 467.29
  A 2.31 2.28 11.0 0 1 1770.34 468.47
  Q 1769.13 468.60 1769.38 467.05
  Q 1769.55 466.01 1769.55 465.94
  Q 1771.18 448.82 1772.91 430.04
  A 1.42 1.42 -87.3 0 1 1774.32 428.75
  L 1883.19 428.75
  A 0.84 0.83 86.9 0 1 1884.02 429.50
  Q 1885.91 448.08 1887.35 466.26
  Q 1887.65 470.00 1885.43 467.56
  Q 1884.40 466.43 1883.67 465.09
  Q 1878.22 455.07 1871.08 447.17
  Q 1866.96 442.61 1861.47 440.43
  Q 1857.75 438.96 1851.32 438.63
  Q 1846.21 438.37 1840.96 438.51
  A 0.79 0.79 -0.7 0 0 1840.19 439.30
  Q 1840.30 478.97 1840.41 518.75
  Q 1840.42 523.60 1841.50 527.00
  Q 1842.21 529.23 1843.87 531.09
  Q 1845.27 532.65 1847.62 533.79
  Q 1851.10 535.48 1854.96 536.16
  Q 1856.92 536.51 1856.72 538.22
  A 0.90 0.89 3.6 0 1 1855.83 539.00
  Q 1828.04 539.00 1802.27 539.00
  Q 1801.25 539.00 1800.76 538.79
  Q 1799.64 538.33 1800.52 537.25
  Q 1800.90 536.78 1801.66 536.58
  Q 1805.80 535.48 1809.68 533.68
  Q 1814.50 531.45 1815.82 526.27
  Q 1816.54 523.43 1816.59 520.50
  Q 1817.26 483.32 1816.83 446.14
  Q 1816.83 446.02 1817.04 442.51
  Q 1817.15 440.77 1816.80 439.05
  A 0.66 0.64 -4.4 0 0 1816.18 438.54
  Z"
/>
<path fill="none" stroke-width="1.00" stroke="#d9d9d9" vector-effect="non-scaling-stroke" d="
  M 259.96 449.00
  L 329.50 598.21
  Q 328.25 598.22 329.12 599.60
  A 1.12 1.06 -34.5 0 1 328.81 601.05
  L 325.48 603.52
  Q 323.91 604.69 322.30 604.73
  Q 315.75 604.92 311.06 608.56
  Q 308.82 610.29 304.31 610.56
  Q 301.53 610.73 300.24 613.85
  A 1.09 0.66 -76.4 0 1 299.60 614.50
  L 297.32 614.85
  Q 296.67 614.95 296.43 615.13
  Q 293.45 617.52 289.79 616.46
  A 1.70 1.25 35.8 0 0 288.83 616.47
  Q 287.31 617.03 286.25 618.29
  Q 285.94 618.66 285.47 618.88
  L 282.45 620.26
  A 1.58 1.25 33.3 0 1 281.53 620.34
  L 278.00 619.54
  L 216.96 481.25
  L 211.65 469.24
  Q 217.37 467.08 220.81 462.31
  Q 221.72 461.05 225.25 461.75
  Q 228.13 462.32 229.81 460.06
  Q 231.24 458.15 233.96 458.54
  Q 234.08 458.56 236.30 459.40
  Q 238.37 460.18 238.70 457.50
  A 1.82 1.10 81.3 0 1 239.07 456.61
  Q 240.07 455.50 241.53 455.33
  Q 241.60 455.32 243.28 455.64
  Q 244.27 455.83 245.01 454.97
  A 1.69 1.11 -67.2 0 1 245.79 454.45
  Q 246.99 454.16 248.15 453.75
  Q 249.13 453.41 250.12 452.38
  Q 252.83 449.56 256.85 449.11
  A 0.82 0.67 -79.8 0 0 257.43 448.61
  Q 257.64 448.06 258.02 448.61
  A 0.51 0.48 -29.6 0 0 258.63 448.76
  Q 259.31 448.44 259.96 449.00
  Z"
/>
<path fill="none" stroke-width="1.00" stroke="#d9d9d9" vector-effect="non-scaling-stroke" d="
  M 216.96 481.25
  L 278.00 619.54
  L 331.25 740.04
  Q 332.54 742.97 332.75 739.77
  Q 333.13 733.75 333.01 727.75
  Q 332.79 717.40 332.80 715.74
  Q 333.05 681.25 332.79 646.75
  Q 333.33 646.62 333.25 645.50
  Q 333.05 642.85 335.95 642.14
  A 3.94 3.87 14.7 0 0 337.80 641.08
  Q 339.26 639.58 340.60 638.20
  Q 341.90 636.86 343.69 635.66
  Q 346.43 633.84 348.95 631.73
  Q 350.18 630.70 351.76 631.00
  A 0.89 0.89 -83.4 0 0 352.82 630.16
  Q 352.89 627.78 355.19 627.27
  A 1.13 1.04 6.5 0 0 355.92 626.74
  Q 357.30 624.24 359.45 622.49
  Q 362.30 620.18 363.23 619.13
  Q 365.27 616.82 367.45 614.66
  Q 367.48 614.63 368.65 613.00
  Q 369.21 612.22 370.19 612.01
  Q 370.61 611.91 371.09 611.62
  L 378.41 607.13
  A 3.37 2.03 -16.5 0 0 379.78 605.63
  Q 380.45 603.75 383.74 602.09
  Q 384.32 601.80 384.80 601.35
  Q 386.10 600.10 387.75 598.90
  Q 389.28 597.78 390.44 596.28
  Q 395.23 590.13 402.27 586.49
  L 377.46 643.00
  L 333.22 743.32
  A 0.28 0.28 -73.6 0 0 333.43 743.71
  Q 334.53 743.91 333.00 744.21
  L 267.46 744.25
  A 0.82 0.82 -12.5 0 1 266.72 743.78
  L 182.29 563.50
  Q 183.60 564.46 184.11 566.01
  A 0.57 0.51 73.2 0 0 184.74 566.40
  Q 187.74 565.65 187.46 561.69
  A 3.02 3.00 -26.4 0 1 188.21 559.48
  Q 188.71 558.92 188.76 557.84
  Q 188.83 556.57 188.98 556.18
  Q 189.63 554.47 191.46 553.68
  Q 193.46 552.81 192.75 550.74
  Q 191.92 548.34 193.16 546.17
  Q 195.15 542.71 196.34 538.92
  Q 196.36 538.84 196.72 536.04
  Q 196.92 534.43 198.25 533.25
  Q 200.13 531.58 199.75 530.00
  Q 199.20 527.71 200.42 526.01
  Q 202.11 523.65 202.13 523.62
  Q 204.72 518.39 205.25 512.50
  Q 205.39 510.96 208.06 505.99
  Q 208.34 505.47 209.39 504.41
  Q 210.18 503.61 210.42 502.49
  A 1.13 0.78 37.4 0 0 210.15 501.65
  Q 209.14 500.49 210.06 498.81
  Q 211.78 495.71 213.85 489.01
  Q 213.87 488.95 214.38 487.66
  Q 215.10 485.83 214.75 482.75
  Q 214.49 480.48 216.96 481.25
  Z"
/>
<path fill="none" stroke-width="1.00" stroke="#d9d9d9" vector-effect="non-scaling-stroke" d="
  M 481.50 567.29
  L 452.71 629.00
  Q 451.67 627.15 450.21 628.13
  A 0.75 0.70 -45.0 0 1 449.41 628.16
  Q 447.45 626.92 445.50 627.75
  Q 440.45 629.90 436.74 630.45
  Q 429.99 631.45 423.49 633.51
  Q 422.69 633.76 419.28 634.43
  Q 417.12 634.85 415.18 635.99
  A 1.20 1.05 -48.8 0 1 414.28 636.11
  L 411.22 635.16
  A 1.56 0.96 32.4 0 0 410.28 635.15
  Q 409.11 635.65 409.19 637.00
  A 0.81 0.64 79.2 0 1 408.80 637.75
  Q 407.38 638.35 405.14 637.22
  Q 403.28 636.28 401.94 637.87
  Q 400.02 640.14 397.24 638.57
  A 0.48 0.48 28.7 0 0 396.59 638.76
  Q 395.62 640.55 393.89 641.47
  A 1.48 1.18 33.0 0 1 392.96 641.56
  Q 388.12 640.35 383.36 644.08
  A 1.85 1.83 -54.5 0 1 381.63 644.38
  Q 379.68 643.71 377.94 644.52
  A 0.30 0.27 76.9 0 1 377.56 644.25
  L 377.46 643.00
  L 402.27 586.49
  L 404.29 582.26
  Q 411.03 583.14 417.58 579.59
  A 1.50 1.49 -51.7 0 1 418.67 579.46
  Q 421.59 580.24 423.26 579.32
  Q 427.49 576.97 432.26 576.99
  A 1.40 1.17 -61.7 0 0 433.11 576.65
  Q 434.45 575.46 436.25 575.47
  A 1.48 1.34 24.6 0 0 437.14 575.19
  Q 439.72 573.27 442.94 573.83
  A 1.56 1.52 36.5 0 0 443.89 573.70
  Q 445.43 572.96 447.09 572.78
  Q 449.52 572.53 450.34 572.31
  Q 454.21 571.25 458.15 570.46
  Q 460.42 570.01 463.51 568.76
  Q 466.17 567.68 468.98 567.12
  Q 469.82 566.95 473.35 565.83
  Q 476.15 564.94 479.11 565.76
  Q 479.24 565.80 480.29 565.92
  Q 481.29 566.04 481.50 567.29
  Z"
/>
<path fill="none" stroke-width="1.00" stroke="#d9d9d9" vector-effect="non-scaling-stroke" d="
  M 1432.14 694.61
  L 1424.18 701.79
  Q 1422.03 703.73 1421.75 700.76
  Q 1419.86 680.36 1417.83 659.99
  Q 1417.48 656.56 1419.53 657.85
  Q 1420.17 658.25 1420.89 659.22
  Q 1426.43 666.71 1434.81 674.94
  Q 1448.11 687.98 1465.25 693.00
  Q 1472.36 695.08 1480.15 694.94
  Q 1486.86 694.82 1492.32 693.78
  Q 1498.40 692.62 1504.00 689.74
  Q 1507.54 687.92 1509.81 684.88
  Q 1512.15 681.75 1512.53 678.08
  Q 1513.12 672.54 1508.81 668.44
  Q 1505.98 665.74 1502.02 664.06
  Q 1499.59 663.02 1494.34 661.94
  Q 1476.08 658.19 1457.74 654.81
  Q 1445.17 652.48 1434.06 646.19
  Q 1425.82 641.52 1422.84 632.90
  Q 1420.09 624.95 1422.31 616.51
  Q 1424.59 607.80 1431.81 601.81
  Q 1437.60 597.01 1445.03 594.19
  Q 1451.17 591.85 1459.72 590.81
  Q 1484.82 587.73 1509.50 597.39
  Q 1511.01 597.98 1512.38 596.71
  L 1518.89 590.70
  Q 1520.53 589.18 1520.75 591.48
  L 1524.25 629.00
  Q 1524.69 633.68 1521.56 629.69
  Q 1514.93 621.21 1506.94 614.13
  Q 1498.27 606.43 1490.52 602.83
  Q 1472.99 594.66 1452.75 600.25
  Q 1446.89 601.87 1442.67 605.41
  Q 1435.93 611.07 1438.56 619.19
  Q 1439.93 623.40 1444.31 626.19
  Q 1448.56 628.89 1455.60 630.24
  Q 1475.68 634.08 1495.76 637.95
  Q 1507.37 640.20 1517.46 646.32
  Q 1526.25 651.66 1529.00 660.60
  Q 1531.43 668.49 1528.65 676.85
  Q 1525.88 685.16 1518.69 690.69
  Q 1506.82 699.80 1490.84 702.00
  Q 1460.78 706.12 1432.97 694.45
  A 0.80 0.76 -54.1 0 0 1432.14 694.61
  Z"
/>
<path fill="none" stroke-width="1.00" stroke="#d9d9d9" vector-effect="non-scaling-stroke" d="
  M 649.08 593.11
  Q 648.38 592.40 649.28 591.67
  Q 649.72 591.31 650.46 591.31
  Q 676.70 591.16 702.94 591.31
  A 1.44 1.16 -19.6 0 1 703.83 591.62
  Q 705.28 592.92 702.78 593.71
  Q 699.53 594.73 696.37 595.96
  Q 690.48 598.23 688.75 604.00
  Q 687.83 607.05 687.74 611.25
  Q 687.14 638.50 687.69 665.75
  Q 687.93 677.50 695.30 684.43
  Q 701.05 689.84 711.60 691.63
  Q 720.73 693.17 729.91 691.71
  Q 738.92 690.28 744.36 686.38
  Q 751.06 681.57 753.75 673.25
  Q 756.03 666.20 755.85 657.25
  Q 755.48 638.44 755.75 633.75
  Q 756.35 623.49 755.48 613.25
  Q 754.65 603.48 746.18 598.82
  Q 741.14 596.04 735.69 594.22
  Q 734.65 593.88 734.14 593.30
  Q 732.93 591.96 734.69 591.43
  Q 735.28 591.25 736.33 591.25
  Q 757.04 591.25 777.75 591.24
  Q 779.82 591.24 779.21 592.80
  Q 778.95 593.47 778.09 594.04
  Q 776.27 595.24 774.45 596.46
  Q 768.79 600.27 767.31 606.56
  Q 766.50 610.01 766.45 615.25
  Q 766.25 634.37 766.25 653.50
  Q 766.25 660.78 765.45 666.75
  Q 764.49 673.89 761.93 679.45
  Q 755.85 692.61 742.19 698.19
  Q 729.97 703.18 716.11 703.07
  Q 706.22 702.99 698.42 701.62
  Q 689.14 699.99 681.56 695.44
  Q 671.09 689.14 667.06 678.44
  Q 664.26 671.00 664.26 661.50
  Q 664.25 637.38 664.25 613.25
  Q 664.25 609.37 663.18 604.52
  Q 661.77 598.13 655.56 595.69
  Q 652.32 594.41 650.40 593.79
  Q 649.43 593.47 649.08 593.11
  Z"
/>
<path fill="none" stroke-width="1.00" stroke="#d9d9d9" vector-effect="non-scaling-stroke" d="
  M 868.98 667.64
  Q 845.04 641.13 821.30 614.42
  Q 819.80 612.73 819.82 615.00
  Q 820.11 643.28 819.92 672.50
  Q 819.88 678.86 821.00 683.50
  Q 821.80 686.79 824.01 689.55
  Q 825.76 691.72 829.14 693.70
  Q 834.63 696.91 840.71 698.91
  A 1.67 1.32 -3.0 0 1 841.49 699.46
  Q 842.90 701.50 839.75 701.50
  Q 817.75 701.50 795.75 701.50
  A 1.44 1.16 -19.6 0 1 794.86 701.19
  Q 793.26 699.77 795.69 698.69
  Q 805.69 694.21 808.46 685.11
  Q 809.47 681.78 809.59 667.78
  Q 809.80 642.49 809.54 617.19
  Q 809.47 609.75 809.43 609.32
  Q 809.11 605.16 807.69 601.56
  Q 806.70 599.06 804.00 597.29
  Q 800.42 594.94 796.29 593.81
  A 1.70 1.31 -6.1 0 1 795.49 593.32
  Q 793.87 591.34 797.00 591.30
  Q 814.38 591.07 831.75 591.49
  A 1.18 1.17 69.2 0 1 832.59 591.87
  L 903.04 670.45
  Q 904.20 671.75 904.18 670.01
  Q 903.86 645.97 904.06 621.25
  Q 904.10 616.61 903.46 612.01
  Q 902.19 602.98 894.44 598.81
  Q 889.71 596.27 883.39 593.98
  Q 882.43 593.64 882.01 593.01
  Q 880.87 591.34 883.75 591.33
  Q 905.47 591.21 927.19 591.31
  A 1.10 0.98 -17.1 0 1 928.02 591.69
  Q 929.14 593.13 927.44 593.94
  Q 916.98 598.88 915.00 609.50
  Q 914.32 613.13 914.29 620.00
  Q 914.07 659.50 914.26 700.39
  A 1.07 1.03 -89.7 0 1 913.22 701.46
  L 899.74 701.28
  A 1.26 1.02 64.1 0 1 898.91 700.89
  Q 890.47 691.85 882.28 682.59
  Q 872.40 671.43 868.98 667.64
  Z"
/>
<path fill="none" stroke-width="1.00" stroke="#d9d9d9" vector-effect="non-scaling-stroke" d="
  M 944.69 593.56
  Q 942.77 592.84 944.17 591.62
  A 1.44 1.16 19.6 0 1 945.06 591.31
  L 995.93 591.31
  A 0.99 0.87 -14.3 0 1 996.73 591.72
  Q 997.89 593.56 995.50 594.00
  Q 985.65 595.83 983.25 605.00
  Q 982.77 606.83 982.73 612.25
  Q 982.50 644.38 982.50 676.50
  Q 982.50 682.21 983.26 686.59
  Q 984.14 691.63 987.03 694.48
  Q 990.34 697.75 995.30 698.67
  Q 996.37 698.87 996.96 699.25
  Q 998.87 700.49 996.79 701.26
  Q 996.14 701.50 995.19 701.50
  Q 970.47 701.50 945.75 701.25
  Q 942.90 701.22 944.49 699.58
  Q 944.97 699.09 945.79 698.84
  Q 949.04 697.87 950.00 697.50
  Q 957.59 694.59 958.56 686.06
  Q 959.25 680.04 959.25 677.75
  Q 959.25 647.00 959.30 616.25
  Q 959.31 608.98 958.00 603.75
  Q 957.01 599.80 953.08 597.22
  Q 951.21 596.00 944.69 593.56
  Z"
/>
<path fill="none" stroke-width="1.00" stroke="#d9d9d9" vector-effect="non-scaling-stroke" d="
  M 1078.21 682.33
  Q 1093.78 647.62 1109.47 612.24
  Q 1113.05 604.17 1105.94 599.56
  Q 1100.37 595.95 1093.43 594.16
  Q 1092.29 593.86 1091.77 593.50
  Q 1090.41 592.56 1091.82 591.53
  A 1.71 1.40 22.5 0 1 1092.75 591.25
  L 1134.93 591.31
  A 1.00 0.83 -13.3 0 1 1135.73 591.71
  Q 1136.59 593.08 1134.94 593.94
  Q 1127.43 597.81 1124.12 604.84
  Q 1101.65 652.52 1079.63 700.56
  A 1.59 1.55 -77.1 0 1 1078.19 701.49
  L 1062.17 701.45
  A 2.14 2.08 77.4 0 1 1060.26 700.20
  Q 1038.17 652.04 1016.50 605.53
  Q 1013.06 598.14 1006.07 594.11
  Q 1005.15 593.58 1004.77 593.01
  Q 1003.60 591.28 1006.25 591.25
  Q 1015.53 591.14 1053.19 591.31
  A 0.97 0.87 -14.6 0 1 1053.98 591.72
  Q 1054.98 593.32 1052.94 593.94
  Q 1049.00 595.13 1045.98 597.04
  Q 1043.01 598.92 1042.50 601.60
  Q 1041.95 604.49 1043.44 607.81
  Q 1060.12 645.09 1076.94 682.33
  Q 1077.58 683.74 1078.21 682.33
  Z"
/>
<path fill="none" stroke-width="1.00" stroke="#d9d9d9" vector-effect="non-scaling-stroke" d="
  M 1182.07 691.93
  Q 1199.53 691.61 1217.75 691.70
  Q 1231.56 691.77 1240.31 681.33
  Q 1247.34 672.94 1252.43 663.24
  Q 1253.15 661.86 1254.31 660.81
  Q 1256.26 659.05 1256.00 661.75
  L 1252.25 700.76
  A 0.91 0.89 2.8 0 1 1251.35 701.56
  Q 1197.66 701.45 1143.75 701.33
  Q 1141.48 701.33 1142.47 700.01
  A 4.14 4.12 12.7 0 1 1144.94 698.46
  Q 1153.99 696.65 1156.50 689.00
  Q 1157.75 685.19 1157.75 678.50
  Q 1157.75 646.38 1157.72 614.25
  Q 1157.71 609.57 1156.78 604.99
  Q 1155.55 598.92 1150.04 596.25
  Q 1146.97 594.76 1143.69 593.78
  Q 1142.77 593.51 1142.42 592.95
  Q 1141.82 592.01 1142.86 591.49
  Q 1143.34 591.25 1144.17 591.25
  Q 1196.84 591.25 1249.94 591.25
  A 1.02 1.01 87.2 0 1 1250.95 592.17
  Q 1252.60 609.66 1254.18 627.26
  Q 1254.27 628.21 1254.18 628.74
  Q 1253.92 630.34 1252.74 629.43
  Q 1252.33 629.13 1251.90 628.46
  Q 1249.68 625.07 1249.06 623.94
  Q 1244.47 615.53 1237.80 608.79
  Q 1234.62 605.58 1231.58 603.98
  Q 1227.88 602.04 1224.00 601.50
  Q 1220.71 601.04 1214.50 601.03
  Q 1198.38 601.00 1181.71 601.00
  A 0.71 0.71 0.0 0 0 1181.00 601.71
  L 1181.00 639.46
  A 0.79 0.79 0.0 0 0 1181.79 640.25
  Q 1192.87 640.25 1203.75 640.21
  Q 1210.51 640.18 1214.53 634.82
  Q 1219.79 627.79 1224.14 620.16
  Q 1224.96 618.73 1226.07 619.24
  A 0.90 0.74 -80.3 0 1 1226.51 620.00
  Q 1226.74 632.42 1226.75 664.75
  Q 1226.75 667.92 1226.38 669.88
  Q 1226.24 670.66 1225.76 670.90
  Q 1225.02 671.28 1224.38 670.15
  Q 1219.42 661.25 1214.19 654.56
  Q 1212.37 652.24 1209.66 650.96
  Q 1207.66 650.01 1204.17 649.91
  Q 1193.55 649.61 1181.78 649.77
  A 0.98 0.97 89.4 0 0 1180.82 650.76
  L 1180.98 690.85
  A 1.09 1.08 89.5 0 0 1182.07 691.93
  Z"
/>
<path fill="none" stroke-width="1.00" stroke="#d9d9d9" vector-effect="non-scaling-stroke" d="
  M 1358.76 644.98
  Q 1359.33 645.49 1360.24 645.53
  Q 1361.46 645.60 1361.74 645.66
  Q 1372.49 648.13 1378.69 656.31
  Q 1383.02 662.03 1386.93 671.06
  Q 1390.84 680.12 1395.41 688.85
  Q 1397.73 693.30 1400.27 695.20
  Q 1403.38 697.54 1407.69 698.81
  Q 1409.64 699.39 1408.71 701.02
  A 0.93 0.82 13.1 0 1 1407.93 701.44
  Q 1397.34 701.55 1386.75 701.46
  Q 1374.05 701.36 1369.47 689.76
  Q 1363.80 675.37 1358.01 661.03
  Q 1355.43 654.64 1349.86 651.71
  Q 1346.65 650.02 1340.33 649.75
  Q 1328.33 649.24 1315.34 649.53
  A 1.10 1.09 -0.5 0 0 1314.27 650.61
  Q 1314.07 667.50 1314.43 683.00
  Q 1314.73 696.27 1328.42 698.62
  A 3.98 3.97 -16.8 0 1 1330.67 699.82
  Q 1331.35 700.53 1330.47 701.27
  A 1.56 1.13 18.2 0 1 1329.56 701.56
  Q 1304.16 701.46 1278.76 701.50
  Q 1278.66 701.50 1277.25 701.58
  Q 1274.71 701.74 1276.27 699.47
  A 1.45 1.26 6.3 0 1 1277.05 698.93
  Q 1280.54 697.99 1282.94 696.94
  Q 1288.58 694.46 1289.94 688.19
  Q 1291.17 682.47 1291.13 674.00
  Q 1291.00 647.38 1291.00 620.75
  Q 1291.00 612.78 1290.14 606.75
  Q 1289.47 602.08 1287.26 599.48
  Q 1283.58 595.16 1277.00 594.00
  Q 1274.76 593.61 1275.80 591.74
  A 0.90 0.81 12.5 0 1 1276.57 591.31
  Q 1305.16 591.20 1333.75 591.06
  Q 1351.50 590.97 1367.00 594.25
  Q 1372.22 595.35 1378.59 598.38
  Q 1386.98 602.36 1390.67 610.07
  Q 1393.72 616.44 1392.56 622.77
  Q 1391.31 629.59 1385.44 634.44
  Q 1381.46 637.73 1376.69 639.69
  Q 1368.17 643.19 1358.99 644.25
  Q 1358.06 644.36 1358.76 644.98
  Z
  M 1314.91 639.81
  Q 1328.43 639.86 1341.93 639.59
  Q 1346.54 639.49 1349.55 638.96
  Q 1353.77 638.21 1356.94 636.94
  Q 1365.57 633.45 1367.18 625.14
  Q 1368.35 619.11 1366.65 613.92
  Q 1364.75 608.09 1358.59 605.01
  Q 1352.13 601.79 1346.50 601.50
  Q 1331.51 600.73 1315.10 601.03
  A 0.87 0.86 89.7 0 0 1314.25 601.90
  L 1314.18 639.08
  A 0.73 0.73 0.0 0 0 1314.91 639.81
  Z"
/>
<path fill="none" stroke-width="1.00" stroke="#d9d9d9" vector-effect="non-scaling-stroke" d="
  M 1544.94 593.81
  Q 1543.05 593.23 1544.02 591.71
  A 1.00 0.83 13.3 0 1 1544.82 591.31
  Q 1570.36 591.20 1595.91 591.25
  Q 1596.67 591.25 1597.07 591.39
  Q 1598.08 591.72 1597.68 592.54
  A 3.08 3.07 -83.3 0 1 1595.57 594.21
  Q 1586.54 596.19 1583.77 603.20
  Q 1583.07 604.97 1582.73 608.42
  Q 1582.56 610.20 1582.40 611.98
  Q 1582.25 613.70 1582.25 615.54
  Q 1582.25 645.14 1582.10 674.75
  Q 1582.07 680.44 1583.19 687.31
  Q 1584.24 693.81 1589.81 696.69
  Q 1591.77 697.70 1596.07 698.97
  Q 1597.04 699.26 1597.41 699.69
  Q 1598.01 700.39 1597.36 701.15
  A 1.24 0.94 15.2 0 1 1596.49 701.50
  L 1545.00 701.50
  A 1.32 0.90 -14.4 0 1 1544.12 701.18
  Q 1543.52 700.55 1543.93 699.82
  Q 1544.18 699.36 1544.89 699.10
  Q 1546.66 698.45 1548.46 697.89
  Q 1558.04 694.92 1558.75 684.75
  Q 1559.41 675.25 1559.05 634.58
  Q 1559.05 634.50 1559.19 623.42
  Q 1559.28 615.64 1558.45 607.90
  Q 1557.92 603.07 1556.64 600.85
  Q 1554.71 597.52 1550.84 595.87
  Q 1548.93 595.05 1544.94 593.81
  Z"
/>
<path fill="none" stroke-width="1.00" stroke="#d9d9d9" vector-effect="non-scaling-stroke" d="
  M 1629.81 609.06
  Q 1622.45 617.56 1615.31 630.06
  Q 1614.15 632.09 1613.01 630.42
  A 1.52 1.18 -65.1 0 1 1612.80 629.50
  L 1616.47 592.06
  A 0.90 0.89 -87.2 0 1 1617.36 591.25
  L 1726.47 591.25
  A 1.01 1.00 87.2 0 1 1727.47 592.16
  Q 1729.15 609.97 1730.91 628.11
  Q 1731.02 629.22 1730.89 629.89
  Q 1730.50 631.97 1728.98 630.44
  Q 1728.54 629.99 1728.04 629.10
  Q 1724.68 623.16 1718.06 613.94
  Q 1712.71 606.47 1705.19 603.17
  Q 1701.32 601.46 1695.04 601.15
  Q 1689.75 600.88 1684.59 600.99
  A 1.12 1.12 -0.8 0 0 1683.50 602.11
  Q 1683.50 640.75 1683.50 678.75
  Q 1683.50 680.63 1684.06 686.02
  Q 1684.76 692.86 1690.06 695.94
  Q 1693.20 697.76 1698.45 698.84
  Q 1699.50 699.06 1699.91 699.51
  Q 1700.51 700.19 1699.99 701.04
  A 1.00 0.83 13.3 0 1 1699.19 701.44
  Q 1672.75 701.55 1646.30 701.50
  Q 1646.23 701.50 1645.19 701.56
  Q 1643.14 701.69 1643.86 699.77
  A 1.02 0.91 1.4 0 1 1644.54 699.19
  Q 1649.41 697.98 1652.69 696.44
  Q 1658.52 693.70 1659.55 687.26
  Q 1660.49 681.42 1660.50 675.50
  Q 1660.54 639.50 1660.50 602.24
  A 1.18 1.18 1.0 0 0 1659.36 601.06
  Q 1652.96 600.83 1647.36 601.24
  Q 1641.84 601.66 1637.91 603.37
  Q 1632.84 605.57 1629.81 609.06
  Z"
/>
<path fill="none" stroke-width="1.00" stroke="#d9d9d9" vector-effect="non-scaling-stroke" d="
  M 1738.94 593.81
  Q 1736.66 592.55 1738.47 591.59
  Q 1739.10 591.25 1740.10 591.25
  Q 1763.93 591.25 1787.75 591.21
  Q 1789.89 591.21 1789.15 592.99
  A 1.26 1.04 -2.7 0 1 1788.47 593.61
  Q 1784.12 595.21 1782.19 596.69
  Q 1778.60 599.42 1780.26 603.74
  Q 1781.33 606.51 1783.12 608.90
  Q 1797.93 628.73 1812.57 648.70
  A 0.38 0.38 -44.7 0 0 1813.18 648.70
  Q 1826.11 631.13 1839.19 613.69
  Q 1840.49 611.95 1841.51 608.88
  Q 1843.43 603.08 1838.51 599.51
  Q 1833.49 595.87 1827.57 594.00
  Q 1826.58 593.69 1826.11 593.18
  Q 1825.05 592.06 1826.53 591.47
  Q 1827.08 591.25 1828.00 591.25
  Q 1848.25 591.25 1868.50 591.16
  Q 1873.53 591.14 1870.70 593.61
  Q 1870.11 594.13 1868.81 594.85
  Q 1860.05 599.74 1852.94 609.44
  Q 1835.00 633.89 1817.26 658.33
  Q 1816.28 659.69 1816.26 661.36
  Q 1816.12 673.26 1816.76 684.25
  Q 1816.98 687.96 1818.57 691.12
  Q 1820.09 694.14 1823.35 696.00
  Q 1827.09 698.12 1831.43 698.87
  Q 1832.51 699.06 1832.86 699.57
  Q 1833.32 700.25 1832.80 701.10
  A 1.00 0.83 13.3 0 1 1832.00 701.50
  L 1777.32 701.44
  A 0.96 0.78 -11.9 0 1 1776.53 701.03
  Q 1775.85 699.82 1777.46 699.26
  Q 1780.32 698.25 1783.21 697.36
  Q 1791.23 694.88 1792.50 686.50
  Q 1793.69 678.67 1793.28 664.41
  Q 1793.27 664.30 1793.35 662.60
  Q 1793.47 659.95 1791.50 657.25
  Q 1775.12 634.76 1758.70 612.30
  Q 1753.13 604.68 1750.07 601.81
  Q 1745.27 597.32 1738.94 593.81
  Z"
/>
<path fill="none" stroke-width="1.00" stroke="#d9d9d9" vector-effect="non-scaling-stroke" d="
  M 329.50 598.21
  L 332.96 604.75
  L 332.79 646.75
  Q 333.05 681.25 332.80 715.74
  Q 332.79 717.40 333.01 727.75
  Q 333.13 733.75 332.75 739.77
  Q 332.54 742.97 331.25 740.04
  L 278.00 619.54
  L 281.53 620.34
  A 1.58 1.25 33.3 0 0 282.45 620.26
  L 285.47 618.88
  Q 285.94 618.66 286.25 618.29
  Q 287.31 617.03 288.83 616.47
  A 1.70 1.25 35.8 0 1 289.79 616.46
  Q 293.45 617.52 296.43 615.13
  Q 296.67 614.95 297.32 614.85
  L 299.60 614.50
  A 1.09 0.66 -76.4 0 0 300.24 613.85
  Q 301.53 610.73 304.31 610.56
  Q 308.82 610.29 311.06 608.56
  Q 315.75 604.92 322.30 604.73
  Q 323.91 604.69 325.48 603.52
  L 328.81 601.05
  A 1.12 1.06 -34.5 0 0 329.12 599.60
  Q 328.25 598.22 329.50 598.21
  Z"
/>
<path fill="none" stroke-width="1.00" stroke="#d9d9d9" vector-effect="non-scaling-stroke" d="
  M 452.71 629.00
  L 399.15 743.74
  A 0.79 0.78 12.4 0 1 398.44 744.19
  L 333.00 744.21
  Q 334.53 743.91 333.43 743.71
  A 0.28 0.28 -73.6 0 1 333.22 743.32
  L 377.46 643.00
  L 377.56 644.25
  A 0.30 0.27 76.9 0 0 377.94 644.52
  Q 379.68 643.71 381.63 644.38
  A 1.85 1.83 -54.5 0 0 383.36 644.08
  Q 388.12 640.35 392.96 641.56
  A 1.48 1.18 33.0 0 0 393.89 641.47
  Q 395.62 640.55 396.59 638.76
  A 0.48 0.48 28.4 0 1 397.24 638.57
  Q 400.02 640.14 401.94 637.87
  Q 403.28 636.28 405.14 637.22
  Q 407.38 638.35 408.80 637.75
  A 0.81 0.64 79.2 0 0 409.19 637.00
  Q 409.11 635.65 410.28 635.15
  A 1.56 0.96 32.4 0 1 411.22 635.16
  L 414.28 636.11
  A 1.20 1.05 -48.8 0 0 415.18 635.99
  Q 417.12 634.85 419.28 634.43
  Q 422.69 633.76 423.49 633.51
  Q 429.99 631.45 436.74 630.45
  Q 440.45 629.90 445.50 627.75
  Q 447.45 626.92 449.41 628.16
  A 0.75 0.70 -45.0 0 0 450.21 628.13
  Q 451.67 627.15 452.71 629.00
  Z"
/>
</svg>
