<?xml version="1.0" encoding="UTF-8" standalone="no"?>
<svg width="142px" height="34px" viewBox="0 0 142 34" version="1.1" xmlns="http://www.w3.org/2000/svg" xmlns:xlink="http://www.w3.org/1999/xlink">
    <!-- Generator: Sketch 43.2 (39069) - http://www.bohemiancoding.com/sketch -->
    <title>Header</title>
    <desc>Created with Sketch.</desc>
    <defs></defs>
    <g id="Page-1" stroke="none" stroke-width="1" fill="none" fill-rule="evenodd">
        <g id="Desktop-HD" transform="translate(-37.000000, -43.000000)" fill="#D9D9D9">
            <path d="M51.1523438,65.1875 L51.1523438,66.6289062 C49.6640551,67.7539119 48.5742222,68.3164062 47.8828125,68.3164062 C47.484373,68.3164062 47.2089851,68.1845716 47.0566406,67.9208984 C46.9042961,67.6572252 46.7929691,67.1210978 46.7226562,66.3125 C45.023429,67.6484442 43.3359459,68.3164062 41.6601562,68.3164062 C40.4414002,68.3164062 39.4101605,67.9179727 38.5664062,67.1210938 C37.722652,66.3242148 37.3007812,65.3574276 37.3007812,64.2207031 C37.3007812,62.4628818 38.1152262,61.0771535 39.7441406,60.0634766 C41.373055,59.0497996 43.6992036,58.4667976 46.7226562,58.3144531 L46.7226562,56.2578125 C46.7226562,54.0546765 45.5273557,52.953125 43.1367188,52.953125 C41.6132736,52.953125 39.9668057,53.638665 38.1972656,55.0097656 L38.1972656,53.234375 C40.0253998,52.0859318 41.7656167,51.5117188 43.4179688,51.5117188 C44.8828198,51.5117188 46.089839,51.8720667 47.0390625,52.5927734 C47.988286,53.3134802 48.4628906,54.3593681 48.4628906,55.7304688 L48.4628906,65.8027344 C48.4628906,66.3535184 48.5917956,66.6289062 48.8496094,66.6289062 C49.177736,66.6289062 49.9453065,66.1484423 51.1523438,65.1875 Z M46.7226562,64.8007812 L46.7226562,59.7558594 C44.5078014,59.6738277 42.6709057,60.0634723 41.2119141,60.9248047 C39.7529224,61.7861371 39.0234375,62.8847589 39.0234375,64.2207031 C39.0234375,64.9707069 39.328122,65.603513 39.9375,66.1191406 C40.546878,66.6347682 41.3085892,66.8925781 42.2226562,66.8925781 C43.6992261,66.8925781 45.1992111,66.1953195 46.7226562,64.8007812 Z M58.6669922,61.8652344 C58.6669922,61.2617157 58.8837869,60.7446311 59.3173828,60.3139648 C59.7509787,59.8832986 60.2665986,59.6679688 60.8642578,59.6679688 C61.4619171,59.6679688 61.9775369,59.8832986 62.4111328,60.3139648 C62.8447287,60.7446311 63.0615234,61.2617157 63.0615234,61.8652344 C63.0615234,62.4628936 62.8447287,62.9770486 62.4111328,63.4077148 C61.9775369,63.8383811 61.4619171,64.0537109 60.8642578,64.0537109 C60.2665986,64.0537109 59.7509787,63.8383811 59.3173828,63.4077148 C58.8837869,62.9770486 58.6669922,62.4628936 58.6669922,61.8652344 Z M86.3789062,59.3164062 L73.6347656,59.3164062 C73.5996092,59.5976577 73.5820312,59.8789048 73.5820312,60.1601562 C73.5820312,61.9648528 74.2265561,63.4941344 75.515625,64.7480469 C76.8046939,66.0019594 78.3281162,66.6289062 80.0859375,66.6289062 C82.136729,66.6289062 84.1406152,65.8261799 86.0976562,64.2207031 L86.0976562,66.171875 C84.2460845,67.6015696 82.1718865,68.3164062 79.875,68.3164062 C77.5429571,68.3164062 75.615242,67.5078206 74.0917969,65.890625 C72.5683518,64.2734294 71.8066406,62.2168094 71.8066406,59.7207031 C71.8066406,57.3535038 72.5097586,55.3935625 73.9160156,53.8408203 C75.3222727,52.2880782 77.0917862,51.5117188 79.2246094,51.5117188 C81.2285256,51.5117188 82.9218681,52.2119071 84.3046875,53.6123047 C85.6875069,55.0127023 86.3789062,56.9140505 86.3789062,59.3164062 Z M73.8632812,57.9277344 L84.3398438,57.9277344 C83.7304657,54.7753749 82.0254046,53.1992188 79.2246094,53.1992188 C77.900384,53.1992188 76.7548876,53.6123006 75.7880859,54.4384766 C74.8212842,55.2646526 74.1796891,56.4277269 73.8632812,57.9277344 Z M94.9130859,61.8652344 C94.9130859,61.2617157 95.1298806,60.7446311 95.5634766,60.3139648 C95.9970725,59.8832986 96.5126923,59.6679688 97.1103516,59.6679688 C97.7080108,59.6679688 98.2236306,59.8832986 98.6572266,60.3139648 C99.0908225,60.7446311 99.3076172,61.2617157 99.3076172,61.8652344 C99.3076172,62.4628936 99.0908225,62.9770486 98.6572266,63.4077148 C98.2236306,63.8383811 97.7080108,64.0537109 97.1103516,64.0537109 C96.5126923,64.0537109 95.9970725,63.8383811 95.5634766,63.4077148 C95.1298806,62.9770486 94.9130859,62.4628936 94.9130859,61.8652344 Z M121.623047,51.828125 L121.623047,53.234375 L117.949219,53.234375 C119.437507,54.5937568 120.181641,56.02343 120.181641,57.5234375 C120.181641,58.8711005 119.891604,59.9374961 119.311523,60.7226562 C118.731442,61.5078164 118.040043,62.0790998 117.237305,62.4365234 C116.434566,62.7939471 115.365241,63.1455061 114.029297,63.4912109 C112.693353,63.8369158 111.85547,64.1621079 111.515625,64.4667969 C111.17578,64.7714859 111.005859,65.1230449 111.005859,65.5214844 C111.005859,65.9902367 111.225584,66.365233 111.665039,66.6464844 C112.104494,66.9277358 113.469715,67.1328119 115.760742,67.2617188 C118.051769,67.3906256 119.595699,67.8300744 120.392578,68.5800781 C121.189457,69.3300819 121.587891,70.3261657 121.587891,71.5683594 C121.587891,73.0332104 120.949225,74.1845661 119.671875,75.0224609 C118.394525,75.8603558 116.619152,76.2792969 114.345703,76.2792969 C112.083973,76.2792969 110.337897,75.883793 109.107422,75.0927734 C107.876947,74.3017539 107.261719,73.2558659 107.261719,71.9550781 C107.261719,69.8456926 108.832016,68.539065 111.972656,68.0351562 L111.972656,67.9648438 C110.226554,67.5546854 109.353516,66.787115 109.353516,65.6621094 C109.353516,64.5253849 110.43163,63.6464875 112.587891,63.0253906 L112.587891,62.9550781 C111.169915,62.533201 110.09473,61.8330127 109.362305,60.8544922 C108.629879,59.8759717 108.263672,58.7890685 108.263672,57.59375 C108.263672,55.8945228 108.855463,54.5087944 110.039062,53.4365234 C111.222662,52.3642525 112.921864,51.828125 115.136719,51.828125 L121.623047,51.828125 Z M114.205078,61.8828125 C115.388678,61.8828125 116.405269,61.4580121 117.254883,60.6083984 C118.104496,59.7587848 118.529297,58.7421934 118.529297,57.5585938 C118.529297,56.3749941 118.104496,55.364262 117.254883,54.5263672 C116.405269,53.6884724 115.376959,53.2695312 114.169922,53.2695312 C112.974603,53.2695312 111.966801,53.6796834 111.146484,54.5 C110.326168,55.3203166 109.916016,56.3164004 109.916016,57.4882812 C109.916016,58.7070373 110.332027,59.7441363 111.164062,60.5996094 C111.996098,61.4550824 113.00976,61.8828125 114.205078,61.8828125 Z M114.451172,74.8378906 C116.126962,74.8378906 117.459956,74.5507841 118.450195,73.9765625 C119.440435,73.4023409 119.935547,72.6464891 119.935547,71.7089844 C119.935547,69.8105374 118.218767,68.8613281 114.785156,68.8613281 C110.871074,68.8613281 108.914062,69.8574119 108.914062,71.8496094 C108.914062,73.8418068 110.759747,74.8378906 114.451172,74.8378906 Z M129.27832,61.8652344 C129.27832,61.2617157 129.495115,60.7446311 129.928711,60.3139648 C130.362307,59.8832986 130.877927,59.6679688 131.475586,59.6679688 C132.073245,59.6679688 132.588865,59.8832986 133.022461,60.3139648 C133.456057,60.7446311 133.672852,61.2617157 133.672852,61.8652344 C133.672852,62.4628936 133.456057,62.9770486 133.022461,63.4077148 C132.588865,63.8383811 132.073245,64.0537109 131.475586,64.0537109 C130.877927,64.0537109 130.362307,63.8383811 129.928711,63.4077148 C129.495115,62.9770486 129.27832,62.4628936 129.27832,61.8652344 Z M145.230469,43.4433594 L145.230469,46.3964844 L143.490234,46.3964844 L143.490234,43.4433594 L145.230469,43.4433594 Z M145.230469,51.828125 L145.230469,68 L143.490234,68 L143.490234,51.828125 L145.230469,51.828125 Z M155.047852,61.8652344 C155.047852,61.2617157 155.264646,60.7446311 155.698242,60.3139648 C156.131838,59.8832986 156.647458,59.6679688 157.245117,59.6679688 C157.842776,59.6679688 158.358396,59.8832986 158.791992,60.3139648 C159.225588,60.7446311 159.442383,61.2617157 159.442383,61.8652344 C159.442383,62.4628936 159.225588,62.9770486 158.791992,63.4077148 C158.358396,63.8383811 157.842776,64.0537109 157.245117,64.0537109 C156.647458,64.0537109 156.131838,63.8383811 155.698242,63.4077148 C155.264646,62.9770486 155.047852,62.4628936 155.047852,61.8652344 Z M177.873047,52.8828125 L177.873047,54.7460938 C176.232414,53.6445257 174.755866,53.09375 173.443359,53.09375 C172.470698,53.09375 171.650394,53.3574192 170.982422,53.8847656 C170.31445,54.412112 169.980469,55.0624961 169.980469,55.8359375 C169.980469,56.3867215 170.182615,56.8935524 170.586914,57.3564453 C170.991213,57.8193383 172.110342,58.4023402 173.944336,59.1054688 C175.778329,59.8085973 176.97656,60.5410118 177.539062,61.3027344 C178.101565,62.0644569 178.382812,62.9140578 178.382812,63.8515625 C178.382812,65.105475 177.873052,66.1630816 176.853516,67.0244141 C175.833979,67.8857465 174.574226,68.3164062 173.074219,68.3164062 C171.445304,68.3164062 169.828133,67.8242237 168.222656,66.8398438 L168.222656,65.1523438 C170.132822,66.1367237 171.826164,66.6289062 173.302734,66.6289062 C174.298833,66.6289062 175.116208,66.365237 175.754883,65.8378906 C176.393558,65.3105442 176.712891,64.6367229 176.712891,63.8164062 C176.712891,63.2539034 176.504885,62.7353539 176.088867,62.2607422 C175.672849,61.7861304 174.547861,61.1855505 172.713867,60.4589844 C170.879874,59.7324182 169.690432,59.014652 169.145508,58.3056641 C168.600583,57.5966761 168.328125,56.8085981 168.328125,55.9414062 C168.328125,54.7109313 168.834956,53.6650434 169.848633,52.8037109 C170.86231,51.9423785 172.095696,51.5117188 173.548828,51.5117188 C174.873053,51.5117188 176.314445,51.9687454 177.873047,52.8828125 Z" id="Header"></path>
        </g>
    </g>
</svg>